M48
;Layer_Color=6321
;FILE_FORMAT=2:5
INCH,LZ
;TYPE=PLATED
T1F00S00C0.01181
T2F00S00C0.02362
T3F00S00C0.03937
T5F00S00C0.04016
T6F00S00C0.04094
T7F00S00C0.04256
T8F00S00C0.04331
T9F00S00C0.12598
%
T01
X0167559Y0409894
Y0419737
Y0429579
Y0439422
Y0449264
Y0459107
X0174449Y0403005
X0184291
X0194134
X0203976
X0233504
X0243347
X0253189
X0263032
X0272874
X0282716
X0292559
X0302402
X0312244
X0283898Y0459894
X0244921Y0457138
X0322087Y0403005
X0331929
X0341772
X0351614
X0361457
X0371299
X0381142
X0390984
X0400827
X0410669
X0420512
X0425433Y0413831
X0431339Y0439422
Y0449264
Y0459107
X0404764Y0453201
Y049454
X0431339Y0498477
Y050832
Y0518162
Y0528005
X0427402Y0553595
X0421496Y0591981
Y0604776
X041559Y0606745
X0405748
X0395905
X0386063
X037622
X0366378
X0356535
X0346693
X033685
X0327008
X0317165
X0317362Y0576627
X033626Y0592965
X0358307Y0592178
X0361063Y0570524
X0380157Y0573674
X0385472Y057643
X038311Y0592572
X0338622Y0548871
X0335472Y0551233
Y0542178
X0338622Y0540603
X0337441Y0534697
X0336653Y0492572
X0339803Y0487847
Y0478792
X0336653Y0481942
X0300039Y0518162
Y0528005
X0305157Y0570918
X0311457Y0573674
X0307323Y0606745
X029748
X0287638
X0277795
X0267953
X025811
X0248268
X0238425
X0208898
X0199055
X0189213
X017937
X0167559
Y0596902
Y058706
Y0577217
Y0567375
Y0557532
Y054769
Y0537847
Y0528005
Y0518162
Y050832
Y0498477
Y0488635
Y0478792
Y046895
T02
X0192606Y0453052
X0216606Y0463052
X0262638Y0466194
Y0458713
X0273268Y044139
X0263425Y0430367
X0256339
X0249252
X0238228Y0434304
X0311457Y0433516
X0297606Y0460052
X0286606Y0468052
X0312606Y0454052
X0319331Y0433516
X0332323Y0467375
X0359606Y0448052
X0382606Y0452052
X0391606Y0437052
X0415606Y0468052
X042563Y0461469
X0414606Y0490052
X0397606Y0498052
X0406606Y0518052
X0412606Y0530052
X0416575Y0556351
X0404606Y0562052
Y0584052
X0388228Y0570524
X0378386Y0563438
X0366181Y0563438
X0352606Y0563052
X0340984Y056265
X0333606Y0530052
X0314606Y0529579
Y0516587
X0326811Y0510288
X0337047
X0348606Y0516052
X0365394Y0516587
X0370905Y0522099
X0376417Y0513438
X0378386Y0531154
X0353583Y0529186
X0352606Y0498052
X0316606Y0499052
X0339606Y0471052
X0372677Y0477217
X0382606Y0471052
X031815Y0582729
X0312606Y0593052
X0302606Y0582052
X024689Y0583516
Y0590209
Y057643
X0232606Y0563052
X0211606
Y0523052
X0237606
X0252606
X0266968Y052328
X0262638Y0479186
Y0472887
X0297606Y0483052
X0307606Y0477052
T03
X0364606Y042328
X0374606
X0392559
X0402559
X0415106Y0499852
Y0509852
Y0519852
X0425106
Y0509852
Y0499852
X0414606Y0600052
X0404606
X0394606
X0384606
X0374606
X0364606
X0354606
X0344606
X0328606
X0318606
X0324449Y0542178
X0324843Y0481942
X0308606Y0600052
X0298606
X0288606
X0278606
X0268606
X0258606
X0248606
X0238606
T05
X0274606Y0410052
X0284606
X0294606
X0304606
X0314606
X0324606
X0334606
X0344606
T06
X0364606Y0410052
X0374606
X0384606
X0394606
X0404606
X0414606
X0276575Y0492572
Y0502572
Y0512572
X0266575
Y0502572
Y0492572
X0266181Y0534304
X0276181
Y0544304
Y0554304
Y0564304
X0266181
Y0554304
Y0544304
T07
X0334685Y042328
X0344685
T08
X0178386Y0492178
X0188386
X0218386
X0228386
X0238386
X0248386
Y0536666
X0238386
X0228386
X0218386
X0188386
X0178386
T09
X0219606Y0410052
X0424606Y0430052
Y0540052
X0224606Y0600052
M30
