M48
;Layer_Color=6321
;FILE_FORMAT=4:4
METRIC,LZ
;TYPE=PLATED
T1F00S00C0.2500
T2F00S00C0.3000
T3F00S00C0.3048
T4F00S00C0.4000
T5F00S00C0.5000
T6F00S00C0.7000
T7F00S00C0.7112
T8F00S00C0.8600
T9F00S00C0.9000
T11F00S00C1.0200
T12F00S00C1.0400
T13F00S00C1.0810
T14F00S00C2.0000
%
T01
X006301Y01061132
X006231Y01081132
X006381
X008431Y01182132
X008421Y01217132
X008371Y01223132
X008341Y01229132
X008371Y01235132
X008071Y01232132
X008766Y01207055
X00937036Y01209893
X009361Y01285456
X008751Y01381132
X008671Y01381632
X008441Y01390132
X008491Y01403132
X006371Y01214132
X006011Y01240132
T02
X004271Y01074132
Y01123132
X004761Y01120132
X004901Y01125132
X004951Y01140132
X005151
X005241Y01152132
X005251Y01128132
X005391Y01164132
X004841Y01154132
X004901Y01091132
X005071Y01080132
X004631Y01088132
X005041Y01024732
X005471
X005901
X005961Y01044132
X006151
Y01058132
X006331Y01024732
X006761
X007191
X007621
X007411Y01121382
X007491Y01159382
X007876Y01121632
X006221Y01151132
Y01162132
X006001Y01151132
X005961Y01174132
X004271Y01175132
X008131Y01170132
X008311Y01157132
X008541Y01158132
X008841Y01174132
X008931Y01165132
X008911Y01024732
X008481
X008051
X009341
X009771
X010201
X010631
X011061
X011491
X010511Y01153132
X012301Y01135132
X012386Y01118632
X012691Y01119132
Y01075132
X011921Y01024732
X01229Y01185732
X012396Y01201632
X012691Y01201132
Y01228132
Y01281132
Y01333132
Y01387132
Y01440132
Y01488132
X011921Y01540732
X011491
X011061
X010631
X010201
X009771
X009341
X008911
X008481
X008051
X008571Y01291132
Y01278132
X008641Y01282132
X00877068Y01278723
X008901Y01282456
X0088535Y01254206
X00861828Y01254085
X0086135Y01230956
X0088485Y01230706
X0091085Y01242706
X009521Y01254132
X009781Y01224956
X009221Y01317132
X008311Y01240622
X008301Y01211132
X008131Y01224132
X00566914Y01240443
X005471Y01253132
X005131Y01261132
X005151Y01278132
Y01286132
X00507664Y01292132
X005191Y01329132
X005071Y01347132
X004261Y01333132
Y01281132
X004271Y01228132
X004861Y01237132
X004261Y01387132
Y01439132
Y01487132
X005041Y01540732
X005471
X005901
X006331
X006761
X007191
X007621
X0063535Y01480882
T03
X0051185Y01227382
T04
X009931Y01226132
X009811Y01261305
T05
X011291Y01171132
Y01183132
X012061Y01219132
X012331
X012521Y01224132
X012571Y01246132
Y01271132
Y01297132
X012571Y01323132
Y01345132
X011751Y01333956
X011831Y01322132
X011831Y01297132
Y01272132
Y01246132
X011871Y01224132
X01096267Y01233132
X01105267Y01242132
X010561Y01336956
T06
X009981Y01352956
T07
X007961Y01353132
X011051
X011211
X007821
X007751Y01435132
X007411Y01446132
X007101
X006771Y01435132
X005911Y01392132
X006061Y01374132
X005911Y01355132
X004761Y01379132
X004941Y01400132
T08
X009521Y01066932
X009775
X010029
X010283
T09
X004881Y01052132
T11
X007341Y01051332
Y01076732
Y01102132
X007801
Y01076732
Y01051332
X008505Y01041532
X008759
X009013
X009267
X009521
X009775
X010029
X010283
X006411Y01378332
Y01403732
Y01429132
T12
X010791Y01041532
Y01066932
X011045
X011299
X011553
X011807
Y01041532
X011553
X011299
X011045
X012061
Y01066932
Y01246332
X012315
Y01271732
Y01297132
X012061
Y01271732
Y01498732
Y01524132
X011807
Y01498732
X011553
X011299
X011045
X010791
X010537
X010283
Y01524132
X010537
X010791
X011045
X011299
X011553
X009821
X009567
Y01498732
X009313
X009059
X008805
X008551
X008297
X008043
Y01524132
X008297
X008551
X008805
X009059
X009313
X009821Y01498732
T13
X010591Y01106132
X010845
X011291
X011545
X0076862Y01524132
X0074322
T14
X004441Y01040132
X012531Y01041132
Y01523132
X004431Y01524132
M30
