G04 Layer_Color=8150272*
%FSLAX43Y43*%
%MOMM*%
G71*
G01*
G75*
%ADD64C,0.100*%
%ADD110R,4.115X1.575*%
%ADD119C,0.651*%
%ADD134C,1.851*%
%ADD135C,1.601*%
%ADD136R,1.601X1.601*%
%ADD137R,1.601X1.601*%
%ADD138C,1.651*%
%ADD139R,1.651X1.651*%
%ADD140O,2.051X1.251*%
%ADD141R,1.551X3.551*%
%ADD142R,3.551X1.551*%
%ADD143R,4.051X1.551*%
%ADD144C,1.451*%
%ADD145R,1.451X1.451*%
%ADD146C,4.051*%
D64*
X41810Y154913D02*
X127810D01*
Y101613D02*
Y154913D01*
X41810Y101613D02*
Y154913D01*
Y101613D02*
X127810D01*
D110*
X125610Y118553D02*
D03*
Y113473D02*
D03*
D119*
X88485Y123071D02*
D03*
X86135Y123096D02*
D03*
X86183Y125408D02*
D03*
X88535Y125421D02*
D03*
D134*
X48810Y105213D02*
D03*
D135*
X78010Y105133D02*
D03*
Y107673D02*
D03*
X73410Y105133D02*
D03*
Y107673D02*
D03*
X64110Y137833D02*
D03*
Y140373D02*
D03*
X123150Y127173D02*
D03*
Y124633D02*
D03*
Y129713D02*
D03*
X120610Y124633D02*
D03*
Y127173D02*
D03*
X102830Y149873D02*
D03*
X105370D02*
D03*
X107910D02*
D03*
X110450D02*
D03*
X112990D02*
D03*
X115530D02*
D03*
X118070D02*
D03*
X102830Y152413D02*
D03*
X105370D02*
D03*
X107910D02*
D03*
X110450D02*
D03*
X112990D02*
D03*
X115530D02*
D03*
X118070D02*
D03*
X120610Y149873D02*
D03*
X80430D02*
D03*
X82970D02*
D03*
X85510D02*
D03*
X88050D02*
D03*
X90590D02*
D03*
X93130D02*
D03*
X95670D02*
D03*
X80430Y152413D02*
D03*
X82970D02*
D03*
X85510D02*
D03*
X88050D02*
D03*
X90590D02*
D03*
X93130D02*
D03*
X95670D02*
D03*
X98210Y149873D02*
D03*
X87590Y104153D02*
D03*
X90130D02*
D03*
X92670D02*
D03*
X95210D02*
D03*
X97750D02*
D03*
X100290D02*
D03*
X102830D02*
D03*
X120610Y106693D02*
D03*
X118070D02*
D03*
X115530D02*
D03*
X112990D02*
D03*
X110450D02*
D03*
X107910D02*
D03*
X120610Y104153D02*
D03*
X118070D02*
D03*
X115530D02*
D03*
X112990D02*
D03*
X110450D02*
D03*
D136*
X78010Y110213D02*
D03*
X73410D02*
D03*
X64110Y142913D02*
D03*
X120610Y129713D02*
D03*
D137*
Y152413D02*
D03*
X98210D02*
D03*
X85050Y104153D02*
D03*
X107910D02*
D03*
D138*
X76862Y152413D02*
D03*
X115450Y110613D02*
D03*
X108450D02*
D03*
D139*
X74322Y152413D02*
D03*
X112910Y110613D02*
D03*
X105910D02*
D03*
D140*
X99810Y135296D02*
D03*
D141*
X48910Y144913D02*
D03*
D142*
X53610Y147913D02*
D03*
D143*
Y141913D02*
D03*
D144*
X102830Y106693D02*
D03*
X97750D02*
D03*
X100290D02*
D03*
D145*
X95210D02*
D03*
D146*
X125310Y104113D02*
D03*
X44310Y152413D02*
D03*
X125310Y152313D02*
D03*
X44410Y104013D02*
D03*
M02*
