G04 Layer_Physical_Order=3*
G04 Layer_Color=56745*
%FSLAX43Y43*%
%MOMM*%
G71*
G01*
G75*
%ADD35C,0.600*%
%ADD51C,0.500*%
%ADD52C,1.016*%
%ADD53C,0.300*%
%ADD56C,0.750*%
%ADD64C,0.100*%
%ADD66C,1.550*%
%ADD71O,2.000X1.200*%
%ADD77C,1.270*%
%ADD79C,0.500*%
%ADD81C,1.000*%
%ADD82C,0.800*%
G36*
X113410Y122113D02*
Y118013D01*
X112410Y118013D01*
X112410Y119713D01*
X109010Y123113D01*
Y123413D01*
X110410Y124813D01*
X110710D01*
X113410Y122113D01*
D02*
G37*
G36*
X100110Y126413D02*
Y122613D01*
X99610Y122113D01*
X99110Y122113D01*
X98610Y122613D01*
X98610Y124813D01*
X94310Y129113D01*
X87310D01*
X86610Y128413D01*
X86410D01*
X86410Y129113D01*
X85910Y129613D01*
X82410Y129613D01*
X75910Y123113D01*
Y109113D01*
X74010Y107213D01*
X73210Y107913D01*
X74710Y109413D01*
X74710Y123813D01*
X75410Y124513D01*
X81910Y131013D01*
X95510D01*
X100110Y126413D01*
D02*
G37*
G36*
X93810Y128613D02*
Y120413D01*
Y116613D01*
X84310Y107113D01*
X78410D01*
Y108213D01*
X83610D01*
X91610Y116213D01*
Y120813D01*
X88710Y123713D01*
X88310Y123713D01*
X87660Y123063D01*
X87010Y123713D01*
X84310Y123713D01*
X83910Y124113D01*
X83210Y124513D01*
X83410Y124713D01*
X86610D01*
X87210Y125313D01*
Y127713D01*
X87510Y128013D01*
X87810D01*
X88010Y127813D01*
X87910Y127713D01*
X87910Y125113D01*
X88310Y124713D01*
X89410Y124713D01*
X90410Y123713D01*
X91310D01*
X91710Y124113D01*
Y125713D01*
X92510Y126513D01*
X92510Y127713D01*
X93410Y128613D01*
X93810Y128613D01*
D02*
G37*
D35*
X74910Y115938D02*
D03*
X87707Y127872D02*
D03*
X83110Y124062D02*
D03*
X86410Y128213D02*
D03*
X81310Y122413D02*
D03*
D51*
X93181Y121512D02*
X93704Y120989D01*
X92010Y121512D02*
X93181D01*
X93610Y121083D02*
Y128546D01*
X92010Y115713D02*
Y121512D01*
X89210Y124312D02*
X92010Y121512D01*
X75610Y115963D02*
Y123413D01*
Y109873D02*
Y115963D01*
X74910Y115938D02*
X74935Y115963D01*
X75610D01*
X87660Y120705D02*
X87707Y120752D01*
X83110Y124062D02*
X83360Y124312D01*
X87707D01*
X89210D01*
X87707Y120752D02*
Y124312D01*
Y127872D01*
X94927Y129313D02*
X98110Y126131D01*
X86410Y129313D02*
X94927D01*
X86410Y128213D02*
Y129313D01*
Y129613D01*
X86110Y129913D02*
X86410Y129613D01*
X98110Y126131D02*
X99310Y124931D01*
Y122613D02*
Y124931D01*
X82110Y129913D02*
X86110D01*
X75610Y123413D02*
X82110Y129913D01*
X73410Y107673D02*
X75610Y109873D01*
X78010Y107673D02*
X83970D01*
X92010Y115713D01*
X92950Y106413D02*
X95210Y104153D01*
X79290Y106413D02*
X92950D01*
X78010Y105133D02*
X79290Y106413D01*
X91310Y105513D02*
X92670Y104153D01*
X81310Y105513D02*
X91310D01*
X79310Y103513D02*
X81310Y105513D01*
X75030Y103513D02*
X79310D01*
X73410Y105133D02*
X75030Y103513D01*
X81310Y122413D02*
X81461D01*
X83110Y124062D01*
D52*
X99810Y135296D02*
X112210D01*
X78110Y135313D02*
X78128Y135296D01*
X112910Y118313D02*
Y120030D01*
X109627Y123313D02*
X112910Y120030D01*
X109627Y123313D02*
X110527Y124213D01*
X112910Y117113D02*
Y118313D01*
X78128Y135296D02*
X99810D01*
D53*
X63010Y106113D02*
Y108113D01*
X62310D02*
X63010D01*
X63810D01*
D56*
X98093Y126131D02*
X98110D01*
D64*
X41810Y154913D02*
X127810D01*
Y101613D02*
Y154913D01*
X41810Y101613D02*
Y154913D01*
Y101613D02*
X127810D01*
D66*
X78010Y105133D02*
D03*
Y107673D02*
D03*
X73410Y105133D02*
D03*
Y107673D02*
D03*
X92670Y104153D02*
D03*
X95210D02*
D03*
D71*
X99810Y135296D02*
D03*
D77*
X110510Y135313D02*
D03*
X112110D02*
D03*
X78210D02*
D03*
X79610D02*
D03*
D79*
X87660Y120705D02*
D03*
X93610Y128546D02*
D03*
X93704Y120989D02*
D03*
X63810Y108113D02*
D03*
X62310D02*
D03*
X63010Y106113D02*
D03*
D81*
X109627Y123313D02*
D03*
X110527Y124213D02*
D03*
X112910Y118313D02*
D03*
Y117113D02*
D03*
D82*
X98110Y126131D02*
D03*
X99310Y122613D02*
D03*
M02*
