G04 Layer_Physical_Order=1*
G04 Layer_Color=11767835*
%FSLAX43Y43*%
%MOMM*%
G71*
G01*
G75*
%ADD10C,0.254*%
G04:AMPARAMS|DCode=11|XSize=0.6mm|YSize=2.2mm|CornerRadius=0.135mm|HoleSize=0mm|Usage=FLASHONLY|Rotation=0.000|XOffset=0mm|YOffset=0mm|HoleType=Round|Shape=RoundedRectangle|*
%AMROUNDEDRECTD11*
21,1,0.600,1.930,0,0,0.0*
21,1,0.330,2.200,0,0,0.0*
1,1,0.270,0.165,-0.965*
1,1,0.270,-0.165,-0.965*
1,1,0.270,-0.165,0.965*
1,1,0.270,0.165,0.965*
%
%ADD11ROUNDEDRECTD11*%
G04:AMPARAMS|DCode=12|XSize=1.016mm|YSize=0.508mm|CornerRadius=0mm|HoleSize=0mm|Usage=FLASHONLY|Rotation=180.010|XOffset=0mm|YOffset=0mm|HoleType=Round|Shape=Rectangle|*
%AMROTATEDRECTD12*
4,1,4,0.508,0.254,0.508,-0.254,-0.508,-0.254,-0.508,0.254,0.508,0.254,0.0*
%
%ADD12ROTATEDRECTD12*%

G04:AMPARAMS|DCode=13|XSize=3.4mm|YSize=8.61mm|CornerRadius=0mm|HoleSize=0mm|Usage=FLASHONLY|Rotation=180.010|XOffset=0mm|YOffset=0mm|HoleType=Round|Shape=Rectangle|*
%AMROTATEDRECTD13*
4,1,4,1.699,4.305,1.701,-4.305,-1.699,-4.305,-1.701,4.305,1.699,4.305,0.0*
%
%ADD13ROTATEDRECTD13*%

%ADD14R,1.800X0.600*%
G04:AMPARAMS|DCode=15|XSize=0.7mm|YSize=1.1mm|CornerRadius=0.07mm|HoleSize=0mm|Usage=FLASHONLY|Rotation=0.000|XOffset=0mm|YOffset=0mm|HoleType=Round|Shape=RoundedRectangle|*
%AMROUNDEDRECTD15*
21,1,0.700,0.960,0,0,0.0*
21,1,0.560,1.100,0,0,0.0*
1,1,0.140,0.280,-0.480*
1,1,0.140,-0.280,-0.480*
1,1,0.140,-0.280,0.480*
1,1,0.140,0.280,0.480*
%
%ADD15ROUNDEDRECTD15*%
G04:AMPARAMS|DCode=16|XSize=0.7mm|YSize=1.8mm|CornerRadius=0.07mm|HoleSize=0mm|Usage=FLASHONLY|Rotation=0.000|XOffset=0mm|YOffset=0mm|HoleType=Round|Shape=RoundedRectangle|*
%AMROUNDEDRECTD16*
21,1,0.700,1.660,0,0,0.0*
21,1,0.560,1.800,0,0,0.0*
1,1,0.140,0.280,-0.830*
1,1,0.140,-0.280,-0.830*
1,1,0.140,-0.280,0.830*
1,1,0.140,0.280,0.830*
%
%ADD16ROUNDEDRECTD16*%
G04:AMPARAMS|DCode=17|XSize=0.2mm|YSize=0.95mm|CornerRadius=0.075mm|HoleSize=0mm|Usage=FLASHONLY|Rotation=90.002|XOffset=0mm|YOffset=0mm|HoleType=Round|Shape=RoundedRectangle|*
%AMROUNDEDRECTD17*
21,1,0.200,0.800,0,0,90.0*
21,1,0.050,0.950,0,0,90.0*
1,1,0.150,0.400,0.025*
1,1,0.150,0.400,-0.025*
1,1,0.150,-0.400,-0.025*
1,1,0.150,-0.400,0.025*
%
%ADD17ROUNDEDRECTD17*%
G04:AMPARAMS|DCode=18|XSize=0.2mm|YSize=0.95mm|CornerRadius=0.075mm|HoleSize=0mm|Usage=FLASHONLY|Rotation=0.002|XOffset=0mm|YOffset=0mm|HoleType=Round|Shape=RoundedRectangle|*
%AMROUNDEDRECTD18*
21,1,0.200,0.800,0,0,0.0*
21,1,0.050,0.950,0,0,0.0*
1,1,0.150,0.025,-0.400*
1,1,0.150,-0.025,-0.400*
1,1,0.150,-0.025,0.400*
1,1,0.150,0.025,0.400*
%
%ADD18ROUNDEDRECTD18*%
G04:AMPARAMS|DCode=19|XSize=3.5mm|YSize=3.5mm|CornerRadius=0.525mm|HoleSize=0mm|Usage=FLASHONLY|Rotation=90.002|XOffset=0mm|YOffset=0mm|HoleType=Round|Shape=RoundedRectangle|*
%AMROUNDEDRECTD19*
21,1,3.500,2.450,0,0,90.0*
21,1,2.450,3.500,0,0,90.0*
1,1,1.050,1.225,1.225*
1,1,1.050,1.225,-1.225*
1,1,1.050,-1.225,-1.225*
1,1,1.050,-1.225,1.225*
%
%ADD19ROUNDEDRECTD19*%
G04:AMPARAMS|DCode=20|XSize=0.6mm|YSize=2.2mm|CornerRadius=0.135mm|HoleSize=0mm|Usage=FLASHONLY|Rotation=90.000|XOffset=0mm|YOffset=0mm|HoleType=Round|Shape=RoundedRectangle|*
%AMROUNDEDRECTD20*
21,1,0.600,1.930,0,0,90.0*
21,1,0.330,2.200,0,0,90.0*
1,1,0.270,0.965,0.165*
1,1,0.270,0.965,-0.165*
1,1,0.270,-0.965,-0.165*
1,1,0.270,-0.965,0.165*
%
%ADD20ROUNDEDRECTD20*%
G04:AMPARAMS|DCode=21|XSize=0.45mm|YSize=0.9mm|CornerRadius=0.045mm|HoleSize=0mm|Usage=FLASHONLY|Rotation=90.002|XOffset=0mm|YOffset=0mm|HoleType=Round|Shape=RoundedRectangle|*
%AMROUNDEDRECTD21*
21,1,0.450,0.810,0,0,90.0*
21,1,0.360,0.900,0,0,90.0*
1,1,0.090,0.405,0.180*
1,1,0.090,0.405,-0.180*
1,1,0.090,-0.405,-0.180*
1,1,0.090,-0.405,0.180*
%
%ADD21ROUNDEDRECTD21*%
G04:AMPARAMS|DCode=22|XSize=2mm|YSize=2mm|CornerRadius=0.1mm|HoleSize=0mm|Usage=FLASHONLY|Rotation=90.002|XOffset=0mm|YOffset=0mm|HoleType=Round|Shape=RoundedRectangle|*
%AMROUNDEDRECTD22*
21,1,2.000,1.800,0,0,90.0*
21,1,1.800,2.000,0,0,90.0*
1,1,0.200,0.900,0.900*
1,1,0.200,0.900,-0.900*
1,1,0.200,-0.900,-0.900*
1,1,0.200,-0.900,0.900*
%
%ADD22ROUNDEDRECTD22*%
%ADD23R,0.900X1.000*%
%ADD24R,0.800X0.800*%
%ADD25R,1.000X0.900*%
%ADD26R,4.064X1.524*%
%ADD27R,0.950X1.350*%
%ADD28R,1.800X1.150*%
%ADD29R,0.850X1.300*%
%ADD30R,1.450X3.450*%
G04:AMPARAMS|DCode=31|XSize=1.35mm|YSize=0.95mm|CornerRadius=0mm|HoleSize=0mm|Usage=FLASHONLY|Rotation=270.010|XOffset=0mm|YOffset=0mm|HoleType=Round|Shape=Rectangle|*
%AMROTATEDRECTD31*
4,1,4,-0.475,0.675,0.475,0.675,0.475,-0.675,-0.475,-0.675,-0.475,0.675,0.0*
%
%ADD31ROTATEDRECTD31*%

G04:AMPARAMS|DCode=32|XSize=1.35mm|YSize=0.95mm|CornerRadius=0mm|HoleSize=0mm|Usage=FLASHONLY|Rotation=180.010|XOffset=0mm|YOffset=0mm|HoleType=Round|Shape=Rectangle|*
%AMROTATEDRECTD32*
4,1,4,0.675,0.475,0.675,-0.475,-0.675,-0.475,-0.675,0.475,0.675,0.475,0.0*
%
%ADD32ROTATEDRECTD32*%

%ADD33O,1.700X0.450*%
%ADD34R,0.900X0.700*%
%ADD35C,0.600*%
%ADD36R,1.150X1.800*%
%ADD37R,1.150X1.450*%
%ADD38R,1.450X1.150*%
G04:AMPARAMS|DCode=39|XSize=1.803mm|YSize=2.21mm|CornerRadius=0.406mm|HoleSize=0mm|Usage=FLASHONLY|Rotation=180.000|XOffset=0mm|YOffset=0mm|HoleType=Round|Shape=RoundedRectangle|*
%AMROUNDEDRECTD39*
21,1,1.803,1.398,0,0,180.0*
21,1,0.992,2.210,0,0,180.0*
1,1,0.812,-0.496,0.699*
1,1,0.812,0.496,0.699*
1,1,0.812,0.496,-0.699*
1,1,0.812,-0.496,-0.699*
%
%ADD39ROUNDEDRECTD39*%
G04:AMPARAMS|DCode=40|XSize=0.914mm|YSize=1.27mm|CornerRadius=0.073mm|HoleSize=0mm|Usage=FLASHONLY|Rotation=270.000|XOffset=0mm|YOffset=0mm|HoleType=Round|Shape=RoundedRectangle|*
%AMROUNDEDRECTD40*
21,1,0.914,1.124,0,0,270.0*
21,1,0.768,1.270,0,0,270.0*
1,1,0.146,-0.562,-0.384*
1,1,0.146,-0.562,0.384*
1,1,0.146,0.562,0.384*
1,1,0.146,0.562,-0.384*
%
%ADD40ROUNDEDRECTD40*%
G04:AMPARAMS|DCode=41|XSize=0.711mm|YSize=1.016mm|CornerRadius=0.089mm|HoleSize=0mm|Usage=FLASHONLY|Rotation=180.010|XOffset=0mm|YOffset=0mm|HoleType=Round|Shape=RoundedRectangle|*
%AMROUNDEDRECTD41*
21,1,0.711,0.838,0,0,180.0*
21,1,0.533,1.016,0,0,180.0*
1,1,0.178,-0.267,0.419*
1,1,0.178,0.267,0.419*
1,1,0.178,0.267,-0.419*
1,1,0.178,-0.267,-0.419*
%
%ADD41ROUNDEDRECTD41*%
G04:AMPARAMS|DCode=42|XSize=0.813mm|YSize=0.61mm|CornerRadius=0.137mm|HoleSize=0mm|Usage=FLASHONLY|Rotation=270.018|XOffset=0mm|YOffset=0mm|HoleType=Round|Shape=RoundedRectangle|*
%AMROUNDEDRECTD42*
21,1,0.813,0.335,0,0,270.0*
21,1,0.538,0.610,0,0,270.0*
1,1,0.274,-0.168,-0.269*
1,1,0.274,-0.168,0.269*
1,1,0.274,0.168,0.269*
1,1,0.274,0.168,-0.269*
%
%ADD42ROUNDEDRECTD42*%
G04:AMPARAMS|DCode=43|XSize=0.813mm|YSize=0.61mm|CornerRadius=0.137mm|HoleSize=0mm|Usage=FLASHONLY|Rotation=270.002|XOffset=0mm|YOffset=0mm|HoleType=Round|Shape=RoundedRectangle|*
%AMROUNDEDRECTD43*
21,1,0.813,0.335,0,0,270.0*
21,1,0.538,0.610,0,0,270.0*
1,1,0.274,-0.168,-0.269*
1,1,0.274,-0.168,0.269*
1,1,0.274,0.168,0.269*
1,1,0.274,0.168,-0.269*
%
%ADD43ROUNDEDRECTD43*%
%ADD44R,0.700X0.900*%
G04:AMPARAMS|DCode=45|XSize=1mm|YSize=0.9mm|CornerRadius=0mm|HoleSize=0mm|Usage=FLASHONLY|Rotation=180.002|XOffset=0mm|YOffset=0mm|HoleType=Round|Shape=Rectangle|*
%AMROTATEDRECTD45*
4,1,4,0.500,0.450,0.500,-0.450,-0.500,-0.450,-0.500,0.450,0.500,0.450,0.0*
%
%ADD45ROTATEDRECTD45*%

G04:AMPARAMS|DCode=46|XSize=0.9mm|YSize=0.7mm|CornerRadius=0mm|HoleSize=0mm|Usage=FLASHONLY|Rotation=0.010|XOffset=0mm|YOffset=0mm|HoleType=Round|Shape=Rectangle|*
%AMROTATEDRECTD46*
4,1,4,-0.450,-0.350,-0.450,0.350,0.450,0.350,0.450,-0.350,-0.450,-0.350,0.0*
%
%ADD46ROTATEDRECTD46*%

G04:AMPARAMS|DCode=47|XSize=0.3mm|YSize=0.49mm|CornerRadius=0.05mm|HoleSize=0mm|Usage=FLASHONLY|Rotation=180.000|XOffset=0mm|YOffset=0mm|HoleType=Round|Shape=RoundedRectangle|*
%AMROUNDEDRECTD47*
21,1,0.300,0.391,0,0,180.0*
21,1,0.201,0.490,0,0,180.0*
1,1,0.099,-0.101,0.196*
1,1,0.099,0.101,0.196*
1,1,0.099,0.101,-0.196*
1,1,0.099,-0.101,-0.196*
%
%ADD47ROUNDEDRECTD47*%
G04:AMPARAMS|DCode=48|XSize=0.3mm|YSize=0.52mm|CornerRadius=0.05mm|HoleSize=0mm|Usage=FLASHONLY|Rotation=180.000|XOffset=0mm|YOffset=0mm|HoleType=Round|Shape=RoundedRectangle|*
%AMROUNDEDRECTD48*
21,1,0.300,0.421,0,0,180.0*
21,1,0.201,0.520,0,0,180.0*
1,1,0.099,-0.101,0.210*
1,1,0.099,0.101,0.210*
1,1,0.099,0.101,-0.210*
1,1,0.099,-0.101,-0.210*
%
%ADD48ROUNDEDRECTD48*%
%ADD49R,1.330X1.570*%
%ADD50C,0.200*%
%ADD51C,0.500*%
%ADD52C,1.016*%
%ADD53C,0.300*%
%ADD54C,1.000*%
%ADD55C,0.127*%
%ADD56C,0.750*%
%ADD57C,0.406*%
%ADD58C,0.203*%
%ADD59C,0.400*%
%ADD60C,0.152*%
%ADD61C,0.610*%
%ADD62C,0.610*%
%ADD63C,0.813*%
%ADD64C,0.100*%
%ADD65C,1.800*%
%ADD66C,1.550*%
%ADD67R,1.550X1.550*%
%ADD68R,1.550X1.550*%
%ADD69C,1.600*%
%ADD70R,1.600X1.600*%
%ADD71O,2.000X1.200*%
%ADD72R,1.500X3.500*%
%ADD73R,3.500X1.500*%
%ADD74R,4.000X1.500*%
%ADD75C,1.400*%
%ADD76R,1.400X1.400*%
%ADD77C,1.270*%
%ADD78C,4.000*%
%ADD79C,0.500*%
%ADD80C,0.610*%
%ADD81C,1.000*%
%ADD82C,0.800*%
G36*
X110742Y142813D02*
X110549D01*
X110002Y144225D01*
X110205D01*
X110572Y143199D01*
Y143197D01*
X110573Y143192D01*
X110576Y143186D01*
X110580Y143177D01*
X110583Y143166D01*
X110587Y143154D01*
X110592Y143140D01*
X110598Y143124D01*
X110609Y143088D01*
X110621Y143050D01*
X110633Y143009D01*
X110645Y142968D01*
Y142969D01*
X110647Y142972D01*
X110648Y142980D01*
X110651Y142987D01*
X110654Y142998D01*
X110658Y143010D01*
X110662Y143024D01*
X110667Y143039D01*
X110677Y143075D01*
X110691Y143114D01*
X110706Y143156D01*
X110722Y143199D01*
X111102Y144225D01*
X111292D01*
X110742Y142813D01*
D02*
G37*
G36*
X106994Y144818D02*
X106782D01*
X106618Y145245D01*
X106025D01*
X105872Y144818D01*
X105675D01*
X106214Y146229D01*
X106416D01*
X106994Y144818D01*
D02*
G37*
G36*
X109406D02*
X109193D01*
X109029Y145245D01*
X108436D01*
X108283Y144818D01*
X108086D01*
X108626Y146229D01*
X108828D01*
X109406Y144818D01*
D02*
G37*
G36*
X110205Y146252D02*
X110224Y146251D01*
X110244Y146249D01*
X110265Y146246D01*
X110289Y146242D01*
X110317Y146237D01*
X110344Y146231D01*
X110373Y146223D01*
X110404Y146214D01*
X110435Y146203D01*
X110465Y146191D01*
X110494Y146177D01*
X110525Y146160D01*
X110526Y146159D01*
X110533Y146156D01*
X110540Y146151D01*
X110551Y146144D01*
X110565Y146134D01*
X110578Y146122D01*
X110595Y146109D01*
X110614Y146093D01*
X110633Y146075D01*
X110653Y146055D01*
X110673Y146034D01*
X110693Y146011D01*
X110711Y145986D01*
X110731Y145959D01*
X110748Y145930D01*
X110765Y145899D01*
X110766Y145897D01*
X110768Y145891D01*
X110773Y145882D01*
X110777Y145870D01*
X110785Y145855D01*
X110791Y145835D01*
X110799Y145813D01*
X110806Y145789D01*
X110814Y145763D01*
X110822Y145734D01*
X110829Y145702D01*
X110835Y145670D01*
X110840Y145634D01*
X110844Y145598D01*
X110846Y145561D01*
X110848Y145521D01*
Y145518D01*
Y145512D01*
Y145500D01*
X110846Y145485D01*
X110844Y145466D01*
X110843Y145445D01*
X110840Y145420D01*
X110837Y145393D01*
X110832Y145364D01*
X110826Y145333D01*
X110820Y145301D01*
X110811Y145269D01*
X110800Y145235D01*
X110789Y145203D01*
X110776Y145170D01*
X110760Y145138D01*
X110759Y145136D01*
X110756Y145130D01*
X110751Y145121D01*
X110745Y145110D01*
X110736Y145096D01*
X110725Y145079D01*
X110711Y145061D01*
X110698Y145041D01*
X110681Y145021D01*
X110662Y145000D01*
X110641Y144979D01*
X110620Y144957D01*
X110597Y144937D01*
X110571Y144917D01*
X110543Y144897D01*
X110514Y144881D01*
X110513Y144879D01*
X110507Y144878D01*
X110499Y144873D01*
X110487Y144867D01*
X110471Y144861D01*
X110455Y144853D01*
X110435Y144845D01*
X110412Y144838D01*
X110387Y144830D01*
X110361Y144823D01*
X110332Y144815D01*
X110303Y144809D01*
X110239Y144798D01*
X110205Y144797D01*
X110172Y144795D01*
X110152D01*
X110138Y144797D01*
X110121Y144798D01*
X110100Y144800D01*
X110078Y144803D01*
X110052Y144807D01*
X110026Y144812D01*
X109997Y144818D01*
X109968Y144826D01*
X109938Y144835D01*
X109907Y144845D01*
X109877Y144859D01*
X109846Y144873D01*
X109815Y144890D01*
X109814Y144891D01*
X109809Y144894D01*
X109800Y144901D01*
X109789Y144908D01*
X109777Y144917D01*
X109762Y144930D01*
X109745Y144943D01*
X109727Y144959D01*
X109707Y144977D01*
X109688Y144997D01*
X109669Y145018D01*
X109649Y145041D01*
X109629Y145067D01*
X109610Y145093D01*
X109594Y145122D01*
X109577Y145153D01*
X109575Y145154D01*
X109574Y145160D01*
X109569Y145170D01*
X109565Y145182D01*
X109558Y145197D01*
X109552Y145216D01*
X109545Y145235D01*
X109537Y145260D01*
X109529Y145284D01*
X109522Y145312D01*
X109516Y145341D01*
X109510Y145371D01*
X109500Y145436D01*
X109499Y145471D01*
X109497Y145505D01*
Y145506D01*
Y145509D01*
Y145514D01*
Y145520D01*
X109499Y145529D01*
Y145538D01*
X109500Y145563D01*
X109503Y145592D01*
X109508Y145627D01*
X109513Y145664D01*
X109520Y145705D01*
X109531Y145749D01*
X109543Y145794D01*
X109558Y145839D01*
X109577Y145885D01*
X109598Y145931D01*
X109623Y145974D01*
X109652Y146017D01*
X109685Y146055D01*
X109687Y146057D01*
X109695Y146064D01*
X109705Y146073D01*
X109719Y146086D01*
X109739Y146101D01*
X109760Y146118D01*
X109786Y146136D01*
X109817Y146154D01*
X109851Y146173D01*
X109887Y146191D01*
X109927Y146208D01*
X109971Y146223D01*
X110017Y146235D01*
X110066Y146245D01*
X110118Y146252D01*
X110173Y146254D01*
X110192D01*
X110205Y146252D01*
D02*
G37*
G36*
X45810Y111413D02*
X48210D01*
X48410Y111213D01*
X48410Y110413D01*
X48210Y110213D01*
X46210Y110213D01*
X45610Y110213D01*
Y110913D01*
Y111613D01*
X45810Y111413D01*
D02*
G37*
G36*
X62710Y106913D02*
Y106513D01*
X62610Y106413D01*
Y105813D01*
X62810Y105613D01*
Y104613D01*
X62310Y104113D01*
X59410D01*
X59410Y105713D01*
X59710Y106013D01*
X61510Y106013D01*
X61710Y106213D01*
Y107013D01*
X62510D01*
X62710Y106913D01*
D02*
G37*
G36*
X108109Y144427D02*
X106961D01*
Y144552D01*
X108109D01*
Y144427D01*
D02*
G37*
G36*
X112627Y142813D02*
X112414D01*
X112251Y143240D01*
X111658D01*
X111505Y142813D01*
X111307D01*
X111847Y144225D01*
X112049D01*
X112627Y142813D01*
D02*
G37*
G36*
X105517Y144818D02*
X105331D01*
Y145483D01*
X104598D01*
Y144818D01*
X104412D01*
Y146229D01*
X104598D01*
Y145650D01*
X105331D01*
Y146229D01*
X105517D01*
Y144818D01*
D02*
G37*
G36*
X111649Y146228D02*
X111666D01*
X111682Y146226D01*
X111702Y146223D01*
X111742Y146219D01*
X111786Y146211D01*
X111828Y146200D01*
X111867Y146185D01*
X111869D01*
X111872Y146183D01*
X111877Y146180D01*
X111884Y146177D01*
X111901Y146167D01*
X111924Y146153D01*
X111948Y146134D01*
X111973Y146112D01*
X111997Y146084D01*
X112020Y146053D01*
Y146052D01*
X112023Y146049D01*
X112025Y146044D01*
X112029Y146038D01*
X112034Y146031D01*
X112039Y146020D01*
X112049Y145997D01*
X112059Y145969D01*
X112068Y145937D01*
X112074Y145904D01*
X112077Y145867D01*
Y145865D01*
Y145862D01*
Y145858D01*
Y145852D01*
X112074Y145835D01*
X112071Y145812D01*
X112065Y145786D01*
X112055Y145757D01*
X112043Y145728D01*
X112026Y145697D01*
Y145696D01*
X112025Y145694D01*
X112022Y145690D01*
X112017Y145683D01*
X112007Y145670D01*
X111990Y145651D01*
X111970Y145631D01*
X111944Y145610D01*
X111915Y145589D01*
X111880Y145569D01*
X111881D01*
X111886Y145567D01*
X111892Y145564D01*
X111901Y145561D01*
X111912Y145557D01*
X111924Y145552D01*
X111951Y145538D01*
X111984Y145521D01*
X112016Y145498D01*
X112048Y145472D01*
X112075Y145440D01*
X112077Y145439D01*
X112078Y145436D01*
X112081Y145431D01*
X112086Y145425D01*
X112092Y145416D01*
X112098Y145405D01*
X112104Y145393D01*
X112111Y145379D01*
X112123Y145349D01*
X112135Y145312D01*
X112143Y145271D01*
X112146Y145249D01*
Y145226D01*
Y145225D01*
Y145222D01*
Y145217D01*
Y145209D01*
X112144Y145200D01*
Y145191D01*
X112141Y145167D01*
X112135Y145138D01*
X112127Y145107D01*
X112117Y145073D01*
X112103Y145041D01*
Y145040D01*
X112101Y145038D01*
X112098Y145034D01*
X112095Y145027D01*
X112086Y145012D01*
X112074Y144994D01*
X112060Y144972D01*
X112042Y144951D01*
X112022Y144930D01*
X111999Y144910D01*
X111996Y144908D01*
X111988Y144902D01*
X111974Y144894D01*
X111956Y144884D01*
X111935Y144873D01*
X111909Y144861D01*
X111878Y144850D01*
X111844Y144841D01*
X111843D01*
X111840Y144839D01*
X111835D01*
X111828Y144838D01*
X111818Y144836D01*
X111808Y144833D01*
X111796Y144832D01*
X111782Y144830D01*
X111766Y144827D01*
X111748Y144826D01*
X111710Y144821D01*
X111666Y144819D01*
X111617Y144818D01*
X111080D01*
Y146229D01*
X111635D01*
X111649Y146228D01*
D02*
G37*
G36*
X113364Y146063D02*
X112600D01*
Y145625D01*
X113262D01*
Y145459D01*
X112600D01*
Y144818D01*
X112413D01*
Y146229D01*
X113364D01*
Y146063D01*
D02*
G37*
G36*
X107070Y144247D02*
X107089Y144246D01*
X107109Y144244D01*
X107130Y144241D01*
X107154Y144237D01*
X107182Y144232D01*
X107209Y144226D01*
X107238Y144218D01*
X107269Y144209D01*
X107300Y144199D01*
X107330Y144186D01*
X107359Y144173D01*
X107390Y144156D01*
X107391Y144154D01*
X107397Y144151D01*
X107405Y144147D01*
X107416Y144139D01*
X107430Y144130D01*
X107443Y144117D01*
X107460Y144104D01*
X107479Y144088D01*
X107498Y144070D01*
X107518Y144050D01*
X107538Y144029D01*
X107558Y144006D01*
X107576Y143981D01*
X107596Y143954D01*
X107613Y143925D01*
X107630Y143894D01*
X107631Y143893D01*
X107633Y143887D01*
X107638Y143877D01*
X107642Y143865D01*
X107650Y143850D01*
X107656Y143830D01*
X107664Y143809D01*
X107671Y143784D01*
X107679Y143758D01*
X107687Y143729D01*
X107694Y143697D01*
X107700Y143665D01*
X107705Y143630D01*
X107709Y143593D01*
X107711Y143556D01*
X107712Y143517D01*
Y143513D01*
Y143507D01*
Y143495D01*
X107711Y143480D01*
X107709Y143462D01*
X107708Y143440D01*
X107705Y143416D01*
X107702Y143388D01*
X107697Y143359D01*
X107691Y143328D01*
X107685Y143296D01*
X107676Y143264D01*
X107665Y143231D01*
X107654Y143199D01*
X107641Y143165D01*
X107625Y143133D01*
X107624Y143131D01*
X107621Y143125D01*
X107616Y143116D01*
X107610Y143105D01*
X107601Y143091D01*
X107590Y143075D01*
X107576Y143056D01*
X107563Y143036D01*
X107546Y143017D01*
X107527Y142995D01*
X107506Y142974D01*
X107485Y142952D01*
X107462Y142932D01*
X107436Y142913D01*
X107408Y142893D01*
X107379Y142876D01*
X107378Y142874D01*
X107372Y142873D01*
X107364Y142868D01*
X107352Y142862D01*
X107336Y142856D01*
X107320Y142848D01*
X107300Y142841D01*
X107277Y142833D01*
X107252Y142825D01*
X107226Y142818D01*
X107197Y142810D01*
X107168Y142804D01*
X107104Y142793D01*
X107070Y142792D01*
X107037Y142790D01*
X107017D01*
X107003Y142792D01*
X106986Y142793D01*
X106965Y142795D01*
X106943Y142798D01*
X106917Y142802D01*
X106891Y142807D01*
X106862Y142813D01*
X106833Y142821D01*
X106803Y142830D01*
X106772Y142841D01*
X106742Y142854D01*
X106711Y142868D01*
X106680Y142885D01*
X106679Y142887D01*
X106674Y142890D01*
X106665Y142896D01*
X106654Y142903D01*
X106642Y142913D01*
X106627Y142925D01*
X106610Y142939D01*
X106592Y142954D01*
X106572Y142972D01*
X106553Y142992D01*
X106534Y143013D01*
X106514Y143036D01*
X106494Y143062D01*
X106475Y143088D01*
X106459Y143117D01*
X106442Y143148D01*
X106440Y143150D01*
X106439Y143156D01*
X106434Y143165D01*
X106430Y143177D01*
X106423Y143192D01*
X106417Y143211D01*
X106410Y143231D01*
X106402Y143255D01*
X106394Y143280D01*
X106387Y143307D01*
X106381Y143336D01*
X106375Y143367D01*
X106365Y143431D01*
X106364Y143466D01*
X106362Y143500D01*
Y143501D01*
Y143504D01*
Y143509D01*
Y143515D01*
X106364Y143524D01*
Y143533D01*
X106365Y143558D01*
X106368Y143587D01*
X106373Y143622D01*
X106378Y143659D01*
X106385Y143700D01*
X106396Y143744D01*
X106408Y143789D01*
X106423Y143835D01*
X106442Y143880D01*
X106463Y143926D01*
X106488Y143969D01*
X106517Y144012D01*
X106550Y144050D01*
X106552Y144052D01*
X106560Y144059D01*
X106570Y144069D01*
X106584Y144081D01*
X106604Y144096D01*
X106625Y144113D01*
X106651Y144131D01*
X106682Y144150D01*
X106716Y144168D01*
X106752Y144186D01*
X106792Y144203D01*
X106836Y144218D01*
X106882Y144231D01*
X106931Y144240D01*
X106983Y144247D01*
X107038Y144249D01*
X107057D01*
X107070Y144247D01*
D02*
G37*
G36*
X108535Y142813D02*
X108362D01*
Y143916D01*
X108359Y143913D01*
X108352Y143905D01*
X108338Y143894D01*
X108318Y143879D01*
X108295Y143861D01*
X108266Y143841D01*
X108234Y143819D01*
X108197Y143796D01*
X108196D01*
X108193Y143793D01*
X108188Y143790D01*
X108180Y143787D01*
X108171Y143781D01*
X108161Y143776D01*
X108136Y143763D01*
X108109Y143749D01*
X108078Y143734D01*
X108046Y143720D01*
X108015Y143708D01*
Y143874D01*
X108017Y143876D01*
X108021Y143877D01*
X108029Y143882D01*
X108040Y143887D01*
X108052Y143893D01*
X108067Y143902D01*
X108084Y143911D01*
X108101Y143920D01*
X108141Y143945D01*
X108183Y143974D01*
X108228Y144004D01*
X108269Y144040D01*
X108271Y144041D01*
X108274Y144044D01*
X108280Y144049D01*
X108287Y144056D01*
X108295Y144065D01*
X108306Y144075D01*
X108329Y144101D01*
X108355Y144128D01*
X108381Y144160D01*
X108404Y144194D01*
X108424Y144229D01*
X108535D01*
Y142813D01*
D02*
G37*
G36*
X106226Y144058D02*
X105761D01*
Y142813D01*
X105575D01*
Y144058D01*
X105110D01*
Y144225D01*
X106226D01*
Y144058D01*
D02*
G37*
G36*
X109468Y144228D02*
X109483Y144226D01*
X109502Y144223D01*
X109521Y144220D01*
X109544Y144215D01*
X109567Y144209D01*
X109592Y144203D01*
X109616Y144194D01*
X109641Y144183D01*
X109667Y144171D01*
X109690Y144156D01*
X109714Y144140D01*
X109735Y144121D01*
X109737Y144119D01*
X109740Y144116D01*
X109746Y144110D01*
X109754Y144102D01*
X109761Y144091D01*
X109771Y144079D01*
X109781Y144064D01*
X109792Y144049D01*
X109803Y144030D01*
X109813Y144010D01*
X109823Y143989D01*
X109830Y143966D01*
X109838Y143942D01*
X109844Y143916D01*
X109847Y143888D01*
X109849Y143861D01*
Y143859D01*
Y143856D01*
Y143851D01*
Y143844D01*
X109847Y143836D01*
X109846Y143825D01*
X109842Y143802D01*
X109836Y143776D01*
X109827Y143747D01*
X109813Y143718D01*
X109797Y143689D01*
Y143688D01*
X109794Y143686D01*
X109787Y143677D01*
X109775Y143665D01*
X109758Y143648D01*
X109735Y143631D01*
X109709Y143611D01*
X109677Y143595D01*
X109641Y143578D01*
X109642D01*
X109647Y143576D01*
X109653Y143573D01*
X109662Y143570D01*
X109673Y143565D01*
X109685Y143559D01*
X109714Y143544D01*
X109746Y143526D01*
X109778Y143501D01*
X109810Y143474D01*
X109838Y143440D01*
X109839Y143439D01*
X109841Y143436D01*
X109844Y143431D01*
X109849Y143423D01*
X109853Y143414D01*
X109859Y143403D01*
X109865Y143391D01*
X109873Y143377D01*
X109885Y143345D01*
X109896Y143307D01*
X109904Y143264D01*
X109907Y143241D01*
Y143217D01*
Y143215D01*
Y143209D01*
X109905Y143200D01*
Y143186D01*
X109902Y143171D01*
X109901Y143153D01*
X109896Y143133D01*
X109891Y143111D01*
X109884Y143087D01*
X109876Y143062D01*
X109865Y143038D01*
X109853Y143012D01*
X109838Y142986D01*
X109821Y142961D01*
X109801Y142936D01*
X109778Y142913D01*
X109777Y142911D01*
X109772Y142908D01*
X109765Y142902D01*
X109755Y142894D01*
X109742Y142884D01*
X109726Y142874D01*
X109708Y142862D01*
X109688Y142851D01*
X109665Y142841D01*
X109639Y142828D01*
X109612Y142819D01*
X109583Y142810D01*
X109550Y142801D01*
X109517Y142795D01*
X109480Y142792D01*
X109442Y142790D01*
X109433D01*
X109422Y142792D01*
X109407D01*
X109390Y142793D01*
X109368Y142796D01*
X109346Y142801D01*
X109321Y142806D01*
X109295Y142812D01*
X109268Y142821D01*
X109240Y142830D01*
X109211Y142842D01*
X109183Y142856D01*
X109156Y142873D01*
X109128Y142891D01*
X109104Y142913D01*
X109102Y142914D01*
X109098Y142919D01*
X109092Y142925D01*
X109084Y142936D01*
X109075Y142948D01*
X109064Y142961D01*
X109052Y142978D01*
X109041Y142998D01*
X109029Y143020D01*
X109017Y143043D01*
X109006Y143069D01*
X108997Y143095D01*
X108989Y143124D01*
X108983Y143156D01*
X108979Y143188D01*
X108977Y143221D01*
Y143223D01*
Y143228D01*
Y143235D01*
X108979Y143244D01*
Y143257D01*
X108980Y143270D01*
X108983Y143286D01*
X108986Y143302D01*
X108994Y143338D01*
X109006Y143376D01*
X109023Y143414D01*
X109034Y143432D01*
X109046Y143451D01*
X109047Y143452D01*
X109049Y143455D01*
X109053Y143460D01*
X109060Y143466D01*
X109066Y143474D01*
X109075Y143481D01*
X109086Y143492D01*
X109098Y143501D01*
X109125Y143523D01*
X109159Y143544D01*
X109199Y143562D01*
X109245Y143578D01*
X109243D01*
X109240Y143579D01*
X109234Y143582D01*
X109228Y143585D01*
X109219Y143588D01*
X109208Y143595D01*
X109185Y143607D01*
X109159Y143622D01*
X109133Y143642D01*
X109107Y143663D01*
X109086Y143689D01*
Y143691D01*
X109084Y143692D01*
X109081Y143697D01*
X109078Y143703D01*
X109069Y143718D01*
X109060Y143738D01*
X109050Y143764D01*
X109041Y143795D01*
X109035Y143828D01*
X109034Y143865D01*
Y143867D01*
Y143871D01*
X109035Y143880D01*
Y143891D01*
X109037Y143903D01*
X109040Y143919D01*
X109043Y143936D01*
X109047Y143955D01*
X109053Y143975D01*
X109061Y143995D01*
X109069Y144017D01*
X109079Y144040D01*
X109093Y144061D01*
X109107Y144082D01*
X109124Y144104D01*
X109144Y144124D01*
X109145Y144125D01*
X109148Y144128D01*
X109154Y144133D01*
X109164Y144140D01*
X109174Y144148D01*
X109188Y144157D01*
X109203Y144166D01*
X109222Y144177D01*
X109242Y144186D01*
X109265Y144195D01*
X109287Y144205D01*
X109313Y144212D01*
X109342Y144220D01*
X109372Y144225D01*
X109404Y144228D01*
X109437Y144229D01*
X109456D01*
X109468Y144228D01*
D02*
G37*
G36*
X55310Y114613D02*
Y113613D01*
X55810Y113113D01*
X56810D01*
X57510Y112413D01*
Y110613D01*
X59910Y108213D01*
X62510D01*
X62610Y108113D01*
Y107813D01*
X62710Y107713D01*
Y107213D01*
X61410Y107213D01*
Y106313D01*
X56110D01*
Y109313D01*
X54310Y109313D01*
Y110413D01*
X56910Y110413D01*
Y111813D01*
X54610D01*
X53810Y112613D01*
Y115013D01*
X54910Y115013D01*
X55310Y114613D01*
D02*
G37*
G36*
X113912Y126630D02*
X113912Y125512D01*
X112718Y125512D01*
X111626Y126604D01*
X111626D01*
X111626Y127797D01*
X111625Y127798D01*
X111626Y127798D01*
X112743Y127798D01*
X113912Y126630D01*
D02*
G37*
G36*
X111410Y128796D02*
X110410Y127796D01*
Y126296D01*
X109010Y124896D01*
X106810D01*
Y124996D01*
X106010Y125796D01*
X100610D01*
Y129296D01*
X107110D01*
X107210Y129396D01*
Y133796D01*
X111410D01*
Y128796D01*
D02*
G37*
G36*
X96210Y125313D02*
X95260Y124363D01*
X93860D01*
X93760Y124491D01*
Y124546D01*
X93760Y125101D01*
X95371Y126691D01*
X96210D01*
Y125313D01*
D02*
G37*
G36*
X99910Y132596D02*
Y126796D01*
X99110D01*
X98810Y127096D01*
X95392Y127096D01*
X93092Y124796D01*
X90377Y124796D01*
X90410Y125796D01*
X90610D01*
X92110Y127296D01*
X94810D01*
Y127596D01*
Y128096D01*
Y129896D01*
Y133196D01*
X95310Y133696D01*
X98810D01*
X99910Y132596D01*
D02*
G37*
G36*
X78510Y144113D02*
Y142813D01*
X78110Y142413D01*
X67510D01*
X66910Y143013D01*
Y144113D01*
X68110Y145313D01*
X77310D01*
X78510Y144113D01*
D02*
G37*
G36*
X56010Y142813D02*
Y140613D01*
X54610Y139213D01*
Y137813D01*
Y136613D01*
X52610D01*
X52610Y139213D01*
X51210Y140613D01*
Y142813D01*
X51710Y143313D01*
X55510D01*
X56010Y142813D01*
D02*
G37*
G36*
X61310Y138713D02*
Y136413D01*
X59310Y134413D01*
X57210D01*
Y138513D01*
X58710Y140013D01*
X60010D01*
X61310Y138713D01*
D02*
G37*
G36*
X67505Y123048D02*
X67589Y122992D01*
X67645Y122908D01*
X67665Y122809D01*
X67660Y120617D01*
X67665D01*
X67645Y120518D01*
X67589Y120434D01*
X67505Y120378D01*
X67406Y120358D01*
X67010Y120363D01*
Y119192D01*
X67015D01*
X66995Y119093D01*
X66939Y119009D01*
X66855Y118953D01*
X66756Y118933D01*
X66664Y118938D01*
Y118933D01*
X66565Y118953D01*
X66481Y119009D01*
X66425Y119093D01*
X66405Y119192D01*
X66410Y120363D01*
X66014D01*
Y120358D01*
X65915Y120378D01*
X65831Y120434D01*
X65775Y120518D01*
X65755Y120617D01*
X65760Y122809D01*
X65755D01*
X65775Y122908D01*
X65831Y122992D01*
X65915Y123048D01*
X66014Y123068D01*
X67406Y123063D01*
Y123068D01*
X67505Y123048D01*
D02*
G37*
G36*
X106010Y124496D02*
Y121896D01*
X107410Y120496D01*
X110310D01*
Y121496D01*
X113710Y124896D01*
X114010Y124896D01*
X114010Y121013D01*
X112289Y121013D01*
X110610Y119304D01*
X110610Y115396D01*
X106910Y115396D01*
Y118696D01*
X105810Y119796D01*
X101410D01*
X100610Y120596D01*
Y125196D01*
X105310D01*
X106010Y124496D01*
D02*
G37*
G36*
X53210Y114913D02*
Y112813D01*
X52810Y112413D01*
X50610Y112413D01*
X49810Y111613D01*
X47410Y111613D01*
X47110Y111913D01*
Y115113D01*
X47710Y115713D01*
X52410D01*
X53210Y114913D01*
D02*
G37*
G36*
X56610Y111513D02*
Y110613D01*
X54560Y110613D01*
X54260Y110913D01*
X53610D01*
X53430Y111033D01*
X53610Y111363D01*
X54060D01*
X54210Y111513D01*
X56610Y111513D01*
D02*
G37*
G36*
X99310Y124596D02*
X99010Y124296D01*
X98110D01*
X96910Y123096D01*
Y120896D01*
X97810Y119996D01*
Y115496D01*
X94710D01*
Y119196D01*
X95610Y120096D01*
Y121796D01*
X95310Y122096D01*
X94210D01*
X93610Y122696D01*
X90610D01*
Y123596D01*
X90510Y123696D01*
X91810D01*
X92160Y124046D01*
X95260D01*
X96510Y125296D01*
X99310D01*
Y124596D01*
D02*
G37*
G36*
X109620Y122413D02*
X109620Y121213D01*
X108495Y121212D01*
X107320Y122387D01*
X107319Y123512D01*
X108519Y123512D01*
X109620Y122413D01*
D02*
G37*
G36*
X127710Y119322D02*
X126810Y119295D01*
X126810Y149913D01*
X126410Y150313D01*
X125310D01*
X123310Y152313D01*
Y153513D01*
X122910Y153913D01*
X46710D01*
X46310Y153513D01*
Y152413D01*
X44310Y150413D01*
X43210D01*
X42810Y150013D01*
Y108613D01*
Y106413D01*
X43210Y106013D01*
X44310D01*
X46410Y104113D01*
Y103013D01*
X46810Y102613D01*
X122910D01*
X123310Y103013D01*
Y104113D01*
X125210Y106113D01*
X126410D01*
X126810Y106513D01*
X126810Y112813D01*
X127710D01*
X127710Y101713D01*
X41910Y101613D01*
Y154813D01*
X127710D01*
Y119322D01*
D02*
G37*
G36*
X113710Y119113D02*
X113710Y115713D01*
X113410Y115713D01*
X112410Y116713D01*
Y119113D01*
X113710Y119113D01*
D02*
G37*
%LPC*%
G36*
X110199Y146093D02*
X110164D01*
X110155Y146092D01*
X110140D01*
X110123Y146089D01*
X110103Y146086D01*
X110081Y146081D01*
X110057Y146076D01*
X110031Y146069D01*
X110003Y146060D01*
X109974Y146049D01*
X109947Y146035D01*
X109918Y146020D01*
X109889Y146001D01*
X109860Y145980D01*
X109832Y145956D01*
X109831Y145954D01*
X109826Y145949D01*
X109818Y145940D01*
X109811Y145930D01*
X109799Y145914D01*
X109788Y145896D01*
X109774Y145873D01*
X109762Y145849D01*
X109748Y145818D01*
X109734Y145784D01*
X109724Y145748D01*
X109713Y145706D01*
X109704Y145662D01*
X109696Y145613D01*
X109692Y145560D01*
X109690Y145501D01*
Y145498D01*
Y145491D01*
X109692Y145477D01*
Y145459D01*
X109695Y145437D01*
X109698Y145413D01*
X109701Y145385D01*
X109707Y145356D01*
X109714Y145324D01*
X109724Y145290D01*
X109734Y145258D01*
X109748Y145225D01*
X109763Y145191D01*
X109782Y145159D01*
X109802Y145128D01*
X109826Y145099D01*
X109828Y145098D01*
X109832Y145093D01*
X109840Y145086D01*
X109851Y145076D01*
X109864Y145066D01*
X109881Y145053D01*
X109899Y145040D01*
X109921Y145027D01*
X109944Y145014D01*
X109971Y145000D01*
X109999Y144988D01*
X110029Y144977D01*
X110062Y144968D01*
X110097Y144960D01*
X110132Y144956D01*
X110170Y144954D01*
X110179D01*
X110190Y144956D01*
X110205Y144957D01*
X110224Y144959D01*
X110244Y144962D01*
X110268Y144966D01*
X110292Y144972D01*
X110320Y144980D01*
X110347Y144989D01*
X110377Y145001D01*
X110406Y145017D01*
X110435Y145034D01*
X110464Y145052D01*
X110491Y145075D01*
X110517Y145101D01*
X110519Y145102D01*
X110523Y145108D01*
X110529Y145116D01*
X110539Y145128D01*
X110549Y145144D01*
X110562Y145162D01*
X110574Y145183D01*
X110586Y145209D01*
X110598Y145237D01*
X110612Y145269D01*
X110623Y145303D01*
X110633Y145341D01*
X110643Y145382D01*
X110649Y145425D01*
X110653Y145472D01*
X110655Y145521D01*
Y145523D01*
Y145529D01*
Y145538D01*
X110653Y145550D01*
Y145566D01*
X110652Y145582D01*
X110650Y145602D01*
X110647Y145624D01*
X110641Y145671D01*
X110630Y145722D01*
X110615Y145772D01*
X110595Y145823D01*
Y145824D01*
X110592Y145829D01*
X110589Y145835D01*
X110585Y145844D01*
X110578Y145855D01*
X110571Y145867D01*
X110552Y145896D01*
X110528Y145928D01*
X110499Y145960D01*
X110465Y145992D01*
X110425Y146021D01*
X110424Y146023D01*
X110421Y146024D01*
X110415Y146027D01*
X110406Y146032D01*
X110395Y146038D01*
X110383Y146044D01*
X110369Y146050D01*
X110352Y146058D01*
X110334Y146064D01*
X110315Y146070D01*
X110273Y146083D01*
X110225Y146090D01*
X110199Y146093D01*
D02*
G37*
G36*
X111592Y145469D02*
X111266D01*
Y144985D01*
X111649D01*
X111669Y144986D01*
X111688D01*
X111710Y144988D01*
X111730Y144989D01*
X111745Y144991D01*
X111748D01*
X111756Y144992D01*
X111768Y144995D01*
X111783Y145000D01*
X111800Y145005D01*
X111817Y145012D01*
X111835Y145020D01*
X111852Y145029D01*
X111854Y145030D01*
X111860Y145034D01*
X111867Y145040D01*
X111878Y145049D01*
X111889Y145060D01*
X111901Y145073D01*
X111913Y145089D01*
X111924Y145107D01*
X111925Y145110D01*
X111929Y145116D01*
X111933Y145127D01*
X111939Y145142D01*
X111944Y145159D01*
X111948Y145179D01*
X111951Y145202D01*
X111953Y145226D01*
Y145228D01*
Y145229D01*
Y145234D01*
Y145240D01*
X111951Y145254D01*
X111948Y145274D01*
X111942Y145295D01*
X111936Y145318D01*
X111925Y145341D01*
X111912Y145364D01*
X111910Y145367D01*
X111904Y145373D01*
X111895Y145384D01*
X111883Y145396D01*
X111866Y145410D01*
X111846Y145422D01*
X111825Y145434D01*
X111799Y145445D01*
X111797D01*
X111796Y145446D01*
X111791Y145448D01*
X111785Y145449D01*
X111777Y145451D01*
X111770Y145453D01*
X111759Y145456D01*
X111747Y145457D01*
X111731Y145460D01*
X111716Y145462D01*
X111699Y145463D01*
X111681Y145466D01*
X111640Y145468D01*
X111592Y145469D01*
D02*
G37*
G36*
X107064Y144088D02*
X107029D01*
X107020Y144087D01*
X107005D01*
X106988Y144084D01*
X106968Y144081D01*
X106946Y144076D01*
X106922Y144072D01*
X106896Y144064D01*
X106868Y144055D01*
X106839Y144044D01*
X106812Y144030D01*
X106783Y144015D01*
X106754Y143997D01*
X106725Y143975D01*
X106697Y143951D01*
X106696Y143949D01*
X106691Y143945D01*
X106683Y143936D01*
X106676Y143925D01*
X106664Y143910D01*
X106653Y143891D01*
X106639Y143868D01*
X106627Y143844D01*
X106613Y143813D01*
X106599Y143780D01*
X106589Y143743D01*
X106578Y143702D01*
X106569Y143657D01*
X106561Y143608D01*
X106557Y143555D01*
X106555Y143497D01*
Y143494D01*
Y143486D01*
X106557Y143472D01*
Y143454D01*
X106560Y143432D01*
X106563Y143408D01*
X106566Y143380D01*
X106572Y143351D01*
X106579Y143319D01*
X106589Y143286D01*
X106599Y143254D01*
X106613Y143220D01*
X106628Y143186D01*
X106647Y143154D01*
X106667Y143124D01*
X106691Y143095D01*
X106693Y143093D01*
X106697Y143088D01*
X106705Y143081D01*
X106716Y143072D01*
X106729Y143061D01*
X106746Y143049D01*
X106764Y143035D01*
X106786Y143023D01*
X106809Y143009D01*
X106836Y142995D01*
X106864Y142983D01*
X106894Y142972D01*
X106927Y142963D01*
X106962Y142955D01*
X106997Y142951D01*
X107035Y142949D01*
X107044D01*
X107055Y142951D01*
X107070Y142952D01*
X107089Y142954D01*
X107109Y142957D01*
X107133Y142961D01*
X107157Y142968D01*
X107185Y142975D01*
X107212Y142984D01*
X107242Y142997D01*
X107271Y143012D01*
X107300Y143029D01*
X107329Y143047D01*
X107356Y143070D01*
X107382Y143096D01*
X107384Y143098D01*
X107388Y143104D01*
X107394Y143111D01*
X107404Y143124D01*
X107414Y143139D01*
X107427Y143157D01*
X107439Y143179D01*
X107451Y143205D01*
X107463Y143232D01*
X107477Y143264D01*
X107488Y143298D01*
X107498Y143336D01*
X107508Y143377D01*
X107514Y143420D01*
X107518Y143468D01*
X107520Y143517D01*
Y143518D01*
Y143524D01*
Y143533D01*
X107518Y143546D01*
Y143561D01*
X107517Y143578D01*
X107515Y143598D01*
X107512Y143619D01*
X107506Y143666D01*
X107495Y143717D01*
X107480Y143767D01*
X107460Y143818D01*
Y143819D01*
X107457Y143824D01*
X107454Y143830D01*
X107449Y143839D01*
X107443Y143850D01*
X107436Y143862D01*
X107417Y143891D01*
X107393Y143923D01*
X107364Y143955D01*
X107330Y143988D01*
X107290Y144017D01*
X107289Y144018D01*
X107286Y144020D01*
X107280Y144023D01*
X107271Y144027D01*
X107260Y144033D01*
X107248Y144040D01*
X107234Y144046D01*
X107217Y144053D01*
X107199Y144059D01*
X107180Y144065D01*
X107138Y144078D01*
X107090Y144085D01*
X107064Y144088D01*
D02*
G37*
G36*
X111943Y144078D02*
Y144076D01*
X111942Y144072D01*
X111940Y144064D01*
X111939Y144055D01*
X111936Y144041D01*
X111933Y144027D01*
X111928Y144010D01*
X111924Y143992D01*
X111919Y143972D01*
X111913Y143951D01*
X111899Y143905D01*
X111884Y143856D01*
X111867Y143806D01*
X111711Y143391D01*
X112193D01*
X112044Y143783D01*
Y143784D01*
X112041Y143790D01*
X112038Y143799D01*
X112034Y143813D01*
X112028Y143827D01*
X112021Y143845D01*
X112014Y143865D01*
X112006Y143887D01*
X111991Y143934D01*
X111974Y143983D01*
X111957Y144032D01*
X111943Y144078D01*
D02*
G37*
G36*
X109459Y144087D02*
X109431D01*
X109424Y144085D01*
X109416D01*
X109405Y144084D01*
X109382Y144079D01*
X109356Y144072D01*
X109329Y144059D01*
X109301Y144044D01*
X109275Y144023D01*
X109272Y144020D01*
X109265Y144012D01*
X109255Y143998D01*
X109243Y143980D01*
X109231Y143958D01*
X109222Y143932D01*
X109214Y143903D01*
X109211Y143871D01*
Y143870D01*
Y143867D01*
Y143862D01*
X109213Y143854D01*
Y143845D01*
X109214Y143836D01*
X109219Y143813D01*
X109226Y143787D01*
X109237Y143760D01*
X109252Y143732D01*
X109274Y143708D01*
X109277Y143705D01*
X109286Y143699D01*
X109300Y143688D01*
X109320Y143677D01*
X109342Y143665D01*
X109372Y143654D01*
X109405Y143648D01*
X109442Y143645D01*
X109451D01*
X109459Y143647D01*
X109468D01*
X109477Y143648D01*
X109500Y143653D01*
X109526Y143660D01*
X109554Y143671D01*
X109581Y143686D01*
X109607Y143708D01*
X109610Y143711D01*
X109618Y143718D01*
X109627Y143732D01*
X109639Y143751D01*
X109651Y143772D01*
X109661Y143799D01*
X109668Y143828D01*
X109671Y143861D01*
Y143862D01*
Y143865D01*
Y143870D01*
X109670Y143877D01*
X109668Y143894D01*
X109664Y143917D01*
X109656Y143942D01*
X109644Y143969D01*
X109627Y143995D01*
X109618Y144009D01*
X109605Y144021D01*
Y144023D01*
X109602Y144024D01*
X109593Y144032D01*
X109579Y144043D01*
X109560Y144055D01*
X109537Y144065D01*
X109508Y144076D01*
X109476Y144084D01*
X109459Y144087D01*
D02*
G37*
G36*
X109437Y143503D02*
X109425D01*
X109417Y143501D01*
X109407Y143500D01*
X109394Y143498D01*
X109365Y143492D01*
X109333Y143483D01*
X109300Y143469D01*
X109283Y143460D01*
X109266Y143449D01*
X109249Y143436D01*
X109234Y143422D01*
X109232Y143420D01*
X109231Y143419D01*
X109226Y143414D01*
X109222Y143408D01*
X109216Y143399D01*
X109209Y143390D01*
X109202Y143379D01*
X109194Y143367D01*
X109179Y143338D01*
X109167Y143302D01*
X109157Y143263D01*
X109156Y143243D01*
X109154Y143220D01*
Y143218D01*
Y143217D01*
Y143208D01*
X109156Y143192D01*
X109159Y143174D01*
X109162Y143153D01*
X109168Y143128D01*
X109177Y143102D01*
X109188Y143076D01*
X109190Y143073D01*
X109194Y143065D01*
X109203Y143052D01*
X109214Y143036D01*
X109229Y143020D01*
X109246Y143003D01*
X109268Y142984D01*
X109292Y142969D01*
X109294D01*
X109295Y142968D01*
X109304Y142963D01*
X109318Y142957D01*
X109338Y142951D01*
X109359Y142945D01*
X109385Y142939D01*
X109413Y142934D01*
X109442Y142932D01*
X109454D01*
X109463Y142934D01*
X109474Y142936D01*
X109486Y142937D01*
X109515Y142943D01*
X109547Y142952D01*
X109583Y142966D01*
X109599Y142975D01*
X109616Y142986D01*
X109633Y142998D01*
X109648Y143012D01*
X109650Y143013D01*
X109651Y143015D01*
X109656Y143020D01*
X109661Y143026D01*
X109667Y143035D01*
X109674Y143044D01*
X109682Y143055D01*
X109690Y143067D01*
X109703Y143096D01*
X109717Y143131D01*
X109726Y143169D01*
X109728Y143191D01*
X109729Y143214D01*
Y143215D01*
Y143220D01*
Y143226D01*
X109728Y143235D01*
X109726Y143246D01*
X109725Y143258D01*
X109719Y143287D01*
X109709Y143319D01*
X109694Y143354D01*
X109685Y143371D01*
X109673Y143388D01*
X109661Y143405D01*
X109645Y143420D01*
X109644Y143422D01*
X109642Y143423D01*
X109638Y143428D01*
X109630Y143432D01*
X109622Y143440D01*
X109613Y143446D01*
X109601Y143454D01*
X109589Y143462D01*
X109558Y143477D01*
X109523Y143491D01*
X109482Y143500D01*
X109460Y143501D01*
X109437Y143503D01*
D02*
G37*
G36*
X106311Y146083D02*
Y146081D01*
X106309Y146076D01*
X106308Y146069D01*
X106306Y146060D01*
X106303Y146046D01*
X106300Y146032D01*
X106295Y146015D01*
X106291Y145997D01*
X106286Y145977D01*
X106280Y145956D01*
X106266Y145910D01*
X106251Y145861D01*
X106234Y145810D01*
X106078Y145396D01*
X106560D01*
X106412Y145787D01*
Y145789D01*
X106409Y145795D01*
X106406Y145804D01*
X106401Y145818D01*
X106395Y145832D01*
X106389Y145850D01*
X106381Y145870D01*
X106373Y145891D01*
X106358Y145939D01*
X106341Y145988D01*
X106324Y146037D01*
X106311Y146083D01*
D02*
G37*
G36*
X108722D02*
Y146081D01*
X108721Y146076D01*
X108719Y146069D01*
X108717Y146060D01*
X108714Y146046D01*
X108711Y146032D01*
X108707Y146015D01*
X108702Y145997D01*
X108698Y145977D01*
X108691Y145956D01*
X108678Y145910D01*
X108662Y145861D01*
X108646Y145810D01*
X108490Y145396D01*
X108971D01*
X108823Y145787D01*
Y145789D01*
X108820Y145795D01*
X108817Y145804D01*
X108812Y145818D01*
X108806Y145832D01*
X108800Y145850D01*
X108792Y145870D01*
X108785Y145891D01*
X108769Y145939D01*
X108753Y145988D01*
X108736Y146037D01*
X108722Y146083D01*
D02*
G37*
G36*
X111575Y146063D02*
X111266D01*
Y145636D01*
X111601D01*
X111614Y145638D01*
X111640D01*
X111669Y145639D01*
X111699Y145642D01*
X111727Y145647D01*
X111739Y145648D01*
X111750Y145651D01*
X111751D01*
X111753Y145653D01*
X111762Y145656D01*
X111774Y145660D01*
X111789Y145668D01*
X111806Y145677D01*
X111825Y145690D01*
X111841Y145705D01*
X111857Y145722D01*
X111858Y145725D01*
X111863Y145731D01*
X111869Y145742D01*
X111875Y145755D01*
X111881Y145774D01*
X111887Y145795D01*
X111892Y145818D01*
X111893Y145845D01*
Y145847D01*
Y145849D01*
Y145858D01*
X111892Y145870D01*
X111889Y145887D01*
X111884Y145907D01*
X111878Y145928D01*
X111870Y145949D01*
X111858Y145969D01*
X111857Y145972D01*
X111852Y145979D01*
X111844Y145988D01*
X111834Y145998D01*
X111820Y146011D01*
X111803Y146023D01*
X111785Y146034D01*
X111762Y146043D01*
X111759Y146044D01*
X111756D01*
X111750Y146046D01*
X111744Y146047D01*
X111734Y146049D01*
X111724Y146050D01*
X111713Y146053D01*
X111699Y146055D01*
X111682Y146057D01*
X111666Y146058D01*
X111646Y146060D01*
X111624Y146061D01*
X111601D01*
X111575Y146063D01*
D02*
G37*
%LPD*%
D10*
X101897Y144513D02*
G03*
X103904Y142507I2007J0D01*
G01*
Y146520D02*
G03*
X101897Y144513I0J-2007D01*
G01*
X103904Y144513D02*
Y146520D01*
X101897Y144513D02*
X103904D01*
X56625Y128283D02*
Y128738D01*
Y128283D02*
X58360Y126548D01*
X54707Y128112D02*
Y128738D01*
X53144Y126548D02*
X54707Y128112D01*
X87504Y124062D02*
X88316D01*
X87300Y124265D02*
X87504Y124062D01*
X88316D02*
X88520D01*
X88316Y123275D02*
Y124062D01*
X113710Y145836D02*
Y146520D01*
X103904D02*
X113710D01*
X103904Y142507D02*
X113710D01*
Y145836D01*
X103904Y142507D02*
Y144513D01*
X113710D01*
D11*
X48175Y127713D02*
D03*
Y132913D02*
D03*
X46905Y127713D02*
D03*
X49445D02*
D03*
X50715D02*
D03*
X46905Y132913D02*
D03*
X49445D02*
D03*
X50715D02*
D03*
D12*
X112810Y122296D02*
D03*
X112810Y126496D02*
D03*
X108410Y126495D02*
D03*
X108410Y122295D02*
D03*
D13*
X62805Y128313D02*
D03*
X68015Y128314D02*
D03*
D14*
X55610Y112388D02*
D03*
Y111038D02*
D03*
D15*
X68210Y119063D02*
D03*
X65210D02*
D03*
D16*
X66710Y119413D02*
D03*
D17*
X89880Y126066D02*
D03*
X89880Y125666D02*
D03*
X89880Y125266D02*
D03*
X89880Y124865D02*
D03*
X89880Y124465D02*
D03*
X89880Y124066D02*
D03*
X89880Y123666D02*
D03*
X89880Y123266D02*
D03*
X89880Y122865D02*
D03*
X89880Y122465D02*
D03*
X84721Y122465D02*
D03*
X84721Y122865D02*
D03*
X84721Y123265D02*
D03*
X84721Y123665D02*
D03*
X84721Y124065D02*
D03*
X84721Y124465D02*
D03*
X84720Y124865D02*
D03*
X84720Y125265D02*
D03*
X84720Y125665D02*
D03*
X84720Y126065D02*
D03*
D18*
X89101Y121686D02*
D03*
X88701Y121686D02*
D03*
X88300Y121686D02*
D03*
X87900Y121686D02*
D03*
X87500Y121686D02*
D03*
X87101Y121686D02*
D03*
X86701Y121686D02*
D03*
X86300Y121686D02*
D03*
X85900Y121686D02*
D03*
X85500Y121686D02*
D03*
X85500Y126845D02*
D03*
X85900Y126845D02*
D03*
X86300Y126845D02*
D03*
X86700Y126845D02*
D03*
X87100Y126845D02*
D03*
X87500Y126845D02*
D03*
X87900Y126845D02*
D03*
X88300Y126845D02*
D03*
X88700Y126845D02*
D03*
X89100Y126845D02*
D03*
D19*
X87300Y124265D02*
D03*
D20*
X53160Y126548D02*
D03*
Y124008D02*
D03*
X58360Y126548D02*
D03*
Y124008D02*
D03*
X53160Y125278D02*
D03*
X58360D02*
D03*
X53160Y122738D02*
D03*
Y121468D02*
D03*
Y118928D02*
D03*
X58360Y122738D02*
D03*
Y121468D02*
D03*
Y118928D02*
D03*
X53160Y120198D02*
D03*
X58360D02*
D03*
D21*
X104060Y123591D02*
D03*
X104060Y124861D02*
D03*
X104060Y126131D02*
D03*
X104060Y127401D02*
D03*
X99160Y127401D02*
D03*
X99160Y126131D02*
D03*
X99160Y124861D02*
D03*
X99160Y123591D02*
D03*
D22*
X101610Y126696D02*
D03*
X101610Y124296D02*
D03*
D23*
X50210Y122713D02*
D03*
X48610D02*
D03*
X77185Y114888D02*
D03*
X78785D02*
D03*
X56510Y128813D02*
D03*
X54910D02*
D03*
X72735Y114938D02*
D03*
X74335D02*
D03*
X56810Y108213D02*
D03*
X55210D02*
D03*
X53260Y108013D02*
D03*
X51660D02*
D03*
X62710Y119713D02*
D03*
X61110D02*
D03*
X56410Y116413D02*
D03*
X54810D02*
D03*
X58610Y114613D02*
D03*
X57010D02*
D03*
X59510Y116413D02*
D03*
X57910D02*
D03*
X62335Y105113D02*
D03*
X63685D02*
D03*
D24*
X78760Y112963D02*
D03*
X77260D02*
D03*
X74135Y112988D02*
D03*
X72635D02*
D03*
X63585Y147163D02*
D03*
X65085D02*
D03*
X46935Y135288D02*
D03*
X45435D02*
D03*
D25*
X67285Y147588D02*
D03*
Y145988D02*
D03*
X90110Y110313D02*
D03*
Y108713D02*
D03*
X81310Y121513D02*
D03*
Y119913D02*
D03*
X48410Y118813D02*
D03*
X48410Y120413D02*
D03*
X45085Y130963D02*
D03*
Y129363D02*
D03*
D26*
X125610Y118553D02*
D03*
Y113473D02*
D03*
Y116013D02*
D03*
D27*
X57710Y135113D02*
D03*
X56110D02*
D03*
X62710Y121413D02*
D03*
X61110D02*
D03*
X49410Y125113D02*
D03*
X51010D02*
D03*
D28*
X75610Y143413D02*
D03*
Y140413D02*
D03*
X69610Y143413D02*
D03*
Y140413D02*
D03*
X72610Y143413D02*
D03*
Y140413D02*
D03*
D29*
X117960Y116513D02*
D03*
X119660D02*
D03*
D30*
X102710Y131496D02*
D03*
X96510D02*
D03*
X114410Y117396D02*
D03*
X108210D02*
D03*
X108510Y131496D02*
D03*
X114710D02*
D03*
X67310Y115713D02*
D03*
X61110D02*
D03*
X69910Y136313D02*
D03*
X76110D02*
D03*
X96010Y117596D02*
D03*
X102210D02*
D03*
D31*
X60210Y112613D02*
D03*
X58610Y112613D02*
D03*
D32*
X50410Y118813D02*
D03*
X50410Y120413D02*
D03*
D33*
X49010Y111788D02*
D03*
Y111138D02*
D03*
Y110488D02*
D03*
Y109838D02*
D03*
X53210Y111788D02*
D03*
Y111138D02*
D03*
Y110488D02*
D03*
Y109838D02*
D03*
D34*
X45410Y110213D02*
D03*
Y108813D02*
D03*
X87810Y119513D02*
D03*
Y118113D02*
D03*
X91110Y120513D02*
D03*
X91110Y119113D02*
D03*
X90910Y130013D02*
D03*
X90910Y128613D02*
D03*
D35*
X96310Y124196D02*
D03*
X105210Y120696D02*
D03*
X105310Y128696D02*
D03*
X96310Y128596D02*
D03*
X50766Y129213D02*
D03*
X62210Y116213D02*
D03*
Y115113D02*
D03*
X60010D02*
D03*
X59610Y117413D02*
D03*
X42610Y148713D02*
D03*
X126910Y107513D02*
D03*
Y111913D02*
D03*
Y120113D02*
D03*
Y122813D02*
D03*
Y128113D02*
D03*
Y133313D02*
D03*
Y138713D02*
D03*
Y148813D02*
D03*
Y144013D02*
D03*
X42610Y143913D02*
D03*
Y133313D02*
D03*
Y138713D02*
D03*
Y128113D02*
D03*
X42710Y122813D02*
D03*
Y117513D02*
D03*
Y107413D02*
D03*
Y112313D02*
D03*
X123860Y111863D02*
D03*
X123960Y120163D02*
D03*
X123010Y113513D02*
D03*
X122900Y118573D02*
D03*
X119210Y154073D02*
D03*
X114910D02*
D03*
X110610D02*
D03*
X106310D02*
D03*
X102010D02*
D03*
X97710D02*
D03*
X93410D02*
D03*
X89110D02*
D03*
X84810D02*
D03*
X80510D02*
D03*
X76210D02*
D03*
X71910D02*
D03*
X67610D02*
D03*
X63310D02*
D03*
X59010D02*
D03*
X54710D02*
D03*
X50410D02*
D03*
X59010Y102473D02*
D03*
X63310D02*
D03*
X67610D02*
D03*
X71910D02*
D03*
X76210D02*
D03*
X119210D02*
D03*
X114910D02*
D03*
X110610D02*
D03*
X106310D02*
D03*
X102010D02*
D03*
X97710D02*
D03*
X80510D02*
D03*
X84810D02*
D03*
X89110D02*
D03*
X93410D02*
D03*
X54710D02*
D03*
X74910Y115938D02*
D03*
X78760Y112163D02*
D03*
X74110Y112138D02*
D03*
X63535Y148088D02*
D03*
X51310Y126113D02*
D03*
X50410Y102473D02*
D03*
X87707Y127872D02*
D03*
X88485Y123071D02*
D03*
X86135Y123096D02*
D03*
X86183Y125408D02*
D03*
X88535Y125421D02*
D03*
X56691Y124044D02*
D03*
X51510Y127813D02*
D03*
Y128613D02*
D03*
X89010Y128246D02*
D03*
X91085Y124271D02*
D03*
X97810Y122496D02*
D03*
X83110Y124062D02*
D03*
X85710Y127813D02*
D03*
Y129113D02*
D03*
X92210Y131713D02*
D03*
X95210Y125413D02*
D03*
X86410Y128213D02*
D03*
X88410Y117413D02*
D03*
X89310Y116513D02*
D03*
X85410Y115813D02*
D03*
X83110Y115713D02*
D03*
X81310Y117013D02*
D03*
X83010Y121113D02*
D03*
X81310Y122413D02*
D03*
X105110Y115313D02*
D03*
X54710Y125313D02*
D03*
X50710Y134713D02*
D03*
X51910Y132913D02*
D03*
X50710Y108013D02*
D03*
X46310Y108813D02*
D03*
X49010Y112513D02*
D03*
X47610Y112013D02*
D03*
X49510Y114013D02*
D03*
X51510D02*
D03*
X48410Y115413D02*
D03*
X52410Y115213D02*
D03*
X52510Y112813D02*
D03*
X48610Y123713D02*
D03*
X61510Y104413D02*
D03*
Y105813D02*
D03*
X59610Y104413D02*
D03*
X53910Y116413D02*
D03*
X49010Y109113D02*
D03*
D36*
X59110Y137413D02*
D03*
X56110D02*
D03*
X48410Y114013D02*
D03*
X45410D02*
D03*
X114610Y134996D02*
D03*
X117610D02*
D03*
D37*
X52610Y114013D02*
D03*
X54410D02*
D03*
X116810Y120813D02*
D03*
X115010D02*
D03*
D38*
X60410Y107113D02*
D03*
Y105313D02*
D03*
X105610Y130396D02*
D03*
Y132196D02*
D03*
X105110Y116396D02*
D03*
Y118196D02*
D03*
D39*
X53542Y137913D02*
D03*
X49485D02*
D03*
D40*
X70140Y121266D02*
D03*
Y119348D02*
D03*
X72680Y120313D02*
D03*
D41*
X83260Y118013D02*
D03*
X81345Y118013D02*
D03*
X82310Y115796D02*
D03*
D42*
X94910Y123366D02*
D03*
X94910Y120846D02*
D03*
X93610Y127026D02*
D03*
D43*
X93610Y129546D02*
D03*
D44*
X84410Y120113D02*
D03*
X83010D02*
D03*
X93610Y130796D02*
D03*
X92210D02*
D03*
X82110Y124013D02*
D03*
X80710D02*
D03*
X85610Y129995D02*
D03*
X87010Y129996D02*
D03*
X87010Y116513D02*
D03*
X88410D02*
D03*
X89510Y129996D02*
D03*
X88110D02*
D03*
X95710Y126213D02*
D03*
X97110D02*
D03*
X97810Y121596D02*
D03*
X99210D02*
D03*
D45*
X85410Y116713D02*
D03*
X85410Y118313D02*
D03*
D46*
X89410Y118013D02*
D03*
X89410Y119413D02*
D03*
D47*
X62510Y106728D02*
D03*
X63510D02*
D03*
X63010D02*
D03*
Y107498D02*
D03*
X62510D02*
D03*
D48*
X63510Y107483D02*
D03*
D49*
X62025Y109313D02*
D03*
X63995D02*
D03*
D50*
X50766Y127587D02*
Y129213D01*
X50815Y127813D02*
X51510D01*
X50766Y127587D02*
X50790Y127563D01*
X51248Y125851D02*
X51347D01*
X50835Y125338D02*
X51347Y125851D01*
X51310Y125913D02*
Y126113D01*
X51248Y125851D02*
X51310Y125913D01*
X47785Y110488D02*
X48785D01*
X49102Y110421D01*
X48785Y110488D02*
X48960Y110563D01*
X60105Y124008D02*
X60110Y124013D01*
X58365D02*
X60110D01*
X58360Y124008D02*
X58365Y124013D01*
X56691Y124044D02*
X58324D01*
X58360Y124008D01*
X62710Y121413D02*
X63710D01*
X62710Y121413D02*
X62710Y121413D01*
X87099Y126847D02*
Y129473D01*
Y126847D02*
X87100Y126845D01*
X48785Y110488D02*
X49060D01*
X85900Y126845D02*
Y127623D01*
X85710Y127813D02*
X85900Y127623D01*
X86300Y126845D02*
Y128103D01*
X86410Y128213D01*
X50835Y125038D02*
Y125338D01*
D51*
X61610Y116213D02*
X62210D01*
X61710Y115113D02*
X62210D01*
X61510Y114913D02*
X61710Y115113D01*
X60910Y115513D02*
X61510Y114913D01*
X60010Y115113D02*
X60510D01*
X60910Y115513D01*
X59510Y116413D02*
X60810D01*
X59610Y116513D02*
Y117413D01*
X48810Y105213D02*
Y105313D01*
X47410Y106713D02*
X48810Y105313D01*
X47410Y106713D02*
Y110613D01*
X125570Y113513D02*
X125610Y113473D01*
X123010Y113513D02*
X125570D01*
X123860Y111863D02*
Y113113D01*
X123960Y118913D02*
Y120163D01*
X122900Y118573D02*
X125590D01*
X108435Y112713D02*
X114535D01*
X103360D02*
X108435D01*
X108450Y112698D01*
Y110613D02*
Y112698D01*
X115450Y110613D02*
Y111798D01*
X114535Y112713D02*
X115450Y111798D01*
X100290Y109643D02*
X103360Y112713D01*
X100290Y106693D02*
Y109643D01*
X74110Y112138D02*
X74135Y112163D01*
Y112988D01*
X78760Y112163D02*
X78760Y112163D01*
Y112963D01*
X63535Y148088D02*
X63585Y148038D01*
Y147163D02*
Y148038D01*
X58360Y125278D02*
X59975D01*
X60210Y125513D01*
X55010Y133413D02*
X60210Y128213D01*
Y125513D02*
Y128213D01*
X97810Y121596D02*
Y122496D01*
X97810Y122496D01*
X105610Y132096D02*
Y133696D01*
X105610Y133696D02*
X105610Y133696D01*
X117510Y133396D02*
Y134996D01*
Y133396D02*
X117510Y133396D01*
X80710Y123213D02*
Y124013D01*
X85710Y129113D02*
Y129895D01*
X92210Y130796D02*
Y131713D01*
X87660Y119563D02*
Y120705D01*
Y119563D02*
X87810Y119413D01*
X88410Y116713D02*
Y117413D01*
X87810Y118013D02*
X88410Y117413D01*
X85410Y115813D02*
Y116713D01*
X85410Y115813D02*
X85410Y115813D01*
X88610Y116513D02*
X89310D01*
X82393Y115713D02*
X83110D01*
X82310Y115796D02*
X82393Y115713D01*
X81345Y117048D02*
Y118013D01*
X81310Y117013D02*
X81345Y117048D01*
X83010Y120113D02*
Y121113D01*
X105110Y115313D02*
Y116396D01*
X81310Y121413D02*
Y121513D01*
Y122413D01*
X51175Y125278D02*
X53160D01*
X51010Y125113D02*
X51175Y125278D01*
X53195Y125313D02*
X54710D01*
X53160Y125278D02*
X53195Y125313D01*
X47610Y137913D02*
X49485D01*
X49485Y137913D01*
X49410Y137988D02*
Y140013D01*
Y137988D02*
X49485Y137913D01*
X50715Y132913D02*
Y134708D01*
X50710Y134713D02*
X50715Y134708D01*
Y132913D02*
X51910D01*
X51910Y132913D01*
X55010Y133413D02*
Y135113D01*
X54410Y135713D02*
X55010Y135113D01*
X48110Y135713D02*
X54410D01*
X55010Y135113D02*
X56110D01*
X47410Y136413D02*
X48110Y135713D01*
X44310Y136413D02*
X47410D01*
X43810Y135913D02*
X44310Y136413D01*
X43810Y119713D02*
Y135913D01*
Y119713D02*
X45410Y118113D01*
Y114013D02*
Y118113D01*
Y114013D02*
X45410Y114013D01*
Y110913D02*
Y114013D01*
Y110213D02*
Y110913D01*
X47310D01*
X48610Y122713D02*
Y123713D01*
X48610Y123713D02*
X48610Y123713D01*
X58610Y114613D02*
X60210Y113013D01*
X68510D01*
X69810Y114313D01*
Y116413D01*
X72410Y119013D01*
Y120043D01*
X72680Y120313D01*
Y121443D01*
X70810Y123313D02*
X72680Y121443D01*
X70810Y123313D02*
Y132813D01*
X69910Y133713D02*
X70810Y132813D01*
X66210Y133713D02*
X69910D01*
X64110Y135813D02*
X66210Y133713D01*
X64110Y135813D02*
Y137833D01*
X60210Y128213D02*
X62705D01*
X62805Y128313D01*
X66210Y110213D02*
X73410D01*
X65310Y109313D02*
X66210Y110213D01*
X63995Y109313D02*
X65310D01*
X77510Y110213D02*
X78010D01*
X75710Y108413D02*
X77510Y110213D01*
X75710Y104513D02*
Y108413D01*
X74610Y103413D02*
X75710Y104513D01*
X58710Y103413D02*
X74610D01*
X58510Y103613D02*
X58710Y103413D01*
X58510Y103613D02*
Y107413D01*
X60810Y116413D02*
X61110Y116113D01*
Y115713D02*
Y116013D01*
Y116113D01*
X60810Y116013D02*
Y116413D01*
Y116513D01*
Y116013D02*
X61110D01*
X61410D01*
X53910Y116413D02*
X54810D01*
X49010Y109838D02*
X49010Y109838D01*
X49010Y109113D02*
Y109838D01*
X50710Y108013D02*
X51660D01*
X45410Y108813D02*
X46310D01*
X46310Y108813D01*
D52*
X114292Y135313D02*
X114610Y134996D01*
X110510Y135313D02*
X114292D01*
X108410Y122295D02*
X108609D01*
X112810Y126496D02*
X114710Y128396D01*
Y131496D01*
Y135296D01*
X118310Y122813D02*
Y132213D01*
X119210Y121913D02*
X124710D01*
X118310Y122813D02*
X119210Y121913D01*
X125710Y122913D02*
Y134513D01*
X124710Y121913D02*
X125710Y122913D01*
X108609Y122295D02*
X109627Y123313D01*
X110527Y124213D01*
X112810Y126496D01*
X76110Y135413D02*
Y136313D01*
Y135413D02*
X76210Y135313D01*
X78210D01*
X79610D01*
D53*
X74335Y114938D02*
Y115363D01*
X74910Y115938D01*
X80135Y109798D02*
Y114138D01*
X79385Y114888D02*
X80135Y114138D01*
X78785Y114888D02*
X79385D01*
X78010Y107673D02*
X80135Y109798D01*
X72635Y114838D02*
X72735Y114938D01*
X72635Y112988D02*
Y114838D01*
X77185Y114888D02*
X77260Y114813D01*
Y112963D02*
Y114813D01*
X66160Y140413D02*
Y144488D01*
X67285Y145613D01*
Y145988D01*
X66485Y147588D02*
X67285D01*
X66060Y147163D02*
X66485Y147588D01*
X65085Y147163D02*
X66060D01*
X53160Y108213D02*
Y109838D01*
Y108213D02*
X55210D01*
X63010Y107498D02*
Y108328D01*
X62025Y109313D02*
X63010Y108328D01*
X56810Y108213D02*
Y108513D01*
X114610Y121213D02*
X115010Y120813D01*
X113210Y121213D02*
X114610D01*
X119660Y116563D02*
Y117013D01*
Y116563D02*
X119910Y116313D01*
X125010D01*
X105910Y106153D02*
Y110613D01*
Y106153D02*
X107910Y104153D01*
X110450D02*
X111710Y105413D01*
Y108013D01*
X112910Y109213D01*
Y110613D01*
X68210Y118313D02*
Y119063D01*
X67810Y117913D02*
X68210Y118313D01*
X62710Y118613D02*
X63410Y117913D01*
X62710Y118613D02*
Y119713D01*
X67310Y115713D02*
Y117913D01*
X67310Y117913D02*
X67310Y117913D01*
X63410Y117913D02*
X67310D01*
X67810D01*
X57910Y116413D02*
Y118613D01*
X58225Y118928D01*
X58360D01*
X63510Y107483D02*
Y107813D01*
X63810Y108113D01*
X63010Y106113D02*
Y106728D01*
X63010Y106113D02*
X63010Y106113D01*
D54*
X66160Y140413D02*
X69610D01*
X64150D02*
X66160D01*
X53542Y137913D02*
X53942Y137513D01*
X56110D02*
Y138913D01*
X60110Y142913D01*
X64110D01*
X56110Y135113D02*
Y137413D01*
X53942Y137513D02*
X56110D01*
X72610Y140413D02*
X75610D01*
X69610D02*
X72610D01*
X64110Y140373D02*
X64150Y140413D01*
X69910Y136313D02*
Y140113D01*
X69610Y140413D02*
X69910Y140113D01*
X66810Y121613D02*
Y124413D01*
D55*
X96910Y149013D02*
Y151113D01*
X98210Y152413D01*
X94310Y148913D02*
Y151053D01*
X95670Y152413D01*
X85078Y126845D02*
X85500D01*
X85900Y125666D02*
X87300Y124265D01*
X85900Y125666D02*
Y126845D01*
X84710Y127213D02*
X85078Y126845D01*
X84362Y126065D02*
X84720D01*
X84362D02*
X84410Y126113D01*
X84058Y125665D02*
X84720D01*
X83810Y125913D02*
X84058Y125665D01*
X83858Y125265D02*
X84720D01*
X83510Y125613D02*
X83858Y125265D01*
X83758Y124865D02*
X84720D01*
X83210Y125413D02*
X83758Y124865D01*
X83658Y124465D02*
X84721D01*
X82910Y125213D02*
X83658Y124465D01*
X82910Y142786D02*
X84210Y144086D01*
Y151113D01*
X85510Y152413D01*
X83210Y142662D02*
X86810Y146262D01*
Y151173D01*
X88050Y152413D01*
X83510Y142537D02*
X89310Y148337D01*
Y151133D01*
X90590Y152413D01*
X83810Y142313D02*
X89110Y147613D01*
X90610D01*
X91810Y148813D01*
Y151093D01*
X93130Y152413D01*
X82910Y125213D02*
Y142786D01*
X83210Y125413D02*
Y142662D01*
X83510Y125613D02*
Y142537D01*
X83810Y125913D02*
Y142313D01*
X120610Y127173D02*
X122010Y128573D01*
X123150Y127173D02*
X124510Y128533D01*
Y134913D01*
X119960Y139463D02*
X124510Y134913D01*
X122010Y128573D02*
Y136813D01*
X119710Y139113D02*
X122010Y136813D01*
X84710Y127213D02*
Y136913D01*
X86910Y139113D01*
X119710D01*
X118710Y138213D02*
X119310Y137613D01*
Y125933D02*
Y137613D01*
X120610Y129713D02*
Y137613D01*
X119310Y125933D02*
X120610Y124633D01*
X119510Y138713D02*
X120610Y137613D01*
X118710Y138213D02*
X118710D01*
X84410Y137213D02*
X86660Y139463D01*
X119960D01*
X83958Y123265D02*
X84721D01*
X83710Y123513D02*
X83958Y123265D01*
X84410Y126113D02*
Y137213D01*
X87210Y138713D02*
X119510D01*
X86710Y138213D02*
X87210Y138713D01*
X86710Y138163D02*
Y138213D01*
X87710Y138313D02*
X118610D01*
X118710Y138213D01*
X83458Y122865D02*
X84721D01*
X83410Y122913D02*
X83458Y122865D01*
X87510Y138113D02*
X87710Y138313D01*
X83862Y122465D02*
X84721D01*
X83710Y122313D02*
X83862Y122465D01*
X84238Y121686D02*
X85500D01*
X84210Y121713D02*
X84238Y121686D01*
X84910Y140313D02*
X86910Y142313D01*
Y142313D01*
X93210Y147813D02*
X94310Y148913D01*
X91710Y147813D02*
X93210D01*
X95210Y147313D02*
X96910Y149013D01*
X91910Y147313D02*
X95210D01*
X86910Y142313D02*
X91910Y147313D01*
X84410Y139013D02*
Y140513D01*
X91710Y147813D01*
X90110Y110313D02*
Y113413D01*
X88810Y114713D02*
X90110Y113413D01*
X85010Y114713D02*
X88810D01*
X84310Y115413D02*
X85010Y114713D01*
X84310Y115413D02*
Y118213D01*
X90130Y104153D02*
Y108693D01*
X90110Y108713D02*
X90130Y108693D01*
D56*
X102828Y130396D02*
X105610D01*
X102710Y130513D02*
X102828Y130396D01*
X102710Y130513D02*
Y131496D01*
X102210Y117596D02*
X102810Y118196D01*
X105110D01*
X48250Y132779D02*
X49520D01*
X101610Y126696D02*
X101710Y126595D01*
X108510D01*
X107110Y119996D02*
X110510D01*
X112810Y122296D01*
X101610Y124276D02*
X101891Y123996D01*
X103972Y123133D02*
X107110Y119996D01*
X103972Y123133D02*
Y123996D01*
X103972Y123996D02*
Y124861D01*
Y123996D02*
X103972Y123996D01*
X101891D02*
X103972D01*
X108510Y126595D02*
Y131496D01*
X68015Y125618D02*
Y128314D01*
X66810Y124413D02*
X68015Y125618D01*
X66810Y121613D02*
X67158Y121266D01*
X70140D01*
D57*
X50610Y118928D02*
Y119038D01*
Y118928D02*
X53144D01*
X48870D02*
X50610D01*
Y119038D02*
X50610Y119038D01*
X48760D02*
X48870Y118928D01*
X49520Y124478D02*
Y127563D01*
Y124478D02*
X49990Y124008D01*
X53144D01*
X51185Y122738D02*
X53144D01*
X53144Y122738D01*
X45085Y128438D02*
Y129363D01*
Y128438D02*
X45960Y127563D01*
X46980D01*
X46935Y135288D02*
X46980Y135243D01*
X45085Y130963D02*
Y134138D01*
X45435Y134488D01*
Y135288D01*
X46935D02*
Y136288D01*
X46980Y132779D02*
Y135243D01*
X48250Y124453D02*
Y127563D01*
X47410Y122013D02*
X47910Y121513D01*
X47410Y122013D02*
Y123613D01*
X48250Y124453D01*
X47910Y121513D02*
X49110D01*
X50425Y120198D01*
X53144D01*
X50235Y122738D02*
X51185D01*
X50210Y122713D02*
X50235Y122738D01*
X53160Y118928D02*
X54895D01*
X56410Y117413D01*
Y115213D02*
X57010Y114613D01*
X56410Y115213D02*
Y116413D01*
Y117413D01*
X58610Y112613D02*
Y112613D01*
X57010Y114213D02*
X58610Y112613D01*
X57010Y114213D02*
Y114613D01*
D58*
X86910Y120804D02*
X87123Y121017D01*
X86910Y117013D02*
Y120804D01*
X86310Y120895D02*
Y121700D01*
X85610Y120196D02*
X86310Y120895D01*
X61252Y121368D02*
X61407Y121213D01*
X89891Y126069D02*
X90308D01*
X86700Y125648D02*
Y126845D01*
X86330Y125300D02*
X86700Y125648D01*
X86330Y125300D02*
X86330Y125300D01*
X88723Y126882D02*
Y127745D01*
X88723Y126845D02*
X88723Y126882D01*
X88723Y126845D02*
X88723Y126856D01*
X88316Y125281D02*
X88723Y125662D01*
X88283Y125313D02*
X88316Y125281D01*
X87910Y125662D02*
X88283Y125313D01*
X87910Y126845D02*
X87910Y126856D01*
X88520Y123072D02*
X88723D01*
X87910D02*
X88113D01*
X87910Y121700D02*
Y123072D01*
Y121700D02*
X87910Y121675D01*
X88723Y121700D02*
Y123072D01*
X86310Y123275D02*
Y123478D01*
X88316Y123275D02*
X88520Y123072D01*
X89891Y125662D02*
X90907D01*
X89891Y125666D02*
X89891Y125662D01*
X90907Y123275D02*
Y123478D01*
X89891Y121040D02*
Y122462D01*
X89891Y122462D01*
X87100Y121675D02*
X87123Y121700D01*
X88316Y126845D02*
X88316Y126856D01*
Y129489D01*
X89891Y126066D02*
X89891Y126069D01*
X89104Y126845D02*
X89104Y126856D01*
Y127263D01*
X89713Y127872D01*
X89104Y121700D02*
X89104Y121675D01*
X87504Y127669D02*
X87707Y127872D01*
X87504Y126856D02*
Y127669D01*
X87504Y126845D02*
X87504Y126856D01*
X85900Y121675D02*
X85903Y121700D01*
X86310Y123275D02*
X86513Y123072D01*
X88113D02*
X88316Y123275D01*
X87910Y125662D02*
Y126856D01*
X88723Y125662D02*
Y126856D01*
X87123Y121017D02*
Y121700D01*
X87504Y120862D02*
X87660Y120705D01*
X86700Y121675D02*
Y123072D01*
X86513D02*
X86700D01*
X89891Y122843D02*
X90475D01*
X89891Y123250D02*
X90882D01*
X90475Y122843D02*
X90882Y123250D01*
X89891Y123656D02*
X90907D01*
Y123478D02*
Y123656D01*
X89891Y124866D02*
X90491D01*
X89891Y125266D02*
X90891D01*
X90491Y124866D02*
X90891Y125266D01*
X86117Y123671D02*
X86310Y123478D01*
X84720Y123656D02*
X86102D01*
X86117Y123671D01*
X86222Y125408D02*
X86330Y125300D01*
X86183Y125408D02*
X86222D01*
X90907Y125281D02*
Y125496D01*
Y125662D01*
X86300Y121675D02*
X86310Y121700D01*
X84885Y120171D02*
X85903Y121189D01*
Y121700D01*
X88901Y124469D02*
X91066D01*
X88520Y124062D02*
X90660D01*
X91066Y124469D01*
X88723Y127745D02*
X89010Y128032D01*
Y128246D01*
X87504Y121700D02*
X87504Y121686D01*
X83110Y124062D02*
X84720D01*
X89713Y127872D02*
Y129792D01*
X89510Y129996D02*
X89713Y129792D01*
X89528Y130013D02*
X90910D01*
X89510Y129996D02*
X89528Y130013D01*
X90308Y126069D02*
X90710Y126471D01*
Y128413D01*
X90910Y128613D01*
X91066Y124469D02*
X95065D01*
X95910Y125313D01*
Y125513D01*
X87504Y121686D02*
X87504Y121675D01*
X89891Y121040D02*
X90418Y120513D01*
X91110D01*
X90310Y119113D02*
X91110D01*
X89910Y119513D02*
X90310Y119113D01*
X89110Y119513D02*
X89910D01*
X89104Y119519D02*
X89110Y119513D01*
X89104Y119519D02*
Y121700D01*
X86910Y117013D02*
X87010Y116913D01*
X88300Y120823D02*
Y121686D01*
Y120823D02*
X88610Y120513D01*
Y118413D02*
Y120513D01*
Y118413D02*
X89010Y118013D01*
X89410D01*
X85610Y118513D02*
Y120196D01*
X85410Y118313D02*
X85610Y118513D01*
X87504Y120862D02*
Y121700D01*
X84410Y119513D02*
Y120113D01*
X83910Y119013D02*
X84410Y119513D01*
X81310Y120013D02*
X82310Y119013D01*
X84310Y120171D02*
X84885D01*
X83260Y118013D02*
Y118963D01*
X83210Y119013D02*
X83260Y118963D01*
X82310Y119013D02*
X83210D01*
X83910D01*
X58360Y121468D02*
X61055D01*
X61110Y121413D01*
Y119713D02*
Y121413D01*
X58360Y122738D02*
X63585D01*
X65210Y121113D01*
Y119063D02*
Y121113D01*
D59*
X64410Y107513D02*
Y108898D01*
X63685Y106788D02*
X64410Y107513D01*
X63685Y105113D02*
Y106788D01*
X63995Y109313D02*
X64410Y108898D01*
X53210Y110488D02*
X54135D01*
X54710Y109913D01*
X97110Y126213D02*
X97193Y126131D01*
X98110D01*
X99160D01*
X99310Y121696D02*
Y123540D01*
D60*
X88520Y124062D02*
X88901Y124469D01*
X88723Y121700D02*
X88723Y121675D01*
D61*
X96285Y127401D02*
X99360D01*
X96510Y127626D02*
Y131496D01*
X96285Y127401D02*
X96510Y127626D01*
X90907Y125496D02*
X92310D01*
X92840Y126026D01*
X97892Y124861D02*
X99360D01*
X96510Y117496D02*
Y123478D01*
X97892Y124861D01*
X90907Y123478D02*
X96510D01*
X92840Y126026D02*
X93890D01*
X95265Y127401D01*
X96285D01*
D62*
X82068Y124062D02*
X82076Y124071D01*
X93610Y128546D02*
Y129546D01*
X93704Y120989D02*
X93847Y120846D01*
X94910D01*
X93610Y129546D02*
Y130796D01*
X93610Y130796D01*
X82076Y124071D02*
X82085Y124062D01*
X83110D01*
D63*
X116810Y118913D02*
Y120813D01*
Y118913D02*
X117960Y117763D01*
Y117013D02*
Y117763D01*
D64*
X41810Y154913D02*
X127810D01*
Y101613D02*
Y154913D01*
X41810Y101613D02*
Y154913D01*
Y101613D02*
X127810D01*
D65*
X48810Y105213D02*
D03*
D66*
X78010Y105133D02*
D03*
Y107673D02*
D03*
X73410Y105133D02*
D03*
Y107673D02*
D03*
X64110Y137833D02*
D03*
Y140373D02*
D03*
X123150Y127173D02*
D03*
Y124633D02*
D03*
Y129713D02*
D03*
X120610Y124633D02*
D03*
Y127173D02*
D03*
X102830Y149873D02*
D03*
X105370D02*
D03*
X107910D02*
D03*
X110450D02*
D03*
X112990D02*
D03*
X115530D02*
D03*
X118070D02*
D03*
X102830Y152413D02*
D03*
X105370D02*
D03*
X107910D02*
D03*
X110450D02*
D03*
X112990D02*
D03*
X115530D02*
D03*
X118070D02*
D03*
X120610Y149873D02*
D03*
X80430D02*
D03*
X82970D02*
D03*
X85510D02*
D03*
X88050D02*
D03*
X90590D02*
D03*
X93130D02*
D03*
X95670D02*
D03*
X80430Y152413D02*
D03*
X82970D02*
D03*
X85510D02*
D03*
X88050D02*
D03*
X90590D02*
D03*
X93130D02*
D03*
X95670D02*
D03*
X98210Y149873D02*
D03*
X87590Y104153D02*
D03*
X90130D02*
D03*
X92670D02*
D03*
X95210D02*
D03*
X97750D02*
D03*
X100290D02*
D03*
X102830D02*
D03*
X120610Y106693D02*
D03*
X118070D02*
D03*
X115530D02*
D03*
X112990D02*
D03*
X110450D02*
D03*
X107910D02*
D03*
X120610Y104153D02*
D03*
X118070D02*
D03*
X115530D02*
D03*
X112990D02*
D03*
X110450D02*
D03*
D67*
X78010Y110213D02*
D03*
X73410D02*
D03*
X64110Y142913D02*
D03*
X120610Y129713D02*
D03*
D68*
Y152413D02*
D03*
X98210D02*
D03*
X85050Y104153D02*
D03*
X107910D02*
D03*
D69*
X76862Y152413D02*
D03*
X115450Y110613D02*
D03*
X108450D02*
D03*
D70*
X74322Y152413D02*
D03*
X112910Y110613D02*
D03*
X105910D02*
D03*
D71*
X99810Y135296D02*
D03*
D72*
X48910Y144913D02*
D03*
D73*
X53610Y147913D02*
D03*
D74*
Y141913D02*
D03*
D75*
X102830Y106693D02*
D03*
X97750D02*
D03*
X100290D02*
D03*
D76*
X95210D02*
D03*
D77*
X110510Y135313D02*
D03*
X112110D02*
D03*
X47610Y137913D02*
D03*
X49410Y140013D02*
D03*
X59110Y135513D02*
D03*
Y139213D02*
D03*
X60610Y137413D02*
D03*
X67710Y143513D02*
D03*
X77510D02*
D03*
X71010Y144613D02*
D03*
X74110D02*
D03*
X78210Y135313D02*
D03*
X79610D02*
D03*
D78*
X125310Y104113D02*
D03*
X44310Y152413D02*
D03*
X125310Y152313D02*
D03*
X44410Y104013D02*
D03*
D79*
X87660Y120705D02*
D03*
X63710Y121413D02*
D03*
X60110Y124013D02*
D03*
X93610Y128546D02*
D03*
X93704Y120989D02*
D03*
X83710Y123513D02*
D03*
X86710Y138163D02*
D03*
X83410Y122913D02*
D03*
X87510Y138113D02*
D03*
X80710Y123213D02*
D03*
X83710Y122313D02*
D03*
X84210Y121713D02*
D03*
X84910Y140313D02*
D03*
X84410Y139013D02*
D03*
X84310Y118213D02*
D03*
X63810Y108113D02*
D03*
X62310D02*
D03*
X63010Y106113D02*
D03*
D80*
X51185Y122738D02*
D03*
D81*
X105610Y133696D02*
D03*
X117510Y133396D02*
D03*
X118310Y129713D02*
D03*
Y127213D02*
D03*
Y124613D02*
D03*
X120610Y121913D02*
D03*
X123310D02*
D03*
X125710Y124613D02*
D03*
Y127113D02*
D03*
Y129713D02*
D03*
X125210Y122413D02*
D03*
X118710Y122413D02*
D03*
X118310Y132213D02*
D03*
X125710Y134513D02*
D03*
Y132313D02*
D03*
X109627Y123313D02*
D03*
X110527Y124213D02*
D03*
X112910Y118313D02*
D03*
Y117113D02*
D03*
D82*
X98110Y126131D02*
D03*
X99310Y122613D02*
D03*
M02*
