G04 Layer_Physical_Order=4*
G04 Layer_Color=12500520*
%FSLAX43Y43*%
%MOMM*%
G71*
G01*
G75*
%ADD26R,4.064X1.524*%
%ADD35C,0.600*%
%ADD55C,0.127*%
%ADD64C,0.100*%
%ADD65C,1.800*%
%ADD66C,1.550*%
%ADD67R,1.550X1.550*%
%ADD68R,1.550X1.550*%
%ADD69C,1.600*%
%ADD70R,1.600X1.600*%
%ADD71O,2.000X1.200*%
%ADD72R,1.500X3.500*%
%ADD73R,3.500X1.500*%
%ADD74R,4.000X1.500*%
%ADD75C,1.400*%
%ADD76R,1.400X1.400*%
%ADD77C,1.270*%
%ADD78C,4.000*%
%ADD79C,0.500*%
%ADD80C,0.610*%
%ADD81C,1.000*%
%ADD82C,0.800*%
D26*
X125610Y118553D02*
D03*
Y113473D02*
D03*
D35*
X50766Y129213D02*
D03*
X62210Y116213D02*
D03*
Y115113D02*
D03*
X60010D02*
D03*
X59610Y117413D02*
D03*
X42610Y148713D02*
D03*
X126910Y107513D02*
D03*
Y111913D02*
D03*
Y120113D02*
D03*
Y122813D02*
D03*
Y128113D02*
D03*
Y133313D02*
D03*
Y138713D02*
D03*
Y148813D02*
D03*
Y144013D02*
D03*
X42610Y143913D02*
D03*
Y133313D02*
D03*
Y138713D02*
D03*
Y128113D02*
D03*
X42710Y122813D02*
D03*
Y117513D02*
D03*
Y107413D02*
D03*
Y112313D02*
D03*
X123860Y111863D02*
D03*
X123960Y120163D02*
D03*
X123010Y113513D02*
D03*
X122900Y118573D02*
D03*
X119210Y154073D02*
D03*
X114910D02*
D03*
X110610D02*
D03*
X106310D02*
D03*
X102010D02*
D03*
X97710D02*
D03*
X93410D02*
D03*
X89110D02*
D03*
X84810D02*
D03*
X80510D02*
D03*
X76210D02*
D03*
X71910D02*
D03*
X67610D02*
D03*
X63310D02*
D03*
X59010D02*
D03*
X54710D02*
D03*
X50410D02*
D03*
X59010Y102473D02*
D03*
X63310D02*
D03*
X67610D02*
D03*
X71910D02*
D03*
X76210D02*
D03*
X119210D02*
D03*
X114910D02*
D03*
X110610D02*
D03*
X106310D02*
D03*
X102010D02*
D03*
X97710D02*
D03*
X80510D02*
D03*
X84810D02*
D03*
X89110D02*
D03*
X93410D02*
D03*
X54710D02*
D03*
X74910Y115938D02*
D03*
X78760Y112163D02*
D03*
X74110Y112138D02*
D03*
X63535Y148088D02*
D03*
X51310Y126113D02*
D03*
X50410Y102473D02*
D03*
X87707Y127872D02*
D03*
X88485Y123071D02*
D03*
X86135Y123096D02*
D03*
X86183Y125408D02*
D03*
X88535Y125421D02*
D03*
X56691Y124044D02*
D03*
X51510Y127813D02*
D03*
Y128613D02*
D03*
X89010Y128246D02*
D03*
X91085Y124271D02*
D03*
X97810Y122496D02*
D03*
X83110Y124062D02*
D03*
X85710Y127813D02*
D03*
Y129113D02*
D03*
X92210Y131713D02*
D03*
X95210Y125413D02*
D03*
X86410Y128213D02*
D03*
X88410Y117413D02*
D03*
X89310Y116513D02*
D03*
X85410Y115813D02*
D03*
X83110Y115713D02*
D03*
X81310Y117013D02*
D03*
X83010Y121113D02*
D03*
X81310Y122413D02*
D03*
X105110Y115313D02*
D03*
X54710Y125313D02*
D03*
X50710Y134713D02*
D03*
X51910Y132913D02*
D03*
X50710Y108013D02*
D03*
X46310Y108813D02*
D03*
X49010Y112513D02*
D03*
X47610Y112013D02*
D03*
X49510Y114013D02*
D03*
X51510D02*
D03*
X48410Y115413D02*
D03*
X52410Y115213D02*
D03*
X52510Y112813D02*
D03*
X48610Y123713D02*
D03*
X61510Y104413D02*
D03*
Y105813D02*
D03*
X59610Y104413D02*
D03*
X53910Y116413D02*
D03*
X49010Y109113D02*
D03*
D55*
X83710Y123513D02*
X84110D01*
X84910Y124313D01*
Y136363D01*
X86710Y138163D01*
X83410Y122913D02*
X84010D01*
X85210Y124113D01*
Y135813D01*
X87510Y138113D01*
X83010Y122313D02*
X83710D01*
X82510Y122813D02*
X83010Y122313D01*
X82510Y122813D02*
Y125013D01*
X84210Y126713D01*
Y138913D01*
X83010Y121713D02*
X84210D01*
X82110Y122613D02*
X83010Y121713D01*
X82110Y122613D02*
Y125213D01*
X83910Y127013D01*
Y139313D01*
X84910Y140313D01*
X84210Y138913D02*
X84310Y139013D01*
X84410D01*
X84310Y118213D02*
Y121613D01*
X84210Y121713D02*
X84310Y121613D01*
D64*
X41810Y154913D02*
X127810D01*
Y101613D02*
Y154913D01*
X41810Y101613D02*
Y154913D01*
Y101613D02*
X127810D01*
D65*
X48810Y105213D02*
D03*
D66*
X78010Y105133D02*
D03*
Y107673D02*
D03*
X73410Y105133D02*
D03*
Y107673D02*
D03*
X64110Y137833D02*
D03*
Y140373D02*
D03*
X123150Y127173D02*
D03*
Y124633D02*
D03*
Y129713D02*
D03*
X120610Y124633D02*
D03*
Y127173D02*
D03*
X102830Y149873D02*
D03*
X105370D02*
D03*
X107910D02*
D03*
X110450D02*
D03*
X112990D02*
D03*
X115530D02*
D03*
X118070D02*
D03*
X102830Y152413D02*
D03*
X105370D02*
D03*
X107910D02*
D03*
X110450D02*
D03*
X112990D02*
D03*
X115530D02*
D03*
X118070D02*
D03*
X120610Y149873D02*
D03*
X80430D02*
D03*
X82970D02*
D03*
X85510D02*
D03*
X88050D02*
D03*
X90590D02*
D03*
X93130D02*
D03*
X95670D02*
D03*
X80430Y152413D02*
D03*
X82970D02*
D03*
X85510D02*
D03*
X88050D02*
D03*
X90590D02*
D03*
X93130D02*
D03*
X95670D02*
D03*
X98210Y149873D02*
D03*
X87590Y104153D02*
D03*
X90130D02*
D03*
X92670D02*
D03*
X95210D02*
D03*
X97750D02*
D03*
X100290D02*
D03*
X102830D02*
D03*
X120610Y106693D02*
D03*
X118070D02*
D03*
X115530D02*
D03*
X112990D02*
D03*
X110450D02*
D03*
X107910D02*
D03*
X120610Y104153D02*
D03*
X118070D02*
D03*
X115530D02*
D03*
X112990D02*
D03*
X110450D02*
D03*
D67*
X78010Y110213D02*
D03*
X73410D02*
D03*
X64110Y142913D02*
D03*
X120610Y129713D02*
D03*
D68*
Y152413D02*
D03*
X98210D02*
D03*
X85050Y104153D02*
D03*
X107910D02*
D03*
D69*
X76862Y152413D02*
D03*
X115450Y110613D02*
D03*
X108450D02*
D03*
D70*
X74322Y152413D02*
D03*
X112910Y110613D02*
D03*
X105910D02*
D03*
D71*
X99810Y135296D02*
D03*
D72*
X48910Y144913D02*
D03*
D73*
X53610Y147913D02*
D03*
D74*
Y141913D02*
D03*
D75*
X102830Y106693D02*
D03*
X97750D02*
D03*
X100290D02*
D03*
D76*
X95210D02*
D03*
D77*
X110510Y135313D02*
D03*
X112110D02*
D03*
X47610Y137913D02*
D03*
X49410Y140013D02*
D03*
X59110Y135513D02*
D03*
Y139213D02*
D03*
X60610Y137413D02*
D03*
X67710Y143513D02*
D03*
X77510D02*
D03*
X71010Y144613D02*
D03*
X74110D02*
D03*
X78210Y135313D02*
D03*
X79610D02*
D03*
D78*
X125310Y104113D02*
D03*
X44310Y152413D02*
D03*
X125310Y152313D02*
D03*
X44410Y104013D02*
D03*
D79*
X87660Y120705D02*
D03*
X63710Y121413D02*
D03*
X60110Y124013D02*
D03*
X93610Y128546D02*
D03*
X93704Y120989D02*
D03*
X83710Y123513D02*
D03*
X86710Y138163D02*
D03*
X83410Y122913D02*
D03*
X87510Y138113D02*
D03*
X80710Y123213D02*
D03*
X83710Y122313D02*
D03*
X84210Y121713D02*
D03*
X84910Y140313D02*
D03*
X84410Y139013D02*
D03*
X84310Y118213D02*
D03*
X63810Y108113D02*
D03*
X62310D02*
D03*
X63010Y106113D02*
D03*
D80*
X51185Y122738D02*
D03*
D81*
X105610Y133696D02*
D03*
X117510Y133396D02*
D03*
X118310Y129713D02*
D03*
Y127213D02*
D03*
Y124613D02*
D03*
X120610Y121913D02*
D03*
X123310D02*
D03*
X125710Y124613D02*
D03*
Y127113D02*
D03*
Y129713D02*
D03*
X125210Y122413D02*
D03*
X118710Y122413D02*
D03*
X118310Y132213D02*
D03*
X125710Y134513D02*
D03*
Y132313D02*
D03*
X109627Y123313D02*
D03*
X110527Y124213D02*
D03*
X112910Y118313D02*
D03*
Y117113D02*
D03*
D82*
X98110Y126131D02*
D03*
X99310Y122613D02*
D03*
M02*
