G04 Layer_Physical_Order=2*
G04 Layer_Color=16765976*
%FSLAX43Y43*%
%MOMM*%
G71*
G01*
G75*
%ADD35C,0.600*%
%ADD64C,0.100*%
%ADD66C,1.550*%
%ADD72R,1.500X3.500*%
%ADD77C,1.270*%
%ADD78C,4.000*%
%ADD79C,0.500*%
%ADD81C,1.000*%
G36*
X127810Y101703D02*
X127720Y101613D01*
X41810Y101613D01*
X41810Y154823D01*
X41900Y154913D01*
X127810D01*
Y101703D01*
D02*
G37*
%LPC*%
G36*
X74439Y111242D02*
X72381D01*
Y109184D01*
X74439D01*
Y111242D01*
D02*
G37*
G36*
X63810Y108627D02*
X63613Y108588D01*
X63447Y108477D01*
X63335Y108310D01*
X63296Y108113D01*
X63335Y107917D01*
X63447Y107750D01*
X63613Y107638D01*
X63810Y107599D01*
X64007Y107638D01*
X64173Y107750D01*
X64285Y107917D01*
X64324Y108113D01*
X64285Y108310D01*
X64173Y108477D01*
X64007Y108588D01*
X63810Y108627D01*
D02*
G37*
G36*
X62310D02*
X62113Y108588D01*
X61947Y108477D01*
X61835Y108310D01*
X61796Y108113D01*
X61835Y107917D01*
X61947Y107750D01*
X62113Y107638D01*
X62310Y107599D01*
X62507Y107638D01*
X62673Y107750D01*
X62785Y107917D01*
X62824Y108113D01*
X62785Y108310D01*
X62673Y108477D01*
X62507Y108588D01*
X62310Y108627D01*
D02*
G37*
G36*
X79039Y111242D02*
X76981D01*
Y109184D01*
X79039D01*
Y111242D01*
D02*
G37*
G36*
X106964Y111667D02*
X104856D01*
Y109559D01*
X106964D01*
Y111667D01*
D02*
G37*
G36*
X115450Y111676D02*
X115175Y111640D01*
X114918Y111534D01*
X114698Y111365D01*
X114529Y111145D01*
X114423Y110888D01*
X114387Y110613D01*
X114423Y110338D01*
X114529Y110082D01*
X114698Y109861D01*
X114918Y109693D01*
X115175Y109586D01*
X115450Y109550D01*
X115725Y109586D01*
X115982Y109693D01*
X116202Y109861D01*
X116371Y110082D01*
X116477Y110338D01*
X116513Y110613D01*
X116477Y110888D01*
X116371Y111145D01*
X116202Y111365D01*
X115982Y111534D01*
X115725Y111640D01*
X115450Y111676D01*
D02*
G37*
G36*
X108450D02*
X108175Y111640D01*
X107918Y111534D01*
X107698Y111365D01*
X107529Y111145D01*
X107423Y110888D01*
X107387Y110613D01*
X107423Y110338D01*
X107529Y110082D01*
X107698Y109861D01*
X107918Y109693D01*
X108175Y109586D01*
X108450Y109550D01*
X108725Y109586D01*
X108982Y109693D01*
X109202Y109861D01*
X109371Y110082D01*
X109477Y110338D01*
X109513Y110613D01*
X109477Y110888D01*
X109371Y111145D01*
X109202Y111365D01*
X108982Y111534D01*
X108725Y111640D01*
X108450Y111676D01*
D02*
G37*
G36*
X100290Y107655D02*
X100041Y107623D01*
X99809Y107526D01*
X99610Y107374D01*
X99457Y107174D01*
X99361Y106942D01*
X99328Y106693D01*
X99361Y106444D01*
X99457Y106212D01*
X99610Y106013D01*
X99809Y105860D01*
X100041Y105764D01*
X100290Y105731D01*
X100539Y105764D01*
X100771Y105860D01*
X100970Y106013D01*
X101123Y106212D01*
X101219Y106444D01*
X101252Y106693D01*
X101219Y106942D01*
X101123Y107174D01*
X100970Y107374D01*
X100771Y107526D01*
X100539Y107623D01*
X100290Y107655D01*
D02*
G37*
G36*
X97750D02*
X97501Y107623D01*
X97269Y107526D01*
X97070Y107374D01*
X96917Y107174D01*
X96821Y106942D01*
X96788Y106693D01*
X96821Y106444D01*
X96917Y106212D01*
X97070Y106013D01*
X97269Y105860D01*
X97501Y105764D01*
X97750Y105731D01*
X97999Y105764D01*
X98231Y105860D01*
X98430Y106013D01*
X98583Y106212D01*
X98679Y106444D01*
X98712Y106693D01*
X98679Y106942D01*
X98583Y107174D01*
X98430Y107374D01*
X98231Y107526D01*
X97999Y107623D01*
X97750Y107655D01*
D02*
G37*
G36*
X120610Y107731D02*
X120341Y107696D01*
X120091Y107592D01*
X119876Y107427D01*
X119711Y107212D01*
X119607Y106962D01*
X119572Y106693D01*
X119607Y106425D01*
X119711Y106174D01*
X119876Y105959D01*
X120091Y105794D01*
X120341Y105691D01*
X120610Y105655D01*
X120879Y105691D01*
X121129Y105794D01*
X121344Y105959D01*
X121509Y106174D01*
X121613Y106425D01*
X121648Y106693D01*
X121613Y106962D01*
X121509Y107212D01*
X121344Y107427D01*
X121129Y107592D01*
X120879Y107696D01*
X120610Y107731D01*
D02*
G37*
G36*
X102830Y107655D02*
X102581Y107623D01*
X102349Y107526D01*
X102150Y107374D01*
X101997Y107174D01*
X101901Y106942D01*
X101868Y106693D01*
X101901Y106444D01*
X101997Y106212D01*
X102150Y106013D01*
X102349Y105860D01*
X102581Y105764D01*
X102830Y105731D01*
X103079Y105764D01*
X103311Y105860D01*
X103510Y106013D01*
X103663Y106212D01*
X103759Y106444D01*
X103792Y106693D01*
X103759Y106942D01*
X103663Y107174D01*
X103510Y107374D01*
X103311Y107526D01*
X103079Y107623D01*
X102830Y107655D01*
D02*
G37*
G36*
X78010Y108711D02*
X77741Y108676D01*
X77491Y108572D01*
X77276Y108407D01*
X77111Y108192D01*
X77007Y107942D01*
X76972Y107673D01*
X77007Y107405D01*
X77111Y107154D01*
X77276Y106939D01*
X77491Y106774D01*
X77741Y106671D01*
X78010Y106635D01*
X78279Y106671D01*
X78529Y106774D01*
X78744Y106939D01*
X78909Y107154D01*
X79013Y107405D01*
X79048Y107673D01*
X79013Y107942D01*
X78909Y108192D01*
X78744Y108407D01*
X78529Y108572D01*
X78279Y108676D01*
X78010Y108711D01*
D02*
G37*
G36*
X73410D02*
X73141Y108676D01*
X72891Y108572D01*
X72676Y108407D01*
X72511Y108192D01*
X72407Y107942D01*
X72372Y107673D01*
X72407Y107405D01*
X72511Y107154D01*
X72676Y106939D01*
X72891Y106774D01*
X73141Y106671D01*
X73410Y106635D01*
X73679Y106671D01*
X73929Y106774D01*
X74144Y106939D01*
X74309Y107154D01*
X74413Y107405D01*
X74448Y107673D01*
X74413Y107942D01*
X74309Y108192D01*
X74144Y108407D01*
X73929Y108572D01*
X73679Y108676D01*
X73410Y108711D01*
D02*
G37*
G36*
X96164Y107647D02*
X94256D01*
Y105739D01*
X96164D01*
Y107647D01*
D02*
G37*
G36*
X51185Y123308D02*
X50967Y123265D01*
X50782Y123141D01*
X50659Y122956D01*
X50615Y122738D01*
X50659Y122520D01*
X50782Y122335D01*
X50967Y122212D01*
X51185Y122168D01*
X51403Y122212D01*
X51588Y122335D01*
X51711Y122520D01*
X51755Y122738D01*
X51711Y122956D01*
X51588Y123141D01*
X51403Y123265D01*
X51185Y123308D01*
D02*
G37*
G36*
X99310Y123273D02*
X99139Y123250D01*
X98980Y123184D01*
X98844Y123080D01*
X98739Y122943D01*
X98673Y122784D01*
X98650Y122613D01*
X98673Y122442D01*
X98739Y122283D01*
X98844Y122147D01*
X98980Y122042D01*
X99139Y121976D01*
X99310Y121954D01*
X99481Y121976D01*
X99640Y122042D01*
X99776Y122147D01*
X99881Y122283D01*
X99947Y122442D01*
X99970Y122613D01*
X99947Y122784D01*
X99881Y122943D01*
X99776Y123080D01*
X99640Y123184D01*
X99481Y123250D01*
X99310Y123273D01*
D02*
G37*
G36*
X81310Y122978D02*
X81094Y122935D01*
X80911Y122813D01*
X80788Y122629D01*
X80745Y122413D01*
X80788Y122197D01*
X80911Y122014D01*
X81094Y121891D01*
X81310Y121848D01*
X81526Y121891D01*
X81709Y122014D01*
X81832Y122197D01*
X81875Y122413D01*
X81832Y122629D01*
X81709Y122813D01*
X81526Y122935D01*
X81310Y122978D01*
D02*
G37*
G36*
X124215Y124483D02*
X123300D01*
Y123569D01*
X123431Y123586D01*
X123692Y123694D01*
X123917Y123866D01*
X124089Y124091D01*
X124197Y124353D01*
X124215Y124483D01*
D02*
G37*
G36*
X110527Y124974D02*
X110330Y124948D01*
X110146Y124872D01*
X109989Y124751D01*
X109868Y124593D01*
X109792Y124410D01*
X109766Y124213D01*
X109774Y124156D01*
X109684Y124066D01*
X109627Y124074D01*
X109430Y124048D01*
X109246Y123972D01*
X109089Y123851D01*
X108968Y123693D01*
X108892Y123510D01*
X108866Y123313D01*
X108892Y123116D01*
X108968Y122933D01*
X109089Y122775D01*
X109246Y122655D01*
X109430Y122579D01*
X109627Y122553D01*
X109824Y122579D01*
X110007Y122655D01*
X110164Y122775D01*
X110285Y122933D01*
X110361Y123116D01*
X110387Y123313D01*
X110380Y123370D01*
X110469Y123460D01*
X110527Y123453D01*
X110724Y123479D01*
X110907Y123555D01*
X111064Y123675D01*
X111185Y123833D01*
X111261Y124016D01*
X111287Y124213D01*
X111261Y124410D01*
X111185Y124593D01*
X111064Y124751D01*
X110907Y124872D01*
X110724Y124948D01*
X110527Y124974D01*
D02*
G37*
G36*
X120610Y125671D02*
X120341Y125636D01*
X120091Y125532D01*
X119876Y125367D01*
X119711Y125152D01*
X119607Y124902D01*
X119572Y124633D01*
X119607Y124365D01*
X119711Y124114D01*
X119876Y123899D01*
X120091Y123734D01*
X120341Y123631D01*
X120610Y123595D01*
X120879Y123631D01*
X121129Y123734D01*
X121344Y123899D01*
X121509Y124114D01*
X121613Y124365D01*
X121648Y124633D01*
X121613Y124902D01*
X121509Y125152D01*
X121344Y125367D01*
X121129Y125532D01*
X120879Y125636D01*
X120610Y125671D01*
D02*
G37*
G36*
X123000Y124483D02*
X122085D01*
X122103Y124353D01*
X122211Y124091D01*
X122383Y123866D01*
X122608Y123694D01*
X122869Y123586D01*
X123000Y123569D01*
Y124483D01*
D02*
G37*
G36*
X112910Y119074D02*
X112713Y119048D01*
X112530Y118972D01*
X112372Y118851D01*
X112251Y118693D01*
X112175Y118510D01*
X112149Y118313D01*
X112175Y118116D01*
X112251Y117933D01*
X112372Y117775D01*
Y117651D01*
X112251Y117493D01*
X112175Y117310D01*
X112149Y117113D01*
X112175Y116916D01*
X112251Y116733D01*
X112372Y116575D01*
X112530Y116455D01*
X112713Y116379D01*
X112910Y116353D01*
X113107Y116379D01*
X113290Y116455D01*
X113448Y116575D01*
X113569Y116733D01*
X113645Y116916D01*
X113671Y117113D01*
X113645Y117310D01*
X113569Y117493D01*
X113448Y117651D01*
Y117775D01*
X113569Y117933D01*
X113645Y118116D01*
X113671Y118313D01*
X113645Y118510D01*
X113569Y118693D01*
X113448Y118851D01*
X113290Y118972D01*
X113107Y119048D01*
X112910Y119074D01*
D02*
G37*
G36*
X74910Y116503D02*
X74694Y116460D01*
X74511Y116338D01*
X74388Y116154D01*
X74345Y115938D01*
X74388Y115722D01*
X74511Y115539D01*
X74694Y115416D01*
X74910Y115373D01*
X75126Y115416D01*
X75309Y115539D01*
X75432Y115722D01*
X75475Y115938D01*
X75432Y116154D01*
X75309Y116338D01*
X75126Y116460D01*
X74910Y116503D01*
D02*
G37*
G36*
X113964Y111667D02*
X111856D01*
Y109559D01*
X113964D01*
Y111667D01*
D02*
G37*
G36*
X84310Y118727D02*
X84113Y118688D01*
X83947Y118577D01*
X83835Y118410D01*
X83796Y118213D01*
X83835Y118017D01*
X83947Y117850D01*
X84113Y117738D01*
X84310Y117699D01*
X84507Y117738D01*
X84673Y117850D01*
X84785Y118017D01*
X84824Y118213D01*
X84785Y118410D01*
X84673Y118577D01*
X84507Y118688D01*
X84310Y118727D01*
D02*
G37*
G36*
X83110Y124627D02*
X82894Y124584D01*
X82711Y124462D01*
X82588Y124278D01*
X82545Y124062D01*
X82588Y123846D01*
X82711Y123663D01*
X82894Y123540D01*
X83110Y123497D01*
X83126Y123482D01*
X83111Y123319D01*
X83047Y123277D01*
X82935Y123110D01*
X82896Y122913D01*
X82935Y122717D01*
X83047Y122550D01*
X83213Y122438D01*
X83219Y122430D01*
X83196Y122313D01*
X83235Y122117D01*
X83347Y121950D01*
X83513Y121838D01*
X83589Y121823D01*
X83696Y121713D01*
X83735Y121517D01*
X83847Y121350D01*
X84013Y121238D01*
X84210Y121199D01*
X84407Y121238D01*
X84573Y121350D01*
X84685Y121517D01*
X84724Y121713D01*
X84685Y121910D01*
X84573Y122077D01*
X84407Y122188D01*
X84331Y122203D01*
X84224Y122313D01*
X84185Y122510D01*
X84073Y122677D01*
X83907Y122788D01*
X83901Y122797D01*
X83924Y122913D01*
X83899Y123037D01*
X83907Y123038D01*
X84073Y123150D01*
X84185Y123317D01*
X84224Y123513D01*
X84185Y123710D01*
X84073Y123877D01*
X83907Y123988D01*
X83794Y124010D01*
X83675Y124062D01*
X83632Y124278D01*
X83509Y124462D01*
X83326Y124584D01*
X83110Y124627D01*
D02*
G37*
G36*
X93704Y121503D02*
X93507Y121464D01*
X93340Y121353D01*
X93229Y121186D01*
X93190Y120989D01*
X93229Y120793D01*
X93340Y120626D01*
X93507Y120515D01*
X93704Y120475D01*
X93900Y120515D01*
X94067Y120626D01*
X94178Y120793D01*
X94217Y120989D01*
X94178Y121186D01*
X94067Y121353D01*
X93900Y121464D01*
X93704Y121503D01*
D02*
G37*
G36*
X87660Y121219D02*
X87463Y121180D01*
X87297Y121069D01*
X87185Y120902D01*
X87146Y120705D01*
X87185Y120509D01*
X87297Y120342D01*
X87463Y120231D01*
X87660Y120192D01*
X87857Y120231D01*
X88023Y120342D01*
X88135Y120509D01*
X88174Y120705D01*
X88135Y120902D01*
X88023Y121069D01*
X87857Y121180D01*
X87660Y121219D01*
D02*
G37*
G36*
X118070Y107731D02*
X117801Y107696D01*
X117551Y107592D01*
X117336Y107427D01*
X117171Y107212D01*
X117067Y106962D01*
X117032Y106693D01*
X117067Y106425D01*
X117171Y106174D01*
X117336Y105959D01*
X117551Y105794D01*
X117801Y105691D01*
X118070Y105655D01*
X118339Y105691D01*
X118589Y105794D01*
X118804Y105959D01*
X118969Y106174D01*
X119073Y106425D01*
X119108Y106693D01*
X119073Y106962D01*
X118969Y107212D01*
X118804Y107427D01*
X118589Y107592D01*
X118339Y107696D01*
X118070Y107731D01*
D02*
G37*
G36*
X110450Y105191D02*
X110181Y105156D01*
X109931Y105052D01*
X109716Y104887D01*
X109551Y104672D01*
X109447Y104422D01*
X109412Y104153D01*
X109447Y103885D01*
X109551Y103634D01*
X109716Y103419D01*
X109931Y103254D01*
X110181Y103151D01*
X110450Y103115D01*
X110719Y103151D01*
X110969Y103254D01*
X111184Y103419D01*
X111349Y103634D01*
X111453Y103885D01*
X111488Y104153D01*
X111453Y104422D01*
X111349Y104672D01*
X111184Y104887D01*
X110969Y105052D01*
X110719Y105156D01*
X110450Y105191D01*
D02*
G37*
G36*
X102830D02*
X102561Y105156D01*
X102311Y105052D01*
X102096Y104887D01*
X101931Y104672D01*
X101827Y104422D01*
X101792Y104153D01*
X101827Y103885D01*
X101931Y103634D01*
X102096Y103419D01*
X102311Y103254D01*
X102561Y103151D01*
X102830Y103115D01*
X103099Y103151D01*
X103349Y103254D01*
X103564Y103419D01*
X103729Y103634D01*
X103833Y103885D01*
X103868Y104153D01*
X103833Y104422D01*
X103729Y104672D01*
X103564Y104887D01*
X103349Y105052D01*
X103099Y105156D01*
X102830Y105191D01*
D02*
G37*
G36*
X95210D02*
X94941Y105156D01*
X94691Y105052D01*
X94476Y104887D01*
X94311Y104672D01*
X94207Y104422D01*
X94172Y104153D01*
X94207Y103885D01*
X94311Y103634D01*
X94476Y103419D01*
X94691Y103254D01*
X94941Y103151D01*
X95210Y103115D01*
X95479Y103151D01*
X95729Y103254D01*
X95944Y103419D01*
X96109Y103634D01*
X96213Y103885D01*
X96248Y104153D01*
X96213Y104422D01*
X96109Y104672D01*
X95944Y104887D01*
X95729Y105052D01*
X95479Y105156D01*
X95210Y105191D01*
D02*
G37*
G36*
X112990D02*
X112721Y105156D01*
X112471Y105052D01*
X112256Y104887D01*
X112091Y104672D01*
X111987Y104422D01*
X111952Y104153D01*
X111987Y103885D01*
X112091Y103634D01*
X112256Y103419D01*
X112471Y103254D01*
X112721Y103151D01*
X112990Y103115D01*
X113259Y103151D01*
X113509Y103254D01*
X113724Y103419D01*
X113889Y103634D01*
X113993Y103885D01*
X114028Y104153D01*
X113993Y104422D01*
X113889Y104672D01*
X113724Y104887D01*
X113509Y105052D01*
X113259Y105156D01*
X112990Y105191D01*
D02*
G37*
G36*
X120610D02*
X120341Y105156D01*
X120091Y105052D01*
X119876Y104887D01*
X119711Y104672D01*
X119607Y104422D01*
X119572Y104153D01*
X119607Y103885D01*
X119711Y103634D01*
X119876Y103419D01*
X120091Y103254D01*
X120341Y103151D01*
X120610Y103115D01*
X120879Y103151D01*
X121129Y103254D01*
X121344Y103419D01*
X121509Y103634D01*
X121613Y103885D01*
X121648Y104153D01*
X121613Y104422D01*
X121509Y104672D01*
X121344Y104887D01*
X121129Y105052D01*
X120879Y105156D01*
X120610Y105191D01*
D02*
G37*
G36*
X118070D02*
X117801Y105156D01*
X117551Y105052D01*
X117336Y104887D01*
X117171Y104672D01*
X117067Y104422D01*
X117032Y104153D01*
X117067Y103885D01*
X117171Y103634D01*
X117336Y103419D01*
X117551Y103254D01*
X117801Y103151D01*
X118070Y103115D01*
X118339Y103151D01*
X118589Y103254D01*
X118804Y103419D01*
X118969Y103634D01*
X119073Y103885D01*
X119108Y104153D01*
X119073Y104422D01*
X118969Y104672D01*
X118804Y104887D01*
X118589Y105052D01*
X118339Y105156D01*
X118070Y105191D01*
D02*
G37*
G36*
X115530D02*
X115261Y105156D01*
X115011Y105052D01*
X114796Y104887D01*
X114631Y104672D01*
X114527Y104422D01*
X114492Y104153D01*
X114527Y103885D01*
X114631Y103634D01*
X114796Y103419D01*
X115011Y103254D01*
X115261Y103151D01*
X115530Y103115D01*
X115799Y103151D01*
X116049Y103254D01*
X116264Y103419D01*
X116429Y103634D01*
X116533Y103885D01*
X116568Y104153D01*
X116533Y104422D01*
X116429Y104672D01*
X116264Y104887D01*
X116049Y105052D01*
X115799Y105156D01*
X115530Y105191D01*
D02*
G37*
G36*
X100140Y104003D02*
X99225D01*
X99243Y103873D01*
X99351Y103611D01*
X99523Y103386D01*
X99748Y103214D01*
X100009Y103106D01*
X100140Y103089D01*
Y104003D01*
D02*
G37*
G36*
X98815D02*
X97900D01*
Y103089D01*
X98031Y103106D01*
X98292Y103214D01*
X98517Y103386D01*
X98689Y103611D01*
X98797Y103873D01*
X98815Y104003D01*
D02*
G37*
G36*
X97600D02*
X96685D01*
X96703Y103873D01*
X96811Y103611D01*
X96983Y103386D01*
X97208Y103214D01*
X97469Y103106D01*
X97600Y103089D01*
Y104003D01*
D02*
G37*
G36*
X101355D02*
X100440D01*
Y103089D01*
X100571Y103106D01*
X100832Y103214D01*
X101057Y103386D01*
X101229Y103611D01*
X101337Y103873D01*
X101355Y104003D01*
D02*
G37*
G36*
X92670Y105191D02*
X92401Y105156D01*
X92151Y105052D01*
X91936Y104887D01*
X91771Y104672D01*
X91667Y104422D01*
X91632Y104153D01*
X91667Y103885D01*
X91771Y103634D01*
X91936Y103419D01*
X92151Y103254D01*
X92401Y103151D01*
X92670Y103115D01*
X92939Y103151D01*
X93189Y103254D01*
X93404Y103419D01*
X93569Y103634D01*
X93673Y103885D01*
X93708Y104153D01*
X93673Y104422D01*
X93569Y104672D01*
X93404Y104887D01*
X93189Y105052D01*
X92939Y105156D01*
X92670Y105191D01*
D02*
G37*
G36*
X90130D02*
X89861Y105156D01*
X89611Y105052D01*
X89396Y104887D01*
X89231Y104672D01*
X89127Y104422D01*
X89092Y104153D01*
X89127Y103885D01*
X89231Y103634D01*
X89396Y103419D01*
X89611Y103254D01*
X89861Y103151D01*
X90130Y103115D01*
X90399Y103151D01*
X90649Y103254D01*
X90864Y103419D01*
X91029Y103634D01*
X91133Y103885D01*
X91168Y104153D01*
X91133Y104422D01*
X91029Y104672D01*
X90864Y104887D01*
X90649Y105052D01*
X90399Y105156D01*
X90130Y105191D01*
D02*
G37*
G36*
X87590D02*
X87321Y105156D01*
X87071Y105052D01*
X86856Y104887D01*
X86691Y104672D01*
X86587Y104422D01*
X86552Y104153D01*
X86587Y103885D01*
X86691Y103634D01*
X86856Y103419D01*
X87071Y103254D01*
X87321Y103151D01*
X87590Y103115D01*
X87859Y103151D01*
X88109Y103254D01*
X88324Y103419D01*
X88489Y103634D01*
X88593Y103885D01*
X88628Y104153D01*
X88593Y104422D01*
X88489Y104672D01*
X88324Y104887D01*
X88109Y105052D01*
X87859Y105156D01*
X87590Y105191D01*
D02*
G37*
G36*
X63010Y106627D02*
X62813Y106588D01*
X62647Y106477D01*
X62535Y106310D01*
X62496Y106113D01*
X62535Y105917D01*
X62647Y105750D01*
X62813Y105638D01*
X63010Y105599D01*
X63207Y105638D01*
X63373Y105750D01*
X63485Y105917D01*
X63524Y106113D01*
X63485Y106310D01*
X63373Y106477D01*
X63207Y106588D01*
X63010Y106627D01*
D02*
G37*
G36*
X100440Y105218D02*
Y104303D01*
X101355D01*
X101337Y104434D01*
X101229Y104695D01*
X101057Y104920D01*
X100832Y105092D01*
X100571Y105201D01*
X100440Y105218D01*
D02*
G37*
G36*
X100140D02*
X100009Y105201D01*
X99748Y105092D01*
X99523Y104920D01*
X99351Y104695D01*
X99243Y104434D01*
X99225Y104303D01*
X100140D01*
Y105218D01*
D02*
G37*
G36*
X107910Y107731D02*
X107641Y107696D01*
X107391Y107592D01*
X107176Y107427D01*
X107011Y107212D01*
X106907Y106962D01*
X106872Y106693D01*
X106907Y106425D01*
X107011Y106174D01*
X107176Y105959D01*
X107391Y105794D01*
X107641Y105691D01*
X107910Y105655D01*
X108179Y105691D01*
X108429Y105794D01*
X108644Y105959D01*
X108809Y106174D01*
X108913Y106425D01*
X108948Y106693D01*
X108913Y106962D01*
X108809Y107212D01*
X108644Y107427D01*
X108429Y107592D01*
X108179Y107696D01*
X107910Y107731D01*
D02*
G37*
G36*
X115530D02*
X115261Y107696D01*
X115011Y107592D01*
X114796Y107427D01*
X114631Y107212D01*
X114527Y106962D01*
X114492Y106693D01*
X114527Y106425D01*
X114631Y106174D01*
X114796Y105959D01*
X115011Y105794D01*
X115261Y105691D01*
X115530Y105655D01*
X115799Y105691D01*
X116049Y105794D01*
X116264Y105959D01*
X116429Y106174D01*
X116533Y106425D01*
X116568Y106693D01*
X116533Y106962D01*
X116429Y107212D01*
X116264Y107427D01*
X116049Y107592D01*
X115799Y107696D01*
X115530Y107731D01*
D02*
G37*
G36*
X112990D02*
X112721Y107696D01*
X112471Y107592D01*
X112256Y107427D01*
X112091Y107212D01*
X111987Y106962D01*
X111952Y106693D01*
X111987Y106425D01*
X112091Y106174D01*
X112256Y105959D01*
X112471Y105794D01*
X112721Y105691D01*
X112990Y105655D01*
X113259Y105691D01*
X113509Y105794D01*
X113724Y105959D01*
X113889Y106174D01*
X113993Y106425D01*
X114028Y106693D01*
X113993Y106962D01*
X113889Y107212D01*
X113724Y107427D01*
X113509Y107592D01*
X113259Y107696D01*
X112990Y107731D01*
D02*
G37*
G36*
X110450D02*
X110181Y107696D01*
X109931Y107592D01*
X109716Y107427D01*
X109551Y107212D01*
X109447Y106962D01*
X109412Y106693D01*
X109447Y106425D01*
X109551Y106174D01*
X109716Y105959D01*
X109931Y105794D01*
X110181Y105691D01*
X110450Y105655D01*
X110719Y105691D01*
X110969Y105794D01*
X111184Y105959D01*
X111349Y106174D01*
X111453Y106425D01*
X111488Y106693D01*
X111453Y106962D01*
X111349Y107212D01*
X111184Y107427D01*
X110969Y107592D01*
X110719Y107696D01*
X110450Y107731D01*
D02*
G37*
G36*
X48810Y106377D02*
X48509Y106337D01*
X48228Y106221D01*
X47987Y106036D01*
X47802Y105795D01*
X47686Y105514D01*
X47646Y105213D01*
X47686Y104912D01*
X47802Y104631D01*
X47987Y104390D01*
X48228Y104205D01*
X48509Y104089D01*
X48810Y104049D01*
X49111Y104089D01*
X49392Y104205D01*
X49633Y104390D01*
X49818Y104631D01*
X49934Y104912D01*
X49974Y105213D01*
X49934Y105514D01*
X49818Y105795D01*
X49633Y106036D01*
X49392Y106221D01*
X49111Y106337D01*
X48810Y106377D01*
D02*
G37*
G36*
X108939Y105182D02*
X106881D01*
Y103124D01*
X108939D01*
Y105182D01*
D02*
G37*
G36*
X86079D02*
X84021D01*
Y103124D01*
X86079D01*
Y105182D01*
D02*
G37*
G36*
X73410Y106171D02*
X73141Y106136D01*
X72891Y106032D01*
X72676Y105867D01*
X72511Y105652D01*
X72407Y105402D01*
X72372Y105133D01*
X72407Y104865D01*
X72511Y104614D01*
X72676Y104399D01*
X72891Y104234D01*
X73141Y104131D01*
X73410Y104095D01*
X73679Y104131D01*
X73929Y104234D01*
X74144Y104399D01*
X74309Y104614D01*
X74413Y104865D01*
X74448Y105133D01*
X74413Y105402D01*
X74309Y105652D01*
X74144Y105867D01*
X73929Y106032D01*
X73679Y106136D01*
X73410Y106171D01*
D02*
G37*
G36*
X97900Y105218D02*
Y104303D01*
X98815D01*
X98797Y104434D01*
X98689Y104695D01*
X98517Y104920D01*
X98292Y105092D01*
X98031Y105201D01*
X97900Y105218D01*
D02*
G37*
G36*
X97600D02*
X97469Y105201D01*
X97208Y105092D01*
X96983Y104920D01*
X96811Y104695D01*
X96703Y104434D01*
X96685Y104303D01*
X97600D01*
Y105218D01*
D02*
G37*
G36*
X78010Y106171D02*
X77741Y106136D01*
X77491Y106032D01*
X77276Y105867D01*
X77111Y105652D01*
X77007Y105402D01*
X76972Y105133D01*
X77007Y104865D01*
X77111Y104614D01*
X77276Y104399D01*
X77491Y104234D01*
X77741Y104131D01*
X78010Y104095D01*
X78279Y104131D01*
X78529Y104234D01*
X78744Y104399D01*
X78909Y104614D01*
X79013Y104865D01*
X79048Y105133D01*
X79013Y105402D01*
X78909Y105652D01*
X78744Y105867D01*
X78529Y106032D01*
X78279Y106136D01*
X78010Y106171D01*
D02*
G37*
G36*
X123000Y125698D02*
X122869Y125680D01*
X122608Y125572D01*
X122383Y125400D01*
X122211Y125175D01*
X122103Y124914D01*
X122085Y124783D01*
X123000D01*
Y125698D01*
D02*
G37*
G36*
X118070Y150911D02*
X117801Y150876D01*
X117551Y150772D01*
X117336Y150607D01*
X117171Y150392D01*
X117067Y150142D01*
X117032Y149873D01*
X117067Y149605D01*
X117171Y149354D01*
X117336Y149139D01*
X117551Y148974D01*
X117801Y148871D01*
X118070Y148835D01*
X118339Y148871D01*
X118589Y148974D01*
X118804Y149139D01*
X118969Y149354D01*
X119073Y149605D01*
X119108Y149873D01*
X119073Y150142D01*
X118969Y150392D01*
X118804Y150607D01*
X118589Y150772D01*
X118339Y150876D01*
X118070Y150911D01*
D02*
G37*
G36*
X115530D02*
X115261Y150876D01*
X115011Y150772D01*
X114796Y150607D01*
X114631Y150392D01*
X114527Y150142D01*
X114492Y149873D01*
X114527Y149605D01*
X114631Y149354D01*
X114796Y149139D01*
X115011Y148974D01*
X115261Y148871D01*
X115530Y148835D01*
X115799Y148871D01*
X116049Y148974D01*
X116264Y149139D01*
X116429Y149354D01*
X116533Y149605D01*
X116568Y149873D01*
X116533Y150142D01*
X116429Y150392D01*
X116264Y150607D01*
X116049Y150772D01*
X115799Y150876D01*
X115530Y150911D01*
D02*
G37*
G36*
X112990D02*
X112721Y150876D01*
X112471Y150772D01*
X112256Y150607D01*
X112091Y150392D01*
X111987Y150142D01*
X111952Y149873D01*
X111987Y149605D01*
X112091Y149354D01*
X112256Y149139D01*
X112471Y148974D01*
X112721Y148871D01*
X112990Y148835D01*
X113259Y148871D01*
X113509Y148974D01*
X113724Y149139D01*
X113889Y149354D01*
X113993Y149605D01*
X114028Y149873D01*
X113993Y150142D01*
X113889Y150392D01*
X113724Y150607D01*
X113509Y150772D01*
X113259Y150876D01*
X112990Y150911D01*
D02*
G37*
G36*
X120610D02*
X120341Y150876D01*
X120091Y150772D01*
X119876Y150607D01*
X119711Y150392D01*
X119607Y150142D01*
X119572Y149873D01*
X119607Y149605D01*
X119711Y149354D01*
X119876Y149139D01*
X120091Y148974D01*
X120341Y148871D01*
X120610Y148835D01*
X120879Y148871D01*
X121129Y148974D01*
X121344Y149139D01*
X121509Y149354D01*
X121613Y149605D01*
X121648Y149873D01*
X121613Y150142D01*
X121509Y150392D01*
X121344Y150607D01*
X121129Y150772D01*
X120879Y150876D01*
X120610Y150911D01*
D02*
G37*
G36*
X80430Y153451D02*
X80161Y153416D01*
X79911Y153312D01*
X79696Y153147D01*
X79531Y152932D01*
X79427Y152682D01*
X79392Y152413D01*
X79427Y152145D01*
X79531Y151894D01*
X79696Y151679D01*
X79911Y151514D01*
X80161Y151411D01*
X80430Y151375D01*
X80699Y151411D01*
X80949Y151514D01*
X81164Y151679D01*
X81329Y151894D01*
X81433Y152145D01*
X81468Y152413D01*
X81433Y152682D01*
X81329Y152932D01*
X81164Y153147D01*
X80949Y153312D01*
X80699Y153416D01*
X80430Y153451D01*
D02*
G37*
G36*
X75376Y153467D02*
X73268D01*
Y151359D01*
X75376D01*
Y153467D01*
D02*
G37*
G36*
X76862Y153476D02*
X76587Y153440D01*
X76330Y153334D01*
X76110Y153165D01*
X75941Y152945D01*
X75835Y152688D01*
X75799Y152413D01*
X75835Y152138D01*
X75941Y151882D01*
X76110Y151661D01*
X76330Y151493D01*
X76587Y151386D01*
X76862Y151350D01*
X77137Y151386D01*
X77394Y151493D01*
X77614Y151661D01*
X77783Y151882D01*
X77889Y152138D01*
X77925Y152413D01*
X77889Y152688D01*
X77783Y152945D01*
X77614Y153165D01*
X77394Y153334D01*
X77137Y153440D01*
X76862Y153476D01*
D02*
G37*
G36*
X98210Y150911D02*
X97941Y150876D01*
X97691Y150772D01*
X97476Y150607D01*
X97311Y150392D01*
X97207Y150142D01*
X97172Y149873D01*
X97207Y149605D01*
X97311Y149354D01*
X97476Y149139D01*
X97691Y148974D01*
X97941Y148871D01*
X98210Y148835D01*
X98479Y148871D01*
X98729Y148974D01*
X98944Y149139D01*
X99109Y149354D01*
X99213Y149605D01*
X99248Y149873D01*
X99213Y150142D01*
X99109Y150392D01*
X98944Y150607D01*
X98729Y150772D01*
X98479Y150876D01*
X98210Y150911D01*
D02*
G37*
G36*
X95670D02*
X95401Y150876D01*
X95151Y150772D01*
X94936Y150607D01*
X94771Y150392D01*
X94667Y150142D01*
X94632Y149873D01*
X94667Y149605D01*
X94771Y149354D01*
X94936Y149139D01*
X95151Y148974D01*
X95401Y148871D01*
X95670Y148835D01*
X95939Y148871D01*
X96189Y148974D01*
X96404Y149139D01*
X96569Y149354D01*
X96673Y149605D01*
X96708Y149873D01*
X96673Y150142D01*
X96569Y150392D01*
X96404Y150607D01*
X96189Y150772D01*
X95939Y150876D01*
X95670Y150911D01*
D02*
G37*
G36*
X93130D02*
X92861Y150876D01*
X92611Y150772D01*
X92396Y150607D01*
X92231Y150392D01*
X92127Y150142D01*
X92092Y149873D01*
X92127Y149605D01*
X92231Y149354D01*
X92396Y149139D01*
X92611Y148974D01*
X92861Y148871D01*
X93130Y148835D01*
X93399Y148871D01*
X93649Y148974D01*
X93864Y149139D01*
X94029Y149354D01*
X94133Y149605D01*
X94168Y149873D01*
X94133Y150142D01*
X94029Y150392D01*
X93864Y150607D01*
X93649Y150772D01*
X93399Y150876D01*
X93130Y150911D01*
D02*
G37*
G36*
X102830D02*
X102561Y150876D01*
X102311Y150772D01*
X102096Y150607D01*
X101931Y150392D01*
X101827Y150142D01*
X101792Y149873D01*
X101827Y149605D01*
X101931Y149354D01*
X102096Y149139D01*
X102311Y148974D01*
X102561Y148871D01*
X102830Y148835D01*
X103099Y148871D01*
X103349Y148974D01*
X103564Y149139D01*
X103729Y149354D01*
X103833Y149605D01*
X103868Y149873D01*
X103833Y150142D01*
X103729Y150392D01*
X103564Y150607D01*
X103349Y150772D01*
X103099Y150876D01*
X102830Y150911D01*
D02*
G37*
G36*
X110450D02*
X110181Y150876D01*
X109931Y150772D01*
X109716Y150607D01*
X109551Y150392D01*
X109447Y150142D01*
X109412Y149873D01*
X109447Y149605D01*
X109551Y149354D01*
X109716Y149139D01*
X109931Y148974D01*
X110181Y148871D01*
X110450Y148835D01*
X110719Y148871D01*
X110969Y148974D01*
X111184Y149139D01*
X111349Y149354D01*
X111453Y149605D01*
X111488Y149873D01*
X111453Y150142D01*
X111349Y150392D01*
X111184Y150607D01*
X110969Y150772D01*
X110719Y150876D01*
X110450Y150911D01*
D02*
G37*
G36*
X107910D02*
X107641Y150876D01*
X107391Y150772D01*
X107176Y150607D01*
X107011Y150392D01*
X106907Y150142D01*
X106872Y149873D01*
X106907Y149605D01*
X107011Y149354D01*
X107176Y149139D01*
X107391Y148974D01*
X107641Y148871D01*
X107910Y148835D01*
X108179Y148871D01*
X108429Y148974D01*
X108644Y149139D01*
X108809Y149354D01*
X108913Y149605D01*
X108948Y149873D01*
X108913Y150142D01*
X108809Y150392D01*
X108644Y150607D01*
X108429Y150772D01*
X108179Y150876D01*
X107910Y150911D01*
D02*
G37*
G36*
X105370D02*
X105101Y150876D01*
X104851Y150772D01*
X104636Y150607D01*
X104471Y150392D01*
X104367Y150142D01*
X104332Y149873D01*
X104367Y149605D01*
X104471Y149354D01*
X104636Y149139D01*
X104851Y148974D01*
X105101Y148871D01*
X105370Y148835D01*
X105639Y148871D01*
X105889Y148974D01*
X106104Y149139D01*
X106269Y149354D01*
X106373Y149605D01*
X106408Y149873D01*
X106373Y150142D01*
X106269Y150392D01*
X106104Y150607D01*
X105889Y150772D01*
X105639Y150876D01*
X105370Y150911D01*
D02*
G37*
G36*
X82970Y153451D02*
X82701Y153416D01*
X82451Y153312D01*
X82236Y153147D01*
X82071Y152932D01*
X81967Y152682D01*
X81932Y152413D01*
X81967Y152145D01*
X82071Y151894D01*
X82236Y151679D01*
X82451Y151514D01*
X82701Y151411D01*
X82970Y151375D01*
X83239Y151411D01*
X83489Y151514D01*
X83704Y151679D01*
X83869Y151894D01*
X83973Y152145D01*
X84008Y152413D01*
X83973Y152682D01*
X83869Y152932D01*
X83704Y153147D01*
X83489Y153312D01*
X83239Y153416D01*
X82970Y153451D01*
D02*
G37*
G36*
X112990D02*
X112721Y153416D01*
X112471Y153312D01*
X112256Y153147D01*
X112091Y152932D01*
X111987Y152682D01*
X111952Y152413D01*
X111987Y152145D01*
X112091Y151894D01*
X112256Y151679D01*
X112471Y151514D01*
X112721Y151411D01*
X112990Y151375D01*
X113259Y151411D01*
X113509Y151514D01*
X113724Y151679D01*
X113889Y151894D01*
X113993Y152145D01*
X114028Y152413D01*
X113993Y152682D01*
X113889Y152932D01*
X113724Y153147D01*
X113509Y153312D01*
X113259Y153416D01*
X112990Y153451D01*
D02*
G37*
G36*
X110450D02*
X110181Y153416D01*
X109931Y153312D01*
X109716Y153147D01*
X109551Y152932D01*
X109447Y152682D01*
X109412Y152413D01*
X109447Y152145D01*
X109551Y151894D01*
X109716Y151679D01*
X109931Y151514D01*
X110181Y151411D01*
X110450Y151375D01*
X110719Y151411D01*
X110969Y151514D01*
X111184Y151679D01*
X111349Y151894D01*
X111453Y152145D01*
X111488Y152413D01*
X111453Y152682D01*
X111349Y152932D01*
X111184Y153147D01*
X110969Y153312D01*
X110719Y153416D01*
X110450Y153451D01*
D02*
G37*
G36*
X107910D02*
X107641Y153416D01*
X107391Y153312D01*
X107176Y153147D01*
X107011Y152932D01*
X106907Y152682D01*
X106872Y152413D01*
X106907Y152145D01*
X107011Y151894D01*
X107176Y151679D01*
X107391Y151514D01*
X107641Y151411D01*
X107910Y151375D01*
X108179Y151411D01*
X108429Y151514D01*
X108644Y151679D01*
X108809Y151894D01*
X108913Y152145D01*
X108948Y152413D01*
X108913Y152682D01*
X108809Y152932D01*
X108644Y153147D01*
X108429Y153312D01*
X108179Y153416D01*
X107910Y153451D01*
D02*
G37*
G36*
X115530D02*
X115261Y153416D01*
X115011Y153312D01*
X114796Y153147D01*
X114631Y152932D01*
X114527Y152682D01*
X114492Y152413D01*
X114527Y152145D01*
X114631Y151894D01*
X114796Y151679D01*
X115011Y151514D01*
X115261Y151411D01*
X115530Y151375D01*
X115799Y151411D01*
X116049Y151514D01*
X116264Y151679D01*
X116429Y151894D01*
X116533Y152145D01*
X116568Y152413D01*
X116533Y152682D01*
X116429Y152932D01*
X116264Y153147D01*
X116049Y153312D01*
X115799Y153416D01*
X115530Y153451D01*
D02*
G37*
G36*
X121639Y153442D02*
X119581D01*
Y151384D01*
X121639D01*
Y153442D01*
D02*
G37*
G36*
X99239D02*
X97181D01*
Y151384D01*
X99239D01*
Y153442D01*
D02*
G37*
G36*
X118070Y153451D02*
X117801Y153416D01*
X117551Y153312D01*
X117336Y153147D01*
X117171Y152932D01*
X117067Y152682D01*
X117032Y152413D01*
X117067Y152145D01*
X117171Y151894D01*
X117336Y151679D01*
X117551Y151514D01*
X117801Y151411D01*
X118070Y151375D01*
X118339Y151411D01*
X118589Y151514D01*
X118804Y151679D01*
X118969Y151894D01*
X119073Y152145D01*
X119108Y152413D01*
X119073Y152682D01*
X118969Y152932D01*
X118804Y153147D01*
X118589Y153312D01*
X118339Y153416D01*
X118070Y153451D01*
D02*
G37*
G36*
X90590D02*
X90321Y153416D01*
X90071Y153312D01*
X89856Y153147D01*
X89691Y152932D01*
X89587Y152682D01*
X89552Y152413D01*
X89587Y152145D01*
X89691Y151894D01*
X89856Y151679D01*
X90071Y151514D01*
X90321Y151411D01*
X90590Y151375D01*
X90859Y151411D01*
X91109Y151514D01*
X91324Y151679D01*
X91489Y151894D01*
X91593Y152145D01*
X91628Y152413D01*
X91593Y152682D01*
X91489Y152932D01*
X91324Y153147D01*
X91109Y153312D01*
X90859Y153416D01*
X90590Y153451D01*
D02*
G37*
G36*
X88050D02*
X87781Y153416D01*
X87531Y153312D01*
X87316Y153147D01*
X87151Y152932D01*
X87047Y152682D01*
X87012Y152413D01*
X87047Y152145D01*
X87151Y151894D01*
X87316Y151679D01*
X87531Y151514D01*
X87781Y151411D01*
X88050Y151375D01*
X88319Y151411D01*
X88569Y151514D01*
X88784Y151679D01*
X88949Y151894D01*
X89053Y152145D01*
X89088Y152413D01*
X89053Y152682D01*
X88949Y152932D01*
X88784Y153147D01*
X88569Y153312D01*
X88319Y153416D01*
X88050Y153451D01*
D02*
G37*
G36*
X85510D02*
X85241Y153416D01*
X84991Y153312D01*
X84776Y153147D01*
X84611Y152932D01*
X84507Y152682D01*
X84472Y152413D01*
X84507Y152145D01*
X84611Y151894D01*
X84776Y151679D01*
X84991Y151514D01*
X85241Y151411D01*
X85510Y151375D01*
X85779Y151411D01*
X86029Y151514D01*
X86244Y151679D01*
X86409Y151894D01*
X86513Y152145D01*
X86548Y152413D01*
X86513Y152682D01*
X86409Y152932D01*
X86244Y153147D01*
X86029Y153312D01*
X85779Y153416D01*
X85510Y153451D01*
D02*
G37*
G36*
X93130D02*
X92861Y153416D01*
X92611Y153312D01*
X92396Y153147D01*
X92231Y152932D01*
X92127Y152682D01*
X92092Y152413D01*
X92127Y152145D01*
X92231Y151894D01*
X92396Y151679D01*
X92611Y151514D01*
X92861Y151411D01*
X93130Y151375D01*
X93399Y151411D01*
X93649Y151514D01*
X93864Y151679D01*
X94029Y151894D01*
X94133Y152145D01*
X94168Y152413D01*
X94133Y152682D01*
X94029Y152932D01*
X93864Y153147D01*
X93649Y153312D01*
X93399Y153416D01*
X93130Y153451D01*
D02*
G37*
G36*
X105370D02*
X105101Y153416D01*
X104851Y153312D01*
X104636Y153147D01*
X104471Y152932D01*
X104367Y152682D01*
X104332Y152413D01*
X104367Y152145D01*
X104471Y151894D01*
X104636Y151679D01*
X104851Y151514D01*
X105101Y151411D01*
X105370Y151375D01*
X105639Y151411D01*
X105889Y151514D01*
X106104Y151679D01*
X106269Y151894D01*
X106373Y152145D01*
X106408Y152413D01*
X106373Y152682D01*
X106269Y152932D01*
X106104Y153147D01*
X105889Y153312D01*
X105639Y153416D01*
X105370Y153451D01*
D02*
G37*
G36*
X102830D02*
X102561Y153416D01*
X102311Y153312D01*
X102096Y153147D01*
X101931Y152932D01*
X101827Y152682D01*
X101792Y152413D01*
X101827Y152145D01*
X101931Y151894D01*
X102096Y151679D01*
X102311Y151514D01*
X102561Y151411D01*
X102830Y151375D01*
X103099Y151411D01*
X103349Y151514D01*
X103564Y151679D01*
X103729Y151894D01*
X103833Y152145D01*
X103868Y152413D01*
X103833Y152682D01*
X103729Y152932D01*
X103564Y153147D01*
X103349Y153312D01*
X103099Y153416D01*
X102830Y153451D01*
D02*
G37*
G36*
X95670D02*
X95401Y153416D01*
X95151Y153312D01*
X94936Y153147D01*
X94771Y152932D01*
X94667Y152682D01*
X94632Y152413D01*
X94667Y152145D01*
X94771Y151894D01*
X94936Y151679D01*
X95151Y151514D01*
X95401Y151411D01*
X95670Y151375D01*
X95939Y151411D01*
X96189Y151514D01*
X96404Y151679D01*
X96569Y151894D01*
X96673Y152145D01*
X96708Y152413D01*
X96673Y152682D01*
X96569Y152932D01*
X96404Y153147D01*
X96189Y153312D01*
X95939Y153416D01*
X95670Y153451D01*
D02*
G37*
G36*
X100210Y136157D02*
X99410D01*
X99187Y136128D01*
X98979Y136042D01*
X98801Y135905D01*
X98664Y135726D01*
X98578Y135519D01*
X98549Y135296D01*
X98578Y135073D01*
X98664Y134865D01*
X98801Y134687D01*
X98979Y134550D01*
X99187Y134464D01*
X99410Y134434D01*
X100210D01*
X100433Y134464D01*
X100641Y134550D01*
X100819Y134687D01*
X100956Y134865D01*
X101042Y135073D01*
X101071Y135296D01*
X101042Y135519D01*
X100956Y135726D01*
X100819Y135905D01*
X100641Y136042D01*
X100433Y136128D01*
X100210Y136157D01*
D02*
G37*
G36*
X121639Y130742D02*
X119581D01*
Y128684D01*
X121639D01*
Y130742D01*
D02*
G37*
G36*
X123150Y130751D02*
X122881Y130716D01*
X122631Y130612D01*
X122416Y130447D01*
X122251Y130232D01*
X122147Y129982D01*
X122112Y129713D01*
X122147Y129445D01*
X122251Y129194D01*
X122416Y128979D01*
X122631Y128814D01*
X122881Y128711D01*
X123150Y128675D01*
X123419Y128711D01*
X123669Y128814D01*
X123884Y128979D01*
X124049Y129194D01*
X124153Y129445D01*
X124188Y129713D01*
X124153Y129982D01*
X124049Y130232D01*
X123884Y130447D01*
X123669Y130612D01*
X123419Y130716D01*
X123150Y130751D01*
D02*
G37*
G36*
X112110Y136210D02*
X111878Y136179D01*
X111662Y136090D01*
X111476Y135947D01*
X111389Y135834D01*
X111231D01*
X111144Y135947D01*
X110958Y136090D01*
X110742Y136179D01*
X110510Y136210D01*
X110278Y136179D01*
X110062Y136090D01*
X109876Y135947D01*
X109733Y135762D01*
X109644Y135545D01*
X109613Y135313D01*
X109644Y135081D01*
X109733Y134865D01*
X109876Y134679D01*
X110062Y134537D01*
X110278Y134447D01*
X110510Y134417D01*
X110742Y134447D01*
X110958Y134537D01*
X111144Y134679D01*
X111231Y134793D01*
X111389D01*
X111476Y134679D01*
X111662Y134537D01*
X111878Y134447D01*
X112110Y134417D01*
X112342Y134447D01*
X112558Y134537D01*
X112744Y134679D01*
X112887Y134865D01*
X112976Y135081D01*
X113007Y135313D01*
X112976Y135545D01*
X112887Y135762D01*
X112744Y135947D01*
X112558Y136090D01*
X112342Y136179D01*
X112110Y136210D01*
D02*
G37*
G36*
X86710Y138677D02*
X86513Y138638D01*
X86347Y138527D01*
X86235Y138360D01*
X86196Y138163D01*
X86235Y137967D01*
X86347Y137800D01*
X86513Y137688D01*
X86710Y137649D01*
X86907Y137688D01*
X86995Y137748D01*
X87147Y137750D01*
X87313Y137638D01*
X87510Y137599D01*
X87707Y137638D01*
X87873Y137750D01*
X87985Y137917D01*
X88024Y138113D01*
X87985Y138310D01*
X87873Y138477D01*
X87707Y138588D01*
X87510Y138627D01*
X87313Y138588D01*
X87225Y138529D01*
X87073Y138527D01*
X86907Y138638D01*
X86710Y138677D01*
D02*
G37*
G36*
X64110Y138871D02*
X63841Y138836D01*
X63591Y138732D01*
X63376Y138567D01*
X63211Y138352D01*
X63107Y138102D01*
X63072Y137833D01*
X63107Y137565D01*
X63211Y137314D01*
X63376Y137099D01*
X63591Y136934D01*
X63841Y136831D01*
X64110Y136795D01*
X64379Y136831D01*
X64629Y136934D01*
X64844Y137099D01*
X65009Y137314D01*
X65113Y137565D01*
X65148Y137833D01*
X65113Y138102D01*
X65009Y138352D01*
X64844Y138567D01*
X64629Y138732D01*
X64379Y138836D01*
X64110Y138871D01*
D02*
G37*
G36*
X79610Y136210D02*
X79378Y136179D01*
X79162Y136090D01*
X78994Y135961D01*
X78929Y135944D01*
X78891D01*
X78826Y135961D01*
X78658Y136090D01*
X78442Y136179D01*
X78210Y136210D01*
X77978Y136179D01*
X77762Y136090D01*
X77576Y135947D01*
X77433Y135762D01*
X77344Y135545D01*
X77313Y135313D01*
X77344Y135081D01*
X77433Y134865D01*
X77576Y134679D01*
X77762Y134537D01*
X77978Y134447D01*
X78210Y134417D01*
X78442Y134447D01*
X78658Y134537D01*
X78826Y134666D01*
X78891Y134682D01*
X78929D01*
X78994Y134666D01*
X79162Y134537D01*
X79378Y134447D01*
X79610Y134417D01*
X79842Y134447D01*
X80058Y134537D01*
X80244Y134679D01*
X80387Y134865D01*
X80476Y135081D01*
X80507Y135313D01*
X80476Y135545D01*
X80387Y135762D01*
X80244Y135947D01*
X80058Y136090D01*
X79842Y136179D01*
X79610Y136210D01*
D02*
G37*
G36*
X120610Y128211D02*
X120341Y128176D01*
X120091Y128072D01*
X119876Y127907D01*
X119711Y127692D01*
X119607Y127442D01*
X119572Y127173D01*
X119607Y126905D01*
X119711Y126654D01*
X119876Y126439D01*
X120091Y126274D01*
X120341Y126171D01*
X120610Y126135D01*
X120879Y126171D01*
X121129Y126274D01*
X121344Y126439D01*
X121509Y126654D01*
X121613Y126905D01*
X121648Y127173D01*
X121613Y127442D01*
X121509Y127692D01*
X121344Y127907D01*
X121129Y128072D01*
X120879Y128176D01*
X120610Y128211D01*
D02*
G37*
G36*
X98110Y126790D02*
X97939Y126768D01*
X97780Y126702D01*
X97644Y126597D01*
X97539Y126460D01*
X97473Y126301D01*
X97450Y126131D01*
X97473Y125960D01*
X97539Y125801D01*
X97644Y125664D01*
X97780Y125559D01*
X97939Y125493D01*
X98110Y125471D01*
X98281Y125493D01*
X98440Y125559D01*
X98576Y125664D01*
X98681Y125801D01*
X98747Y125960D01*
X98770Y126131D01*
X98747Y126301D01*
X98681Y126460D01*
X98576Y126597D01*
X98440Y126702D01*
X98281Y126768D01*
X98110Y126790D01*
D02*
G37*
G36*
X123300Y125698D02*
Y124783D01*
X124215D01*
X124197Y124914D01*
X124089Y125175D01*
X123917Y125400D01*
X123692Y125572D01*
X123431Y125680D01*
X123300Y125698D01*
D02*
G37*
G36*
X123150Y128211D02*
X122881Y128176D01*
X122631Y128072D01*
X122416Y127907D01*
X122251Y127692D01*
X122147Y127442D01*
X122112Y127173D01*
X122147Y126905D01*
X122251Y126654D01*
X122416Y126439D01*
X122631Y126274D01*
X122881Y126171D01*
X123150Y126135D01*
X123419Y126171D01*
X123669Y126274D01*
X123884Y126439D01*
X124049Y126654D01*
X124153Y126905D01*
X124188Y127173D01*
X124153Y127442D01*
X124049Y127692D01*
X123884Y127907D01*
X123669Y128072D01*
X123419Y128176D01*
X123150Y128211D01*
D02*
G37*
G36*
X93610Y129059D02*
X93413Y129020D01*
X93247Y128909D01*
X93135Y128742D01*
X93096Y128546D01*
X93135Y128349D01*
X93247Y128182D01*
X93413Y128071D01*
X93610Y128032D01*
X93807Y128071D01*
X93973Y128182D01*
X94085Y128349D01*
X94124Y128546D01*
X94085Y128742D01*
X93973Y128909D01*
X93807Y129020D01*
X93610Y129059D01*
D02*
G37*
G36*
X86410Y128778D02*
X86194Y128735D01*
X86011Y128613D01*
X85888Y128429D01*
X85845Y128213D01*
X85888Y127997D01*
X86011Y127814D01*
X86194Y127691D01*
X86410Y127648D01*
X86626Y127691D01*
X86809Y127814D01*
X86932Y127997D01*
X86975Y128213D01*
X86932Y128429D01*
X86809Y128613D01*
X86626Y128735D01*
X86410Y128778D01*
D02*
G37*
G36*
X87707Y128437D02*
X87491Y128394D01*
X87307Y128272D01*
X87185Y128088D01*
X87142Y127872D01*
X87185Y127656D01*
X87307Y127473D01*
X87491Y127350D01*
X87707Y127307D01*
X87923Y127350D01*
X88106Y127473D01*
X88229Y127656D01*
X88272Y127872D01*
X88229Y128088D01*
X88106Y128272D01*
X87923Y128394D01*
X87707Y128437D01*
D02*
G37*
G36*
X84410Y139527D02*
X84213Y139488D01*
X84047Y139377D01*
X83935Y139210D01*
X83896Y139013D01*
X83935Y138817D01*
X84047Y138650D01*
X84213Y138538D01*
X84410Y138499D01*
X84607Y138538D01*
X84773Y138650D01*
X84885Y138817D01*
X84924Y139013D01*
X84885Y139210D01*
X84773Y139377D01*
X84607Y139488D01*
X84410Y139527D01*
D02*
G37*
G36*
X80430Y150911D02*
X80161Y150876D01*
X79911Y150772D01*
X79696Y150607D01*
X79531Y150392D01*
X79427Y150142D01*
X79392Y149873D01*
X79427Y149605D01*
X79531Y149354D01*
X79696Y149139D01*
X79911Y148974D01*
X80161Y148871D01*
X80430Y148835D01*
X80699Y148871D01*
X80949Y148974D01*
X81164Y149139D01*
X81329Y149354D01*
X81433Y149605D01*
X81468Y149873D01*
X81433Y150142D01*
X81329Y150392D01*
X81164Y150607D01*
X80949Y150772D01*
X80699Y150876D01*
X80430Y150911D01*
D02*
G37*
G36*
X55614Y148917D02*
X51606D01*
Y146909D01*
X55614D01*
Y148917D01*
D02*
G37*
G36*
X49960Y146963D02*
X49060D01*
Y145063D01*
X49960D01*
Y146963D01*
D02*
G37*
G36*
X82970Y150911D02*
X82701Y150876D01*
X82451Y150772D01*
X82236Y150607D01*
X82071Y150392D01*
X81967Y150142D01*
X81932Y149873D01*
X81967Y149605D01*
X82071Y149354D01*
X82236Y149139D01*
X82451Y148974D01*
X82701Y148871D01*
X82970Y148835D01*
X83239Y148871D01*
X83489Y148974D01*
X83704Y149139D01*
X83869Y149354D01*
X83973Y149605D01*
X84008Y149873D01*
X83973Y150142D01*
X83869Y150392D01*
X83704Y150607D01*
X83489Y150772D01*
X83239Y150876D01*
X82970Y150911D01*
D02*
G37*
G36*
X90590D02*
X90321Y150876D01*
X90071Y150772D01*
X89856Y150607D01*
X89691Y150392D01*
X89587Y150142D01*
X89552Y149873D01*
X89587Y149605D01*
X89691Y149354D01*
X89856Y149139D01*
X90071Y148974D01*
X90321Y148871D01*
X90590Y148835D01*
X90859Y148871D01*
X91109Y148974D01*
X91324Y149139D01*
X91489Y149354D01*
X91593Y149605D01*
X91628Y149873D01*
X91593Y150142D01*
X91489Y150392D01*
X91324Y150607D01*
X91109Y150772D01*
X90859Y150876D01*
X90590Y150911D01*
D02*
G37*
G36*
X88050D02*
X87781Y150876D01*
X87531Y150772D01*
X87316Y150607D01*
X87151Y150392D01*
X87047Y150142D01*
X87012Y149873D01*
X87047Y149605D01*
X87151Y149354D01*
X87316Y149139D01*
X87531Y148974D01*
X87781Y148871D01*
X88050Y148835D01*
X88319Y148871D01*
X88569Y148974D01*
X88784Y149139D01*
X88949Y149354D01*
X89053Y149605D01*
X89088Y149873D01*
X89053Y150142D01*
X88949Y150392D01*
X88784Y150607D01*
X88569Y150772D01*
X88319Y150876D01*
X88050Y150911D01*
D02*
G37*
G36*
X85510D02*
X85241Y150876D01*
X84991Y150772D01*
X84776Y150607D01*
X84611Y150392D01*
X84507Y150142D01*
X84472Y149873D01*
X84507Y149605D01*
X84611Y149354D01*
X84776Y149139D01*
X84991Y148974D01*
X85241Y148871D01*
X85510Y148835D01*
X85779Y148871D01*
X86029Y148974D01*
X86244Y149139D01*
X86409Y149354D01*
X86513Y149605D01*
X86548Y149873D01*
X86513Y150142D01*
X86409Y150392D01*
X86244Y150607D01*
X86029Y150772D01*
X85779Y150876D01*
X85510Y150911D01*
D02*
G37*
G36*
X55864Y142917D02*
X51356D01*
Y140909D01*
X55864D01*
Y142917D01*
D02*
G37*
G36*
X84910Y140827D02*
X84713Y140788D01*
X84547Y140677D01*
X84435Y140510D01*
X84396Y140313D01*
X84435Y140117D01*
X84547Y139950D01*
X84713Y139838D01*
X84910Y139799D01*
X85107Y139838D01*
X85273Y139950D01*
X85385Y140117D01*
X85424Y140313D01*
X85385Y140510D01*
X85273Y140677D01*
X85107Y140788D01*
X84910Y140827D01*
D02*
G37*
G36*
X64110Y141411D02*
X63841Y141376D01*
X63591Y141272D01*
X63376Y141107D01*
X63211Y140892D01*
X63107Y140642D01*
X63072Y140373D01*
X63107Y140105D01*
X63211Y139854D01*
X63376Y139639D01*
X63591Y139474D01*
X63841Y139371D01*
X64110Y139335D01*
X64379Y139371D01*
X64629Y139474D01*
X64844Y139639D01*
X65009Y139854D01*
X65113Y140105D01*
X65148Y140373D01*
X65113Y140642D01*
X65009Y140892D01*
X64844Y141107D01*
X64629Y141272D01*
X64379Y141376D01*
X64110Y141411D01*
D02*
G37*
G36*
X65139Y143942D02*
X63081D01*
Y141884D01*
X65139D01*
Y143942D01*
D02*
G37*
G36*
X48760Y146963D02*
X47860D01*
Y145063D01*
X48760D01*
Y146963D01*
D02*
G37*
G36*
X49960Y144763D02*
X49060D01*
Y142863D01*
X49960D01*
Y144763D01*
D02*
G37*
G36*
X48760D02*
X47860D01*
Y142863D01*
X48760D01*
Y144763D01*
D02*
G37*
%LPD*%
D35*
X50766Y129213D02*
D03*
X62210Y116213D02*
D03*
Y115113D02*
D03*
X60010D02*
D03*
X59610Y117413D02*
D03*
X42610Y148713D02*
D03*
X126910Y107513D02*
D03*
Y111913D02*
D03*
Y120113D02*
D03*
Y122813D02*
D03*
Y128113D02*
D03*
Y133313D02*
D03*
Y138713D02*
D03*
Y148813D02*
D03*
Y144013D02*
D03*
X42610Y143913D02*
D03*
Y133313D02*
D03*
Y138713D02*
D03*
Y128113D02*
D03*
X42710Y122813D02*
D03*
Y117513D02*
D03*
Y107413D02*
D03*
Y112313D02*
D03*
X123860Y111863D02*
D03*
X123960Y120163D02*
D03*
X123010Y113513D02*
D03*
X122900Y118573D02*
D03*
X119210Y154073D02*
D03*
X114910D02*
D03*
X110610D02*
D03*
X106310D02*
D03*
X102010D02*
D03*
X97710D02*
D03*
X93410D02*
D03*
X89110D02*
D03*
X84810D02*
D03*
X80510D02*
D03*
X76210D02*
D03*
X71910D02*
D03*
X67610D02*
D03*
X63310D02*
D03*
X59010D02*
D03*
X54710D02*
D03*
X50410D02*
D03*
X59010Y102473D02*
D03*
X63310D02*
D03*
X67610D02*
D03*
X71910D02*
D03*
X76210D02*
D03*
X119210D02*
D03*
X114910D02*
D03*
X110610D02*
D03*
X106310D02*
D03*
X102010D02*
D03*
X97710D02*
D03*
X80510D02*
D03*
X84810D02*
D03*
X89110D02*
D03*
X93410D02*
D03*
X54710D02*
D03*
X78760Y112163D02*
D03*
X74110Y112138D02*
D03*
X63535Y148088D02*
D03*
X51310Y126113D02*
D03*
X50410Y102473D02*
D03*
X88485Y123071D02*
D03*
X86135Y123096D02*
D03*
X86183Y125408D02*
D03*
X88535Y125421D02*
D03*
X56691Y124044D02*
D03*
X51510Y127813D02*
D03*
Y128613D02*
D03*
X89010Y128246D02*
D03*
X91085Y124271D02*
D03*
X97810Y122496D02*
D03*
X85710Y127813D02*
D03*
Y129113D02*
D03*
X92210Y131713D02*
D03*
X95210Y125413D02*
D03*
X88410Y117413D02*
D03*
X89310Y116513D02*
D03*
X85410Y115813D02*
D03*
X83110Y115713D02*
D03*
X81310Y117013D02*
D03*
X83010Y121113D02*
D03*
X105110Y115313D02*
D03*
X54710Y125313D02*
D03*
X50710Y134713D02*
D03*
X51910Y132913D02*
D03*
X50710Y108013D02*
D03*
X46310Y108813D02*
D03*
X49010Y112513D02*
D03*
X47610Y112013D02*
D03*
X49510Y114013D02*
D03*
X51510D02*
D03*
X48410Y115413D02*
D03*
X52410Y115213D02*
D03*
X52510Y112813D02*
D03*
X48610Y123713D02*
D03*
X61510Y104413D02*
D03*
Y105813D02*
D03*
X59610Y104413D02*
D03*
X53910Y116413D02*
D03*
X49010Y109113D02*
D03*
D64*
X41810Y154913D02*
X127810D01*
Y101613D02*
Y154913D01*
X41810Y101613D02*
Y154913D01*
Y101613D02*
X127810D01*
D66*
X123150Y124633D02*
D03*
X97750Y104153D02*
D03*
X100290D02*
D03*
D72*
X48910Y144913D02*
D03*
D77*
X47610Y137913D02*
D03*
X49410Y140013D02*
D03*
X59110Y135513D02*
D03*
Y139213D02*
D03*
X60610Y137413D02*
D03*
X67710Y143513D02*
D03*
X77510D02*
D03*
X71010Y144613D02*
D03*
X74110D02*
D03*
D78*
X125310Y104113D02*
D03*
X44310Y152413D02*
D03*
X125310Y152313D02*
D03*
X44410Y104013D02*
D03*
D79*
X63710Y121413D02*
D03*
X60110Y124013D02*
D03*
X80710Y123213D02*
D03*
D81*
X105610Y133696D02*
D03*
X117510Y133396D02*
D03*
X118310Y129713D02*
D03*
Y127213D02*
D03*
Y124613D02*
D03*
X120610Y121913D02*
D03*
X123310D02*
D03*
X125710Y124613D02*
D03*
Y127113D02*
D03*
Y129713D02*
D03*
X125210Y122413D02*
D03*
X118710Y122413D02*
D03*
X118310Y132213D02*
D03*
X125710Y134513D02*
D03*
Y132313D02*
D03*
M02*
