G04*
G04 #@! TF.GenerationSoftware,Altium Limited,CircuitStudio,1.5.1 (13)*
G04*
G04 Layer_Color=20142*
%FSLAX24Y24*%
%MOIN*%
G70*
G01*
G75*
%ADD43C,0.0039*%
%ADD70R,0.0512X0.0354*%
%ADD71R,0.1181X0.0866*%
%ADD72R,0.0650X0.1910*%
G04:AMPARAMS|DCode=73|XSize=29.6mil|YSize=45.3mil|CornerRadius=3.8mil|HoleSize=0mil|Usage=FLASHONLY|Rotation=270.000|XOffset=0mil|YOffset=0mil|HoleType=Round|Shape=RoundedRectangle|*
%AMROUNDEDRECTD73*
21,1,0.0296,0.0378,0,0,270.0*
21,1,0.0220,0.0453,0,0,270.0*
1,1,0.0075,-0.0189,-0.0110*
1,1,0.0075,-0.0189,0.0110*
1,1,0.0075,0.0189,0.0110*
1,1,0.0075,0.0189,-0.0110*
%
%ADD73ROUNDEDRECTD73*%
%ADD74R,0.0591X0.0473*%
%ADD75R,0.0473X0.0729*%
%ADD76R,0.0473X0.0591*%
%ADD77R,0.0217X0.0512*%
%ADD78R,0.0532X0.0355*%
%ADD79R,0.0355X0.0532*%
%ADD80R,0.0512X0.0217*%
%ADD81R,0.0414X0.0374*%
%ADD82R,0.0374X0.0414*%
G04:AMPARAMS|DCode=83|XSize=25.6mil|YSize=88.6mil|CornerRadius=6.3mil|HoleSize=0mil|Usage=FLASHONLY|Rotation=270.000|XOffset=0mil|YOffset=0mil|HoleType=Round|Shape=RoundedRectangle|*
%AMROUNDEDRECTD83*
21,1,0.0256,0.0760,0,0,270.0*
21,1,0.0130,0.0886,0,0,270.0*
1,1,0.0126,-0.0380,-0.0065*
1,1,0.0126,-0.0380,0.0065*
1,1,0.0126,0.0380,0.0065*
1,1,0.0126,0.0380,-0.0065*
%
%ADD83ROUNDEDRECTD83*%
G04:AMPARAMS|DCode=84|XSize=73mil|YSize=89mil|CornerRadius=17mil|HoleSize=0mil|Usage=FLASHONLY|Rotation=90.000|XOffset=0mil|YOffset=0mil|HoleType=Round|Shape=RoundedRectangle|*
%AMROUNDEDRECTD84*
21,1,0.0730,0.0550,0,0,90.0*
21,1,0.0390,0.0890,0,0,90.0*
1,1,0.0340,0.0275,0.0195*
1,1,0.0340,0.0275,-0.0195*
1,1,0.0340,-0.0275,-0.0195*
1,1,0.0340,-0.0275,0.0195*
%
%ADD84ROUNDEDRECTD84*%
%ADD85R,0.0681X0.0689*%
%ADD86R,0.1910X0.0650*%
%ADD87R,0.0729X0.0256*%
%ADD88R,0.0256X0.0256*%
%ADD89O,0.0689X0.0197*%
%ADD90R,0.0374X0.0296*%
%ADD91R,0.0335X0.0335*%
%ADD92R,0.1620X0.0620*%
%ADD93O,0.0433X0.0138*%
%ADD94O,0.0138X0.0433*%
%ADD95R,0.0859X0.0859*%
%ADD96C,0.0630*%
%ADD97R,0.0630X0.0630*%
G04:AMPARAMS|DCode=98|XSize=65mil|YSize=65mil|CornerRadius=16.7mil|HoleSize=0mil|Usage=FLASHONLY|Rotation=0.000|XOffset=0mil|YOffset=0mil|HoleType=Round|Shape=RoundedRectangle|*
%AMROUNDEDRECTD98*
21,1,0.0650,0.0315,0,0,0.0*
21,1,0.0315,0.0650,0,0,0.0*
1,1,0.0335,0.0157,-0.0157*
1,1,0.0335,-0.0157,-0.0157*
1,1,0.0335,-0.0157,0.0157*
1,1,0.0335,0.0157,0.0157*
%
%ADD98ROUNDEDRECTD98*%
%ADD99C,0.0650*%
%ADD100R,0.0650X0.0650*%
%ADD101R,0.0630X0.0630*%
%ADD102C,0.1595*%
%ADD103R,0.0611X0.1595*%
%ADD104R,0.0611X0.1398*%
%ADD105R,0.1398X0.0611*%
%ADD106C,0.0256*%
G36*
X43461Y55005D02*
X43461Y55005D01*
Y49205D01*
X42961D01*
Y53505D01*
X43161Y53705D01*
Y54305D01*
X42961Y54505D01*
Y54905D01*
X41961Y55905D01*
Y56005D01*
X41961Y56005D01*
X42461D01*
X43461Y55005D01*
D02*
G37*
G36*
X42461Y60505D02*
Y58605D01*
X41961D01*
Y60505D01*
X22961D01*
X22711Y60755D01*
X22211D01*
X21961Y60505D01*
X16961D01*
Y40505D01*
X21461D01*
X21711Y40255D01*
X22211D01*
X22461Y40505D01*
X42161D01*
Y41205D01*
X42961Y42005D01*
Y42505D01*
X43211Y42755D01*
Y43255D01*
X42961Y43505D01*
X42957Y46659D01*
X43461D01*
Y42005D01*
X42461Y41005D01*
X42461Y40005D01*
X16461D01*
X16461Y60989D01*
X41961Y61005D01*
X42461Y60505D01*
D02*
G37*
D43*
X16461Y40005D02*
Y60989D01*
X43461Y42005D02*
Y55005D01*
X16461Y60989D02*
X41961D01*
X42453Y60497D01*
Y56013D02*
Y60497D01*
Y56013D02*
X43461Y55005D01*
X16461Y40005D02*
X41961D01*
X42461Y41005D02*
X43461Y42005D01*
X42461Y40005D02*
Y41005D01*
X41961Y40005D02*
X42461D01*
D70*
X39275Y52682D02*
D03*
X39551Y46383D02*
D03*
D71*
X40319Y52682D02*
D03*
X40595Y46383D02*
D03*
D72*
X27602Y58312D02*
D03*
X25398D02*
D03*
X27720Y47289D02*
D03*
X25516D02*
D03*
D73*
X39276Y52092D02*
D03*
Y53273D02*
D03*
X39551Y45793D02*
D03*
Y46974D02*
D03*
D74*
X33469Y55556D02*
D03*
Y56265D02*
D03*
X32602Y55556D02*
D03*
Y56265D02*
D03*
X33705Y49690D02*
D03*
Y50399D02*
D03*
X32681Y49690D02*
D03*
Y50399D02*
D03*
X31933Y43982D02*
D03*
Y44690D02*
D03*
X31146D02*
D03*
Y43982D02*
D03*
X25594Y45871D02*
D03*
Y45163D02*
D03*
D75*
X36067Y56344D02*
D03*
X37248D02*
D03*
X37091Y52919D02*
D03*
X35909D02*
D03*
X36264Y50123D02*
D03*
X37445D02*
D03*
X37287Y46856D02*
D03*
X36106D02*
D03*
D76*
X34413Y54887D02*
D03*
X35122D02*
D03*
X34413Y53903D02*
D03*
X35122D02*
D03*
X38468Y52210D02*
D03*
X37760D02*
D03*
X34532Y48785D02*
D03*
X35240D02*
D03*
X34492Y47761D02*
D03*
X35201D02*
D03*
X38193Y51344D02*
D03*
X38902D02*
D03*
D77*
X39571Y55324D02*
D03*
X39827Y54478D02*
D03*
X39315D02*
D03*
X39571Y47889D02*
D03*
X39315Y48735D02*
D03*
X39827D02*
D03*
D78*
X39571Y55930D02*
D03*
Y56600D02*
D03*
X24492Y46167D02*
D03*
Y46836D02*
D03*
X21776Y47820D02*
D03*
Y47151D02*
D03*
D79*
X39236Y58115D02*
D03*
X38567D02*
D03*
X37346D02*
D03*
X38016D02*
D03*
X36795D02*
D03*
X36126D02*
D03*
X36795Y58824D02*
D03*
X36126D02*
D03*
X37346Y58824D02*
D03*
X38016D02*
D03*
X39236Y58824D02*
D03*
X38567D02*
D03*
X34827Y58115D02*
D03*
X35496D02*
D03*
X34315D02*
D03*
X33646D02*
D03*
X32465D02*
D03*
X33134D02*
D03*
X32465Y58824D02*
D03*
X33134D02*
D03*
X34315Y58824D02*
D03*
X33646D02*
D03*
X34827Y58824D02*
D03*
X35496D02*
D03*
X40929Y43863D02*
D03*
X40260D02*
D03*
X38134Y43903D02*
D03*
X37465D02*
D03*
X40995Y47905D02*
D03*
X40326D02*
D03*
X23764Y45950D02*
D03*
X23094D02*
D03*
X23134Y47919D02*
D03*
X22465D02*
D03*
X29748Y43903D02*
D03*
X29079D02*
D03*
X28567D02*
D03*
X27898D02*
D03*
D80*
X39384Y44946D02*
D03*
Y44434D02*
D03*
X40230Y44690D02*
D03*
X36589Y44985D02*
D03*
Y44474D02*
D03*
X37435Y44730D02*
D03*
D81*
X28744Y58667D02*
D03*
Y58037D02*
D03*
X33823Y46068D02*
D03*
Y45438D02*
D03*
D82*
X27248Y52328D02*
D03*
X27878D02*
D03*
D83*
X38311Y47759D02*
D03*
Y48259D02*
D03*
Y49259D02*
D03*
X36264Y47759D02*
D03*
Y48259D02*
D03*
Y49259D02*
D03*
X38311Y48759D02*
D03*
X36264D02*
D03*
X19768Y46763D02*
D03*
X17721D02*
D03*
X19768Y46263D02*
D03*
Y47263D02*
D03*
Y47763D02*
D03*
X17721Y46263D02*
D03*
Y47263D02*
D03*
Y47763D02*
D03*
X38114Y53901D02*
D03*
Y54401D02*
D03*
Y55401D02*
D03*
X36067Y53901D02*
D03*
Y54401D02*
D03*
Y55401D02*
D03*
X38114Y54901D02*
D03*
X36067D02*
D03*
D84*
X23823Y42712D02*
D03*
Y44309D02*
D03*
D85*
X22524Y42568D02*
D03*
Y43978D02*
D03*
D86*
X25634Y42289D02*
D03*
Y44493D02*
D03*
D87*
X30280Y45232D02*
D03*
Y44700D02*
D03*
D88*
X20949Y47919D02*
D03*
Y47052D02*
D03*
D89*
X29059Y44661D02*
D03*
Y44917D02*
D03*
Y45173D02*
D03*
Y45428D02*
D03*
X27406Y44661D02*
D03*
Y44917D02*
D03*
Y45173D02*
D03*
Y45428D02*
D03*
D90*
X23016Y47052D02*
D03*
X23764Y47308D02*
D03*
Y46797D02*
D03*
D91*
X33803Y44336D02*
D03*
X33213D02*
D03*
X28764Y51816D02*
D03*
X29354D02*
D03*
Y57131D02*
D03*
X28764D02*
D03*
D92*
X42661Y48905D02*
D03*
Y46905D02*
D03*
Y47905D02*
D03*
X41661Y58305D02*
D03*
Y56305D02*
D03*
Y57305D02*
D03*
D93*
X31648Y54533D02*
D03*
Y54218D02*
D03*
Y53903D02*
D03*
X33242D02*
D03*
Y54218D02*
D03*
Y54533D02*
D03*
X33282Y48509D02*
D03*
Y48194D02*
D03*
Y47879D02*
D03*
X31687D02*
D03*
Y48194D02*
D03*
Y48509D02*
D03*
D94*
X32130Y53421D02*
D03*
X32445D02*
D03*
X32760D02*
D03*
Y55015D02*
D03*
X32445D02*
D03*
X32130D02*
D03*
X32169Y48991D02*
D03*
X32484D02*
D03*
X32799D02*
D03*
Y47397D02*
D03*
X32484D02*
D03*
X32169D02*
D03*
D95*
X32445Y54218D02*
D03*
X32484Y48194D02*
D03*
D96*
X34461Y41005D02*
D03*
X33461D02*
D03*
X32461D02*
D03*
X31461D02*
D03*
X30461D02*
D03*
X29461D02*
D03*
X28461D02*
D03*
X41461D02*
D03*
X40461D02*
D03*
X39461D02*
D03*
X38461D02*
D03*
X37461D02*
D03*
X27657Y50257D02*
D03*
Y51257D02*
D03*
Y49257D02*
D03*
X26657Y51257D02*
D03*
Y50257D02*
D03*
X41511Y50985D02*
D03*
Y49985D02*
D03*
X42511Y51985D02*
D03*
Y49985D02*
D03*
Y50985D02*
D03*
X27618Y56430D02*
D03*
Y55430D02*
D03*
Y54430D02*
D03*
Y53430D02*
D03*
X26618Y56430D02*
D03*
Y55430D02*
D03*
Y54430D02*
D03*
X31861Y60005D02*
D03*
X30861D02*
D03*
X29861D02*
D03*
X28861D02*
D03*
X27861D02*
D03*
X26861D02*
D03*
X25861D02*
D03*
X24861D02*
D03*
X23861D02*
D03*
X40461D02*
D03*
X39461D02*
D03*
X38461D02*
D03*
X37461D02*
D03*
X36461D02*
D03*
X35461D02*
D03*
X34461D02*
D03*
D97*
X27461Y41005D02*
D03*
X36461D02*
D03*
X32861Y60005D02*
D03*
X41461D02*
D03*
D98*
X17839Y49218D02*
D03*
Y53667D02*
D03*
D99*
X18839Y49218D02*
D03*
X21839D02*
D03*
X22839D02*
D03*
X23839D02*
D03*
X24839D02*
D03*
Y53667D02*
D03*
X23839D02*
D03*
X22839D02*
D03*
X21839D02*
D03*
X18839D02*
D03*
X40256Y42328D02*
D03*
X37461D02*
D03*
X34469D02*
D03*
X32445Y54218D02*
D03*
X32484Y48194D02*
D03*
D100*
X39256Y42328D02*
D03*
X36461D02*
D03*
X33468D02*
D03*
D101*
X26657Y49257D02*
D03*
X41511Y51985D02*
D03*
X26618Y53430D02*
D03*
D102*
X21961Y41005D02*
D03*
X42461Y43005D02*
D03*
Y54005D02*
D03*
X22461Y60005D02*
D03*
D103*
X21142Y43005D02*
D03*
D104*
X18780D02*
D03*
D105*
X19961Y41155D02*
D03*
D106*
X16756Y60674D02*
D03*
X17937D02*
D03*
X18921D02*
D03*
X19906D02*
D03*
X20890D02*
D03*
X16756Y59690D02*
D03*
Y58706D02*
D03*
Y57722D02*
D03*
Y56737D02*
D03*
Y55753D02*
D03*
Y54769D02*
D03*
Y53785D02*
D03*
Y52800D02*
D03*
Y51816D02*
D03*
Y50832D02*
D03*
Y49848D02*
D03*
Y48863D02*
D03*
Y47879D02*
D03*
Y46895D02*
D03*
Y45911D02*
D03*
Y44926D02*
D03*
Y43942D02*
D03*
Y42958D02*
D03*
Y41974D02*
D03*
Y40989D02*
D03*
X17445Y40300D02*
D03*
X18429D02*
D03*
X19413D02*
D03*
X20398D02*
D03*
X23350D02*
D03*
X24335D02*
D03*
X25319D02*
D03*
X26303D02*
D03*
X27287D02*
D03*
X28272D02*
D03*
X29256D02*
D03*
X30240D02*
D03*
X31224D02*
D03*
X32209D02*
D03*
X33193D02*
D03*
X34177D02*
D03*
X35161D02*
D03*
X36146D02*
D03*
X37130D02*
D03*
X38114D02*
D03*
X39098D02*
D03*
X40083D02*
D03*
X41067D02*
D03*
X42051D02*
D03*
X42543Y41383D02*
D03*
X43134Y43942D02*
D03*
Y44926D02*
D03*
Y45911D02*
D03*
X23843Y60674D02*
D03*
X24827D02*
D03*
X25811D02*
D03*
X26795D02*
D03*
X27780D02*
D03*
X28764D02*
D03*
X29748D02*
D03*
X30732D02*
D03*
X31717D02*
D03*
X32701D02*
D03*
X33685D02*
D03*
X34669D02*
D03*
X35654D02*
D03*
X36638D02*
D03*
X37622D02*
D03*
X38606D02*
D03*
X39591D02*
D03*
X40575D02*
D03*
X41559D02*
D03*
X42150Y60478D02*
D03*
Y59198D02*
D03*
X43134Y49848D02*
D03*
Y50832D02*
D03*
Y51816D02*
D03*
Y52800D02*
D03*
X42740Y55360D02*
D03*
M02*
