G04*
G04 #@! TF.GenerationSoftware,Altium Limited,CircuitStudio,1.5.1 (13)*
G04*
G04 Layer_Physical_Order=2*
G04 Layer_Color=56745*
%FSLAX24Y24*%
%MOIN*%
G70*
G01*
G75*
%ADD10C,0.0100*%
%ADD32R,0.1600X0.0600*%
%ADD36C,0.0118*%
%ADD37C,0.0197*%
%ADD38C,0.0295*%
%ADD43C,0.0039*%
%ADD44C,0.0610*%
%ADD45R,0.0610X0.0610*%
G04:AMPARAMS|DCode=46|XSize=63mil|YSize=63mil|CornerRadius=15.7mil|HoleSize=0mil|Usage=FLASHONLY|Rotation=0.000|XOffset=0mil|YOffset=0mil|HoleType=Round|Shape=RoundedRectangle|*
%AMROUNDEDRECTD46*
21,1,0.0630,0.0315,0,0,0.0*
21,1,0.0315,0.0630,0,0,0.0*
1,1,0.0315,0.0157,-0.0157*
1,1,0.0315,-0.0157,-0.0157*
1,1,0.0315,-0.0157,0.0157*
1,1,0.0315,0.0157,0.0157*
%
%ADD46ROUNDEDRECTD46*%
%ADD47C,0.0630*%
%ADD48R,0.0630X0.0630*%
%ADD49R,0.0610X0.0610*%
%ADD50C,0.1575*%
%ADD51R,0.0591X0.1575*%
%ADD52R,0.0591X0.1378*%
%ADD53R,0.1378X0.0591*%
%ADD54C,0.0236*%
%ADD55C,0.0472*%
G36*
X42461Y60505D02*
Y58723D01*
X41720D01*
Y58305D01*
Y57887D01*
X42461D01*
Y56723D01*
X41720D01*
Y56305D01*
Y55887D01*
X42579D01*
X42579Y55887D01*
Y55887D01*
X42612Y55854D01*
X43461Y55005D01*
Y49323D01*
X42720D01*
Y48905D01*
Y48487D01*
X43461D01*
Y47323D01*
X42720D01*
Y46905D01*
Y46487D01*
X43461D01*
Y42005D01*
X42461Y41005D01*
Y40005D01*
X16461D01*
Y60989D01*
X41961Y61005D01*
X42461Y60505D01*
D02*
G37*
%LPC*%
G36*
X19193Y43812D02*
X18839D01*
Y43064D01*
X19193D01*
Y43812D01*
D02*
G37*
G36*
X40476Y49676D02*
X40391Y49659D01*
X40319Y49611D01*
X40271Y49539D01*
X40254Y49454D01*
X40271Y49369D01*
X40314Y49304D01*
Y45470D01*
X40271Y45405D01*
X40254Y45320D01*
X40271Y45235D01*
X40319Y45163D01*
X40391Y45115D01*
X40476Y45098D01*
X40561Y45115D01*
X40634Y45163D01*
X40682Y45235D01*
X40699Y45320D01*
X40682Y45405D01*
X40639Y45470D01*
Y49304D01*
X40682Y49369D01*
X40699Y49454D01*
X40682Y49539D01*
X40634Y49611D01*
X40561Y49659D01*
X40476Y49676D01*
D02*
G37*
G36*
X42520Y43909D02*
Y43064D01*
X43365D01*
X43353Y43183D01*
X43301Y43353D01*
X43217Y43511D01*
X43104Y43649D01*
X42966Y43762D01*
X42809Y43846D01*
X42638Y43898D01*
X42520Y43909D01*
D02*
G37*
G36*
X18720Y43812D02*
X18366D01*
Y43064D01*
X18720D01*
Y43812D01*
D02*
G37*
G36*
X42602Y47323D02*
X41743D01*
Y46964D01*
X42602D01*
Y47323D01*
D02*
G37*
G36*
X33665Y49510D02*
X33569Y49490D01*
X33487Y49436D01*
X33054Y49003D01*
X32999Y48921D01*
X32980Y48824D01*
Y46961D01*
X32939Y46907D01*
X32905Y46825D01*
X32893Y46737D01*
X32905Y46650D01*
X32939Y46568D01*
X32992Y46498D01*
X33063Y46444D01*
X33145Y46410D01*
X33232Y46398D01*
X33320Y46410D01*
X33402Y46444D01*
X33472Y46498D01*
X33526Y46568D01*
X33560Y46650D01*
X33571Y46737D01*
X33560Y46825D01*
X33526Y46907D01*
X33485Y46961D01*
Y47992D01*
X33535Y48019D01*
X33580Y47989D01*
X33665Y47972D01*
X33732Y47985D01*
X33735Y47983D01*
X33770Y47949D01*
X33771Y47946D01*
X33758Y47879D01*
X33775Y47794D01*
X33823Y47722D01*
X33895Y47674D01*
X33980Y47657D01*
X34065Y47674D01*
X34138Y47722D01*
X34186Y47794D01*
X34203Y47879D01*
X34186Y47964D01*
X34142Y48029D01*
Y48635D01*
X34186Y48700D01*
X34203Y48785D01*
X34186Y48870D01*
X34138Y48942D01*
X34065Y48990D01*
X33980Y49007D01*
X33918Y48995D01*
X33868Y49027D01*
Y49114D01*
X33899Y49161D01*
X33918Y49257D01*
X33899Y49354D01*
X33844Y49436D01*
X33762Y49490D01*
X33665Y49510D01*
D02*
G37*
G36*
X28390Y46212D02*
X28305Y46195D01*
X28233Y46147D01*
X28184Y46075D01*
X28169Y45998D01*
X27575Y45404D01*
X25032D01*
X24713Y45723D01*
X24698Y45799D01*
X24649Y45871D01*
X24577Y45919D01*
X24492Y45936D01*
X24407Y45919D01*
X24335Y45871D01*
X24287Y45799D01*
X24270Y45714D01*
X24287Y45629D01*
X24335Y45557D01*
X24407Y45508D01*
X24483Y45493D01*
X24850Y45127D01*
X24903Y45092D01*
X24965Y45079D01*
X27642D01*
X27704Y45092D01*
X27756Y45127D01*
X28398Y45769D01*
X28475Y45784D01*
X28547Y45832D01*
X28595Y45904D01*
X28612Y45989D01*
X28595Y46075D01*
X28547Y46147D01*
X28475Y46195D01*
X28390Y46212D01*
D02*
G37*
G36*
X42602Y46846D02*
X41743D01*
Y46487D01*
X42602D01*
Y46846D01*
D02*
G37*
G36*
X42402Y42946D02*
X41557D01*
X41568Y42828D01*
X41620Y42657D01*
X41704Y42500D01*
X41817Y42362D01*
X41955Y42249D01*
X42112Y42165D01*
X42283Y42113D01*
X42402Y42101D01*
Y42946D01*
D02*
G37*
G36*
X43365D02*
X42520D01*
Y42101D01*
X42638Y42113D01*
X42809Y42165D01*
X42966Y42249D01*
X43104Y42362D01*
X43217Y42500D01*
X43301Y42657D01*
X43353Y42828D01*
X43365Y42946D01*
D02*
G37*
G36*
X36876Y42743D02*
X36046D01*
Y41913D01*
X36876D01*
Y42743D01*
D02*
G37*
G36*
X39671D02*
X38841D01*
Y41913D01*
X39671D01*
Y42743D01*
D02*
G37*
G36*
X19193Y42946D02*
X18839D01*
Y42198D01*
X19193D01*
Y42946D01*
D02*
G37*
G36*
X42402Y43909D02*
X42283Y43898D01*
X42112Y43846D01*
X41955Y43762D01*
X41817Y43649D01*
X41704Y43511D01*
X41620Y43353D01*
X41568Y43183D01*
X41557Y43064D01*
X42402D01*
Y43909D01*
D02*
G37*
G36*
X21537Y43893D02*
X20746D01*
Y42118D01*
X21537D01*
Y43893D01*
D02*
G37*
G36*
X18720Y42946D02*
X18366D01*
Y42198D01*
X18720D01*
Y42946D01*
D02*
G37*
G36*
X27063Y49662D02*
X26252D01*
Y48852D01*
X27063D01*
Y49662D01*
D02*
G37*
G36*
X42602Y49323D02*
X41743D01*
Y48964D01*
X42602D01*
Y49323D01*
D02*
G37*
G36*
X17996Y49635D02*
X17681D01*
X17614Y49626D01*
X17551Y49600D01*
X17497Y49559D01*
X17456Y49505D01*
X17430Y49442D01*
X17421Y49375D01*
Y49060D01*
X17430Y48993D01*
X17456Y48930D01*
X17497Y48877D01*
X17551Y48835D01*
X17614Y48809D01*
X17681Y48801D01*
X17996D01*
X18063Y48809D01*
X18126Y48835D01*
X18180Y48877D01*
X18221Y48930D01*
X18247Y48993D01*
X18256Y49060D01*
Y49375D01*
X18247Y49442D01*
X18221Y49505D01*
X18180Y49559D01*
X18126Y49600D01*
X18063Y49626D01*
X17996Y49635D01*
D02*
G37*
G36*
X27657Y49666D02*
X27552Y49652D01*
X27453Y49611D01*
X27369Y49546D01*
X27304Y49461D01*
X27263Y49363D01*
X27249Y49257D01*
X27263Y49151D01*
X27304Y49053D01*
X27369Y48968D01*
X27453Y48903D01*
X27552Y48862D01*
X27657Y48849D01*
X27763Y48862D01*
X27862Y48903D01*
X27946Y48968D01*
X28011Y49053D01*
X28052Y49151D01*
X28066Y49257D01*
X28052Y49363D01*
X28011Y49461D01*
X27946Y49546D01*
X27862Y49611D01*
X27763Y49652D01*
X27657Y49666D01*
D02*
G37*
G36*
X24780Y49647D02*
X24726Y49640D01*
X24620Y49596D01*
X24530Y49527D01*
X24460Y49436D01*
X24417Y49331D01*
X24410Y49277D01*
X24780D01*
Y49647D01*
D02*
G37*
G36*
X24898D02*
Y49277D01*
X25268D01*
X25261Y49331D01*
X25217Y49436D01*
X25147Y49527D01*
X25057Y49596D01*
X24952Y49640D01*
X24898Y49647D01*
D02*
G37*
G36*
X18780D02*
X18726Y49640D01*
X18620Y49596D01*
X18530Y49527D01*
X18460Y49436D01*
X18417Y49331D01*
X18410Y49277D01*
X18780D01*
Y49647D01*
D02*
G37*
G36*
X18898D02*
Y49277D01*
X19268D01*
X19261Y49331D01*
X19217Y49436D01*
X19147Y49527D01*
X19057Y49596D01*
X18952Y49640D01*
X18898Y49647D01*
D02*
G37*
G36*
X19268Y49159D02*
X18898D01*
Y48789D01*
X18952Y48796D01*
X19057Y48840D01*
X19147Y48909D01*
X19217Y48999D01*
X19261Y49105D01*
X19268Y49159D01*
D02*
G37*
G36*
X24780D02*
X24410D01*
X24417Y49105D01*
X24460Y48999D01*
X24530Y48909D01*
X24620Y48840D01*
X24726Y48796D01*
X24780Y48789D01*
Y49159D01*
D02*
G37*
G36*
X42602Y48846D02*
X41743D01*
Y48487D01*
X42602D01*
Y48846D01*
D02*
G37*
G36*
X18780Y49159D02*
X18410D01*
X18417Y49105D01*
X18460Y48999D01*
X18530Y48909D01*
X18620Y48840D01*
X18726Y48796D01*
X18780Y48789D01*
Y49159D01*
D02*
G37*
G36*
X22839Y49636D02*
X22730Y49622D01*
X22629Y49580D01*
X22543Y49514D01*
X22476Y49427D01*
X22434Y49326D01*
X22420Y49218D01*
X22434Y49109D01*
X22476Y49009D01*
X22543Y48922D01*
X22629Y48855D01*
X22730Y48814D01*
X22839Y48799D01*
X22947Y48814D01*
X23048Y48855D01*
X23135Y48922D01*
X23201Y49009D01*
X23243Y49109D01*
X23257Y49218D01*
X23243Y49326D01*
X23201Y49427D01*
X23135Y49514D01*
X23048Y49580D01*
X22947Y49622D01*
X22839Y49636D01*
D02*
G37*
G36*
X23839D02*
X23730Y49622D01*
X23629Y49580D01*
X23543Y49514D01*
X23476Y49427D01*
X23434Y49326D01*
X23420Y49218D01*
X23434Y49109D01*
X23476Y49009D01*
X23543Y48922D01*
X23629Y48855D01*
X23730Y48814D01*
X23839Y48799D01*
X23947Y48814D01*
X24048Y48855D01*
X24135Y48922D01*
X24201Y49009D01*
X24243Y49109D01*
X24257Y49218D01*
X24243Y49326D01*
X24201Y49427D01*
X24135Y49514D01*
X24048Y49580D01*
X23947Y49622D01*
X23839Y49636D01*
D02*
G37*
G36*
X25268Y49159D02*
X24898D01*
Y48789D01*
X24952Y48796D01*
X25057Y48840D01*
X25147Y48909D01*
X25217Y48999D01*
X25261Y49105D01*
X25268Y49159D01*
D02*
G37*
G36*
X21839Y49636D02*
X21730Y49622D01*
X21629Y49580D01*
X21543Y49514D01*
X21476Y49427D01*
X21434Y49326D01*
X21420Y49218D01*
X21434Y49109D01*
X21476Y49009D01*
X21543Y48922D01*
X21629Y48855D01*
X21730Y48814D01*
X21839Y48799D01*
X21947Y48814D01*
X22048Y48855D01*
X22135Y48922D01*
X22201Y49009D01*
X22243Y49109D01*
X22257Y49218D01*
X22243Y49326D01*
X22201Y49427D01*
X22135Y49514D01*
X22048Y49580D01*
X21947Y49622D01*
X21839Y49636D01*
D02*
G37*
G36*
X34461Y41414D02*
X34355Y41400D01*
X34256Y41359D01*
X34172Y41294D01*
X34107Y41209D01*
X34066Y41111D01*
X34052Y41005D01*
X34066Y40899D01*
X34107Y40801D01*
X34172Y40716D01*
X34256Y40651D01*
X34355Y40610D01*
X34461Y40597D01*
X34566Y40610D01*
X34665Y40651D01*
X34750Y40716D01*
X34815Y40801D01*
X34855Y40899D01*
X34869Y41005D01*
X34855Y41111D01*
X34815Y41209D01*
X34750Y41294D01*
X34665Y41359D01*
X34566Y41400D01*
X34461Y41414D01*
D02*
G37*
G36*
X37461D02*
X37355Y41400D01*
X37256Y41359D01*
X37172Y41294D01*
X37107Y41209D01*
X37066Y41111D01*
X37052Y41005D01*
X37066Y40899D01*
X37107Y40801D01*
X37172Y40716D01*
X37256Y40651D01*
X37355Y40610D01*
X37461Y40597D01*
X37566Y40610D01*
X37665Y40651D01*
X37750Y40716D01*
X37815Y40801D01*
X37855Y40899D01*
X37869Y41005D01*
X37855Y41111D01*
X37815Y41209D01*
X37750Y41294D01*
X37665Y41359D01*
X37566Y41400D01*
X37461Y41414D01*
D02*
G37*
G36*
X30461D02*
X30355Y41400D01*
X30256Y41359D01*
X30172Y41294D01*
X30107Y41209D01*
X30066Y41111D01*
X30052Y41005D01*
X30066Y40899D01*
X30107Y40801D01*
X30172Y40716D01*
X30256Y40651D01*
X30355Y40610D01*
X30461Y40597D01*
X30566Y40610D01*
X30665Y40651D01*
X30750Y40716D01*
X30814Y40801D01*
X30855Y40899D01*
X30869Y41005D01*
X30855Y41111D01*
X30814Y41209D01*
X30750Y41294D01*
X30665Y41359D01*
X30566Y41400D01*
X30461Y41414D01*
D02*
G37*
G36*
X31461D02*
X31355Y41400D01*
X31256Y41359D01*
X31172Y41294D01*
X31107Y41209D01*
X31066Y41111D01*
X31052Y41005D01*
X31066Y40899D01*
X31107Y40801D01*
X31172Y40716D01*
X31256Y40651D01*
X31355Y40610D01*
X31461Y40597D01*
X31566Y40610D01*
X31665Y40651D01*
X31750Y40716D01*
X31814Y40801D01*
X31855Y40899D01*
X31869Y41005D01*
X31855Y41111D01*
X31814Y41209D01*
X31750Y41294D01*
X31665Y41359D01*
X31566Y41400D01*
X31461Y41414D01*
D02*
G37*
G36*
X40461D02*
X40355Y41400D01*
X40256Y41359D01*
X40172Y41294D01*
X40107Y41209D01*
X40066Y41111D01*
X40052Y41005D01*
X40066Y40899D01*
X40107Y40801D01*
X40172Y40716D01*
X40256Y40651D01*
X40355Y40610D01*
X40461Y40597D01*
X40566Y40610D01*
X40665Y40651D01*
X40750Y40716D01*
X40814Y40801D01*
X40855Y40899D01*
X40869Y41005D01*
X40855Y41111D01*
X40814Y41209D01*
X40750Y41294D01*
X40665Y41359D01*
X40566Y41400D01*
X40461Y41414D01*
D02*
G37*
G36*
X41461D02*
X41355Y41400D01*
X41256Y41359D01*
X41172Y41294D01*
X41107Y41209D01*
X41066Y41111D01*
X41052Y41005D01*
X41066Y40899D01*
X41107Y40801D01*
X41172Y40716D01*
X41256Y40651D01*
X41355Y40610D01*
X41461Y40597D01*
X41566Y40610D01*
X41665Y40651D01*
X41750Y40716D01*
X41814Y40801D01*
X41855Y40899D01*
X41869Y41005D01*
X41855Y41111D01*
X41814Y41209D01*
X41750Y41294D01*
X41665Y41359D01*
X41566Y41400D01*
X41461Y41414D01*
D02*
G37*
G36*
X38461D02*
X38355Y41400D01*
X38256Y41359D01*
X38172Y41294D01*
X38107Y41209D01*
X38066Y41111D01*
X38052Y41005D01*
X38066Y40899D01*
X38107Y40801D01*
X38172Y40716D01*
X38256Y40651D01*
X38355Y40610D01*
X38461Y40597D01*
X38566Y40610D01*
X38665Y40651D01*
X38750Y40716D01*
X38814Y40801D01*
X38855Y40899D01*
X38869Y41005D01*
X38855Y41111D01*
X38814Y41209D01*
X38750Y41294D01*
X38665Y41359D01*
X38566Y41400D01*
X38461Y41414D01*
D02*
G37*
G36*
X39461D02*
X39355Y41400D01*
X39256Y41359D01*
X39172Y41294D01*
X39107Y41209D01*
X39066Y41111D01*
X39052Y41005D01*
X39066Y40899D01*
X39107Y40801D01*
X39172Y40716D01*
X39256Y40651D01*
X39355Y40610D01*
X39461Y40597D01*
X39566Y40610D01*
X39665Y40651D01*
X39750Y40716D01*
X39815Y40801D01*
X39855Y40899D01*
X39869Y41005D01*
X39855Y41111D01*
X39815Y41209D01*
X39750Y41294D01*
X39665Y41359D01*
X39566Y41400D01*
X39461Y41414D01*
D02*
G37*
G36*
X32402Y40946D02*
X32042D01*
X32048Y40895D01*
X32091Y40792D01*
X32159Y40703D01*
X32247Y40635D01*
X32350Y40593D01*
X32402Y40586D01*
Y40946D01*
D02*
G37*
G36*
X32880D02*
X32520D01*
Y40586D01*
X32571Y40593D01*
X32674Y40635D01*
X32762Y40703D01*
X32830Y40792D01*
X32873Y40895D01*
X32880Y40946D01*
D02*
G37*
G36*
X21902D02*
X21057D01*
X21068Y40828D01*
X21120Y40657D01*
X21204Y40500D01*
X21317Y40362D01*
X21455Y40249D01*
X21612Y40165D01*
X21783Y40113D01*
X21902Y40101D01*
Y40946D01*
D02*
G37*
G36*
X22865D02*
X22020D01*
Y40101D01*
X22138Y40113D01*
X22309Y40165D01*
X22466Y40249D01*
X22604Y40362D01*
X22717Y40500D01*
X22801Y40657D01*
X22853Y40828D01*
X22865Y40946D01*
D02*
G37*
G36*
X28461Y41414D02*
X28355Y41400D01*
X28256Y41359D01*
X28172Y41294D01*
X28107Y41209D01*
X28066Y41111D01*
X28052Y41005D01*
X28066Y40899D01*
X28107Y40801D01*
X28172Y40716D01*
X28256Y40651D01*
X28355Y40610D01*
X28461Y40597D01*
X28566Y40610D01*
X28665Y40651D01*
X28750Y40716D01*
X28814Y40801D01*
X28855Y40899D01*
X28869Y41005D01*
X28855Y41111D01*
X28814Y41209D01*
X28750Y41294D01*
X28665Y41359D01*
X28566Y41400D01*
X28461Y41414D01*
D02*
G37*
G36*
X29461D02*
X29355Y41400D01*
X29256Y41359D01*
X29172Y41294D01*
X29107Y41209D01*
X29066Y41111D01*
X29052Y41005D01*
X29066Y40899D01*
X29107Y40801D01*
X29172Y40716D01*
X29256Y40651D01*
X29355Y40610D01*
X29461Y40597D01*
X29566Y40610D01*
X29665Y40651D01*
X29750Y40716D01*
X29815Y40801D01*
X29855Y40899D01*
X29869Y41005D01*
X29855Y41111D01*
X29815Y41209D01*
X29750Y41294D01*
X29665Y41359D01*
X29566Y41400D01*
X29461Y41414D01*
D02*
G37*
G36*
X33402Y40946D02*
X33042D01*
X33048Y40895D01*
X33091Y40792D01*
X33159Y40703D01*
X33247Y40635D01*
X33350Y40593D01*
X33402Y40586D01*
Y40946D01*
D02*
G37*
G36*
X33880D02*
X33520D01*
Y40586D01*
X33571Y40593D01*
X33674Y40635D01*
X33762Y40703D01*
X33830Y40792D01*
X33873Y40895D01*
X33880Y40946D01*
D02*
G37*
G36*
X19902Y41568D02*
X19154D01*
Y41214D01*
X19902D01*
Y41568D01*
D02*
G37*
G36*
X20768D02*
X20020D01*
Y41214D01*
X20768D01*
Y41568D01*
D02*
G37*
G36*
X33402Y41424D02*
X33350Y41418D01*
X33247Y41375D01*
X33159Y41307D01*
X33091Y41219D01*
X33048Y41116D01*
X33042Y41064D01*
X33402D01*
Y41424D01*
D02*
G37*
G36*
X33520D02*
Y41064D01*
X33880D01*
X33873Y41116D01*
X33830Y41219D01*
X33762Y41307D01*
X33674Y41375D01*
X33571Y41418D01*
X33520Y41424D01*
D02*
G37*
G36*
X40256Y42747D02*
X40148Y42732D01*
X40047Y42690D01*
X39960Y42624D01*
X39893Y42537D01*
X39852Y42436D01*
X39837Y42328D01*
X39852Y42220D01*
X39893Y42119D01*
X39960Y42032D01*
X40047Y41966D01*
X40148Y41924D01*
X40256Y41909D01*
X40364Y41924D01*
X40465Y41966D01*
X40552Y42032D01*
X40618Y42119D01*
X40660Y42220D01*
X40674Y42328D01*
X40660Y42436D01*
X40618Y42537D01*
X40552Y42624D01*
X40465Y42690D01*
X40364Y42732D01*
X40256Y42747D01*
D02*
G37*
G36*
X33883Y42743D02*
X33054D01*
Y41913D01*
X33883D01*
Y42743D01*
D02*
G37*
G36*
X34469Y42747D02*
X34360Y42732D01*
X34259Y42690D01*
X34173Y42624D01*
X34106Y42537D01*
X34064Y42436D01*
X34050Y42328D01*
X34064Y42220D01*
X34106Y42119D01*
X34173Y42032D01*
X34259Y41966D01*
X34360Y41924D01*
X34469Y41909D01*
X34577Y41924D01*
X34678Y41966D01*
X34764Y42032D01*
X34831Y42119D01*
X34873Y42220D01*
X34887Y42328D01*
X34873Y42436D01*
X34831Y42537D01*
X34764Y42624D01*
X34678Y42690D01*
X34577Y42732D01*
X34469Y42747D01*
D02*
G37*
G36*
X37461D02*
X37352Y42732D01*
X37251Y42690D01*
X37165Y42624D01*
X37098Y42537D01*
X37056Y42436D01*
X37042Y42328D01*
X37056Y42220D01*
X37098Y42119D01*
X37165Y42032D01*
X37251Y41966D01*
X37352Y41924D01*
X37461Y41909D01*
X37569Y41924D01*
X37670Y41966D01*
X37757Y42032D01*
X37823Y42119D01*
X37865Y42220D01*
X37879Y42328D01*
X37865Y42436D01*
X37823Y42537D01*
X37757Y42624D01*
X37670Y42690D01*
X37569Y42732D01*
X37461Y42747D01*
D02*
G37*
G36*
X19902Y41096D02*
X19154D01*
Y40741D01*
X19902D01*
Y41096D01*
D02*
G37*
G36*
X20768D02*
X20020D01*
Y40741D01*
X20768D01*
Y41096D01*
D02*
G37*
G36*
X27866Y41410D02*
X27056D01*
Y40600D01*
X27866D01*
Y41410D01*
D02*
G37*
G36*
X36866D02*
X36056D01*
Y40600D01*
X36866D01*
Y41410D01*
D02*
G37*
G36*
X32402Y41424D02*
X32350Y41418D01*
X32247Y41375D01*
X32159Y41307D01*
X32091Y41219D01*
X32048Y41116D01*
X32042Y41064D01*
X32402D01*
Y41424D01*
D02*
G37*
G36*
X32520D02*
Y41064D01*
X32880D01*
X32873Y41116D01*
X32830Y41219D01*
X32762Y41307D01*
X32674Y41375D01*
X32571Y41418D01*
X32520Y41424D01*
D02*
G37*
G36*
X21902Y41909D02*
X21783Y41898D01*
X21612Y41846D01*
X21455Y41762D01*
X21317Y41649D01*
X21204Y41511D01*
X21120Y41353D01*
X21068Y41183D01*
X21057Y41064D01*
X21902D01*
Y41909D01*
D02*
G37*
G36*
X22020D02*
Y41064D01*
X22865D01*
X22853Y41183D01*
X22801Y41353D01*
X22717Y41511D01*
X22604Y41649D01*
X22466Y41762D01*
X22309Y41846D01*
X22138Y41898D01*
X22020Y41909D01*
D02*
G37*
G36*
X22402Y59946D02*
X21557D01*
X21568Y59828D01*
X21620Y59657D01*
X21704Y59500D01*
X21817Y59362D01*
X21955Y59249D01*
X22112Y59165D01*
X22283Y59113D01*
X22402Y59101D01*
Y59946D01*
D02*
G37*
G36*
X23365D02*
X22520D01*
Y59101D01*
X22638Y59113D01*
X22809Y59165D01*
X22966Y59249D01*
X23104Y59362D01*
X23217Y59500D01*
X23301Y59657D01*
X23353Y59828D01*
X23365Y59946D01*
D02*
G37*
G36*
X41602Y58246D02*
X40743D01*
Y57887D01*
X41602D01*
Y58246D01*
D02*
G37*
G36*
Y58723D02*
X40743D01*
Y58364D01*
X41602D01*
Y58723D01*
D02*
G37*
G36*
X25861Y60414D02*
X25755Y60400D01*
X25656Y60359D01*
X25572Y60294D01*
X25507Y60209D01*
X25466Y60111D01*
X25452Y60005D01*
X25466Y59899D01*
X25507Y59801D01*
X25572Y59716D01*
X25656Y59651D01*
X25755Y59611D01*
X25861Y59597D01*
X25966Y59611D01*
X26065Y59651D01*
X26150Y59716D01*
X26214Y59801D01*
X26255Y59899D01*
X26269Y60005D01*
X26255Y60111D01*
X26214Y60209D01*
X26150Y60294D01*
X26065Y60359D01*
X25966Y60400D01*
X25861Y60414D01*
D02*
G37*
G36*
X26861D02*
X26755Y60400D01*
X26656Y60359D01*
X26572Y60294D01*
X26507Y60209D01*
X26466Y60111D01*
X26452Y60005D01*
X26466Y59899D01*
X26507Y59801D01*
X26572Y59716D01*
X26656Y59651D01*
X26755Y59611D01*
X26861Y59597D01*
X26966Y59611D01*
X27065Y59651D01*
X27150Y59716D01*
X27215Y59801D01*
X27255Y59899D01*
X27269Y60005D01*
X27255Y60111D01*
X27215Y60209D01*
X27150Y60294D01*
X27065Y60359D01*
X26966Y60400D01*
X26861Y60414D01*
D02*
G37*
G36*
X23861D02*
X23755Y60400D01*
X23656Y60359D01*
X23572Y60294D01*
X23507Y60209D01*
X23466Y60111D01*
X23452Y60005D01*
X23466Y59899D01*
X23507Y59801D01*
X23572Y59716D01*
X23656Y59651D01*
X23755Y59611D01*
X23861Y59597D01*
X23966Y59611D01*
X24065Y59651D01*
X24150Y59716D01*
X24214Y59801D01*
X24255Y59899D01*
X24269Y60005D01*
X24255Y60111D01*
X24214Y60209D01*
X24150Y60294D01*
X24065Y60359D01*
X23966Y60400D01*
X23861Y60414D01*
D02*
G37*
G36*
X24861D02*
X24755Y60400D01*
X24656Y60359D01*
X24572Y60294D01*
X24507Y60209D01*
X24466Y60111D01*
X24452Y60005D01*
X24466Y59899D01*
X24507Y59801D01*
X24572Y59716D01*
X24656Y59651D01*
X24755Y59611D01*
X24861Y59597D01*
X24966Y59611D01*
X25065Y59651D01*
X25150Y59716D01*
X25215Y59801D01*
X25255Y59899D01*
X25269Y60005D01*
X25255Y60111D01*
X25215Y60209D01*
X25150Y60294D01*
X25065Y60359D01*
X24966Y60400D01*
X24861Y60414D01*
D02*
G37*
G36*
X27618Y56839D02*
X27512Y56825D01*
X27414Y56784D01*
X27329Y56719D01*
X27264Y56635D01*
X27223Y56536D01*
X27209Y56430D01*
X27223Y56325D01*
X27264Y56226D01*
X27329Y56141D01*
X27414Y56077D01*
X27512Y56036D01*
X27618Y56022D01*
X27724Y56036D01*
X27822Y56077D01*
X27907Y56141D01*
X27972Y56226D01*
X28013Y56325D01*
X28027Y56430D01*
X28013Y56536D01*
X27972Y56635D01*
X27907Y56719D01*
X27822Y56784D01*
X27724Y56825D01*
X27618Y56839D01*
D02*
G37*
G36*
X41602Y56723D02*
X40743D01*
Y56364D01*
X41602D01*
Y56723D01*
D02*
G37*
G36*
X26559Y56371D02*
X26199D01*
X26206Y56320D01*
X26248Y56217D01*
X26316Y56129D01*
X26405Y56061D01*
X26508Y56018D01*
X26559Y56011D01*
Y56371D01*
D02*
G37*
G36*
X27037D02*
X26677D01*
Y56011D01*
X26729Y56018D01*
X26832Y56061D01*
X26920Y56129D01*
X26988Y56217D01*
X27030Y56320D01*
X27037Y56371D01*
D02*
G37*
G36*
X17990Y58851D02*
X17806Y58833D01*
X17629Y58779D01*
X17466Y58692D01*
X17322Y58575D01*
X17205Y58432D01*
X17118Y58268D01*
X17064Y58091D01*
X17046Y57907D01*
X17064Y57722D01*
X17118Y57545D01*
X17205Y57382D01*
X17322Y57239D01*
X17466Y57121D01*
X17629Y57034D01*
X17806Y56980D01*
X17990Y56962D01*
Y56964D01*
X17990Y56964D01*
X22261D01*
X22319Y56975D01*
X22369Y57009D01*
X22402Y57058D01*
X22414Y57117D01*
Y58697D01*
X22402Y58755D01*
X22369Y58805D01*
X22319Y58838D01*
X22261Y58850D01*
X17990D01*
X17990Y58850D01*
Y58851D01*
D02*
G37*
G36*
X31736Y57885D02*
X31651Y57868D01*
X31579Y57820D01*
X31531Y57748D01*
X31514Y57663D01*
X31530Y57580D01*
X31531Y57571D01*
X31505Y57530D01*
X31296D01*
X31231Y57573D01*
X31146Y57590D01*
X31061Y57573D01*
X30988Y57525D01*
X30940Y57452D01*
X30923Y57367D01*
X30936Y57304D01*
X30904Y57254D01*
X30666D01*
X30601Y57297D01*
X30516Y57314D01*
X30431Y57297D01*
X30359Y57249D01*
X30310Y57177D01*
X30293Y57092D01*
X30310Y57007D01*
X30359Y56935D01*
X30431Y56886D01*
X30516Y56869D01*
X30601Y56886D01*
X30666Y56930D01*
X31303D01*
X31365Y56942D01*
X31406Y56969D01*
X35901D01*
X35901Y56967D01*
X35949Y56895D01*
X36021Y56847D01*
X36106Y56830D01*
X36191Y56847D01*
X36264Y56895D01*
X36312Y56967D01*
X36329Y57052D01*
X36312Y57138D01*
X36296Y57161D01*
X36320Y57205D01*
X37866D01*
X37931Y57162D01*
X38016Y57145D01*
X38101Y57162D01*
X38173Y57210D01*
X38221Y57282D01*
X38238Y57367D01*
X38231Y57403D01*
X38263Y57441D01*
X38456D01*
X38462Y57438D01*
X38547Y57421D01*
X38632Y57438D01*
X38704Y57486D01*
X38753Y57558D01*
X38770Y57643D01*
X38753Y57728D01*
X38704Y57800D01*
X38632Y57848D01*
X38547Y57865D01*
X38462Y57848D01*
X38390Y57800D01*
X38367Y57766D01*
X31930D01*
X31893Y57820D01*
X31821Y57868D01*
X31736Y57885D01*
D02*
G37*
G36*
X26559Y56849D02*
X26508Y56843D01*
X26405Y56800D01*
X26316Y56732D01*
X26248Y56644D01*
X26206Y56541D01*
X26199Y56489D01*
X26559D01*
Y56849D01*
D02*
G37*
G36*
X26677D02*
Y56489D01*
X27037D01*
X27030Y56541D01*
X26988Y56644D01*
X26920Y56732D01*
X26832Y56800D01*
X26729Y56843D01*
X26677Y56849D01*
D02*
G37*
G36*
X39461Y60414D02*
X39355Y60400D01*
X39256Y60359D01*
X39172Y60294D01*
X39107Y60209D01*
X39066Y60111D01*
X39052Y60005D01*
X39066Y59899D01*
X39107Y59801D01*
X39172Y59716D01*
X39256Y59651D01*
X39355Y59611D01*
X39461Y59597D01*
X39566Y59611D01*
X39665Y59651D01*
X39750Y59716D01*
X39815Y59801D01*
X39855Y59899D01*
X39869Y60005D01*
X39855Y60111D01*
X39815Y60209D01*
X39750Y60294D01*
X39665Y60359D01*
X39566Y60400D01*
X39461Y60414D01*
D02*
G37*
G36*
X40461D02*
X40355Y60400D01*
X40256Y60359D01*
X40172Y60294D01*
X40107Y60209D01*
X40066Y60111D01*
X40052Y60005D01*
X40066Y59899D01*
X40107Y59801D01*
X40172Y59716D01*
X40256Y59651D01*
X40355Y59611D01*
X40461Y59597D01*
X40566Y59611D01*
X40665Y59651D01*
X40750Y59716D01*
X40814Y59801D01*
X40855Y59899D01*
X40869Y60005D01*
X40855Y60111D01*
X40814Y60209D01*
X40750Y60294D01*
X40665Y60359D01*
X40566Y60400D01*
X40461Y60414D01*
D02*
G37*
G36*
X37461D02*
X37355Y60400D01*
X37256Y60359D01*
X37172Y60294D01*
X37107Y60209D01*
X37066Y60111D01*
X37052Y60005D01*
X37066Y59899D01*
X37107Y59801D01*
X37172Y59716D01*
X37256Y59651D01*
X37355Y59611D01*
X37461Y59597D01*
X37566Y59611D01*
X37665Y59651D01*
X37750Y59716D01*
X37815Y59801D01*
X37855Y59899D01*
X37869Y60005D01*
X37855Y60111D01*
X37815Y60209D01*
X37750Y60294D01*
X37665Y60359D01*
X37566Y60400D01*
X37461Y60414D01*
D02*
G37*
G36*
X38461D02*
X38355Y60400D01*
X38256Y60359D01*
X38172Y60294D01*
X38107Y60209D01*
X38066Y60111D01*
X38052Y60005D01*
X38066Y59899D01*
X38107Y59801D01*
X38172Y59716D01*
X38256Y59651D01*
X38355Y59611D01*
X38461Y59597D01*
X38566Y59611D01*
X38665Y59651D01*
X38750Y59716D01*
X38814Y59801D01*
X38855Y59899D01*
X38869Y60005D01*
X38855Y60111D01*
X38814Y60209D01*
X38750Y60294D01*
X38665Y60359D01*
X38566Y60400D01*
X38461Y60414D01*
D02*
G37*
G36*
X22402Y60909D02*
X22283Y60898D01*
X22112Y60846D01*
X21955Y60762D01*
X21817Y60649D01*
X21704Y60511D01*
X21620Y60353D01*
X21568Y60183D01*
X21557Y60064D01*
X22402D01*
Y60909D01*
D02*
G37*
G36*
X22520D02*
Y60064D01*
X23365D01*
X23353Y60183D01*
X23301Y60353D01*
X23217Y60511D01*
X23104Y60649D01*
X22966Y60762D01*
X22809Y60846D01*
X22638Y60898D01*
X22520Y60909D01*
D02*
G37*
G36*
X33266Y60410D02*
X32456D01*
Y59600D01*
X33266D01*
Y60410D01*
D02*
G37*
G36*
X41866D02*
X41056D01*
Y59600D01*
X41866D01*
Y60410D01*
D02*
G37*
G36*
X29861Y60414D02*
X29755Y60400D01*
X29656Y60359D01*
X29572Y60294D01*
X29507Y60209D01*
X29466Y60111D01*
X29452Y60005D01*
X29466Y59899D01*
X29507Y59801D01*
X29572Y59716D01*
X29656Y59651D01*
X29755Y59611D01*
X29861Y59597D01*
X29966Y59611D01*
X30065Y59651D01*
X30150Y59716D01*
X30215Y59801D01*
X30255Y59899D01*
X30269Y60005D01*
X30255Y60111D01*
X30215Y60209D01*
X30150Y60294D01*
X30065Y60359D01*
X29966Y60400D01*
X29861Y60414D01*
D02*
G37*
G36*
X30861D02*
X30755Y60400D01*
X30656Y60359D01*
X30572Y60294D01*
X30507Y60209D01*
X30466Y60111D01*
X30452Y60005D01*
X30466Y59899D01*
X30507Y59801D01*
X30572Y59716D01*
X30656Y59651D01*
X30755Y59611D01*
X30861Y59597D01*
X30966Y59611D01*
X31065Y59651D01*
X31150Y59716D01*
X31214Y59801D01*
X31255Y59899D01*
X31269Y60005D01*
X31255Y60111D01*
X31214Y60209D01*
X31150Y60294D01*
X31065Y60359D01*
X30966Y60400D01*
X30861Y60414D01*
D02*
G37*
G36*
X27861D02*
X27755Y60400D01*
X27656Y60359D01*
X27572Y60294D01*
X27507Y60209D01*
X27466Y60111D01*
X27452Y60005D01*
X27466Y59899D01*
X27507Y59801D01*
X27572Y59716D01*
X27656Y59651D01*
X27755Y59611D01*
X27861Y59597D01*
X27966Y59611D01*
X28065Y59651D01*
X28150Y59716D01*
X28214Y59801D01*
X28255Y59899D01*
X28269Y60005D01*
X28255Y60111D01*
X28214Y60209D01*
X28150Y60294D01*
X28065Y60359D01*
X27966Y60400D01*
X27861Y60414D01*
D02*
G37*
G36*
X28861D02*
X28755Y60400D01*
X28656Y60359D01*
X28572Y60294D01*
X28507Y60209D01*
X28466Y60111D01*
X28452Y60005D01*
X28466Y59899D01*
X28507Y59801D01*
X28572Y59716D01*
X28656Y59651D01*
X28755Y59611D01*
X28861Y59597D01*
X28966Y59611D01*
X29065Y59651D01*
X29150Y59716D01*
X29214Y59801D01*
X29255Y59899D01*
X29269Y60005D01*
X29255Y60111D01*
X29214Y60209D01*
X29150Y60294D01*
X29065Y60359D01*
X28966Y60400D01*
X28861Y60414D01*
D02*
G37*
G36*
X35461D02*
X35355Y60400D01*
X35256Y60359D01*
X35172Y60294D01*
X35107Y60209D01*
X35066Y60111D01*
X35052Y60005D01*
X35066Y59899D01*
X35107Y59801D01*
X35172Y59716D01*
X35256Y59651D01*
X35355Y59611D01*
X35461Y59597D01*
X35566Y59611D01*
X35665Y59651D01*
X35750Y59716D01*
X35814Y59801D01*
X35855Y59899D01*
X35869Y60005D01*
X35855Y60111D01*
X35814Y60209D01*
X35750Y60294D01*
X35665Y60359D01*
X35566Y60400D01*
X35461Y60414D01*
D02*
G37*
G36*
X36461D02*
X36355Y60400D01*
X36256Y60359D01*
X36172Y60294D01*
X36107Y60209D01*
X36066Y60111D01*
X36052Y60005D01*
X36066Y59899D01*
X36107Y59801D01*
X36172Y59716D01*
X36256Y59651D01*
X36355Y59611D01*
X36461Y59597D01*
X36566Y59611D01*
X36665Y59651D01*
X36750Y59716D01*
X36814Y59801D01*
X36855Y59899D01*
X36869Y60005D01*
X36855Y60111D01*
X36814Y60209D01*
X36750Y60294D01*
X36665Y60359D01*
X36566Y60400D01*
X36461Y60414D01*
D02*
G37*
G36*
X31861D02*
X31755Y60400D01*
X31656Y60359D01*
X31572Y60294D01*
X31507Y60209D01*
X31466Y60111D01*
X31452Y60005D01*
X31466Y59899D01*
X31507Y59801D01*
X31572Y59716D01*
X31656Y59651D01*
X31755Y59611D01*
X31861Y59597D01*
X31966Y59611D01*
X32065Y59651D01*
X32150Y59716D01*
X32215Y59801D01*
X32255Y59899D01*
X32269Y60005D01*
X32255Y60111D01*
X32215Y60209D01*
X32150Y60294D01*
X32065Y60359D01*
X31966Y60400D01*
X31861Y60414D01*
D02*
G37*
G36*
X34461D02*
X34355Y60400D01*
X34256Y60359D01*
X34172Y60294D01*
X34107Y60209D01*
X34066Y60111D01*
X34052Y60005D01*
X34066Y59899D01*
X34107Y59801D01*
X34172Y59716D01*
X34256Y59651D01*
X34355Y59611D01*
X34461Y59597D01*
X34566Y59611D01*
X34665Y59651D01*
X34750Y59716D01*
X34815Y59801D01*
X34855Y59899D01*
X34869Y60005D01*
X34855Y60111D01*
X34815Y60209D01*
X34750Y60294D01*
X34665Y60359D01*
X34566Y60400D01*
X34461Y60414D01*
D02*
G37*
G36*
X41602Y56246D02*
X40743D01*
Y55887D01*
X41602D01*
Y56246D01*
D02*
G37*
G36*
X27023Y53836D02*
X26213D01*
Y53025D01*
X27023D01*
Y53836D01*
D02*
G37*
G36*
X42402Y53946D02*
X41557D01*
X41568Y53828D01*
X41620Y53657D01*
X41704Y53500D01*
X41817Y53362D01*
X41955Y53249D01*
X42112Y53165D01*
X42283Y53113D01*
X42402Y53101D01*
Y53946D01*
D02*
G37*
G36*
X41916Y52390D02*
X41106D01*
Y51580D01*
X41916D01*
Y52390D01*
D02*
G37*
G36*
X36618Y56683D02*
X36530Y56671D01*
X36449Y56637D01*
X36378Y56584D01*
X36324Y56513D01*
X36291Y56432D01*
X36279Y56344D01*
X36291Y56256D01*
X36324Y56174D01*
X36378Y56104D01*
X36416Y56075D01*
Y52963D01*
X36101Y52648D01*
X28686D01*
X28012Y53323D01*
X28013Y53325D01*
X28027Y53430D01*
X28013Y53536D01*
X27972Y53635D01*
X27907Y53719D01*
X27822Y53784D01*
X27724Y53825D01*
X27618Y53839D01*
X27512Y53825D01*
X27414Y53784D01*
X27329Y53719D01*
X27264Y53635D01*
X27223Y53536D01*
X27209Y53430D01*
X27223Y53325D01*
X27264Y53226D01*
X27329Y53141D01*
X27414Y53077D01*
X27512Y53036D01*
X27618Y53022D01*
X27724Y53036D01*
X27726Y53037D01*
X28420Y52342D01*
X28415Y52292D01*
X28388Y52274D01*
X27765Y51651D01*
X27763Y51652D01*
X27657Y51666D01*
X27552Y51652D01*
X27453Y51611D01*
X27369Y51546D01*
X27304Y51461D01*
X27263Y51363D01*
X27249Y51257D01*
X27263Y51151D01*
X27304Y51053D01*
X27369Y50968D01*
X27453Y50903D01*
X27552Y50862D01*
X27657Y50849D01*
X27763Y50862D01*
X27862Y50903D01*
X27946Y50968D01*
X28011Y51053D01*
X28052Y51151D01*
X28066Y51257D01*
X28052Y51363D01*
X28051Y51365D01*
X28615Y51929D01*
X36888D01*
Y47879D01*
X36904Y47802D01*
X36933Y47757D01*
X36929Y47722D01*
X36940Y47634D01*
X36974Y47552D01*
X37028Y47482D01*
X37098Y47428D01*
X37180Y47394D01*
X37268Y47383D01*
X37355Y47394D01*
X37437Y47428D01*
X37508Y47482D01*
X37561Y47552D01*
X37595Y47634D01*
X37607Y47722D01*
X37595Y47809D01*
X37561Y47891D01*
X37508Y47962D01*
X37437Y48015D01*
X37355Y48049D01*
X37293Y48058D01*
Y51177D01*
X37343Y51187D01*
X37348Y51174D01*
X37402Y51104D01*
X37472Y51050D01*
X37554Y51016D01*
X37642Y51005D01*
X37729Y51016D01*
X37811Y51050D01*
X37882Y51104D01*
X37935Y51174D01*
X37969Y51256D01*
X37981Y51344D01*
X37969Y51432D01*
X37935Y51513D01*
X37882Y51584D01*
X37844Y51612D01*
Y52407D01*
X37829Y52484D01*
X37785Y52550D01*
X37312Y53022D01*
X37247Y53066D01*
X37169Y53082D01*
X36820D01*
Y56075D01*
X36858Y56104D01*
X36912Y56174D01*
X36946Y56256D01*
X36957Y56344D01*
X36946Y56432D01*
X36912Y56513D01*
X36858Y56584D01*
X36788Y56637D01*
X36706Y56671D01*
X36618Y56683D01*
D02*
G37*
G36*
X19268Y53608D02*
X18898D01*
Y53238D01*
X18952Y53245D01*
X19057Y53288D01*
X19147Y53358D01*
X19217Y53448D01*
X19261Y53554D01*
X19268Y53608D01*
D02*
G37*
G36*
X21780D02*
X21410D01*
X21417Y53554D01*
X21460Y53448D01*
X21530Y53358D01*
X21620Y53288D01*
X21726Y53245D01*
X21780Y53238D01*
Y53608D01*
D02*
G37*
G36*
X43365Y53946D02*
X42520D01*
Y53101D01*
X42638Y53113D01*
X42809Y53165D01*
X42966Y53249D01*
X43104Y53362D01*
X43217Y53500D01*
X43301Y53657D01*
X43353Y53828D01*
X43365Y53946D01*
D02*
G37*
G36*
X18780Y53608D02*
X18410D01*
X18417Y53554D01*
X18460Y53448D01*
X18530Y53358D01*
X18620Y53288D01*
X18726Y53245D01*
X18780Y53238D01*
Y53608D01*
D02*
G37*
G36*
X26657Y50666D02*
X26552Y50652D01*
X26453Y50611D01*
X26369Y50546D01*
X26304Y50461D01*
X26263Y50363D01*
X26249Y50257D01*
X26263Y50151D01*
X26304Y50053D01*
X26369Y49968D01*
X26453Y49903D01*
X26552Y49862D01*
X26657Y49849D01*
X26763Y49862D01*
X26862Y49903D01*
X26946Y49968D01*
X27011Y50053D01*
X27052Y50151D01*
X27066Y50257D01*
X27052Y50363D01*
X27011Y50461D01*
X26946Y50546D01*
X26862Y50611D01*
X26763Y50652D01*
X26657Y50666D01*
D02*
G37*
G36*
X27657D02*
X27552Y50652D01*
X27453Y50611D01*
X27369Y50546D01*
X27304Y50461D01*
X27263Y50363D01*
X27249Y50257D01*
X27263Y50151D01*
X27304Y50053D01*
X27369Y49968D01*
X27453Y49903D01*
X27552Y49862D01*
X27657Y49849D01*
X27763Y49862D01*
X27862Y49903D01*
X27946Y49968D01*
X28011Y50053D01*
X28052Y50151D01*
X28066Y50257D01*
X28052Y50363D01*
X28011Y50461D01*
X27946Y50546D01*
X27862Y50611D01*
X27763Y50652D01*
X27657Y50666D01*
D02*
G37*
G36*
X41511Y50394D02*
X41405Y50380D01*
X41306Y50339D01*
X41222Y50274D01*
X41157Y50189D01*
X41116Y50091D01*
X41102Y49985D01*
X41116Y49879D01*
X41157Y49781D01*
X41222Y49696D01*
X41306Y49631D01*
X41405Y49591D01*
X41511Y49577D01*
X41616Y49591D01*
X41715Y49631D01*
X41800Y49696D01*
X41865Y49781D01*
X41905Y49879D01*
X41919Y49985D01*
X41905Y50091D01*
X41865Y50189D01*
X41800Y50274D01*
X41715Y50339D01*
X41616Y50380D01*
X41511Y50394D01*
D02*
G37*
G36*
X42511D02*
X42405Y50380D01*
X42306Y50339D01*
X42222Y50274D01*
X42157Y50189D01*
X42116Y50091D01*
X42102Y49985D01*
X42116Y49879D01*
X42157Y49781D01*
X42222Y49696D01*
X42306Y49631D01*
X42405Y49591D01*
X42511Y49577D01*
X42616Y49591D01*
X42715Y49631D01*
X42800Y49696D01*
X42864Y49781D01*
X42905Y49879D01*
X42919Y49985D01*
X42905Y50091D01*
X42864Y50189D01*
X42800Y50274D01*
X42715Y50339D01*
X42616Y50380D01*
X42511Y50394D01*
D02*
G37*
G36*
X26657Y51666D02*
X26552Y51652D01*
X26453Y51611D01*
X26369Y51546D01*
X26304Y51461D01*
X26263Y51363D01*
X26249Y51257D01*
X26263Y51151D01*
X26304Y51053D01*
X26369Y50968D01*
X26453Y50903D01*
X26552Y50862D01*
X26657Y50849D01*
X26763Y50862D01*
X26862Y50903D01*
X26946Y50968D01*
X27011Y51053D01*
X27052Y51151D01*
X27066Y51257D01*
X27052Y51363D01*
X27011Y51461D01*
X26946Y51546D01*
X26862Y51611D01*
X26763Y51652D01*
X26657Y51666D01*
D02*
G37*
G36*
X42511Y52394D02*
X42405Y52380D01*
X42306Y52339D01*
X42222Y52274D01*
X42157Y52189D01*
X42116Y52091D01*
X42102Y51985D01*
X42116Y51879D01*
X42157Y51781D01*
X42222Y51696D01*
X42306Y51631D01*
X42405Y51590D01*
X42511Y51577D01*
X42616Y51590D01*
X42715Y51631D01*
X42800Y51696D01*
X42864Y51781D01*
X42905Y51879D01*
X42919Y51985D01*
X42905Y52091D01*
X42864Y52189D01*
X42800Y52274D01*
X42715Y52339D01*
X42616Y52380D01*
X42511Y52394D01*
D02*
G37*
G36*
X41511Y51394D02*
X41405Y51380D01*
X41306Y51339D01*
X41222Y51274D01*
X41157Y51189D01*
X41116Y51091D01*
X41102Y50985D01*
X41116Y50879D01*
X41157Y50781D01*
X41222Y50696D01*
X41306Y50631D01*
X41405Y50591D01*
X41511Y50577D01*
X41616Y50591D01*
X41715Y50631D01*
X41800Y50696D01*
X41865Y50781D01*
X41905Y50879D01*
X41919Y50985D01*
X41905Y51091D01*
X41865Y51189D01*
X41800Y51274D01*
X41715Y51339D01*
X41616Y51380D01*
X41511Y51394D01*
D02*
G37*
G36*
X42511D02*
X42405Y51380D01*
X42306Y51339D01*
X42222Y51274D01*
X42157Y51189D01*
X42116Y51091D01*
X42102Y50985D01*
X42116Y50879D01*
X42157Y50781D01*
X42222Y50696D01*
X42306Y50631D01*
X42405Y50591D01*
X42511Y50577D01*
X42616Y50591D01*
X42715Y50631D01*
X42800Y50696D01*
X42864Y50781D01*
X42905Y50879D01*
X42919Y50985D01*
X42905Y51091D01*
X42864Y51189D01*
X42800Y51274D01*
X42715Y51339D01*
X42616Y51380D01*
X42511Y51394D01*
D02*
G37*
G36*
X26618Y54839D02*
X26512Y54825D01*
X26414Y54784D01*
X26329Y54719D01*
X26264Y54635D01*
X26223Y54536D01*
X26209Y54430D01*
X26223Y54325D01*
X26264Y54226D01*
X26329Y54141D01*
X26414Y54077D01*
X26512Y54036D01*
X26618Y54022D01*
X26724Y54036D01*
X26822Y54077D01*
X26907Y54141D01*
X26972Y54226D01*
X27013Y54325D01*
X27027Y54430D01*
X27013Y54536D01*
X26972Y54635D01*
X26907Y54719D01*
X26822Y54784D01*
X26724Y54825D01*
X26618Y54839D01*
D02*
G37*
G36*
X27618D02*
X27512Y54825D01*
X27414Y54784D01*
X27329Y54719D01*
X27264Y54635D01*
X27223Y54536D01*
X27209Y54430D01*
X27223Y54325D01*
X27264Y54226D01*
X27329Y54141D01*
X27414Y54077D01*
X27512Y54036D01*
X27618Y54022D01*
X27724Y54036D01*
X27822Y54077D01*
X27907Y54141D01*
X27972Y54226D01*
X28013Y54325D01*
X28027Y54430D01*
X28013Y54536D01*
X27972Y54635D01*
X27907Y54719D01*
X27822Y54784D01*
X27724Y54825D01*
X27618Y54839D01*
D02*
G37*
G36*
X21898Y54096D02*
Y53726D01*
X22268D01*
X22261Y53780D01*
X22217Y53885D01*
X22147Y53975D01*
X22057Y54045D01*
X21952Y54089D01*
X21898Y54096D01*
D02*
G37*
G36*
X33547Y55346D02*
X33462Y55329D01*
X33390Y55281D01*
X33342Y55208D01*
X33325Y55123D01*
X33342Y55038D01*
X33345Y55033D01*
Y54308D01*
X33342Y54303D01*
X33325Y54218D01*
X33342Y54133D01*
X33345Y54128D01*
Y53667D01*
X33360Y53589D01*
X33404Y53524D01*
X33538Y53390D01*
X33539Y53385D01*
X33587Y53313D01*
X33659Y53264D01*
X33744Y53247D01*
X33829Y53264D01*
X33901Y53313D01*
X33950Y53385D01*
X33966Y53470D01*
X33950Y53555D01*
X33901Y53627D01*
X33829Y53675D01*
X33824Y53676D01*
X33750Y53750D01*
Y53818D01*
X33800Y53850D01*
X33862Y53838D01*
X33947Y53855D01*
X34019Y53903D01*
X34068Y53975D01*
X34085Y54060D01*
X34068Y54145D01*
X34024Y54210D01*
Y54737D01*
X34068Y54802D01*
X34085Y54887D01*
X34068Y54972D01*
X34019Y55044D01*
X33947Y55093D01*
X33862Y55109D01*
X33816Y55100D01*
X33770Y55123D01*
X33767Y55138D01*
X33753Y55208D01*
X33704Y55281D01*
X33632Y55329D01*
X33547Y55346D01*
D02*
G37*
G36*
X26618Y55839D02*
X26512Y55825D01*
X26414Y55784D01*
X26329Y55719D01*
X26264Y55635D01*
X26223Y55536D01*
X26209Y55430D01*
X26223Y55325D01*
X26264Y55226D01*
X26329Y55141D01*
X26414Y55077D01*
X26512Y55036D01*
X26618Y55022D01*
X26724Y55036D01*
X26822Y55077D01*
X26907Y55141D01*
X26972Y55226D01*
X27013Y55325D01*
X27027Y55430D01*
X27013Y55536D01*
X26972Y55635D01*
X26907Y55719D01*
X26822Y55784D01*
X26724Y55825D01*
X26618Y55839D01*
D02*
G37*
G36*
X27618D02*
X27512Y55825D01*
X27414Y55784D01*
X27329Y55719D01*
X27264Y55635D01*
X27223Y55536D01*
X27209Y55430D01*
X27223Y55325D01*
X27264Y55226D01*
X27329Y55141D01*
X27414Y55077D01*
X27512Y55036D01*
X27618Y55022D01*
X27724Y55036D01*
X27822Y55077D01*
X27907Y55141D01*
X27972Y55226D01*
X28013Y55325D01*
X28027Y55430D01*
X28013Y55536D01*
X27972Y55635D01*
X27907Y55719D01*
X27822Y55784D01*
X27724Y55825D01*
X27618Y55839D01*
D02*
G37*
G36*
X42402Y54909D02*
X42283Y54898D01*
X42112Y54846D01*
X41955Y54762D01*
X41817Y54649D01*
X41704Y54511D01*
X41620Y54353D01*
X41568Y54183D01*
X41557Y54064D01*
X42402D01*
Y54909D01*
D02*
G37*
G36*
X42520D02*
Y54064D01*
X43365D01*
X43353Y54183D01*
X43301Y54353D01*
X43217Y54511D01*
X43104Y54649D01*
X42966Y54762D01*
X42809Y54846D01*
X42638Y54898D01*
X42520Y54909D01*
D02*
G37*
G36*
X23839Y54085D02*
X23730Y54071D01*
X23629Y54029D01*
X23543Y53963D01*
X23476Y53876D01*
X23434Y53775D01*
X23420Y53667D01*
X23434Y53558D01*
X23476Y53457D01*
X23543Y53371D01*
X23629Y53304D01*
X23730Y53262D01*
X23839Y53248D01*
X23947Y53262D01*
X24048Y53304D01*
X24135Y53371D01*
X24201Y53457D01*
X24243Y53558D01*
X24257Y53667D01*
X24243Y53775D01*
X24201Y53876D01*
X24135Y53963D01*
X24048Y54029D01*
X23947Y54071D01*
X23839Y54085D01*
D02*
G37*
G36*
X24839D02*
X24730Y54071D01*
X24629Y54029D01*
X24543Y53963D01*
X24476Y53876D01*
X24434Y53775D01*
X24420Y53667D01*
X24434Y53558D01*
X24476Y53457D01*
X24543Y53371D01*
X24629Y53304D01*
X24730Y53262D01*
X24839Y53248D01*
X24947Y53262D01*
X25048Y53304D01*
X25135Y53371D01*
X25201Y53457D01*
X25243Y53558D01*
X25257Y53667D01*
X25243Y53775D01*
X25201Y53876D01*
X25135Y53963D01*
X25048Y54029D01*
X24947Y54071D01*
X24839Y54085D01*
D02*
G37*
G36*
X22268Y53608D02*
X21898D01*
Y53238D01*
X21952Y53245D01*
X22057Y53288D01*
X22147Y53358D01*
X22217Y53448D01*
X22261Y53554D01*
X22268Y53608D01*
D02*
G37*
G36*
X22839Y54085D02*
X22730Y54071D01*
X22629Y54029D01*
X22543Y53963D01*
X22476Y53876D01*
X22434Y53775D01*
X22420Y53667D01*
X22434Y53558D01*
X22476Y53457D01*
X22543Y53371D01*
X22629Y53304D01*
X22730Y53262D01*
X22839Y53248D01*
X22947Y53262D01*
X23048Y53304D01*
X23135Y53371D01*
X23201Y53457D01*
X23243Y53558D01*
X23257Y53667D01*
X23243Y53775D01*
X23201Y53876D01*
X23135Y53963D01*
X23048Y54029D01*
X22947Y54071D01*
X22839Y54085D01*
D02*
G37*
G36*
X18898Y54096D02*
Y53726D01*
X19268D01*
X19261Y53780D01*
X19217Y53885D01*
X19147Y53975D01*
X19057Y54045D01*
X18952Y54089D01*
X18898Y54096D01*
D02*
G37*
G36*
X21780D02*
X21726Y54089D01*
X21620Y54045D01*
X21530Y53975D01*
X21460Y53885D01*
X21417Y53780D01*
X21410Y53726D01*
X21780D01*
Y54096D01*
D02*
G37*
G36*
X17996Y54084D02*
X17681D01*
X17614Y54075D01*
X17551Y54049D01*
X17497Y54008D01*
X17456Y53954D01*
X17430Y53891D01*
X17421Y53824D01*
Y53509D01*
X17430Y53442D01*
X17456Y53379D01*
X17497Y53325D01*
X17551Y53284D01*
X17614Y53258D01*
X17681Y53249D01*
X17996D01*
X18063Y53258D01*
X18126Y53284D01*
X18180Y53325D01*
X18221Y53379D01*
X18247Y53442D01*
X18256Y53509D01*
Y53824D01*
X18247Y53891D01*
X18221Y53954D01*
X18180Y54008D01*
X18126Y54049D01*
X18063Y54075D01*
X17996Y54084D01*
D02*
G37*
G36*
X18780Y54096D02*
X18726Y54089D01*
X18620Y54045D01*
X18530Y53975D01*
X18460Y53885D01*
X18417Y53780D01*
X18410Y53726D01*
X18780D01*
Y54096D01*
D02*
G37*
%LPD*%
G36*
X19294Y57770D02*
X19315Y57767D01*
X19334Y57763D01*
X19352Y57759D01*
X19369Y57752D01*
X19385Y57746D01*
X19400Y57739D01*
X19413Y57732D01*
X19425Y57724D01*
X19435Y57717D01*
X19444Y57710D01*
X19451Y57705D01*
X19457Y57699D01*
X19461Y57695D01*
X19464Y57693D01*
X19465Y57692D01*
X19478Y57677D01*
X19489Y57660D01*
X19499Y57643D01*
X19507Y57625D01*
X19515Y57607D01*
X19520Y57589D01*
X19526Y57572D01*
X19530Y57555D01*
X19533Y57538D01*
X19535Y57523D01*
X19536Y57510D01*
X19537Y57504D01*
X19538Y57498D01*
Y57493D01*
X19538Y57489D01*
Y57485D01*
X19539Y57482D01*
Y57479D01*
Y57477D01*
Y57476D01*
Y57476D01*
X19538Y57462D01*
X19537Y57449D01*
X19536Y57436D01*
X19534Y57423D01*
X19532Y57411D01*
X19529Y57400D01*
X19526Y57389D01*
X19523Y57379D01*
X19520Y57370D01*
X19517Y57362D01*
X19514Y57355D01*
X19512Y57349D01*
X19510Y57344D01*
X19508Y57340D01*
X19507Y57338D01*
X19507Y57337D01*
X19501Y57325D01*
X19494Y57314D01*
X19487Y57304D01*
X19479Y57293D01*
X19471Y57284D01*
X19464Y57276D01*
X19456Y57268D01*
X19448Y57261D01*
X19441Y57255D01*
X19435Y57249D01*
X19429Y57245D01*
X19424Y57241D01*
X19419Y57237D01*
X19416Y57236D01*
X19414Y57234D01*
X19413Y57234D01*
X19402Y57227D01*
X19390Y57221D01*
X19378Y57216D01*
X19365Y57212D01*
X19354Y57208D01*
X19342Y57205D01*
X19331Y57203D01*
X19320Y57201D01*
X19310Y57199D01*
X19301Y57198D01*
X19293Y57197D01*
X19286Y57197D01*
X19281D01*
X19277Y57196D01*
X19273D01*
X19260Y57197D01*
X19247Y57197D01*
X19234Y57199D01*
X19222Y57201D01*
X19210Y57204D01*
X19199Y57207D01*
X19188Y57210D01*
X19179Y57213D01*
X19170Y57216D01*
X19162Y57220D01*
X19155Y57223D01*
X19149Y57225D01*
X19145Y57227D01*
X19141Y57229D01*
X19139Y57230D01*
X19138Y57230D01*
X19127Y57237D01*
X19116Y57244D01*
X19106Y57252D01*
X19097Y57261D01*
X19088Y57269D01*
X19080Y57277D01*
X19073Y57286D01*
X19066Y57293D01*
X19061Y57301D01*
X19055Y57308D01*
X19051Y57315D01*
X19048Y57320D01*
X19045Y57325D01*
X19043Y57328D01*
X19042Y57330D01*
X19041Y57331D01*
X19035Y57344D01*
X19030Y57357D01*
X19025Y57370D01*
X19022Y57383D01*
X19018Y57396D01*
X19015Y57408D01*
X19013Y57420D01*
X19011Y57432D01*
X19010Y57442D01*
X19009Y57452D01*
X19008Y57461D01*
X19008Y57468D01*
X19007Y57474D01*
Y57478D01*
Y57481D01*
Y57482D01*
X19008Y57498D01*
X19009Y57513D01*
X19010Y57527D01*
X19012Y57541D01*
X19015Y57554D01*
X19017Y57566D01*
X19021Y57577D01*
X19024Y57588D01*
X19026Y57597D01*
X19029Y57606D01*
X19032Y57613D01*
X19035Y57619D01*
X19037Y57624D01*
X19038Y57628D01*
X19039Y57630D01*
X19040Y57631D01*
X19046Y57643D01*
X19053Y57654D01*
X19061Y57665D01*
X19068Y57675D01*
X19076Y57684D01*
X19084Y57692D01*
X19092Y57700D01*
X19099Y57707D01*
X19106Y57713D01*
X19113Y57719D01*
X19118Y57723D01*
X19124Y57727D01*
X19128Y57730D01*
X19131Y57732D01*
X19133Y57733D01*
X19134Y57733D01*
X19145Y57740D01*
X19158Y57746D01*
X19170Y57751D01*
X19182Y57755D01*
X19193Y57759D01*
X19205Y57761D01*
X19216Y57764D01*
X19226Y57766D01*
X19236Y57768D01*
X19245Y57769D01*
X19253Y57770D01*
X19260Y57770D01*
X19265Y57771D01*
X19273D01*
X19294Y57770D01*
D02*
G37*
G36*
X20369Y57762D02*
X20381Y57761D01*
X20393Y57759D01*
X20404Y57757D01*
X20415Y57753D01*
X20424Y57750D01*
X20433Y57746D01*
X20441Y57742D01*
X20448Y57738D01*
X20454Y57734D01*
X20459Y57731D01*
X20464Y57728D01*
X20468Y57725D01*
X20470Y57723D01*
X20471Y57722D01*
X20472Y57721D01*
X20480Y57713D01*
X20486Y57705D01*
X20492Y57697D01*
X20497Y57688D01*
X20501Y57679D01*
X20505Y57671D01*
X20508Y57663D01*
X20510Y57655D01*
X20511Y57648D01*
X20513Y57641D01*
X20514Y57635D01*
X20515Y57630D01*
Y57625D01*
X20515Y57623D01*
Y57620D01*
Y57620D01*
X20514Y57605D01*
X20512Y57592D01*
X20509Y57580D01*
X20505Y57570D01*
X20503Y57566D01*
X20501Y57562D01*
X20500Y57558D01*
X20498Y57556D01*
X20497Y57554D01*
X20496Y57552D01*
X20495Y57551D01*
Y57551D01*
X20491Y57545D01*
X20486Y57541D01*
X20476Y57531D01*
X20466Y57524D01*
X20456Y57518D01*
X20446Y57513D01*
X20442Y57511D01*
X20439Y57509D01*
X20435Y57508D01*
X20433Y57507D01*
X20432Y57506D01*
X20431D01*
X20441Y57504D01*
X20449Y57501D01*
X20457Y57497D01*
X20465Y57493D01*
X20472Y57489D01*
X20479Y57485D01*
X20484Y57481D01*
X20490Y57477D01*
X20495Y57473D01*
X20498Y57469D01*
X20502Y57465D01*
X20505Y57463D01*
X20507Y57460D01*
X20509Y57458D01*
X20510Y57457D01*
X20510Y57457D01*
X20515Y57450D01*
X20519Y57442D01*
X20523Y57435D01*
X20526Y57427D01*
X20528Y57420D01*
X20531Y57412D01*
X20534Y57398D01*
X20535Y57391D01*
X20536Y57385D01*
X20537Y57380D01*
X20537Y57375D01*
X20538Y57371D01*
Y57368D01*
Y57366D01*
Y57366D01*
X20537Y57352D01*
X20535Y57340D01*
X20533Y57328D01*
X20530Y57317D01*
X20526Y57305D01*
X20522Y57296D01*
X20517Y57287D01*
X20512Y57278D01*
X20508Y57271D01*
X20503Y57264D01*
X20499Y57258D01*
X20495Y57253D01*
X20492Y57250D01*
X20489Y57247D01*
X20488Y57245D01*
X20487Y57245D01*
X20478Y57236D01*
X20467Y57229D01*
X20457Y57222D01*
X20445Y57217D01*
X20434Y57212D01*
X20423Y57208D01*
X20412Y57205D01*
X20402Y57202D01*
X20392Y57200D01*
X20383Y57198D01*
X20375Y57197D01*
X20368Y57197D01*
X20362Y57197D01*
X20358Y57196D01*
X20354D01*
X20339Y57197D01*
X20325Y57198D01*
X20311Y57200D01*
X20299Y57204D01*
X20287Y57207D01*
X20276Y57211D01*
X20267Y57216D01*
X20257Y57220D01*
X20249Y57224D01*
X20242Y57229D01*
X20236Y57233D01*
X20231Y57237D01*
X20227Y57240D01*
X20224Y57242D01*
X20222Y57244D01*
X20222Y57244D01*
X20213Y57253D01*
X20205Y57264D01*
X20198Y57274D01*
X20192Y57284D01*
X20188Y57294D01*
X20184Y57304D01*
X20180Y57313D01*
X20177Y57322D01*
X20176Y57331D01*
X20174Y57339D01*
X20173Y57346D01*
X20172Y57352D01*
X20172Y57358D01*
X20171Y57361D01*
Y57363D01*
Y57364D01*
X20172Y57374D01*
X20172Y57383D01*
X20176Y57399D01*
X20177Y57407D01*
X20180Y57415D01*
X20182Y57421D01*
X20185Y57427D01*
X20187Y57433D01*
X20190Y57438D01*
X20192Y57442D01*
X20194Y57446D01*
X20196Y57449D01*
X20197Y57451D01*
X20198Y57452D01*
X20198Y57452D01*
X20203Y57459D01*
X20209Y57465D01*
X20222Y57477D01*
X20235Y57486D01*
X20247Y57493D01*
X20253Y57496D01*
X20258Y57499D01*
X20264Y57502D01*
X20268Y57503D01*
X20271Y57505D01*
X20274Y57505D01*
X20276Y57506D01*
X20276D01*
X20269Y57509D01*
X20262Y57513D01*
X20255Y57516D01*
X20249Y57520D01*
X20243Y57523D01*
X20239Y57527D01*
X20234Y57531D01*
X20230Y57534D01*
X20226Y57537D01*
X20223Y57541D01*
X20220Y57543D01*
X20218Y57545D01*
X20217Y57547D01*
X20216Y57549D01*
X20215Y57550D01*
Y57550D01*
X20211Y57556D01*
X20208Y57561D01*
X20203Y57573D01*
X20199Y57585D01*
X20196Y57595D01*
X20195Y57604D01*
X20194Y57608D01*
Y57612D01*
X20194Y57614D01*
Y57616D01*
Y57617D01*
Y57618D01*
X20194Y57629D01*
X20196Y57639D01*
X20198Y57650D01*
X20201Y57659D01*
X20204Y57668D01*
X20208Y57677D01*
X20212Y57685D01*
X20216Y57692D01*
X20220Y57698D01*
X20225Y57704D01*
X20228Y57709D01*
X20231Y57713D01*
X20234Y57716D01*
X20237Y57719D01*
X20238Y57720D01*
X20239Y57720D01*
X20247Y57728D01*
X20257Y57734D01*
X20266Y57740D01*
X20276Y57745D01*
X20285Y57749D01*
X20295Y57753D01*
X20305Y57755D01*
X20314Y57758D01*
X20323Y57759D01*
X20330Y57760D01*
X20337Y57761D01*
X20344Y57762D01*
X20349D01*
X20352Y57763D01*
X20356D01*
X20369Y57762D01*
D02*
G37*
G36*
X21323Y57770D02*
X21343Y57767D01*
X21362Y57763D01*
X21381Y57759D01*
X21397Y57752D01*
X21413Y57746D01*
X21428Y57739D01*
X21441Y57732D01*
X21453Y57724D01*
X21463Y57717D01*
X21472Y57710D01*
X21479Y57705D01*
X21485Y57699D01*
X21489Y57695D01*
X21492Y57693D01*
X21493Y57692D01*
X21506Y57677D01*
X21517Y57660D01*
X21527Y57643D01*
X21536Y57625D01*
X21543Y57607D01*
X21549Y57589D01*
X21554Y57572D01*
X21558Y57555D01*
X21561Y57538D01*
X21563Y57523D01*
X21565Y57510D01*
X21566Y57504D01*
X21566Y57498D01*
Y57493D01*
X21567Y57489D01*
Y57485D01*
X21567Y57482D01*
Y57479D01*
Y57477D01*
Y57476D01*
Y57476D01*
X21567Y57462D01*
X21566Y57449D01*
X21564Y57436D01*
X21562Y57423D01*
X21560Y57411D01*
X21557Y57400D01*
X21554Y57389D01*
X21551Y57379D01*
X21548Y57370D01*
X21545Y57362D01*
X21542Y57355D01*
X21540Y57349D01*
X21538Y57344D01*
X21537Y57340D01*
X21536Y57338D01*
X21535Y57337D01*
X21529Y57325D01*
X21522Y57314D01*
X21515Y57304D01*
X21507Y57293D01*
X21500Y57284D01*
X21492Y57276D01*
X21484Y57268D01*
X21476Y57261D01*
X21470Y57255D01*
X21463Y57249D01*
X21457Y57245D01*
X21452Y57241D01*
X21448Y57237D01*
X21445Y57236D01*
X21442Y57234D01*
X21442Y57234D01*
X21430Y57227D01*
X21418Y57221D01*
X21406Y57216D01*
X21394Y57212D01*
X21382Y57208D01*
X21370Y57205D01*
X21359Y57203D01*
X21348Y57201D01*
X21339Y57199D01*
X21329Y57198D01*
X21322Y57197D01*
X21314Y57197D01*
X21309D01*
X21305Y57196D01*
X21301D01*
X21288Y57197D01*
X21275Y57197D01*
X21262Y57199D01*
X21250Y57201D01*
X21238Y57204D01*
X21227Y57207D01*
X21217Y57210D01*
X21207Y57213D01*
X21198Y57216D01*
X21190Y57220D01*
X21183Y57223D01*
X21178Y57225D01*
X21173Y57227D01*
X21169Y57229D01*
X21167Y57230D01*
X21167Y57230D01*
X21155Y57237D01*
X21144Y57244D01*
X21134Y57252D01*
X21125Y57261D01*
X21116Y57269D01*
X21108Y57277D01*
X21101Y57286D01*
X21095Y57293D01*
X21089Y57301D01*
X21084Y57308D01*
X21079Y57315D01*
X21076Y57320D01*
X21073Y57325D01*
X21071Y57328D01*
X21070Y57330D01*
X21070Y57331D01*
X21063Y57344D01*
X21059Y57357D01*
X21054Y57370D01*
X21050Y57383D01*
X21047Y57396D01*
X21044Y57408D01*
X21042Y57420D01*
X21040Y57432D01*
X21038Y57442D01*
X21037Y57452D01*
X21036Y57461D01*
X21036Y57468D01*
X21035Y57474D01*
Y57478D01*
Y57481D01*
Y57482D01*
X21036Y57498D01*
X21037Y57513D01*
X21038Y57527D01*
X21041Y57541D01*
X21043Y57554D01*
X21046Y57566D01*
X21049Y57577D01*
X21052Y57588D01*
X21055Y57597D01*
X21058Y57606D01*
X21060Y57613D01*
X21063Y57619D01*
X21065Y57624D01*
X21067Y57628D01*
X21068Y57630D01*
X21068Y57631D01*
X21074Y57643D01*
X21082Y57654D01*
X21089Y57665D01*
X21097Y57675D01*
X21104Y57684D01*
X21112Y57692D01*
X21120Y57700D01*
X21127Y57707D01*
X21134Y57713D01*
X21141Y57719D01*
X21147Y57723D01*
X21152Y57727D01*
X21156Y57730D01*
X21159Y57732D01*
X21162Y57733D01*
X21162Y57733D01*
X21174Y57740D01*
X21186Y57746D01*
X21198Y57751D01*
X21210Y57755D01*
X21221Y57759D01*
X21233Y57761D01*
X21244Y57764D01*
X21255Y57766D01*
X21264Y57768D01*
X21274Y57769D01*
X21281Y57770D01*
X21288Y57770D01*
X21293Y57771D01*
X21301D01*
X21323Y57770D01*
D02*
G37*
G36*
X21904Y58556D02*
X21908Y58549D01*
X21917Y58536D01*
X21927Y58523D01*
X21937Y58512D01*
X21942Y58507D01*
X21946Y58502D01*
X21950Y58498D01*
X21954Y58495D01*
X21957Y58492D01*
X21959Y58490D01*
X21960Y58489D01*
X21961Y58488D01*
X21977Y58475D01*
X21995Y58462D01*
X22011Y58451D01*
X22019Y58446D01*
X22027Y58441D01*
X22034Y58437D01*
X22040Y58434D01*
X22046Y58430D01*
X22051Y58428D01*
X22055Y58426D01*
X22058Y58425D01*
X22060Y58424D01*
X22061Y58423D01*
Y58357D01*
X22049Y58362D01*
X22036Y58368D01*
X22024Y58373D01*
X22013Y58379D01*
X22008Y58382D01*
X22003Y58385D01*
X21999Y58386D01*
X21996Y58388D01*
X21993Y58390D01*
X21991Y58391D01*
X21990Y58392D01*
X21989Y58392D01*
X21975Y58401D01*
X21962Y58410D01*
X21951Y58418D01*
X21942Y58425D01*
X21938Y58428D01*
X21934Y58431D01*
X21931Y58433D01*
X21929Y58436D01*
X21927Y58437D01*
X21925Y58439D01*
X21925Y58439D01*
X21924Y58439D01*
Y58005D01*
X21856D01*
Y58563D01*
X21900D01*
X21904Y58556D01*
D02*
G37*
G36*
X20418Y58005D02*
X20340D01*
X20280Y58173D01*
X20046D01*
X19982Y58005D01*
X19822D01*
X19762Y58173D01*
X19528D01*
X19464Y58005D01*
X19381D01*
X19608Y58561D01*
X19687D01*
X19899Y58006D01*
X20126Y58561D01*
X20205D01*
X20418Y58005D01*
D02*
G37*
G36*
X19320D02*
X18905D01*
Y58071D01*
X19246D01*
Y58260D01*
X18939D01*
Y58326D01*
X19246D01*
Y58495D01*
X18918D01*
Y58561D01*
X19320D01*
Y58005D01*
D02*
G37*
G36*
X18793D02*
X18715D01*
Y58083D01*
X18793D01*
Y58005D01*
D02*
G37*
G36*
X22061Y57695D02*
X21877D01*
Y57205D01*
X21804D01*
Y57695D01*
X21620D01*
Y57761D01*
X22061D01*
Y57695D01*
D02*
G37*
G36*
X20078Y57205D02*
X20007D01*
Y57641D01*
X19716Y57205D01*
X19640D01*
Y57761D01*
X19710D01*
Y57324D01*
X20002Y57761D01*
X20078D01*
Y57205D01*
D02*
G37*
G36*
X20647Y58562D02*
X20658Y58561D01*
X20668Y58560D01*
X20677Y58558D01*
X20686Y58555D01*
X20694Y58553D01*
X20702Y58549D01*
X20709Y58546D01*
X20715Y58544D01*
X20721Y58541D01*
X20725Y58538D01*
X20729Y58535D01*
X20732Y58533D01*
X20735Y58532D01*
X20736Y58531D01*
X20737Y58530D01*
X20744Y58524D01*
X20751Y58517D01*
X20763Y58502D01*
X20773Y58487D01*
X20782Y58472D01*
X20785Y58465D01*
X20788Y58458D01*
X20791Y58452D01*
X20793Y58448D01*
X20795Y58443D01*
X20796Y58440D01*
X20796Y58438D01*
X20797Y58438D01*
X20800Y58426D01*
X20804Y58413D01*
X20806Y58400D01*
X20808Y58387D01*
X20812Y58361D01*
X20813Y58348D01*
X20815Y58336D01*
X20815Y58324D01*
X20816Y58313D01*
X20817Y58304D01*
Y58295D01*
X20817Y58289D01*
Y58283D01*
Y58281D01*
Y58280D01*
Y58279D01*
Y58279D01*
Y58264D01*
X20817Y58251D01*
X20816Y58238D01*
X20815Y58225D01*
X20813Y58212D01*
X20812Y58200D01*
X20810Y58189D01*
X20808Y58178D01*
X20805Y58158D01*
X20800Y58139D01*
X20795Y58122D01*
X20790Y58107D01*
X20784Y58094D01*
X20779Y58083D01*
X20775Y58074D01*
X20771Y58066D01*
X20767Y58061D01*
X20765Y58056D01*
X20763Y58054D01*
X20762Y58053D01*
X20753Y58043D01*
X20743Y58034D01*
X20734Y58026D01*
X20723Y58020D01*
X20712Y58014D01*
X20702Y58010D01*
X20692Y58006D01*
X20682Y58003D01*
X20672Y58001D01*
X20664Y57999D01*
X20656Y57998D01*
X20649Y57997D01*
X20644Y57997D01*
X20639Y57996D01*
X20636D01*
X20625Y57997D01*
X20614Y57997D01*
X20604Y57999D01*
X20594Y58001D01*
X20586Y58004D01*
X20577Y58006D01*
X20570Y58009D01*
X20563Y58012D01*
X20556Y58015D01*
X20551Y58018D01*
X20546Y58021D01*
X20542Y58024D01*
X20539Y58025D01*
X20537Y58027D01*
X20536Y58028D01*
X20535Y58028D01*
X20528Y58035D01*
X20521Y58042D01*
X20509Y58057D01*
X20498Y58072D01*
X20490Y58087D01*
X20486Y58094D01*
X20484Y58100D01*
X20481Y58106D01*
X20479Y58111D01*
X20477Y58115D01*
X20476Y58118D01*
X20475Y58120D01*
Y58121D01*
X20471Y58132D01*
X20468Y58145D01*
X20465Y58158D01*
X20463Y58171D01*
X20459Y58198D01*
X20458Y58210D01*
X20457Y58223D01*
X20456Y58234D01*
X20456Y58245D01*
X20455Y58254D01*
Y58263D01*
X20455Y58269D01*
Y58275D01*
Y58277D01*
Y58278D01*
Y58278D01*
Y58279D01*
Y58294D01*
X20455Y58308D01*
X20456Y58322D01*
X20457Y58334D01*
X20457Y58346D01*
X20458Y58357D01*
X20460Y58367D01*
X20461Y58375D01*
X20462Y58384D01*
X20463Y58390D01*
X20464Y58396D01*
X20465Y58401D01*
X20466Y58405D01*
X20467Y58408D01*
X20467Y58410D01*
Y58410D01*
X20472Y58427D01*
X20478Y58443D01*
X20481Y58451D01*
X20484Y58458D01*
X20486Y58464D01*
X20489Y58469D01*
X20492Y58475D01*
X20494Y58479D01*
X20497Y58483D01*
X20498Y58487D01*
X20500Y58489D01*
X20501Y58491D01*
X20501Y58492D01*
X20502Y58492D01*
X20511Y58505D01*
X20520Y58515D01*
X20529Y58524D01*
X20538Y58532D01*
X20546Y58537D01*
X20549Y58539D01*
X20552Y58541D01*
X20554Y58543D01*
X20556Y58544D01*
X20557Y58545D01*
X20558D01*
X20571Y58551D01*
X20584Y58555D01*
X20597Y58559D01*
X20609Y58560D01*
X20615Y58561D01*
X20620Y58562D01*
X20624Y58562D01*
X20628D01*
X20631Y58563D01*
X20636D01*
X20647Y58562D01*
D02*
G37*
G36*
X20759Y57756D02*
X20764Y57749D01*
X20773Y57736D01*
X20783Y57723D01*
X20793Y57712D01*
X20798Y57707D01*
X20802Y57702D01*
X20806Y57698D01*
X20809Y57695D01*
X20813Y57692D01*
X20815Y57690D01*
X20816Y57689D01*
X20817Y57688D01*
X20833Y57675D01*
X20850Y57662D01*
X20867Y57651D01*
X20875Y57646D01*
X20883Y57641D01*
X20890Y57637D01*
X20896Y57634D01*
X20902Y57630D01*
X20907Y57628D01*
X20911Y57626D01*
X20914Y57625D01*
X20916Y57624D01*
X20916Y57623D01*
Y57557D01*
X20904Y57562D01*
X20892Y57568D01*
X20880Y57573D01*
X20869Y57579D01*
X20864Y57582D01*
X20859Y57585D01*
X20855Y57586D01*
X20852Y57588D01*
X20849Y57590D01*
X20847Y57591D01*
X20846Y57592D01*
X20845Y57592D01*
X20831Y57601D01*
X20818Y57610D01*
X20807Y57618D01*
X20797Y57625D01*
X20793Y57628D01*
X20790Y57631D01*
X20787Y57633D01*
X20784Y57636D01*
X20782Y57637D01*
X20781Y57639D01*
X20780Y57639D01*
X20780Y57639D01*
Y57205D01*
X20712D01*
Y57763D01*
X20756D01*
X20759Y57756D01*
D02*
G37*
G36*
X18754Y57205D02*
X18678D01*
X18461Y57761D01*
X18536D01*
X18686Y57357D01*
X18692Y57340D01*
X18698Y57323D01*
X18703Y57308D01*
X18705Y57301D01*
X18707Y57294D01*
X18709Y57288D01*
X18711Y57283D01*
X18713Y57278D01*
X18714Y57274D01*
X18715Y57270D01*
X18716Y57268D01*
X18716Y57266D01*
Y57266D01*
X18720Y57282D01*
X18726Y57298D01*
X18730Y57314D01*
X18733Y57320D01*
X18735Y57328D01*
X18737Y57334D01*
X18739Y57339D01*
X18741Y57344D01*
X18743Y57349D01*
X18744Y57352D01*
X18744Y57355D01*
X18745Y57357D01*
Y57357D01*
X18890Y57761D01*
X18970D01*
X18754Y57205D01*
D02*
G37*
G36*
X18590Y58005D02*
X18379D01*
X18359Y58006D01*
X18351Y58006D01*
X18342Y58007D01*
X18334Y58007D01*
X18327Y58008D01*
X18320Y58009D01*
X18314Y58010D01*
X18308Y58010D01*
X18303Y58011D01*
X18299Y58012D01*
X18296Y58013D01*
X18293Y58013D01*
X18290Y58014D01*
X18289Y58014D01*
X18289D01*
X18276Y58018D01*
X18264Y58023D01*
X18254Y58027D01*
X18245Y58031D01*
X18238Y58035D01*
X18235Y58037D01*
X18233Y58038D01*
X18231Y58039D01*
X18229Y58040D01*
X18229Y58041D01*
X18228D01*
X18220Y58049D01*
X18211Y58057D01*
X18205Y58066D01*
X18198Y58074D01*
X18194Y58082D01*
X18192Y58085D01*
X18190Y58088D01*
X18189Y58090D01*
X18188Y58092D01*
X18187Y58093D01*
Y58093D01*
X18181Y58106D01*
X18178Y58119D01*
X18175Y58131D01*
X18172Y58143D01*
X18172Y58147D01*
X18171Y58152D01*
X18171Y58156D01*
Y58159D01*
X18170Y58162D01*
Y58164D01*
Y58166D01*
Y58166D01*
X18171Y58175D01*
X18171Y58184D01*
X18173Y58192D01*
X18175Y58199D01*
X18177Y58207D01*
X18179Y58214D01*
X18181Y58220D01*
X18184Y58226D01*
X18187Y58232D01*
X18189Y58236D01*
X18192Y58240D01*
X18194Y58244D01*
X18195Y58247D01*
X18197Y58249D01*
X18197Y58250D01*
X18198Y58250D01*
X18203Y58256D01*
X18209Y58263D01*
X18221Y58273D01*
X18235Y58282D01*
X18247Y58289D01*
X18253Y58292D01*
X18258Y58294D01*
X18263Y58296D01*
X18267Y58298D01*
X18271Y58299D01*
X18273Y58300D01*
X18275Y58301D01*
X18275D01*
X18262Y58308D01*
X18250Y58317D01*
X18240Y58325D01*
X18232Y58333D01*
X18225Y58340D01*
X18221Y58346D01*
X18219Y58348D01*
X18218Y58350D01*
X18217Y58351D01*
Y58351D01*
X18210Y58363D01*
X18206Y58375D01*
X18202Y58386D01*
X18200Y58397D01*
X18199Y58401D01*
X18198Y58405D01*
X18198Y58409D01*
Y58412D01*
X18197Y58415D01*
Y58417D01*
Y58418D01*
Y58418D01*
Y58425D01*
X18198Y58433D01*
X18201Y58446D01*
X18205Y58458D01*
X18208Y58469D01*
X18210Y58474D01*
X18212Y58479D01*
X18214Y58482D01*
X18216Y58486D01*
X18218Y58488D01*
X18219Y58490D01*
X18219Y58491D01*
X18220Y58492D01*
X18228Y58504D01*
X18238Y58515D01*
X18248Y58523D01*
X18258Y58531D01*
X18266Y58536D01*
X18270Y58539D01*
X18274Y58540D01*
X18276Y58542D01*
X18278Y58543D01*
X18279Y58544D01*
X18280D01*
X18288Y58546D01*
X18295Y58549D01*
X18312Y58554D01*
X18329Y58557D01*
X18345Y58559D01*
X18353Y58559D01*
X18360Y58560D01*
X18366Y58560D01*
X18371D01*
X18376Y58561D01*
X18590D01*
Y58005D01*
D02*
G37*
G36*
X21511Y58562D02*
X21521Y58561D01*
X21531Y58560D01*
X21541Y58558D01*
X21550Y58555D01*
X21558Y58553D01*
X21566Y58549D01*
X21573Y58546D01*
X21579Y58544D01*
X21584Y58541D01*
X21589Y58538D01*
X21593Y58535D01*
X21596Y58533D01*
X21598Y58532D01*
X21600Y58531D01*
X21600Y58530D01*
X21608Y58524D01*
X21614Y58517D01*
X21627Y58502D01*
X21637Y58487D01*
X21646Y58472D01*
X21649Y58465D01*
X21652Y58458D01*
X21655Y58452D01*
X21657Y58448D01*
X21659Y58443D01*
X21660Y58440D01*
X21660Y58438D01*
X21661Y58438D01*
X21664Y58426D01*
X21667Y58413D01*
X21670Y58400D01*
X21672Y58387D01*
X21676Y58361D01*
X21677Y58348D01*
X21678Y58336D01*
X21679Y58324D01*
X21680Y58313D01*
X21680Y58304D01*
Y58295D01*
X21681Y58289D01*
Y58283D01*
Y58281D01*
Y58280D01*
Y58279D01*
Y58279D01*
Y58264D01*
X21680Y58251D01*
X21679Y58238D01*
X21678Y58225D01*
X21677Y58212D01*
X21676Y58200D01*
X21674Y58189D01*
X21672Y58178D01*
X21668Y58158D01*
X21663Y58139D01*
X21659Y58122D01*
X21653Y58107D01*
X21648Y58094D01*
X21643Y58083D01*
X21638Y58074D01*
X21635Y58066D01*
X21631Y58061D01*
X21628Y58056D01*
X21626Y58054D01*
X21626Y58053D01*
X21617Y58043D01*
X21607Y58034D01*
X21597Y58026D01*
X21587Y58020D01*
X21576Y58014D01*
X21566Y58010D01*
X21555Y58006D01*
X21545Y58003D01*
X21536Y58001D01*
X21528Y57999D01*
X21520Y57998D01*
X21513Y57997D01*
X21507Y57997D01*
X21503Y57996D01*
X21500D01*
X21488Y57997D01*
X21478Y57997D01*
X21468Y57999D01*
X21458Y58001D01*
X21449Y58004D01*
X21441Y58006D01*
X21434Y58009D01*
X21426Y58012D01*
X21420Y58015D01*
X21415Y58018D01*
X21410Y58021D01*
X21406Y58024D01*
X21403Y58025D01*
X21401Y58027D01*
X21399Y58028D01*
X21399Y58028D01*
X21392Y58035D01*
X21385Y58042D01*
X21372Y58057D01*
X21362Y58072D01*
X21354Y58087D01*
X21350Y58094D01*
X21347Y58100D01*
X21344Y58106D01*
X21342Y58111D01*
X21341Y58115D01*
X21340Y58118D01*
X21339Y58120D01*
Y58121D01*
X21335Y58132D01*
X21332Y58145D01*
X21329Y58158D01*
X21327Y58171D01*
X21323Y58198D01*
X21322Y58210D01*
X21321Y58223D01*
X21320Y58234D01*
X21319Y58245D01*
X21319Y58254D01*
Y58263D01*
X21318Y58269D01*
Y58275D01*
Y58277D01*
Y58278D01*
Y58278D01*
Y58279D01*
Y58294D01*
X21319Y58308D01*
X21319Y58322D01*
X21320Y58334D01*
X21321Y58346D01*
X21322Y58357D01*
X21324Y58367D01*
X21325Y58375D01*
X21326Y58384D01*
X21327Y58390D01*
X21328Y58396D01*
X21329Y58401D01*
X21330Y58405D01*
X21330Y58408D01*
X21331Y58410D01*
Y58410D01*
X21336Y58427D01*
X21341Y58443D01*
X21344Y58451D01*
X21347Y58458D01*
X21350Y58464D01*
X21353Y58469D01*
X21355Y58475D01*
X21358Y58479D01*
X21360Y58483D01*
X21362Y58487D01*
X21364Y58489D01*
X21365Y58491D01*
X21365Y58492D01*
X21366Y58492D01*
X21374Y58505D01*
X21383Y58515D01*
X21393Y58524D01*
X21402Y58532D01*
X21409Y58537D01*
X21413Y58539D01*
X21416Y58541D01*
X21418Y58543D01*
X21420Y58544D01*
X21421Y58545D01*
X21421D01*
X21435Y58551D01*
X21448Y58555D01*
X21461Y58559D01*
X21473Y58560D01*
X21479Y58561D01*
X21484Y58562D01*
X21488Y58562D01*
X21492D01*
X21495Y58563D01*
X21500D01*
X21511Y58562D01*
D02*
G37*
G36*
X21079D02*
X21089Y58561D01*
X21100Y58560D01*
X21109Y58558D01*
X21118Y58555D01*
X21126Y58553D01*
X21134Y58549D01*
X21141Y58546D01*
X21147Y58544D01*
X21153Y58541D01*
X21157Y58538D01*
X21161Y58535D01*
X21164Y58533D01*
X21167Y58532D01*
X21168Y58531D01*
X21168Y58530D01*
X21176Y58524D01*
X21182Y58517D01*
X21195Y58502D01*
X21205Y58487D01*
X21214Y58472D01*
X21217Y58465D01*
X21220Y58458D01*
X21223Y58452D01*
X21225Y58448D01*
X21227Y58443D01*
X21228Y58440D01*
X21228Y58438D01*
X21229Y58438D01*
X21232Y58426D01*
X21235Y58413D01*
X21238Y58400D01*
X21240Y58387D01*
X21244Y58361D01*
X21245Y58348D01*
X21247Y58336D01*
X21247Y58324D01*
X21248Y58313D01*
X21248Y58304D01*
Y58295D01*
X21249Y58289D01*
Y58283D01*
Y58281D01*
Y58280D01*
Y58279D01*
Y58279D01*
Y58264D01*
X21248Y58251D01*
X21247Y58238D01*
X21247Y58225D01*
X21245Y58212D01*
X21244Y58200D01*
X21242Y58189D01*
X21240Y58178D01*
X21236Y58158D01*
X21232Y58139D01*
X21227Y58122D01*
X21221Y58107D01*
X21216Y58094D01*
X21211Y58083D01*
X21207Y58074D01*
X21203Y58066D01*
X21199Y58061D01*
X21196Y58056D01*
X21194Y58054D01*
X21194Y58053D01*
X21185Y58043D01*
X21175Y58034D01*
X21166Y58026D01*
X21155Y58020D01*
X21144Y58014D01*
X21134Y58010D01*
X21124Y58006D01*
X21114Y58003D01*
X21104Y58001D01*
X21096Y57999D01*
X21088Y57998D01*
X21081Y57997D01*
X21075Y57997D01*
X21071Y57996D01*
X21068D01*
X21057Y57997D01*
X21046Y57997D01*
X21036Y57999D01*
X21026Y58001D01*
X21018Y58004D01*
X21009Y58006D01*
X21002Y58009D01*
X20994Y58012D01*
X20988Y58015D01*
X20983Y58018D01*
X20978Y58021D01*
X20974Y58024D01*
X20971Y58025D01*
X20969Y58027D01*
X20967Y58028D01*
X20967Y58028D01*
X20960Y58035D01*
X20953Y58042D01*
X20940Y58057D01*
X20930Y58072D01*
X20922Y58087D01*
X20918Y58094D01*
X20915Y58100D01*
X20913Y58106D01*
X20911Y58111D01*
X20909Y58115D01*
X20908Y58118D01*
X20907Y58120D01*
Y58121D01*
X20903Y58132D01*
X20900Y58145D01*
X20897Y58158D01*
X20895Y58171D01*
X20891Y58198D01*
X20890Y58210D01*
X20889Y58223D01*
X20888Y58234D01*
X20887Y58245D01*
X20887Y58254D01*
Y58263D01*
X20886Y58269D01*
Y58275D01*
Y58277D01*
Y58278D01*
Y58278D01*
Y58279D01*
Y58294D01*
X20887Y58308D01*
X20887Y58322D01*
X20888Y58334D01*
X20889Y58346D01*
X20890Y58357D01*
X20892Y58367D01*
X20893Y58375D01*
X20894Y58384D01*
X20895Y58390D01*
X20896Y58396D01*
X20897Y58401D01*
X20898Y58405D01*
X20899Y58408D01*
X20899Y58410D01*
Y58410D01*
X20904Y58427D01*
X20910Y58443D01*
X20913Y58451D01*
X20915Y58458D01*
X20918Y58464D01*
X20921Y58469D01*
X20924Y58475D01*
X20926Y58479D01*
X20928Y58483D01*
X20930Y58487D01*
X20932Y58489D01*
X20933Y58491D01*
X20933Y58492D01*
X20934Y58492D01*
X20942Y58505D01*
X20952Y58515D01*
X20961Y58524D01*
X20970Y58532D01*
X20978Y58537D01*
X20981Y58539D01*
X20984Y58541D01*
X20986Y58543D01*
X20988Y58544D01*
X20989Y58545D01*
X20990D01*
X21003Y58551D01*
X21016Y58555D01*
X21029Y58559D01*
X21041Y58560D01*
X21047Y58561D01*
X21052Y58562D01*
X21056Y58562D01*
X21060D01*
X21063Y58563D01*
X21068D01*
X21079Y58562D01*
D02*
G37*
%LPC*%
G36*
X21071Y58506D02*
X21069D01*
X21060Y58506D01*
X21051Y58505D01*
X21044Y58502D01*
X21036Y58499D01*
X21029Y58496D01*
X21022Y58492D01*
X21017Y58488D01*
X21011Y58484D01*
X21006Y58479D01*
X21002Y58476D01*
X20998Y58472D01*
X20995Y58468D01*
X20993Y58465D01*
X20991Y58463D01*
X20990Y58462D01*
X20989Y58461D01*
X20986Y58457D01*
X20983Y58452D01*
X20979Y58440D01*
X20974Y58427D01*
X20970Y58413D01*
X20967Y58399D01*
X20965Y58384D01*
X20963Y58368D01*
X20961Y58353D01*
X20960Y58338D01*
X20959Y58325D01*
X20958Y58312D01*
X20957Y58301D01*
Y58296D01*
X20957Y58292D01*
Y58288D01*
Y58285D01*
Y58282D01*
Y58280D01*
Y58279D01*
Y58279D01*
Y58266D01*
X20957Y58254D01*
X20958Y58243D01*
X20958Y58232D01*
X20959Y58222D01*
X20960Y58211D01*
X20961Y58202D01*
X20962Y58193D01*
X20965Y58176D01*
X20967Y58161D01*
X20970Y58148D01*
X20973Y58137D01*
X20976Y58127D01*
X20979Y58119D01*
X20981Y58112D01*
X20984Y58106D01*
X20986Y58103D01*
X20988Y58100D01*
X20989Y58098D01*
X20989Y58097D01*
X20995Y58089D01*
X21002Y58082D01*
X21008Y58076D01*
X21015Y58071D01*
X21021Y58067D01*
X21028Y58063D01*
X21034Y58060D01*
X21040Y58058D01*
X21046Y58056D01*
X21051Y58054D01*
X21056Y58053D01*
X21060Y58053D01*
X21063Y58052D01*
X21066Y58052D01*
X21068D01*
X21076Y58052D01*
X21085Y58054D01*
X21092Y58056D01*
X21100Y58059D01*
X21107Y58063D01*
X21114Y58066D01*
X21119Y58070D01*
X21125Y58075D01*
X21130Y58078D01*
X21134Y58083D01*
X21138Y58086D01*
X21141Y58090D01*
X21143Y58092D01*
X21145Y58095D01*
X21146Y58096D01*
X21147Y58097D01*
X21150Y58101D01*
X21153Y58106D01*
X21157Y58117D01*
X21162Y58131D01*
X21165Y58144D01*
X21168Y58159D01*
X21171Y58174D01*
X21173Y58190D01*
X21175Y58205D01*
X21176Y58220D01*
X21177Y58233D01*
X21178Y58246D01*
X21178Y58257D01*
Y58262D01*
X21179Y58266D01*
Y58270D01*
Y58273D01*
Y58276D01*
Y58278D01*
Y58278D01*
Y58279D01*
Y58292D01*
X21178Y58304D01*
X21178Y58315D01*
X21177Y58326D01*
X21175Y58347D01*
X21173Y58366D01*
X21170Y58383D01*
X21167Y58398D01*
X21165Y58412D01*
X21161Y58424D01*
X21158Y58435D01*
X21155Y58443D01*
X21152Y58451D01*
X21149Y58456D01*
X21147Y58461D01*
X21145Y58464D01*
X21144Y58466D01*
X21144Y58466D01*
X21138Y58474D01*
X21132Y58479D01*
X21127Y58485D01*
X21120Y58490D01*
X21114Y58493D01*
X21108Y58497D01*
X21101Y58499D01*
X21096Y58502D01*
X21090Y58503D01*
X21085Y58505D01*
X21080Y58505D01*
X21076Y58506D01*
X21073D01*
X21071Y58506D01*
D02*
G37*
G36*
X20639D02*
X20637D01*
X20628Y58506D01*
X20619Y58505D01*
X20612Y58502D01*
X20604Y58499D01*
X20597Y58496D01*
X20591Y58492D01*
X20585Y58488D01*
X20579Y58484D01*
X20574Y58479D01*
X20570Y58476D01*
X20566Y58472D01*
X20563Y58468D01*
X20561Y58465D01*
X20559Y58463D01*
X20558Y58462D01*
X20557Y58461D01*
X20554Y58457D01*
X20551Y58452D01*
X20547Y58440D01*
X20542Y58427D01*
X20538Y58413D01*
X20536Y58399D01*
X20533Y58384D01*
X20531Y58368D01*
X20529Y58353D01*
X20528Y58338D01*
X20527Y58325D01*
X20526Y58312D01*
X20525Y58301D01*
Y58296D01*
X20525Y58292D01*
Y58288D01*
Y58285D01*
Y58282D01*
Y58280D01*
Y58279D01*
Y58279D01*
Y58266D01*
X20525Y58254D01*
X20526Y58243D01*
X20526Y58232D01*
X20527Y58222D01*
X20528Y58211D01*
X20529Y58202D01*
X20530Y58193D01*
X20533Y58176D01*
X20535Y58161D01*
X20538Y58148D01*
X20541Y58137D01*
X20544Y58127D01*
X20547Y58119D01*
X20550Y58112D01*
X20552Y58106D01*
X20554Y58103D01*
X20556Y58100D01*
X20557Y58098D01*
X20557Y58097D01*
X20564Y58089D01*
X20570Y58082D01*
X20577Y58076D01*
X20583Y58071D01*
X20590Y58067D01*
X20596Y58063D01*
X20603Y58060D01*
X20608Y58058D01*
X20614Y58056D01*
X20619Y58054D01*
X20624Y58053D01*
X20628Y58053D01*
X20631Y58052D01*
X20634Y58052D01*
X20636D01*
X20645Y58052D01*
X20653Y58054D01*
X20660Y58056D01*
X20668Y58059D01*
X20675Y58063D01*
X20682Y58066D01*
X20687Y58070D01*
X20693Y58075D01*
X20698Y58078D01*
X20702Y58083D01*
X20706Y58086D01*
X20709Y58090D01*
X20712Y58092D01*
X20713Y58095D01*
X20714Y58096D01*
X20715Y58097D01*
X20718Y58101D01*
X20721Y58106D01*
X20725Y58117D01*
X20730Y58131D01*
X20733Y58144D01*
X20737Y58159D01*
X20739Y58174D01*
X20741Y58190D01*
X20743Y58205D01*
X20744Y58220D01*
X20745Y58233D01*
X20746Y58246D01*
X20746Y58257D01*
Y58262D01*
X20747Y58266D01*
Y58270D01*
Y58273D01*
Y58276D01*
Y58278D01*
Y58278D01*
Y58279D01*
Y58292D01*
X20746Y58304D01*
X20746Y58315D01*
X20745Y58326D01*
X20743Y58347D01*
X20741Y58366D01*
X20738Y58383D01*
X20736Y58398D01*
X20733Y58412D01*
X20729Y58424D01*
X20726Y58435D01*
X20723Y58443D01*
X20720Y58451D01*
X20717Y58456D01*
X20715Y58461D01*
X20713Y58464D01*
X20712Y58466D01*
X20712Y58466D01*
X20706Y58474D01*
X20700Y58479D01*
X20695Y58485D01*
X20688Y58490D01*
X20682Y58493D01*
X20676Y58497D01*
X20670Y58499D01*
X20664Y58502D01*
X20658Y58503D01*
X20653Y58505D01*
X20648Y58505D01*
X20645Y58506D01*
X20641D01*
X20639Y58506D01*
D02*
G37*
G36*
X19276Y57707D02*
X19272D01*
X19262Y57707D01*
X19252Y57706D01*
X19243Y57705D01*
X19234Y57703D01*
X19225Y57701D01*
X19217Y57699D01*
X19209Y57696D01*
X19202Y57693D01*
X19196Y57691D01*
X19190Y57688D01*
X19186Y57686D01*
X19181Y57684D01*
X19178Y57682D01*
X19175Y57681D01*
X19174Y57680D01*
X19173Y57679D01*
X19165Y57674D01*
X19158Y57668D01*
X19151Y57662D01*
X19144Y57655D01*
X19138Y57649D01*
X19132Y57642D01*
X19128Y57636D01*
X19123Y57630D01*
X19119Y57624D01*
X19116Y57618D01*
X19113Y57613D01*
X19110Y57609D01*
X19108Y57606D01*
X19107Y57603D01*
X19106Y57601D01*
X19106Y57601D01*
X19102Y57591D01*
X19098Y57581D01*
X19092Y57561D01*
X19089Y57541D01*
X19087Y57532D01*
X19086Y57523D01*
X19085Y57515D01*
X19084Y57507D01*
X19083Y57500D01*
Y57494D01*
X19083Y57490D01*
Y57486D01*
Y57484D01*
Y57483D01*
X19083Y57463D01*
X19085Y57445D01*
X19088Y57427D01*
X19091Y57411D01*
X19095Y57397D01*
X19100Y57383D01*
X19105Y57371D01*
X19110Y57359D01*
X19115Y57350D01*
X19120Y57341D01*
X19124Y57334D01*
X19128Y57328D01*
X19132Y57323D01*
X19134Y57320D01*
X19136Y57317D01*
X19137Y57317D01*
X19147Y57307D01*
X19158Y57298D01*
X19169Y57290D01*
X19181Y57284D01*
X19192Y57278D01*
X19204Y57273D01*
X19215Y57269D01*
X19226Y57266D01*
X19235Y57264D01*
X19244Y57262D01*
X19253Y57261D01*
X19260Y57260D01*
X19266Y57260D01*
X19270Y57259D01*
X19274D01*
X19289Y57260D01*
X19303Y57262D01*
X19317Y57264D01*
X19329Y57268D01*
X19341Y57273D01*
X19352Y57277D01*
X19362Y57282D01*
X19372Y57288D01*
X19380Y57293D01*
X19388Y57298D01*
X19394Y57303D01*
X19400Y57307D01*
X19404Y57311D01*
X19407Y57314D01*
X19409Y57316D01*
X19409Y57317D01*
X19419Y57328D01*
X19427Y57340D01*
X19434Y57353D01*
X19440Y57366D01*
X19446Y57379D01*
X19450Y57392D01*
X19453Y57405D01*
X19456Y57417D01*
X19459Y57429D01*
X19460Y57440D01*
X19462Y57450D01*
X19462Y57458D01*
X19463Y57465D01*
X19463Y57468D01*
Y57470D01*
Y57472D01*
Y57474D01*
Y57474D01*
Y57475D01*
X19463Y57497D01*
X19461Y57518D01*
X19458Y57538D01*
X19454Y57556D01*
X19450Y57572D01*
X19445Y57586D01*
X19440Y57599D01*
X19435Y57611D01*
X19430Y57621D01*
X19425Y57630D01*
X19420Y57637D01*
X19416Y57643D01*
X19413Y57648D01*
X19410Y57651D01*
X19408Y57653D01*
X19407Y57653D01*
X19397Y57663D01*
X19385Y57671D01*
X19374Y57679D01*
X19362Y57685D01*
X19351Y57690D01*
X19340Y57694D01*
X19329Y57698D01*
X19319Y57701D01*
X19309Y57703D01*
X19300Y57705D01*
X19292Y57706D01*
X19285Y57706D01*
X19280Y57707D01*
X19276Y57707D01*
D02*
G37*
G36*
X20361Y57477D02*
X20356D01*
X20347Y57477D01*
X20338Y57476D01*
X20330Y57474D01*
X20323Y57472D01*
X20315Y57469D01*
X20309Y57467D01*
X20302Y57464D01*
X20297Y57461D01*
X20292Y57458D01*
X20287Y57455D01*
X20284Y57452D01*
X20280Y57450D01*
X20278Y57448D01*
X20276Y57446D01*
X20275Y57445D01*
X20274Y57445D01*
X20269Y57438D01*
X20264Y57432D01*
X20259Y57425D01*
X20256Y57418D01*
X20252Y57411D01*
X20250Y57405D01*
X20245Y57392D01*
X20244Y57386D01*
X20243Y57381D01*
X20243Y57376D01*
X20242Y57371D01*
X20242Y57368D01*
Y57366D01*
Y57364D01*
Y57363D01*
X20242Y57355D01*
X20243Y57346D01*
X20244Y57338D01*
X20246Y57330D01*
X20249Y57323D01*
X20252Y57317D01*
X20255Y57311D01*
X20257Y57305D01*
X20260Y57300D01*
X20263Y57296D01*
X20266Y57292D01*
X20269Y57289D01*
X20270Y57287D01*
X20272Y57285D01*
X20273Y57284D01*
X20273Y57283D01*
X20280Y57278D01*
X20286Y57273D01*
X20293Y57269D01*
X20299Y57265D01*
X20306Y57262D01*
X20313Y57260D01*
X20325Y57256D01*
X20331Y57254D01*
X20337Y57253D01*
X20342Y57253D01*
X20346Y57252D01*
X20349Y57252D01*
X20354D01*
X20365Y57252D01*
X20376Y57254D01*
X20386Y57257D01*
X20395Y57260D01*
X20403Y57262D01*
X20405Y57264D01*
X20408Y57264D01*
X20410Y57265D01*
X20411Y57266D01*
X20412Y57267D01*
X20413D01*
X20422Y57273D01*
X20431Y57280D01*
X20438Y57287D01*
X20444Y57293D01*
X20448Y57300D01*
X20451Y57304D01*
X20452Y57306D01*
X20453Y57308D01*
X20454Y57308D01*
Y57309D01*
X20458Y57319D01*
X20461Y57329D01*
X20464Y57339D01*
X20465Y57347D01*
X20466Y57355D01*
X20467Y57358D01*
X20467Y57360D01*
Y57362D01*
Y57364D01*
Y57365D01*
Y57365D01*
X20467Y57374D01*
X20466Y57383D01*
X20464Y57390D01*
X20462Y57398D01*
X20460Y57405D01*
X20457Y57411D01*
X20455Y57417D01*
X20451Y57423D01*
X20448Y57428D01*
X20446Y57432D01*
X20443Y57436D01*
X20441Y57439D01*
X20439Y57441D01*
X20437Y57443D01*
X20436Y57444D01*
X20436Y57445D01*
X20430Y57451D01*
X20423Y57455D01*
X20417Y57460D01*
X20410Y57464D01*
X20404Y57466D01*
X20397Y57469D01*
X20384Y57473D01*
X20378Y57474D01*
X20373Y57475D01*
X20368Y57476D01*
X20364Y57477D01*
X20361Y57477D01*
D02*
G37*
G36*
X20359Y57707D02*
X20355D01*
X20348Y57706D01*
X20341Y57706D01*
X20328Y57703D01*
X20317Y57699D01*
X20308Y57694D01*
X20304Y57692D01*
X20300Y57690D01*
X20297Y57687D01*
X20295Y57685D01*
X20293Y57684D01*
X20291Y57682D01*
X20291Y57682D01*
X20290Y57681D01*
X20285Y57677D01*
X20282Y57671D01*
X20278Y57666D01*
X20275Y57661D01*
X20270Y57650D01*
X20268Y57640D01*
X20266Y57632D01*
X20265Y57628D01*
X20265Y57625D01*
X20264Y57622D01*
Y57620D01*
Y57619D01*
Y57618D01*
X20265Y57612D01*
X20265Y57605D01*
X20268Y57594D01*
X20272Y57583D01*
X20277Y57574D01*
X20282Y57567D01*
X20284Y57564D01*
X20285Y57562D01*
X20287Y57560D01*
X20288Y57558D01*
X20289Y57558D01*
X20289Y57558D01*
X20294Y57553D01*
X20299Y57549D01*
X20305Y57546D01*
X20310Y57544D01*
X20321Y57539D01*
X20331Y57536D01*
X20340Y57534D01*
X20344Y57534D01*
X20347Y57533D01*
X20350Y57533D01*
X20354D01*
X20362Y57533D01*
X20368Y57534D01*
X20381Y57537D01*
X20393Y57541D01*
X20402Y57545D01*
X20406Y57547D01*
X20410Y57550D01*
X20413Y57552D01*
X20416Y57554D01*
X20417Y57555D01*
X20419Y57557D01*
X20419Y57557D01*
X20420Y57558D01*
X20424Y57562D01*
X20428Y57568D01*
X20431Y57573D01*
X20434Y57578D01*
X20439Y57589D01*
X20442Y57599D01*
X20444Y57608D01*
X20444Y57612D01*
X20444Y57615D01*
X20445Y57618D01*
Y57620D01*
Y57622D01*
Y57622D01*
X20444Y57628D01*
X20444Y57635D01*
X20441Y57646D01*
X20437Y57656D01*
X20432Y57665D01*
X20428Y57672D01*
X20425Y57675D01*
X20423Y57678D01*
X20422Y57679D01*
X20420Y57681D01*
X20420Y57681D01*
X20419Y57682D01*
X20415Y57686D01*
X20409Y57690D01*
X20404Y57693D01*
X20399Y57696D01*
X20388Y57701D01*
X20377Y57704D01*
X20368Y57705D01*
X20364Y57706D01*
X20361Y57706D01*
X20359Y57707D01*
D02*
G37*
G36*
X21304Y57707D02*
X21301D01*
X21290Y57707D01*
X21280Y57706D01*
X21271Y57705D01*
X21262Y57703D01*
X21253Y57701D01*
X21245Y57699D01*
X21237Y57696D01*
X21231Y57693D01*
X21224Y57691D01*
X21219Y57688D01*
X21214Y57686D01*
X21209Y57684D01*
X21206Y57682D01*
X21204Y57681D01*
X21202Y57680D01*
X21202Y57679D01*
X21194Y57674D01*
X21186Y57668D01*
X21179Y57662D01*
X21172Y57655D01*
X21167Y57649D01*
X21161Y57642D01*
X21156Y57636D01*
X21151Y57630D01*
X21147Y57624D01*
X21144Y57618D01*
X21141Y57613D01*
X21139Y57609D01*
X21137Y57606D01*
X21135Y57603D01*
X21135Y57601D01*
X21134Y57601D01*
X21130Y57591D01*
X21127Y57581D01*
X21121Y57561D01*
X21117Y57541D01*
X21115Y57532D01*
X21114Y57523D01*
X21113Y57515D01*
X21112Y57507D01*
X21112Y57500D01*
Y57494D01*
X21111Y57490D01*
Y57486D01*
Y57484D01*
Y57483D01*
X21112Y57463D01*
X21114Y57445D01*
X21116Y57427D01*
X21119Y57411D01*
X21124Y57397D01*
X21128Y57383D01*
X21133Y57371D01*
X21138Y57359D01*
X21143Y57350D01*
X21148Y57341D01*
X21153Y57334D01*
X21156Y57328D01*
X21160Y57323D01*
X21163Y57320D01*
X21165Y57317D01*
X21165Y57317D01*
X21175Y57307D01*
X21186Y57298D01*
X21197Y57290D01*
X21209Y57284D01*
X21221Y57278D01*
X21232Y57273D01*
X21243Y57269D01*
X21254Y57266D01*
X21263Y57264D01*
X21273Y57262D01*
X21281Y57261D01*
X21288Y57260D01*
X21294Y57260D01*
X21298Y57259D01*
X21302D01*
X21317Y57260D01*
X21331Y57262D01*
X21345Y57264D01*
X21357Y57268D01*
X21369Y57273D01*
X21381Y57277D01*
X21391Y57282D01*
X21400Y57288D01*
X21408Y57293D01*
X21416Y57298D01*
X21422Y57303D01*
X21428Y57307D01*
X21432Y57311D01*
X21435Y57314D01*
X21437Y57316D01*
X21437Y57317D01*
X21447Y57328D01*
X21455Y57340D01*
X21462Y57353D01*
X21469Y57366D01*
X21474Y57379D01*
X21478Y57392D01*
X21482Y57405D01*
X21485Y57417D01*
X21487Y57429D01*
X21488Y57440D01*
X21490Y57450D01*
X21490Y57458D01*
X21491Y57465D01*
X21491Y57468D01*
Y57470D01*
Y57472D01*
Y57474D01*
Y57474D01*
Y57475D01*
X21491Y57497D01*
X21489Y57518D01*
X21486Y57538D01*
X21483Y57556D01*
X21478Y57572D01*
X21474Y57586D01*
X21469Y57599D01*
X21463Y57611D01*
X21458Y57621D01*
X21453Y57630D01*
X21448Y57637D01*
X21444Y57643D01*
X21441Y57648D01*
X21438Y57651D01*
X21436Y57653D01*
X21435Y57653D01*
X21425Y57663D01*
X21413Y57671D01*
X21402Y57679D01*
X21391Y57685D01*
X21379Y57690D01*
X21368Y57694D01*
X21357Y57698D01*
X21347Y57701D01*
X21337Y57703D01*
X21328Y57705D01*
X21320Y57706D01*
X21314Y57706D01*
X21308Y57707D01*
X21304Y57707D01*
D02*
G37*
G36*
X18516Y58495D02*
X18395D01*
X18385Y58495D01*
X18376Y58494D01*
X18367Y58494D01*
X18359Y58493D01*
X18353Y58493D01*
X18346Y58492D01*
X18341Y58492D01*
X18336Y58491D01*
X18332Y58490D01*
X18329Y58489D01*
X18326Y58489D01*
X18324Y58488D01*
X18322Y58488D01*
X18322Y58487D01*
X18321D01*
X18313Y58484D01*
X18305Y58479D01*
X18299Y58475D01*
X18293Y58470D01*
X18289Y58465D01*
X18286Y58462D01*
X18284Y58459D01*
X18283Y58459D01*
Y58458D01*
X18279Y58450D01*
X18275Y58442D01*
X18273Y58434D01*
X18271Y58426D01*
X18270Y58420D01*
X18270Y58414D01*
Y58412D01*
Y58411D01*
Y58410D01*
Y58410D01*
X18270Y58399D01*
X18272Y58390D01*
X18274Y58382D01*
X18277Y58374D01*
X18279Y58369D01*
X18282Y58364D01*
X18284Y58362D01*
X18284Y58361D01*
X18290Y58354D01*
X18297Y58348D01*
X18304Y58344D01*
X18311Y58340D01*
X18317Y58337D01*
X18322Y58335D01*
X18324Y58334D01*
X18325Y58334D01*
X18326Y58333D01*
X18327D01*
X18331Y58332D01*
X18336Y58331D01*
X18346Y58330D01*
X18358Y58329D01*
X18369Y58328D01*
X18380Y58328D01*
X18384Y58327D01*
X18516D01*
Y58495D01*
D02*
G37*
G36*
Y58262D02*
X18379D01*
X18369Y58261D01*
X18361Y58261D01*
X18353Y58260D01*
X18346Y58259D01*
X18339Y58259D01*
X18333Y58258D01*
X18328Y58257D01*
X18323Y58256D01*
X18319Y58255D01*
X18315Y58254D01*
X18313Y58253D01*
X18310Y58253D01*
X18309Y58252D01*
X18308Y58252D01*
X18307D01*
X18297Y58248D01*
X18289Y58243D01*
X18281Y58238D01*
X18274Y58232D01*
X18269Y58227D01*
X18265Y58224D01*
X18263Y58221D01*
X18262Y58220D01*
Y58220D01*
X18257Y58211D01*
X18253Y58202D01*
X18250Y58193D01*
X18248Y58184D01*
X18247Y58177D01*
X18247Y58174D01*
X18246Y58171D01*
Y58169D01*
Y58168D01*
Y58167D01*
Y58166D01*
X18247Y58157D01*
X18248Y58148D01*
X18249Y58140D01*
X18251Y58132D01*
X18254Y58127D01*
X18255Y58123D01*
X18257Y58120D01*
X18257Y58119D01*
Y58119D01*
X18262Y58112D01*
X18266Y58105D01*
X18271Y58100D01*
X18275Y58096D01*
X18279Y58092D01*
X18283Y58090D01*
X18285Y58089D01*
X18286Y58088D01*
X18292Y58084D01*
X18299Y58081D01*
X18306Y58079D01*
X18313Y58077D01*
X18319Y58075D01*
X18324Y58074D01*
X18326Y58074D01*
X18327Y58073D01*
X18328D01*
X18331Y58073D01*
X18334Y58072D01*
X18342Y58072D01*
X18350Y58071D01*
X18358D01*
X18366Y58071D01*
X18516D01*
Y58262D01*
D02*
G37*
G36*
X21502Y58506D02*
X21501D01*
X21492Y58506D01*
X21483Y58505D01*
X21475Y58502D01*
X21468Y58499D01*
X21461Y58496D01*
X21454Y58492D01*
X21448Y58488D01*
X21443Y58484D01*
X21438Y58479D01*
X21434Y58476D01*
X21430Y58472D01*
X21427Y58468D01*
X21424Y58465D01*
X21422Y58463D01*
X21421Y58462D01*
X21421Y58461D01*
X21418Y58457D01*
X21415Y58452D01*
X21410Y58440D01*
X21406Y58427D01*
X21402Y58413D01*
X21399Y58399D01*
X21396Y58384D01*
X21395Y58368D01*
X21393Y58353D01*
X21392Y58338D01*
X21391Y58325D01*
X21390Y58312D01*
X21389Y58301D01*
Y58296D01*
X21389Y58292D01*
Y58288D01*
Y58285D01*
Y58282D01*
Y58280D01*
Y58279D01*
Y58279D01*
Y58266D01*
X21389Y58254D01*
X21390Y58243D01*
X21390Y58232D01*
X21391Y58222D01*
X21392Y58211D01*
X21393Y58202D01*
X21394Y58193D01*
X21396Y58176D01*
X21399Y58161D01*
X21402Y58148D01*
X21405Y58137D01*
X21408Y58127D01*
X21411Y58119D01*
X21413Y58112D01*
X21416Y58106D01*
X21418Y58103D01*
X21420Y58100D01*
X21421Y58098D01*
X21421Y58097D01*
X21427Y58089D01*
X21434Y58082D01*
X21440Y58076D01*
X21447Y58071D01*
X21453Y58067D01*
X21460Y58063D01*
X21466Y58060D01*
X21472Y58058D01*
X21478Y58056D01*
X21483Y58054D01*
X21488Y58053D01*
X21492Y58053D01*
X21495Y58052D01*
X21498Y58052D01*
X21500D01*
X21508Y58052D01*
X21516Y58054D01*
X21524Y58056D01*
X21532Y58059D01*
X21539Y58063D01*
X21545Y58066D01*
X21551Y58070D01*
X21557Y58075D01*
X21562Y58078D01*
X21566Y58083D01*
X21570Y58086D01*
X21573Y58090D01*
X21575Y58092D01*
X21577Y58095D01*
X21578Y58096D01*
X21579Y58097D01*
X21582Y58101D01*
X21584Y58106D01*
X21589Y58117D01*
X21594Y58131D01*
X21597Y58144D01*
X21600Y58159D01*
X21603Y58174D01*
X21605Y58190D01*
X21607Y58205D01*
X21608Y58220D01*
X21609Y58233D01*
X21609Y58246D01*
X21610Y58257D01*
Y58262D01*
X21610Y58266D01*
Y58270D01*
Y58273D01*
Y58276D01*
Y58278D01*
Y58278D01*
Y58279D01*
Y58292D01*
X21610Y58304D01*
X21609Y58315D01*
X21609Y58326D01*
X21607Y58347D01*
X21605Y58366D01*
X21602Y58383D01*
X21599Y58398D01*
X21596Y58412D01*
X21593Y58424D01*
X21590Y58435D01*
X21587Y58443D01*
X21584Y58451D01*
X21581Y58456D01*
X21579Y58461D01*
X21577Y58464D01*
X21576Y58466D01*
X21576Y58466D01*
X21570Y58474D01*
X21564Y58479D01*
X21558Y58485D01*
X21552Y58490D01*
X21546Y58493D01*
X21540Y58497D01*
X21533Y58499D01*
X21528Y58502D01*
X21522Y58503D01*
X21517Y58505D01*
X21512Y58505D01*
X21508Y58506D01*
X21505D01*
X21502Y58506D01*
D02*
G37*
G36*
X20167Y58503D02*
X20165Y58494D01*
X20162Y58485D01*
X20156Y58465D01*
X20149Y58446D01*
X20146Y58437D01*
X20143Y58428D01*
X20140Y58419D01*
X20137Y58412D01*
X20135Y58405D01*
X20133Y58398D01*
X20131Y58394D01*
X20129Y58390D01*
X20129Y58388D01*
X20128Y58387D01*
X20070Y58233D01*
X20258D01*
X20197Y58396D01*
X20190Y58416D01*
X20185Y58435D01*
X20179Y58453D01*
X20177Y58462D01*
X20175Y58469D01*
X20174Y58477D01*
X20172Y58483D01*
X20170Y58489D01*
X20169Y58493D01*
X20168Y58497D01*
X20168Y58500D01*
X20167Y58502D01*
Y58503D01*
D02*
G37*
G36*
X19649D02*
X19647Y58494D01*
X19644Y58485D01*
X19638Y58465D01*
X19631Y58446D01*
X19628Y58437D01*
X19625Y58428D01*
X19622Y58419D01*
X19619Y58412D01*
X19616Y58405D01*
X19614Y58398D01*
X19613Y58394D01*
X19611Y58390D01*
X19611Y58388D01*
X19610Y58387D01*
X19552Y58233D01*
X19740D01*
X19679Y58396D01*
X19672Y58416D01*
X19667Y58435D01*
X19661Y58453D01*
X19659Y58462D01*
X19657Y58469D01*
X19655Y58477D01*
X19654Y58483D01*
X19652Y58489D01*
X19651Y58493D01*
X19650Y58497D01*
X19650Y58500D01*
X19649Y58502D01*
Y58503D01*
D02*
G37*
%LPD*%
D10*
X17200Y57907D02*
G03*
X17990Y57117I790J0D01*
G01*
Y58697D02*
G03*
X17200Y57907I0J-790D01*
G01*
X17990Y57907D02*
Y58697D01*
X17200Y57907D02*
X17990D01*
Y57117D02*
Y57907D01*
X22261D01*
X17990Y57117D02*
X22261D01*
Y58697D01*
X17990D02*
X22261D01*
D32*
X42661Y48905D02*
D03*
Y46905D02*
D03*
X41661Y58305D02*
D03*
Y56305D02*
D03*
D36*
X30516Y57092D02*
X31303D01*
X40476Y45320D02*
Y49454D01*
X33980Y47879D02*
Y48785D01*
X24492Y45714D02*
X24965Y45241D01*
X27642D01*
X28390Y45989D01*
X31303Y57092D02*
X31343Y57131D01*
X36028D01*
X36106Y57052D01*
X31776Y57604D02*
X38547D01*
X31146Y57367D02*
X38016D01*
X31736Y57643D02*
Y57663D01*
Y57643D02*
X31776Y57604D01*
X38547D02*
Y57643D01*
X33862Y54060D02*
Y54887D01*
D37*
X33547Y53667D02*
Y54218D01*
Y53667D02*
X33744Y53470D01*
X33665Y48194D02*
Y49257D01*
X37642Y51344D02*
Y52407D01*
X37169Y52879D02*
X37642Y52407D01*
X33547Y54218D02*
Y55123D01*
X36618Y52879D02*
Y56344D01*
X36185Y52446D02*
X36618Y52879D01*
X28602Y52446D02*
X36185D01*
X37012Y52131D02*
X37091Y52210D01*
X28531Y52131D02*
X37012D01*
X27618Y53430D02*
X28602Y52446D01*
X27657Y51257D02*
X28531Y52131D01*
X37091Y47879D02*
Y52210D01*
X36618Y52879D02*
X37169D01*
D38*
X33232Y48824D02*
X33665Y49257D01*
X33232Y46737D02*
Y48824D01*
D43*
X16461Y40005D02*
Y60989D01*
X43461Y42005D02*
Y55005D01*
X16461Y60989D02*
X41961D01*
X42453Y60497D01*
Y56013D02*
Y60497D01*
Y56013D02*
X43461Y55005D01*
X16461Y40005D02*
X41961D01*
X42461Y41005D02*
X43461Y42005D01*
X42461Y40005D02*
Y41005D01*
X41961Y40005D02*
X42461D01*
D44*
X34461Y41005D02*
D03*
X33461D02*
D03*
X32461D02*
D03*
X31461D02*
D03*
X30461D02*
D03*
X29461D02*
D03*
X28461D02*
D03*
X41461D02*
D03*
X40461D02*
D03*
X39461D02*
D03*
X38461D02*
D03*
X37461D02*
D03*
X27657Y50257D02*
D03*
Y51257D02*
D03*
Y49257D02*
D03*
X26657Y51257D02*
D03*
Y50257D02*
D03*
X41511Y50985D02*
D03*
Y49985D02*
D03*
X42511Y51985D02*
D03*
Y49985D02*
D03*
Y50985D02*
D03*
X27618Y56430D02*
D03*
Y55430D02*
D03*
Y54430D02*
D03*
Y53430D02*
D03*
X26618Y56430D02*
D03*
Y55430D02*
D03*
Y54430D02*
D03*
X31861Y60005D02*
D03*
X30861D02*
D03*
X29861D02*
D03*
X28861D02*
D03*
X27861D02*
D03*
X26861D02*
D03*
X25861D02*
D03*
X24861D02*
D03*
X23861D02*
D03*
X40461D02*
D03*
X39461D02*
D03*
X38461D02*
D03*
X37461D02*
D03*
X36461D02*
D03*
X35461D02*
D03*
X34461D02*
D03*
D45*
X27461Y41005D02*
D03*
X36461D02*
D03*
X32861Y60005D02*
D03*
X41461D02*
D03*
D46*
X17839Y49218D02*
D03*
Y53667D02*
D03*
D47*
X18839Y49218D02*
D03*
X21839D02*
D03*
X22839D02*
D03*
X23839D02*
D03*
X24839D02*
D03*
Y53667D02*
D03*
X23839D02*
D03*
X22839D02*
D03*
X21839D02*
D03*
X18839D02*
D03*
X40256Y42328D02*
D03*
X37461D02*
D03*
X34469D02*
D03*
X32445Y54218D02*
D03*
X32484Y48194D02*
D03*
D48*
X39256Y42328D02*
D03*
X36461D02*
D03*
X33468D02*
D03*
D49*
X26657Y49257D02*
D03*
X41511Y51985D02*
D03*
X26618Y53430D02*
D03*
D50*
X21961Y41005D02*
D03*
X42461Y43005D02*
D03*
Y54005D02*
D03*
X22461Y60005D02*
D03*
D51*
X21142Y43005D02*
D03*
D52*
X18780D02*
D03*
D53*
X19961Y41155D02*
D03*
D54*
X30516Y57092D02*
D03*
X33744Y53470D02*
D03*
X33665Y49257D02*
D03*
X40476Y45320D02*
D03*
Y49454D02*
D03*
X33980Y48785D02*
D03*
Y47879D02*
D03*
X33665Y48194D02*
D03*
X38311Y59257D02*
D03*
X35831Y59218D02*
D03*
X30004Y52800D02*
D03*
Y51816D02*
D03*
X24492Y45714D02*
D03*
X28390Y45989D02*
D03*
X36106Y57052D02*
D03*
X31146Y57367D02*
D03*
X31736Y57663D02*
D03*
X38547Y57643D02*
D03*
X38016Y57367D02*
D03*
X33862Y54060D02*
D03*
Y54887D02*
D03*
X33547Y54218D02*
D03*
Y55123D02*
D03*
X33626Y59297D02*
D03*
X16756Y60674D02*
D03*
X17937D02*
D03*
X18921D02*
D03*
X19906D02*
D03*
X20890D02*
D03*
X16756Y59690D02*
D03*
Y58706D02*
D03*
Y57722D02*
D03*
Y56737D02*
D03*
Y55753D02*
D03*
Y54769D02*
D03*
Y53785D02*
D03*
Y52800D02*
D03*
Y51816D02*
D03*
Y50832D02*
D03*
Y49848D02*
D03*
Y48863D02*
D03*
Y47879D02*
D03*
Y46895D02*
D03*
Y45911D02*
D03*
Y44926D02*
D03*
Y43942D02*
D03*
Y42958D02*
D03*
Y41974D02*
D03*
Y40989D02*
D03*
X17445Y40300D02*
D03*
X18429D02*
D03*
X19413D02*
D03*
X20398D02*
D03*
X23350D02*
D03*
X24335D02*
D03*
X25319D02*
D03*
X26303D02*
D03*
X27287D02*
D03*
X28272D02*
D03*
X29256D02*
D03*
X30240D02*
D03*
X31224D02*
D03*
X32209D02*
D03*
X33193D02*
D03*
X34177D02*
D03*
X35161D02*
D03*
X36146D02*
D03*
X37130D02*
D03*
X38114D02*
D03*
X39098D02*
D03*
X40083D02*
D03*
X41067D02*
D03*
X42051D02*
D03*
X42543Y41383D02*
D03*
X43134Y43942D02*
D03*
Y44926D02*
D03*
Y45911D02*
D03*
X23843Y60674D02*
D03*
X24827D02*
D03*
X25811D02*
D03*
X26795D02*
D03*
X27780D02*
D03*
X28764D02*
D03*
X29748D02*
D03*
X30732D02*
D03*
X31717D02*
D03*
X32701D02*
D03*
X33685D02*
D03*
X34669D02*
D03*
X35654D02*
D03*
X36638D02*
D03*
X37622D02*
D03*
X38606D02*
D03*
X39591D02*
D03*
X40575D02*
D03*
X41559D02*
D03*
X42150Y60478D02*
D03*
Y59198D02*
D03*
X43134Y49848D02*
D03*
Y50832D02*
D03*
Y51816D02*
D03*
Y52800D02*
D03*
X42740Y55360D02*
D03*
D55*
X33232Y46737D02*
D03*
X33705Y51029D02*
D03*
X32681D02*
D03*
X37642Y51344D02*
D03*
X38823Y57052D02*
D03*
X31815Y58273D02*
D03*
X37839Y53115D02*
D03*
X36539Y51659D02*
D03*
X26697Y52328D02*
D03*
X31461Y51659D02*
D03*
Y52958D02*
D03*
X37839Y56344D02*
D03*
X35358Y52919D02*
D03*
X34098Y56265D02*
D03*
X24689Y59021D02*
D03*
Y57643D02*
D03*
X26264Y47919D02*
D03*
Y46619D02*
D03*
Y45871D02*
D03*
X23823Y43430D02*
D03*
X24925Y43037D02*
D03*
X26343D02*
D03*
X25634D02*
D03*
X26264Y47289D02*
D03*
X24689Y58352D02*
D03*
X31933Y43352D02*
D03*
X31146D02*
D03*
X27327Y44139D02*
D03*
X42563Y46147D02*
D03*
X41657Y55635D02*
D03*
X40461Y58405D02*
D03*
Y56205D02*
D03*
X36618Y56344D02*
D03*
X37091Y52210D02*
D03*
X37268Y47722D02*
D03*
X35961Y44805D02*
D03*
X33961Y47105D02*
D03*
X35261Y49805D02*
D03*
X34861Y51605D02*
D03*
X33361Y53005D02*
D03*
X35261Y56305D02*
D03*
X31261Y59305D02*
D03*
X30261Y58205D02*
D03*
X25261Y52305D02*
D03*
X23761D02*
D03*
X29761Y48305D02*
D03*
X28661Y46805D02*
D03*
X31261Y45405D02*
D03*
X29761Y46005D02*
D03*
X19261Y45305D02*
D03*
X21661Y46305D02*
D03*
X39161Y43705D02*
D03*
X38261Y45205D02*
D03*
X39761Y49805D02*
D03*
X38261Y47105D02*
D03*
X41461Y49005D02*
D03*
X41561Y46805D02*
D03*
X41261Y53005D02*
D03*
X40661Y51805D02*
D03*
X23261Y56305D02*
D03*
X21161D02*
D03*
Y52305D02*
D03*
X30761Y47705D02*
D03*
X31661Y49905D02*
D03*
M02*
