G04*
G04 #@! TF.GenerationSoftware,Altium Limited,CircuitStudio,1.5.1 (13)*
G04*
G04 Layer_Color=8150272*
%FSLAX24Y24*%
%MOIN*%
G70*
G01*
G75*
%ADD43C,0.0039*%
%ADD92R,0.1620X0.0620*%
%ADD96C,0.0630*%
%ADD97R,0.0630X0.0630*%
G04:AMPARAMS|DCode=98|XSize=65mil|YSize=65mil|CornerRadius=16.7mil|HoleSize=0mil|Usage=FLASHONLY|Rotation=0.000|XOffset=0mil|YOffset=0mil|HoleType=Round|Shape=RoundedRectangle|*
%AMROUNDEDRECTD98*
21,1,0.0650,0.0315,0,0,0.0*
21,1,0.0315,0.0650,0,0,0.0*
1,1,0.0335,0.0157,-0.0157*
1,1,0.0335,-0.0157,-0.0157*
1,1,0.0335,-0.0157,0.0157*
1,1,0.0335,0.0157,0.0157*
%
%ADD98ROUNDEDRECTD98*%
%ADD99C,0.0650*%
%ADD100R,0.0650X0.0650*%
%ADD101R,0.0630X0.0630*%
%ADD102C,0.1595*%
%ADD103R,0.0611X0.1595*%
%ADD104R,0.0611X0.1398*%
%ADD105R,0.1398X0.0611*%
%ADD106C,0.0256*%
%ADD107C,0.0492*%
G36*
X43461Y55005D02*
X43461Y55005D01*
Y49205D01*
X42961D01*
Y53505D01*
X43161Y53705D01*
Y54305D01*
X42961Y54505D01*
Y54905D01*
X41961Y55905D01*
Y56005D01*
X41961Y56005D01*
X42461D01*
X43461Y55005D01*
D02*
G37*
G36*
X42461Y60505D02*
Y58505D01*
X41961D01*
Y60505D01*
X22957Y60517D01*
X22711Y60755D01*
X22211D01*
X21961Y60505D01*
X16961D01*
Y40505D01*
X21461D01*
X21711Y40255D01*
X22211D01*
X22461Y40505D01*
X42161D01*
Y41205D01*
X42961Y42005D01*
Y42505D01*
X43211Y42755D01*
Y43255D01*
X42961Y43505D01*
X42957Y46659D01*
X43461D01*
Y42005D01*
X42461Y41005D01*
X42461Y40005D01*
X16461D01*
X16461Y60989D01*
X41961Y61005D01*
X42461Y60505D01*
D02*
G37*
D43*
X16461Y40005D02*
Y60989D01*
X43461Y42005D02*
Y55005D01*
X16461Y60989D02*
X41961D01*
X42453Y60497D01*
Y56013D02*
Y60497D01*
Y56013D02*
X43461Y55005D01*
X16461Y40005D02*
X41961D01*
X42461Y41005D02*
X43461Y42005D01*
X42461Y40005D02*
Y41005D01*
X41961Y40005D02*
X42461D01*
D92*
X42661Y48905D02*
D03*
Y46905D02*
D03*
X41661Y58305D02*
D03*
Y56305D02*
D03*
D96*
X34461Y41005D02*
D03*
X33461D02*
D03*
X32461D02*
D03*
X31461D02*
D03*
X30461D02*
D03*
X29461D02*
D03*
X28461D02*
D03*
X41461D02*
D03*
X40461D02*
D03*
X39461D02*
D03*
X38461D02*
D03*
X37461D02*
D03*
X27657Y50257D02*
D03*
Y51257D02*
D03*
Y49257D02*
D03*
X26657Y51257D02*
D03*
Y50257D02*
D03*
X41511Y50985D02*
D03*
Y49985D02*
D03*
X42511Y51985D02*
D03*
Y49985D02*
D03*
Y50985D02*
D03*
X27618Y56430D02*
D03*
Y55430D02*
D03*
Y54430D02*
D03*
Y53430D02*
D03*
X26618Y56430D02*
D03*
Y55430D02*
D03*
Y54430D02*
D03*
X31861Y60005D02*
D03*
X30861D02*
D03*
X29861D02*
D03*
X28861D02*
D03*
X27861D02*
D03*
X26861D02*
D03*
X25861D02*
D03*
X24861D02*
D03*
X23861D02*
D03*
X40461D02*
D03*
X39461D02*
D03*
X38461D02*
D03*
X37461D02*
D03*
X36461D02*
D03*
X35461D02*
D03*
X34461D02*
D03*
D97*
X27461Y41005D02*
D03*
X36461D02*
D03*
X32861Y60005D02*
D03*
X41461D02*
D03*
D98*
X17839Y49218D02*
D03*
Y53667D02*
D03*
D99*
X18839Y49218D02*
D03*
X21839D02*
D03*
X22839D02*
D03*
X23839D02*
D03*
X24839D02*
D03*
Y53667D02*
D03*
X23839D02*
D03*
X22839D02*
D03*
X21839D02*
D03*
X18839D02*
D03*
X40256Y42328D02*
D03*
X37461D02*
D03*
X34469D02*
D03*
X32445Y54218D02*
D03*
X32484Y48194D02*
D03*
D100*
X39256Y42328D02*
D03*
X36461D02*
D03*
X33468D02*
D03*
D101*
X26657Y49257D02*
D03*
X41511Y51985D02*
D03*
X26618Y53430D02*
D03*
D102*
X21961Y41005D02*
D03*
X42461Y43005D02*
D03*
Y54005D02*
D03*
X22461Y60005D02*
D03*
D103*
X21142Y43005D02*
D03*
D104*
X18780D02*
D03*
D105*
X19961Y41155D02*
D03*
D106*
X30516Y57092D02*
D03*
X33744Y53470D02*
D03*
X33665Y49257D02*
D03*
X40476Y45320D02*
D03*
Y49454D02*
D03*
X33980Y48785D02*
D03*
Y47879D02*
D03*
X33665Y48194D02*
D03*
X38311Y59257D02*
D03*
X35831Y59218D02*
D03*
X30004Y52800D02*
D03*
Y51816D02*
D03*
X24492Y45714D02*
D03*
X28390Y45989D02*
D03*
X36106Y57052D02*
D03*
X31146Y57367D02*
D03*
X31736Y57663D02*
D03*
X38547Y57643D02*
D03*
X38016Y57367D02*
D03*
X33862Y54060D02*
D03*
Y54887D02*
D03*
X33547Y54218D02*
D03*
Y55123D02*
D03*
X33626Y59297D02*
D03*
X16756Y60674D02*
D03*
X17937D02*
D03*
X18921D02*
D03*
X19906D02*
D03*
X20890D02*
D03*
X16756Y59690D02*
D03*
Y58706D02*
D03*
Y57722D02*
D03*
Y56737D02*
D03*
Y55753D02*
D03*
Y54769D02*
D03*
Y53785D02*
D03*
Y52800D02*
D03*
Y51816D02*
D03*
Y50832D02*
D03*
Y49848D02*
D03*
Y48863D02*
D03*
Y47879D02*
D03*
Y46895D02*
D03*
Y45911D02*
D03*
Y44926D02*
D03*
Y43942D02*
D03*
Y42958D02*
D03*
Y41974D02*
D03*
Y40989D02*
D03*
X17445Y40300D02*
D03*
X18429D02*
D03*
X19413D02*
D03*
X20398D02*
D03*
X23350D02*
D03*
X24335D02*
D03*
X25319D02*
D03*
X26303D02*
D03*
X27287D02*
D03*
X28272D02*
D03*
X29256D02*
D03*
X30240D02*
D03*
X31224D02*
D03*
X32209D02*
D03*
X33193D02*
D03*
X34177D02*
D03*
X35161D02*
D03*
X36146D02*
D03*
X37130D02*
D03*
X38114D02*
D03*
X39098D02*
D03*
X40083D02*
D03*
X41067D02*
D03*
X42051D02*
D03*
X42543Y41383D02*
D03*
X43134Y43942D02*
D03*
Y44926D02*
D03*
Y45911D02*
D03*
X23843Y60674D02*
D03*
X24827D02*
D03*
X25811D02*
D03*
X26795D02*
D03*
X27780D02*
D03*
X28764D02*
D03*
X29748D02*
D03*
X30732D02*
D03*
X31717D02*
D03*
X32701D02*
D03*
X33685D02*
D03*
X34669D02*
D03*
X35654D02*
D03*
X36638D02*
D03*
X37622D02*
D03*
X38606D02*
D03*
X39591D02*
D03*
X40575D02*
D03*
X41559D02*
D03*
X42150Y60478D02*
D03*
Y59198D02*
D03*
X43134Y49848D02*
D03*
Y50832D02*
D03*
Y51816D02*
D03*
Y52800D02*
D03*
X42740Y55360D02*
D03*
D107*
X33232Y46737D02*
D03*
X33705Y51029D02*
D03*
X32681D02*
D03*
X37642Y51344D02*
D03*
X38823Y57052D02*
D03*
X31815Y58273D02*
D03*
X37839Y53115D02*
D03*
X36539Y51659D02*
D03*
X26697Y52328D02*
D03*
X31461Y51659D02*
D03*
Y52958D02*
D03*
X37839Y56344D02*
D03*
X35358Y52919D02*
D03*
X34098Y56265D02*
D03*
X24689Y59021D02*
D03*
Y57643D02*
D03*
X26264Y47919D02*
D03*
Y46619D02*
D03*
Y45871D02*
D03*
X23823Y43430D02*
D03*
X24925Y43037D02*
D03*
X26343D02*
D03*
X25634D02*
D03*
X26264Y47289D02*
D03*
X24689Y58352D02*
D03*
X31933Y43352D02*
D03*
X31146D02*
D03*
X27327Y44139D02*
D03*
X41657Y55635D02*
D03*
X40461Y58405D02*
D03*
Y56205D02*
D03*
X36618Y56344D02*
D03*
X37091Y52210D02*
D03*
X37268Y47722D02*
D03*
X35961Y44805D02*
D03*
X33961Y47105D02*
D03*
X35261Y49805D02*
D03*
X34861Y51605D02*
D03*
X33361Y53005D02*
D03*
X35261Y56305D02*
D03*
X31261Y59305D02*
D03*
X30261Y58205D02*
D03*
X25261Y52305D02*
D03*
X23761D02*
D03*
X29761Y48305D02*
D03*
X28661Y46805D02*
D03*
X31261Y45405D02*
D03*
X29761Y46005D02*
D03*
X19261Y45305D02*
D03*
X21661Y46305D02*
D03*
X39161Y43705D02*
D03*
X38261Y45205D02*
D03*
X39761Y49805D02*
D03*
X38261Y47105D02*
D03*
X41461Y49005D02*
D03*
X41561Y46805D02*
D03*
X41261Y53005D02*
D03*
X40661Y51805D02*
D03*
X23261Y56305D02*
D03*
X21161D02*
D03*
Y52305D02*
D03*
X30761Y47705D02*
D03*
X31661Y49905D02*
D03*
M02*
