G04*
G04 #@! TF.GenerationSoftware,Altium Limited,CircuitStudio,1.5.1 (13)*
G04*
G04 Layer_Color=2752767*
%FSLAX24Y24*%
%MOIN*%
G70*
G01*
G75*
%ADD43C,0.0039*%
%ADD57C,0.0050*%
%ADD108C,0.0067*%
%ADD109C,0.0040*%
D43*
X16461Y40005D02*
Y60989D01*
X43461Y42005D02*
Y55005D01*
X16461Y60989D02*
X41961D01*
X42453Y60497D01*
Y56013D02*
Y60497D01*
Y56013D02*
X43461Y55005D01*
X16461Y40005D02*
X41961D01*
X42461Y41005D02*
X43461Y42005D01*
X42461Y40005D02*
Y41005D01*
X41961Y40005D02*
X42461D01*
D57*
X34261Y40805D02*
Y41205D01*
X34661D01*
Y40805D01*
X34261D01*
X33261D02*
Y41205D01*
X33661D01*
Y40805D01*
X33261D01*
X32261D02*
Y41205D01*
X32661D01*
Y40805D01*
X32261D01*
X31261D02*
Y41205D01*
X31661D01*
Y40805D01*
X31261D01*
X30261D02*
Y41205D01*
X30661D01*
Y40805D01*
X30261D01*
X29261D02*
Y41205D01*
X29661D01*
Y40805D01*
X29261D01*
X28261D02*
Y41205D01*
X28661D01*
Y40805D01*
X28261D01*
X27261D02*
Y41205D01*
X27661D01*
Y40805D01*
X27261D01*
X17839Y49018D02*
X17639Y49418D01*
X18039D01*
X17839Y49018D01*
X18839D02*
X18639Y49418D01*
X19039D01*
X18839Y49018D01*
X21839D02*
X21639Y49418D01*
X22039D01*
X21839Y49018D01*
X22839D02*
X22639Y49418D01*
X23039D01*
X22839Y49018D01*
X23839D02*
X23639Y49418D01*
X24039D01*
X23839Y49018D01*
X24839D02*
X24639Y49418D01*
X25039D01*
X24839Y49018D01*
Y53467D02*
X24639Y53867D01*
X25039D01*
X24839Y53467D01*
X23839D02*
X23639Y53867D01*
X24039D01*
X23839Y53467D01*
X22839D02*
X22639Y53867D01*
X23039D01*
X22839Y53467D01*
X21839D02*
X21639Y53867D01*
X22039D01*
X21839Y53467D01*
X18839D02*
X18639Y53867D01*
X19039D01*
X18839Y53467D01*
X17839D02*
X17639Y53867D01*
X18039D01*
X17839Y53467D01*
X39256Y42128D02*
X39356Y42228D01*
X39456D01*
X39356Y42328D01*
X39456Y42428D01*
X39356D01*
X39256Y42528D01*
X39156Y42428D01*
X39056D01*
X39156Y42328D01*
X39056Y42228D01*
X39156D01*
X39256Y42128D01*
X40256D02*
X40356Y42228D01*
X40456D01*
X40356Y42328D01*
X40456Y42428D01*
X40356D01*
X40256Y42528D01*
X40156Y42428D01*
X40056D01*
X40156Y42328D01*
X40056Y42228D01*
X40156D01*
X40256Y42128D01*
X36461D02*
X36561Y42228D01*
X36661D01*
X36561Y42328D01*
X36661Y42428D01*
X36561D01*
X36461Y42528D01*
X36361Y42428D01*
X36261D01*
X36361Y42328D01*
X36261Y42228D01*
X36361D01*
X36461Y42128D01*
X37461D02*
X37561Y42228D01*
X37661D01*
X37561Y42328D01*
X37661Y42428D01*
X37561D01*
X37461Y42528D01*
X37361Y42428D01*
X37261D01*
X37361Y42328D01*
X37261Y42228D01*
X37361D01*
X37461Y42128D01*
X33268D02*
X33368Y42328D01*
X33268Y42528D01*
X33468Y42428D01*
X33668Y42528D01*
X33568Y42328D01*
X33668Y42128D01*
X33468Y42228D01*
X33268Y42128D01*
X34269D02*
X34369Y42328D01*
X34269Y42528D01*
X34469Y42428D01*
X34669Y42528D01*
X34569Y42328D01*
X34669Y42128D01*
X34469Y42228D01*
X34269Y42128D01*
X21861Y40905D02*
Y40805D01*
X22061D01*
Y40905D01*
X22161D01*
Y41105D01*
X22061D01*
Y41205D01*
X21861D01*
Y41105D01*
X21761D01*
Y40905D01*
X21861D01*
X42361Y42905D02*
Y42805D01*
X42561D01*
Y42905D01*
X42661D01*
Y43105D01*
X42561D01*
Y43205D01*
X42361D01*
Y43105D01*
X42261D01*
Y42905D01*
X42361D01*
Y53905D02*
Y53805D01*
X42561D01*
Y53905D01*
X42661D01*
Y54105D01*
X42561D01*
Y54205D01*
X42361D01*
Y54105D01*
X42261D01*
Y53905D01*
X42361D01*
X22361Y59905D02*
Y59805D01*
X22561D01*
Y59905D01*
X22661D01*
Y60105D01*
X22561D01*
Y60205D01*
X22361D01*
Y60105D01*
X22261D01*
Y59905D01*
X22361D01*
X41511Y50785D02*
X41611Y50885D01*
X41711D01*
X41611Y50985D01*
X41711Y51085D01*
X41611D01*
X41511Y51185D01*
X41411Y51085D01*
X41311D01*
X41411Y50985D01*
X41311Y50885D01*
X41411D01*
X41511Y50785D01*
Y51785D02*
X41611Y51885D01*
X41711D01*
X41611Y51985D01*
X41711Y52085D01*
X41611D01*
X41511Y52185D01*
X41411Y52085D01*
X41311D01*
X41411Y51985D01*
X41311Y51885D01*
X41411D01*
X41511Y51785D01*
Y49785D02*
X41611Y49885D01*
X41711D01*
X41611Y49985D01*
X41711Y50085D01*
X41611D01*
X41511Y50185D01*
X41411Y50085D01*
X41311D01*
X41411Y49985D01*
X41311Y49885D01*
X41411D01*
X41511Y49785D01*
X42511Y51785D02*
X42611Y51885D01*
X42711D01*
X42611Y51985D01*
X42711Y52085D01*
X42611D01*
X42511Y52185D01*
X42411Y52085D01*
X42311D01*
X42411Y51985D01*
X42311Y51885D01*
X42411D01*
X42511Y51785D01*
Y49785D02*
X42611Y49885D01*
X42711D01*
X42611Y49985D01*
X42711Y50085D01*
X42611D01*
X42511Y50185D01*
X42411Y50085D01*
X42311D01*
X42411Y49985D01*
X42311Y49885D01*
X42411D01*
X42511Y49785D01*
Y50785D02*
X42611Y50885D01*
X42711D01*
X42611Y50985D01*
X42711Y51085D01*
X42611D01*
X42511Y51185D01*
X42411Y51085D01*
X42311D01*
X42411Y50985D01*
X42311Y50885D01*
X42411D01*
X42511Y50785D01*
X20942Y42805D02*
X21042D01*
X21142Y42905D01*
X21242Y42805D01*
X21342D01*
Y42905D01*
X21242Y43005D01*
X21342Y43105D01*
Y43205D01*
X21242D01*
X21142Y43105D01*
X21042Y43205D01*
X20942D01*
Y43105D01*
X21042Y43005D01*
X20942Y42905D01*
Y42805D01*
X18580Y43005D02*
X18780Y43205D01*
X18980Y43005D01*
X18780Y42805D01*
X18580Y43005D01*
X19761Y41155D02*
X19961Y41355D01*
X20161Y41155D01*
X19961Y40955D01*
X19761Y41155D01*
X32861Y59805D02*
X32961Y59905D01*
X33061D01*
X32961Y60005D01*
X33061Y60105D01*
X32961D01*
X32861Y60205D01*
X32761Y60105D01*
X32661D01*
X32761Y60005D01*
X32661Y59905D01*
X32761D01*
X32861Y59805D01*
X31861D02*
X31961Y59905D01*
X32061D01*
X31961Y60005D01*
X32061Y60105D01*
X31961D01*
X31861Y60205D01*
X31761Y60105D01*
X31661D01*
X31761Y60005D01*
X31661Y59905D01*
X31761D01*
X31861Y59805D01*
X30861D02*
X30961Y59905D01*
X31061D01*
X30961Y60005D01*
X31061Y60105D01*
X30961D01*
X30861Y60205D01*
X30761Y60105D01*
X30661D01*
X30761Y60005D01*
X30661Y59905D01*
X30761D01*
X30861Y59805D01*
X29861D02*
X29961Y59905D01*
X30061D01*
X29961Y60005D01*
X30061Y60105D01*
X29961D01*
X29861Y60205D01*
X29761Y60105D01*
X29661D01*
X29761Y60005D01*
X29661Y59905D01*
X29761D01*
X29861Y59805D01*
X28861D02*
X28961Y59905D01*
X29061D01*
X28961Y60005D01*
X29061Y60105D01*
X28961D01*
X28861Y60205D01*
X28761Y60105D01*
X28661D01*
X28761Y60005D01*
X28661Y59905D01*
X28761D01*
X28861Y59805D01*
X27861D02*
X27961Y59905D01*
X28061D01*
X27961Y60005D01*
X28061Y60105D01*
X27961D01*
X27861Y60205D01*
X27761Y60105D01*
X27661D01*
X27761Y60005D01*
X27661Y59905D01*
X27761D01*
X27861Y59805D01*
X26861D02*
X26961Y59905D01*
X27061D01*
X26961Y60005D01*
X27061Y60105D01*
X26961D01*
X26861Y60205D01*
X26761Y60105D01*
X26661D01*
X26761Y60005D01*
X26661Y59905D01*
X26761D01*
X26861Y59805D01*
X25861D02*
X25961Y59905D01*
X26061D01*
X25961Y60005D01*
X26061Y60105D01*
X25961D01*
X25861Y60205D01*
X25761Y60105D01*
X25661D01*
X25761Y60005D01*
X25661Y59905D01*
X25761D01*
X25861Y59805D01*
X24861D02*
X24961Y59905D01*
X25061D01*
X24961Y60005D01*
X25061Y60105D01*
X24961D01*
X24861Y60205D01*
X24761Y60105D01*
X24661D01*
X24761Y60005D01*
X24661Y59905D01*
X24761D01*
X24861Y59805D01*
X23861D02*
X23961Y59905D01*
X24061D01*
X23961Y60005D01*
X24061Y60105D01*
X23961D01*
X23861Y60205D01*
X23761Y60105D01*
X23661D01*
X23761Y60005D01*
X23661Y59905D01*
X23761D01*
X23861Y59805D01*
X41461D02*
X41561Y59905D01*
X41661D01*
X41561Y60005D01*
X41661Y60105D01*
X41561D01*
X41461Y60205D01*
X41361Y60105D01*
X41261D01*
X41361Y60005D01*
X41261Y59905D01*
X41361D01*
X41461Y59805D01*
X40461D02*
X40561Y59905D01*
X40661D01*
X40561Y60005D01*
X40661Y60105D01*
X40561D01*
X40461Y60205D01*
X40361Y60105D01*
X40261D01*
X40361Y60005D01*
X40261Y59905D01*
X40361D01*
X40461Y59805D01*
X39461D02*
X39561Y59905D01*
X39661D01*
X39561Y60005D01*
X39661Y60105D01*
X39561D01*
X39461Y60205D01*
X39361Y60105D01*
X39261D01*
X39361Y60005D01*
X39261Y59905D01*
X39361D01*
X39461Y59805D01*
X38461D02*
X38561Y59905D01*
X38661D01*
X38561Y60005D01*
X38661Y60105D01*
X38561D01*
X38461Y60205D01*
X38361Y60105D01*
X38261D01*
X38361Y60005D01*
X38261Y59905D01*
X38361D01*
X38461Y59805D01*
X37461D02*
X37561Y59905D01*
X37661D01*
X37561Y60005D01*
X37661Y60105D01*
X37561D01*
X37461Y60205D01*
X37361Y60105D01*
X37261D01*
X37361Y60005D01*
X37261Y59905D01*
X37361D01*
X37461Y59805D01*
X36461D02*
X36561Y59905D01*
X36661D01*
X36561Y60005D01*
X36661Y60105D01*
X36561D01*
X36461Y60205D01*
X36361Y60105D01*
X36261D01*
X36361Y60005D01*
X36261Y59905D01*
X36361D01*
X36461Y59805D01*
X35461D02*
X35561Y59905D01*
X35661D01*
X35561Y60005D01*
X35661Y60105D01*
X35561D01*
X35461Y60205D01*
X35361Y60105D01*
X35261D01*
X35361Y60005D01*
X35261Y59905D01*
X35361D01*
X35461Y59805D01*
X34461D02*
X34561Y59905D01*
X34661D01*
X34561Y60005D01*
X34661Y60105D01*
X34561D01*
X34461Y60205D01*
X34361Y60105D01*
X34261D01*
X34361Y60005D01*
X34261Y59905D01*
X34361D01*
X34461Y59805D01*
X30316Y56892D02*
Y57292D01*
X30716D01*
Y56892D01*
X30316D01*
X30396Y56972D02*
Y57212D01*
X30636D01*
Y56972D01*
X30396D01*
X33544Y53270D02*
Y53670D01*
X33944D01*
Y53270D01*
X33544D01*
X33624Y53350D02*
Y53590D01*
X33864D01*
Y53350D01*
X33624D01*
X33465Y49057D02*
Y49457D01*
X33865D01*
Y49057D01*
X33465D01*
X33545Y49137D02*
Y49377D01*
X33785D01*
Y49137D01*
X33545D01*
X40276Y45120D02*
Y45520D01*
X40676D01*
Y45120D01*
X40276D01*
X40356Y45200D02*
Y45440D01*
X40596D01*
Y45200D01*
X40356D01*
X40276Y49254D02*
Y49654D01*
X40676D01*
Y49254D01*
X40276D01*
X40356Y49334D02*
Y49574D01*
X40596D01*
Y49334D01*
X40356D01*
X33780Y48585D02*
Y48985D01*
X34180D01*
Y48585D01*
X33780D01*
X33860Y48665D02*
Y48905D01*
X34100D01*
Y48665D01*
X33860D01*
X33780Y47679D02*
Y48079D01*
X34180D01*
Y47679D01*
X33780D01*
X33860Y47759D02*
Y47999D01*
X34100D01*
Y47759D01*
X33860D01*
X33465Y47994D02*
Y48394D01*
X33865D01*
Y47994D01*
X33465D01*
X33545Y48074D02*
Y48314D01*
X33785D01*
Y48074D01*
X33545D01*
X38111Y59057D02*
Y59457D01*
X38511D01*
Y59057D01*
X38111D01*
X38191Y59137D02*
Y59377D01*
X38431D01*
Y59137D01*
X38191D01*
X35631Y59018D02*
Y59418D01*
X36031D01*
Y59018D01*
X35631D01*
X35711Y59098D02*
Y59338D01*
X35951D01*
Y59098D01*
X35711D01*
X29804Y52600D02*
Y53000D01*
X30204D01*
Y52600D01*
X29804D01*
X29884Y52680D02*
Y52920D01*
X30124D01*
Y52680D01*
X29884D01*
X29804Y51616D02*
Y52016D01*
X30204D01*
Y51616D01*
X29804D01*
X29884Y51696D02*
Y51936D01*
X30124D01*
Y51696D01*
X29884D01*
X24292Y45514D02*
Y45914D01*
X24692D01*
Y45514D01*
X24292D01*
X24372Y45594D02*
Y45834D01*
X24612D01*
Y45594D01*
X24372D01*
X28190Y45789D02*
Y46189D01*
X28590D01*
Y45789D01*
X28190D01*
X28270Y45869D02*
Y46109D01*
X28510D01*
Y45869D01*
X28270D01*
X35906Y56852D02*
Y57252D01*
X36306D01*
Y56852D01*
X35906D01*
X35986Y56932D02*
Y57172D01*
X36226D01*
Y56932D01*
X35986D01*
X30946Y57167D02*
Y57567D01*
X31346D01*
Y57167D01*
X30946D01*
X31026Y57247D02*
Y57487D01*
X31266D01*
Y57247D01*
X31026D01*
X31536Y57463D02*
Y57863D01*
X31936D01*
Y57463D01*
X31536D01*
X31616Y57543D02*
Y57783D01*
X31856D01*
Y57543D01*
X31616D01*
X38347Y57443D02*
Y57843D01*
X38747D01*
Y57443D01*
X38347D01*
X38427Y57523D02*
Y57763D01*
X38667D01*
Y57523D01*
X38427D01*
X37816Y57167D02*
Y57567D01*
X38216D01*
Y57167D01*
X37816D01*
X37896Y57247D02*
Y57487D01*
X38136D01*
Y57247D01*
X37896D01*
X33662Y53860D02*
Y54260D01*
X34062D01*
Y53860D01*
X33662D01*
X33742Y53940D02*
Y54180D01*
X33982D01*
Y53940D01*
X33742D01*
X33662Y54687D02*
Y55087D01*
X34062D01*
Y54687D01*
X33662D01*
X33742Y54767D02*
Y55007D01*
X33982D01*
Y54767D01*
X33742D01*
X33347Y54018D02*
Y54418D01*
X33747D01*
Y54018D01*
X33347D01*
X33427Y54098D02*
Y54338D01*
X33667D01*
Y54098D01*
X33427D01*
X33347Y54923D02*
Y55323D01*
X33747D01*
Y54923D01*
X33347D01*
X33427Y55003D02*
Y55243D01*
X33667D01*
Y55003D01*
X33427D01*
X33426Y59097D02*
Y59497D01*
X33826D01*
Y59097D01*
X33426D01*
X33506Y59177D02*
Y59417D01*
X33746D01*
Y59177D01*
X33506D01*
X16556Y60474D02*
Y60874D01*
X16956D01*
Y60474D01*
X16556D01*
X16636Y60554D02*
Y60794D01*
X16876D01*
Y60554D01*
X16636D01*
X17737Y60474D02*
Y60874D01*
X18137D01*
Y60474D01*
X17737D01*
X17817Y60554D02*
Y60794D01*
X18057D01*
Y60554D01*
X17817D01*
X18721Y60474D02*
Y60874D01*
X19121D01*
Y60474D01*
X18721D01*
X18801Y60554D02*
Y60794D01*
X19041D01*
Y60554D01*
X18801D01*
X19706Y60474D02*
Y60874D01*
X20106D01*
Y60474D01*
X19706D01*
X19786Y60554D02*
Y60794D01*
X20026D01*
Y60554D01*
X19786D01*
X20690Y60474D02*
Y60874D01*
X21090D01*
Y60474D01*
X20690D01*
X20770Y60554D02*
Y60794D01*
X21010D01*
Y60554D01*
X20770D01*
X16556Y59490D02*
Y59890D01*
X16956D01*
Y59490D01*
X16556D01*
X16636Y59570D02*
Y59810D01*
X16876D01*
Y59570D01*
X16636D01*
X16556Y58506D02*
Y58906D01*
X16956D01*
Y58506D01*
X16556D01*
X16636Y58586D02*
Y58826D01*
X16876D01*
Y58586D01*
X16636D01*
X16556Y57522D02*
Y57922D01*
X16956D01*
Y57522D01*
X16556D01*
X16636Y57602D02*
Y57842D01*
X16876D01*
Y57602D01*
X16636D01*
X16556Y56537D02*
Y56937D01*
X16956D01*
Y56537D01*
X16556D01*
X16636Y56617D02*
Y56857D01*
X16876D01*
Y56617D01*
X16636D01*
X16556Y55553D02*
Y55953D01*
X16956D01*
Y55553D01*
X16556D01*
X16636Y55633D02*
Y55873D01*
X16876D01*
Y55633D01*
X16636D01*
X16556Y54569D02*
Y54969D01*
X16956D01*
Y54569D01*
X16556D01*
X16636Y54649D02*
Y54889D01*
X16876D01*
Y54649D01*
X16636D01*
X16556Y53585D02*
Y53985D01*
X16956D01*
Y53585D01*
X16556D01*
X16636Y53665D02*
Y53905D01*
X16876D01*
Y53665D01*
X16636D01*
X16556Y52600D02*
Y53000D01*
X16956D01*
Y52600D01*
X16556D01*
X16636Y52680D02*
Y52920D01*
X16876D01*
Y52680D01*
X16636D01*
X16556Y51616D02*
Y52016D01*
X16956D01*
Y51616D01*
X16556D01*
X16636Y51696D02*
Y51936D01*
X16876D01*
Y51696D01*
X16636D01*
X16556Y50632D02*
Y51032D01*
X16956D01*
Y50632D01*
X16556D01*
X16636Y50712D02*
Y50952D01*
X16876D01*
Y50712D01*
X16636D01*
X16556Y49648D02*
Y50048D01*
X16956D01*
Y49648D01*
X16556D01*
X16636Y49728D02*
Y49968D01*
X16876D01*
Y49728D01*
X16636D01*
X16556Y48663D02*
Y49063D01*
X16956D01*
Y48663D01*
X16556D01*
X16636Y48743D02*
Y48983D01*
X16876D01*
Y48743D01*
X16636D01*
X16556Y47679D02*
Y48079D01*
X16956D01*
Y47679D01*
X16556D01*
X16636Y47759D02*
Y47999D01*
X16876D01*
Y47759D01*
X16636D01*
X16556Y46695D02*
Y47095D01*
X16956D01*
Y46695D01*
X16556D01*
X16636Y46775D02*
Y47015D01*
X16876D01*
Y46775D01*
X16636D01*
X16556Y45711D02*
Y46111D01*
X16956D01*
Y45711D01*
X16556D01*
X16636Y45791D02*
Y46031D01*
X16876D01*
Y45791D01*
X16636D01*
X16556Y44726D02*
Y45126D01*
X16956D01*
Y44726D01*
X16556D01*
X16636Y44806D02*
Y45046D01*
X16876D01*
Y44806D01*
X16636D01*
X16556Y43742D02*
Y44142D01*
X16956D01*
Y43742D01*
X16556D01*
X16636Y43822D02*
Y44062D01*
X16876D01*
Y43822D01*
X16636D01*
X16556Y42758D02*
Y43158D01*
X16956D01*
Y42758D01*
X16556D01*
X16636Y42838D02*
Y43078D01*
X16876D01*
Y42838D01*
X16636D01*
X16556Y41774D02*
Y42174D01*
X16956D01*
Y41774D01*
X16556D01*
X16636Y41854D02*
Y42094D01*
X16876D01*
Y41854D01*
X16636D01*
X16556Y40789D02*
Y41189D01*
X16956D01*
Y40789D01*
X16556D01*
X16636Y40869D02*
Y41109D01*
X16876D01*
Y40869D01*
X16636D01*
X17245Y40100D02*
Y40500D01*
X17645D01*
Y40100D01*
X17245D01*
X17325Y40180D02*
Y40420D01*
X17565D01*
Y40180D01*
X17325D01*
X18229Y40100D02*
Y40500D01*
X18629D01*
Y40100D01*
X18229D01*
X18309Y40180D02*
Y40420D01*
X18549D01*
Y40180D01*
X18309D01*
X19213Y40100D02*
Y40500D01*
X19613D01*
Y40100D01*
X19213D01*
X19293Y40180D02*
Y40420D01*
X19533D01*
Y40180D01*
X19293D01*
X20198Y40100D02*
Y40500D01*
X20598D01*
Y40100D01*
X20198D01*
X20278Y40180D02*
Y40420D01*
X20518D01*
Y40180D01*
X20278D01*
X23150Y40100D02*
Y40500D01*
X23550D01*
Y40100D01*
X23150D01*
X23230Y40180D02*
Y40420D01*
X23470D01*
Y40180D01*
X23230D01*
X24135Y40100D02*
Y40500D01*
X24535D01*
Y40100D01*
X24135D01*
X24215Y40180D02*
Y40420D01*
X24455D01*
Y40180D01*
X24215D01*
X25119Y40100D02*
Y40500D01*
X25519D01*
Y40100D01*
X25119D01*
X25199Y40180D02*
Y40420D01*
X25439D01*
Y40180D01*
X25199D01*
X26103Y40100D02*
Y40500D01*
X26503D01*
Y40100D01*
X26103D01*
X26183Y40180D02*
Y40420D01*
X26423D01*
Y40180D01*
X26183D01*
X27087Y40100D02*
Y40500D01*
X27487D01*
Y40100D01*
X27087D01*
X27167Y40180D02*
Y40420D01*
X27407D01*
Y40180D01*
X27167D01*
X28072Y40100D02*
Y40500D01*
X28472D01*
Y40100D01*
X28072D01*
X28152Y40180D02*
Y40420D01*
X28392D01*
Y40180D01*
X28152D01*
X29056Y40100D02*
Y40500D01*
X29456D01*
Y40100D01*
X29056D01*
X29136Y40180D02*
Y40420D01*
X29376D01*
Y40180D01*
X29136D01*
X30040Y40100D02*
Y40500D01*
X30440D01*
Y40100D01*
X30040D01*
X30120Y40180D02*
Y40420D01*
X30360D01*
Y40180D01*
X30120D01*
X31024Y40100D02*
Y40500D01*
X31424D01*
Y40100D01*
X31024D01*
X31104Y40180D02*
Y40420D01*
X31344D01*
Y40180D01*
X31104D01*
X32009Y40100D02*
Y40500D01*
X32409D01*
Y40100D01*
X32009D01*
X32089Y40180D02*
Y40420D01*
X32329D01*
Y40180D01*
X32089D01*
X32993Y40100D02*
Y40500D01*
X33393D01*
Y40100D01*
X32993D01*
X33073Y40180D02*
Y40420D01*
X33313D01*
Y40180D01*
X33073D01*
X33977Y40100D02*
Y40500D01*
X34377D01*
Y40100D01*
X33977D01*
X34057Y40180D02*
Y40420D01*
X34297D01*
Y40180D01*
X34057D01*
X34961Y40100D02*
Y40500D01*
X35361D01*
Y40100D01*
X34961D01*
X35041Y40180D02*
Y40420D01*
X35281D01*
Y40180D01*
X35041D01*
X35946Y40100D02*
Y40500D01*
X36346D01*
Y40100D01*
X35946D01*
X36026Y40180D02*
Y40420D01*
X36266D01*
Y40180D01*
X36026D01*
X36930Y40100D02*
Y40500D01*
X37330D01*
Y40100D01*
X36930D01*
X37010Y40180D02*
Y40420D01*
X37250D01*
Y40180D01*
X37010D01*
X37914Y40100D02*
Y40500D01*
X38314D01*
Y40100D01*
X37914D01*
X37994Y40180D02*
Y40420D01*
X38234D01*
Y40180D01*
X37994D01*
X38898Y40100D02*
Y40500D01*
X39298D01*
Y40100D01*
X38898D01*
X38978Y40180D02*
Y40420D01*
X39218D01*
Y40180D01*
X38978D01*
X39883Y40100D02*
Y40500D01*
X40283D01*
Y40100D01*
X39883D01*
X39963Y40180D02*
Y40420D01*
X40203D01*
Y40180D01*
X39963D01*
X40867Y40100D02*
Y40500D01*
X41267D01*
Y40100D01*
X40867D01*
X40947Y40180D02*
Y40420D01*
X41187D01*
Y40180D01*
X40947D01*
X41851Y40100D02*
Y40500D01*
X42251D01*
Y40100D01*
X41851D01*
X41931Y40180D02*
Y40420D01*
X42171D01*
Y40180D01*
X41931D01*
X42343Y41183D02*
Y41583D01*
X42743D01*
Y41183D01*
X42343D01*
X42423Y41263D02*
Y41503D01*
X42663D01*
Y41263D01*
X42423D01*
X42934Y43742D02*
Y44142D01*
X43334D01*
Y43742D01*
X42934D01*
X43014Y43822D02*
Y44062D01*
X43254D01*
Y43822D01*
X43014D01*
X42934Y44726D02*
Y45126D01*
X43334D01*
Y44726D01*
X42934D01*
X43014Y44806D02*
Y45046D01*
X43254D01*
Y44806D01*
X43014D01*
X42934Y45711D02*
Y46111D01*
X43334D01*
Y45711D01*
X42934D01*
X43014Y45791D02*
Y46031D01*
X43254D01*
Y45791D01*
X43014D01*
X23643Y60474D02*
Y60874D01*
X24043D01*
Y60474D01*
X23643D01*
X23723Y60554D02*
Y60794D01*
X23963D01*
Y60554D01*
X23723D01*
X24627Y60474D02*
Y60874D01*
X25027D01*
Y60474D01*
X24627D01*
X24707Y60554D02*
Y60794D01*
X24947D01*
Y60554D01*
X24707D01*
X25611Y60474D02*
Y60874D01*
X26011D01*
Y60474D01*
X25611D01*
X25691Y60554D02*
Y60794D01*
X25931D01*
Y60554D01*
X25691D01*
X26595Y60474D02*
Y60874D01*
X26995D01*
Y60474D01*
X26595D01*
X26675Y60554D02*
Y60794D01*
X26915D01*
Y60554D01*
X26675D01*
X27580Y60474D02*
Y60874D01*
X27980D01*
Y60474D01*
X27580D01*
X27660Y60554D02*
Y60794D01*
X27900D01*
Y60554D01*
X27660D01*
X28564Y60474D02*
Y60874D01*
X28964D01*
Y60474D01*
X28564D01*
X28644Y60554D02*
Y60794D01*
X28884D01*
Y60554D01*
X28644D01*
X29548Y60474D02*
Y60874D01*
X29948D01*
Y60474D01*
X29548D01*
X29628Y60554D02*
Y60794D01*
X29868D01*
Y60554D01*
X29628D01*
X30532Y60474D02*
Y60874D01*
X30932D01*
Y60474D01*
X30532D01*
X30612Y60554D02*
Y60794D01*
X30852D01*
Y60554D01*
X30612D01*
X31517Y60474D02*
Y60874D01*
X31917D01*
Y60474D01*
X31517D01*
X31597Y60554D02*
Y60794D01*
X31837D01*
Y60554D01*
X31597D01*
X32501Y60474D02*
Y60874D01*
X32901D01*
Y60474D01*
X32501D01*
X32581Y60554D02*
Y60794D01*
X32821D01*
Y60554D01*
X32581D01*
X33485Y60474D02*
Y60874D01*
X33885D01*
Y60474D01*
X33485D01*
X33565Y60554D02*
Y60794D01*
X33805D01*
Y60554D01*
X33565D01*
X34469Y60474D02*
Y60874D01*
X34869D01*
Y60474D01*
X34469D01*
X34549Y60554D02*
Y60794D01*
X34789D01*
Y60554D01*
X34549D01*
X35454Y60474D02*
Y60874D01*
X35854D01*
Y60474D01*
X35454D01*
X35534Y60554D02*
Y60794D01*
X35774D01*
Y60554D01*
X35534D01*
X36438Y60474D02*
Y60874D01*
X36838D01*
Y60474D01*
X36438D01*
X36518Y60554D02*
Y60794D01*
X36758D01*
Y60554D01*
X36518D01*
X37422Y60474D02*
Y60874D01*
X37822D01*
Y60474D01*
X37422D01*
X37502Y60554D02*
Y60794D01*
X37742D01*
Y60554D01*
X37502D01*
X38406Y60474D02*
Y60874D01*
X38806D01*
Y60474D01*
X38406D01*
X38486Y60554D02*
Y60794D01*
X38726D01*
Y60554D01*
X38486D01*
X39391Y60474D02*
Y60874D01*
X39791D01*
Y60474D01*
X39391D01*
X39471Y60554D02*
Y60794D01*
X39711D01*
Y60554D01*
X39471D01*
X40375Y60474D02*
Y60874D01*
X40775D01*
Y60474D01*
X40375D01*
X40455Y60554D02*
Y60794D01*
X40695D01*
Y60554D01*
X40455D01*
X41359Y60474D02*
Y60874D01*
X41759D01*
Y60474D01*
X41359D01*
X41439Y60554D02*
Y60794D01*
X41679D01*
Y60554D01*
X41439D01*
X41950Y60278D02*
Y60678D01*
X42350D01*
Y60278D01*
X41950D01*
X42030Y60358D02*
Y60598D01*
X42270D01*
Y60358D01*
X42030D01*
X41950Y58998D02*
Y59398D01*
X42350D01*
Y58998D01*
X41950D01*
X42030Y59078D02*
Y59318D01*
X42270D01*
Y59078D01*
X42030D01*
X42934Y49648D02*
Y50048D01*
X43334D01*
Y49648D01*
X42934D01*
X43014Y49728D02*
Y49968D01*
X43254D01*
Y49728D01*
X43014D01*
X42934Y50632D02*
Y51032D01*
X43334D01*
Y50632D01*
X42934D01*
X43014Y50712D02*
Y50952D01*
X43254D01*
Y50712D01*
X43014D01*
X42934Y51616D02*
Y52016D01*
X43334D01*
Y51616D01*
X42934D01*
X43014Y51696D02*
Y51936D01*
X43254D01*
Y51696D01*
X43014D01*
X42934Y52600D02*
Y53000D01*
X43334D01*
Y52600D01*
X42934D01*
X43014Y52680D02*
Y52920D01*
X43254D01*
Y52680D01*
X43014D01*
X42540Y55160D02*
Y55560D01*
X42940D01*
Y55160D01*
X42540D01*
X42620Y55240D02*
Y55480D01*
X42860D01*
Y55240D01*
X42620D01*
X32445Y54018D02*
X32545Y54118D01*
X32645D01*
X32545Y54218D01*
X32645Y54318D01*
X32545D01*
X32445Y54418D01*
X32345Y54318D01*
X32245D01*
X32345Y54218D01*
X32245Y54118D01*
X32345D01*
X32445Y54018D01*
X32484Y47994D02*
X32584Y48094D01*
X32684D01*
X32584Y48194D01*
X32684Y48294D01*
X32584D01*
X32484Y48394D01*
X32384Y48294D01*
X32284D01*
X32384Y48194D01*
X32284Y48094D01*
X32384D01*
X32484Y47994D01*
D108*
X41661Y41005D02*
G03*
X41661Y41005I-200J0D01*
G01*
X40661D02*
G03*
X40661Y41005I-200J0D01*
G01*
X39661D02*
G03*
X39661Y41005I-200J0D01*
G01*
X38661D02*
G03*
X38661Y41005I-200J0D01*
G01*
X37661D02*
G03*
X37661Y41005I-200J0D01*
G01*
X36661D02*
G03*
X36661Y41005I-200J0D01*
G01*
X27857Y50257D02*
G03*
X27857Y50257I-200J0D01*
G01*
Y51257D02*
G03*
X27857Y51257I-200J0D01*
G01*
Y49257D02*
G03*
X27857Y49257I-200J0D01*
G01*
X26857Y51257D02*
G03*
X26857Y51257I-200J0D01*
G01*
Y49257D02*
G03*
X26857Y49257I-200J0D01*
G01*
Y50257D02*
G03*
X26857Y50257I-200J0D01*
G01*
X27818Y56430D02*
G03*
X27818Y56430I-200J0D01*
G01*
Y55430D02*
G03*
X27818Y55430I-200J0D01*
G01*
Y54430D02*
G03*
X27818Y54430I-200J0D01*
G01*
Y53430D02*
G03*
X27818Y53430I-200J0D01*
G01*
X26818D02*
G03*
X26818Y53430I-200J0D01*
G01*
Y56430D02*
G03*
X26818Y56430I-200J0D01*
G01*
Y55430D02*
G03*
X26818Y55430I-200J0D01*
G01*
Y54430D02*
G03*
X26818Y54430I-200J0D01*
G01*
X33432Y46737D02*
G03*
X33432Y46737I-200J0D01*
G01*
X33905Y51029D02*
G03*
X33905Y51029I-200J0D01*
G01*
X32881D02*
G03*
X32881Y51029I-200J0D01*
G01*
X37842Y51344D02*
G03*
X37842Y51344I-200J0D01*
G01*
X39023Y57052D02*
G03*
X39023Y57052I-200J0D01*
G01*
X32015Y58273D02*
G03*
X32015Y58273I-200J0D01*
G01*
X38039Y53115D02*
G03*
X38039Y53115I-200J0D01*
G01*
X36739Y51659D02*
G03*
X36739Y51659I-200J0D01*
G01*
X26897Y52328D02*
G03*
X26897Y52328I-200J0D01*
G01*
X31661Y51659D02*
G03*
X31661Y51659I-200J0D01*
G01*
Y52958D02*
G03*
X31661Y52958I-200J0D01*
G01*
X38039Y56344D02*
G03*
X38039Y56344I-200J0D01*
G01*
X35558Y52919D02*
G03*
X35558Y52919I-200J0D01*
G01*
X34298Y56265D02*
G03*
X34298Y56265I-200J0D01*
G01*
X24889Y59021D02*
G03*
X24889Y59021I-200J0D01*
G01*
Y57643D02*
G03*
X24889Y57643I-200J0D01*
G01*
X26464Y47919D02*
G03*
X26464Y47919I-200J0D01*
G01*
Y46619D02*
G03*
X26464Y46619I-200J0D01*
G01*
Y45871D02*
G03*
X26464Y45871I-200J0D01*
G01*
X24023Y43430D02*
G03*
X24023Y43430I-200J0D01*
G01*
X25125Y43037D02*
G03*
X25125Y43037I-200J0D01*
G01*
X26543D02*
G03*
X26543Y43037I-200J0D01*
G01*
X25834D02*
G03*
X25834Y43037I-200J0D01*
G01*
X26464Y47289D02*
G03*
X26464Y47289I-200J0D01*
G01*
X24889Y58352D02*
G03*
X24889Y58352I-200J0D01*
G01*
X32133Y43352D02*
G03*
X32133Y43352I-200J0D01*
G01*
X31346D02*
G03*
X31346Y43352I-200J0D01*
G01*
X27527Y44139D02*
G03*
X27527Y44139I-200J0D01*
G01*
X42763Y46147D02*
G03*
X42763Y46147I-200J0D01*
G01*
X41857Y55635D02*
G03*
X41857Y55635I-200J0D01*
G01*
X40661Y58405D02*
G03*
X40661Y58405I-200J0D01*
G01*
Y56205D02*
G03*
X40661Y56205I-200J0D01*
G01*
X36818Y56344D02*
G03*
X36818Y56344I-200J0D01*
G01*
X37291Y52210D02*
G03*
X37291Y52210I-200J0D01*
G01*
X37468Y47722D02*
G03*
X37468Y47722I-200J0D01*
G01*
X36161Y44805D02*
G03*
X36161Y44805I-200J0D01*
G01*
X34161Y47105D02*
G03*
X34161Y47105I-200J0D01*
G01*
X35461Y49805D02*
G03*
X35461Y49805I-200J0D01*
G01*
X35061Y51605D02*
G03*
X35061Y51605I-200J0D01*
G01*
X33561Y53005D02*
G03*
X33561Y53005I-200J0D01*
G01*
X35461Y56305D02*
G03*
X35461Y56305I-200J0D01*
G01*
X31461Y59305D02*
G03*
X31461Y59305I-200J0D01*
G01*
X30461Y58205D02*
G03*
X30461Y58205I-200J0D01*
G01*
X25461Y52305D02*
G03*
X25461Y52305I-200J0D01*
G01*
X23961D02*
G03*
X23961Y52305I-200J0D01*
G01*
X29961Y48305D02*
G03*
X29961Y48305I-200J0D01*
G01*
X28861Y46805D02*
G03*
X28861Y46805I-200J0D01*
G01*
X31461Y45405D02*
G03*
X31461Y45405I-200J0D01*
G01*
X29961Y46005D02*
G03*
X29961Y46005I-200J0D01*
G01*
X19461Y45305D02*
G03*
X19461Y45305I-200J0D01*
G01*
X21861Y46305D02*
G03*
X21861Y46305I-200J0D01*
G01*
X39361Y43705D02*
G03*
X39361Y43705I-200J0D01*
G01*
X38461Y45205D02*
G03*
X38461Y45205I-200J0D01*
G01*
X39961Y49805D02*
G03*
X39961Y49805I-200J0D01*
G01*
X38461Y47105D02*
G03*
X38461Y47105I-200J0D01*
G01*
X41661Y49005D02*
G03*
X41661Y49005I-200J0D01*
G01*
X41761Y46805D02*
G03*
X41761Y46805I-200J0D01*
G01*
X41461Y53005D02*
G03*
X41461Y53005I-200J0D01*
G01*
X40861Y51805D02*
G03*
X40861Y51805I-200J0D01*
G01*
X23461Y56305D02*
G03*
X23461Y56305I-200J0D01*
G01*
X21361D02*
G03*
X21361Y56305I-200J0D01*
G01*
Y52305D02*
G03*
X21361Y52305I-200J0D01*
G01*
X30961Y47705D02*
G03*
X30961Y47705I-200J0D01*
G01*
X31861Y49905D02*
G03*
X31861Y49905I-200J0D01*
G01*
D109*
X33352Y46737D02*
G03*
X33352Y46737I-120J0D01*
G01*
X33825Y51029D02*
G03*
X33825Y51029I-120J0D01*
G01*
X32801D02*
G03*
X32801Y51029I-120J0D01*
G01*
X37762Y51344D02*
G03*
X37762Y51344I-120J0D01*
G01*
X38943Y57052D02*
G03*
X38943Y57052I-120J0D01*
G01*
X31935Y58273D02*
G03*
X31935Y58273I-120J0D01*
G01*
X37959Y53115D02*
G03*
X37959Y53115I-120J0D01*
G01*
X36659Y51659D02*
G03*
X36659Y51659I-120J0D01*
G01*
X26817Y52328D02*
G03*
X26817Y52328I-120J0D01*
G01*
X31581Y51659D02*
G03*
X31581Y51659I-120J0D01*
G01*
Y52958D02*
G03*
X31581Y52958I-120J0D01*
G01*
X37959Y56344D02*
G03*
X37959Y56344I-120J0D01*
G01*
X35478Y52919D02*
G03*
X35478Y52919I-120J0D01*
G01*
X34218Y56265D02*
G03*
X34218Y56265I-120J0D01*
G01*
X24809Y59021D02*
G03*
X24809Y59021I-120J0D01*
G01*
Y57643D02*
G03*
X24809Y57643I-120J0D01*
G01*
X26384Y47919D02*
G03*
X26384Y47919I-120J0D01*
G01*
Y46619D02*
G03*
X26384Y46619I-120J0D01*
G01*
Y45871D02*
G03*
X26384Y45871I-120J0D01*
G01*
X23943Y43430D02*
G03*
X23943Y43430I-120J0D01*
G01*
X25045Y43037D02*
G03*
X25045Y43037I-120J0D01*
G01*
X26463D02*
G03*
X26463Y43037I-120J0D01*
G01*
X25754D02*
G03*
X25754Y43037I-120J0D01*
G01*
X26384Y47289D02*
G03*
X26384Y47289I-120J0D01*
G01*
X24809Y58352D02*
G03*
X24809Y58352I-120J0D01*
G01*
X32053Y43352D02*
G03*
X32053Y43352I-120J0D01*
G01*
X31266D02*
G03*
X31266Y43352I-120J0D01*
G01*
X27447Y44139D02*
G03*
X27447Y44139I-120J0D01*
G01*
X42683Y46147D02*
G03*
X42683Y46147I-120J0D01*
G01*
X41777Y55635D02*
G03*
X41777Y55635I-120J0D01*
G01*
X40581Y58405D02*
G03*
X40581Y58405I-120J0D01*
G01*
Y56205D02*
G03*
X40581Y56205I-120J0D01*
G01*
X36738Y56344D02*
G03*
X36738Y56344I-120J0D01*
G01*
X37211Y52210D02*
G03*
X37211Y52210I-120J0D01*
G01*
X37388Y47722D02*
G03*
X37388Y47722I-120J0D01*
G01*
X36081Y44805D02*
G03*
X36081Y44805I-120J0D01*
G01*
X34081Y47105D02*
G03*
X34081Y47105I-120J0D01*
G01*
X35381Y49805D02*
G03*
X35381Y49805I-120J0D01*
G01*
X34981Y51605D02*
G03*
X34981Y51605I-120J0D01*
G01*
X33481Y53005D02*
G03*
X33481Y53005I-120J0D01*
G01*
X35381Y56305D02*
G03*
X35381Y56305I-120J0D01*
G01*
X31381Y59305D02*
G03*
X31381Y59305I-120J0D01*
G01*
X30381Y58205D02*
G03*
X30381Y58205I-120J0D01*
G01*
X25381Y52305D02*
G03*
X25381Y52305I-120J0D01*
G01*
X23881D02*
G03*
X23881Y52305I-120J0D01*
G01*
X29881Y48305D02*
G03*
X29881Y48305I-120J0D01*
G01*
X28781Y46805D02*
G03*
X28781Y46805I-120J0D01*
G01*
X31381Y45405D02*
G03*
X31381Y45405I-120J0D01*
G01*
X29881Y46005D02*
G03*
X29881Y46005I-120J0D01*
G01*
X19381Y45305D02*
G03*
X19381Y45305I-120J0D01*
G01*
X21781Y46305D02*
G03*
X21781Y46305I-120J0D01*
G01*
X39281Y43705D02*
G03*
X39281Y43705I-120J0D01*
G01*
X38381Y45205D02*
G03*
X38381Y45205I-120J0D01*
G01*
X39881Y49805D02*
G03*
X39881Y49805I-120J0D01*
G01*
X38381Y47105D02*
G03*
X38381Y47105I-120J0D01*
G01*
X41581Y49005D02*
G03*
X41581Y49005I-120J0D01*
G01*
X41681Y46805D02*
G03*
X41681Y46805I-120J0D01*
G01*
X41381Y53005D02*
G03*
X41381Y53005I-120J0D01*
G01*
X40781Y51805D02*
G03*
X40781Y51805I-120J0D01*
G01*
X23381Y56305D02*
G03*
X23381Y56305I-120J0D01*
G01*
X21281D02*
G03*
X21281Y56305I-120J0D01*
G01*
Y52305D02*
G03*
X21281Y52305I-120J0D01*
G01*
X30881Y47705D02*
G03*
X30881Y47705I-120J0D01*
G01*
X31781Y49905D02*
G03*
X31781Y49905I-120J0D01*
G01*
M02*
